<svg xmlns="http://www.w3.org/2000/svg" xmlns:xlink="http://www.w3.org/1999/xlink" viewBox="0 0 258.30913 87.85622"><defs><style>.cls-1{fill:#231815;}.cls-2{fill:none;}.cls-3{clip-path:url(#clip-path);}.cls-4{fill:#f5d0cf;}.cls-5{mask:url(#mask);}.cls-6{fill:#fff;}.cls-7{fill:#ea9fa6;}.cls-8{fill:#599eb0;}.cls-9{font-size:25.7639px;font-family:NymphaTrial-Regular, Nympha Trial;letter-spacing:0.13001em;}.cls-12,.cls-9{fill:#d70051;}.cls-10{letter-spacing:0.12198em;}.cls-11{letter-spacing:0.13998em;}.cls-12{font-size:8.52333px;font-family:JCkg, GungSeo;}.cls-13{fill:#c8e6df;}.cls-14{filter:url(#luminosity-noclip);}</style><clipPath id="clip-path"><rect class="cls-2" width="258.30913" height="87.85622"/></clipPath><filter id="luminosity-noclip" x="16.22317" y="16.87562" width="226.86716" height="52.19779" filterUnits="userSpaceOnUse" color-interpolation-filters="sRGB"><feFlood flood-color="#fff" result="bg"/><feBlend in="SourceGraphic" in2="bg"/></filter><mask id="mask" x="16.22317" y="16.87562" width="226.86716" height="52.19779" maskUnits="userSpaceOnUse"><g class="cls-14"><path class="cls-1" d="M219.73773,54.11654l-.05966-.05965a2.64919,2.64919,0,0,0-3.73936.00069l-.19422.19353-.32808-.32809.19352-.19352a2.64792,2.64792,0,0,0,0-3.74075l-.059-.05966a2.64834,2.64834,0,0,0-3.74.0007l-.19422.19352-.19352-.19422a2.64668,2.64668,0,0,0-3.74006.0007l-.059.059a2.64834,2.64834,0,0,0,0,3.74075l.19352.19352-.32878.32809-.19421-.19422a2.65,2.65,0,0,0-3.74422.00486l-.0548.05549a2.64919,2.64919,0,0,0,0,3.74l.059.059a2.6475,2.6475,0,0,0,3.74144,0l.19283-.19352.32878.32809-.19352.19421a2.6496,2.6496,0,0,0,.00347,3.74422l.05549.0548a2.64834,2.64834,0,0,0,3.74075,0l.19283-.19353.19422.19353a2.64582,2.64582,0,0,0,3.74,0l.05965-.05965a2.64921,2.64921,0,0,0-.00069-3.73937l-.19352-.19421.32808-.32809.19422.19352a2.64583,2.64583,0,0,0,3.74006,0l.05965-.05965a2.65,2.65,0,0,0-.00069-3.74006Z"/><path class="cls-1" d="M55.26906,54.05689a2.64921,2.64921,0,0,0-3.73937.00069l-.19421.19353-.32809-.32809.19352-.19352a2.64792,2.64792,0,0,0,0-3.74075l-.059-.05966a2.64834,2.64834,0,0,0-3.74005.0007l-.19422.19352-.19352-.19422a2.64668,2.64668,0,0,0-3.74006.0007l-.059.059a2.64836,2.64836,0,0,0,0,3.74075l.19353.19352-.32878.32809-.19422-.19422a2.65,2.65,0,0,0-3.74422.00486l-.0548.05549a2.64919,2.64919,0,0,0,0,3.74l.059.059a2.64751,2.64751,0,0,0,3.74145,0l.19283-.19352.32878.32809-.19353.19421a2.6496,2.6496,0,0,0,.00347,3.74422l.05549.0548a2.64834,2.64834,0,0,0,3.74075,0l.19283-.19353.19422.19353a2.64582,2.64582,0,0,0,3.74005,0l.05966-.05965a2.64919,2.64919,0,0,0-.0007-3.73937l-.19352-.19421.32809-.32809.19421.19352a2.64583,2.64583,0,0,0,3.74006,0l.05965-.05965a2.65,2.65,0,0,0-.00069-3.74006Z"/></g></mask></defs><g id="圖層_6" data-name="圖層 6"><g class="cls-3"><path class="cls-4" d="M67.31612,21.04691a12.46181,12.46181,0,0,0-3.27325.88545,13.28432,13.28432,0,0,0-2.8995,1.73l-.50239-.47644a12.08716,12.08716,0,0,1,6.53664-2.82645l.1385.42775Z"/><path class="cls-4" d="M67.31612,22.17224c-.31934.07268-.63883.14472-.958.21816a11.06374,11.06374,0,0,0-4.29231,2.02925c-.03374.02585-.07185.046-.15158.09641l-.47921-.54817a9.72841,9.72841,0,0,1,1.38633-.9651,11.96847,11.96847,0,0,1,4.151-1.49837c.11277-.019.22908-.017.34375-.02469Z"/><path class="cls-4" d="M50.60934,4.42669c.31979.05755.64.11284.9593.1731a7.10148,7.10148,0,0,1,2.29584.841,10.0671,10.0671,0,0,0-2.62145-.321,7.93758,7.93758,0,0,0-2.56634.52589l-.90187-.3923a6.69281,6.69281,0,0,1,1.74158-.64629c.27526-.06991.55535-.12084.83324-.18037Z"/><path class="cls-4" d="M30.61313,17.67093l.14235-.15308a11.83511,11.83511,0,0,1,2.96361,2.11761l-.89194.08626-2.214-1.44485Z"/><path class="cls-4" d="M30.61313,18.79625a6.51516,6.51516,0,0,1,.6057.30874c.29824.19115.5808.40676.95073.66931l-.9994.19166-.41522-.27777-.14181-.45912Z"/><path class="cls-4" d="M35.06519,18.54324l-.49448-.45953c4.50381-4.11848,13.14753-4.32213,18.10919,1.58825h-.94564A12.38592,12.38592,0,0,0,35.06519,18.54324Z"/><path class="cls-4" d="M43.761,33.88883l-.502-.47848A12.907,12.907,0,0,1,61.36521,35.034l-.98278-.05A12.32064,12.32064,0,0,0,43.761,33.88883Z"/><path class="cls-4" d="M51.711,29.89005a12.3783,12.3783,0,0,0-16.64694-1.13153l-.53023-.47422c.09907-.08857.17582-.16651.26171-.23258a12.94634,12.94634,0,0,1,6.17552-2.604,13.13054,13.13054,0,0,1,5.92557.52844c.43588.1396.85016.28281,1.02612.80243l.34514-.25424a13.171,13.171,0,0,1,4.47521,3.40381c-.24-.01644-.39776-.03147-.55581-.03689C52.02953,29.88584,51.87142,29.89005,51.711,29.89005Z"/><path class="cls-4" d="M52.68637,40.16192l-.99365-.07208a12.3539,12.3539,0,0,0-15.11424-2.13015l-.60615-.40316c.8846-1.04754,5.0702-2.13862,7.27692-2.02789A12.85942,12.85942,0,0,1,52.68637,40.16192Z"/><path class="cls-4" d="M59.79482,14.53988c-.20374.01095-.36141.01665-.5186.02865-.15666.01195-.31285.0302-.4533.04411a11.23743,11.23743,0,0,0-14.28616-.32173l-.47366-.53169A11.85709,11.85709,0,0,1,59.79482,14.53988Z"/><path class="cls-4" d="M44.04858,34.197a11.8783,11.8783,0,0,1,15.72048.7779l-.95843.09484a11.19436,11.19436,0,0,0-14.26226-.33391Z"/><path class="cls-4" d="M51.08,19.64363l-.939.08312a11.282,11.282,0,0,0-14.30886-.33439l-.45632-.5084A11.80822,11.80822,0,0,1,51.08,19.64363Z"/><path class="cls-4" d="M51.0438,29.86481l-.934.09343a11.14077,11.14077,0,0,0-14.286-.29732c-.07256-.10052-.136-.19525-.2066-.28428-.071-.08958-.14921-.17349-.22416-.25976A11.7394,11.7394,0,0,1,51.0438,29.86481Z"/><path class="cls-4" d="M58.2074,11.87024v.82924a12.45637,12.45637,0,0,0-14.45753.72637l-.49482-.46141A12.88891,12.88891,0,0,1,58.2074,11.87024Z"/><path class="cls-4" d="M53.22763,19.40458l-.47556-.53227a11.83358,11.83358,0,0,1,13.85248-.71537c.08957.2448.19513.52644.295.81011.03163.08988.048.18515.08007.31272A11.25941,11.25941,0,0,0,53.22763,19.40458Z"/><path class="cls-4" d="M52.45123,18.55881l-.53862-.50913c.11719-.09911.21987-.195.33147-.279a13.11577,13.11577,0,0,1,12.81154-1.73512,1.02023,1.02023,0,0,1,.50456.385c.184.27538.37544.5458.56091.82021a.71484.71484,0,0,1,.04641.15677,12.31494,12.31494,0,0,0-13.71627,1.16126Z"/><path class="cls-4" d="M65.5656,26.52411l-.47227.53672A12.45348,12.45348,0,0,0,52.434,28.7644l-.5085-.48264A12.89472,12.89472,0,0,1,65.5656,26.52411Z"/><path class="cls-4" d="M44.06148,24.8272c-.23712-.0196-.39272-.03756-.54879-.04394-.15784-.00645-.31614-.00142-.48443-.00142a12.48455,12.48455,0,0,0-5.47555-3.33364,12.34739,12.34739,0,0,0-6.37509-.14968,1.21109,1.21109,0,0,1-.22642-.70357,12.773,12.773,0,0,1,7.11024.22876A12.95948,12.95948,0,0,1,44.06148,24.8272Z"/><path class="cls-4" d="M45.66986,14.84009c-.23667-.042-.50535-.08856-.77319-.13952-.02152-.00409-.03723-.03862-.0556-.059a10.60533,10.60533,0,0,1,13.33064.02852c-.17627.03585-.32018.06723-.46495.094-.15492.02863-.31065.0529-.42613.07235A10.23392,10.23392,0,0,0,45.66986,14.84009Z"/><path class="cls-4" d="M66.84771,19.80044l-.87139.15582a10.211,10.211,0,0,0-11.6151-.00643c-.095-.01477-.25073-.03429-.40441-.0643-.13616-.02659-.27-.06485-.41455-.10032.71743-1.04452,3.90319-2.27125,6.023-2.3758A10.33694,10.33694,0,0,1,66.84771,19.80044Z"/><path class="cls-4" d="M49.52615,30.00777l-.976.18313a10.05743,10.05743,0,0,0-11.52183-.00255l-.94741-.17945c.13993-.1274.22247-.21819.3197-.28872a10.806,10.806,0,0,1,12.71406-.03624C49.23964,29.77331,49.35662,29.87385,49.52615,30.00777Z"/><path class="cls-4" d="M49.45324,19.78349c-.0108.00783-.0207.02061-.03254.02278-.28225.05168-.56472.10223-.82484.149a10.21072,10.21072,0,0,0-11.62247.00076l-.82743-.15779c.72939-1.0437,3.88658-2.26511,5.98812-2.38456A10.37281,10.37281,0,0,1,49.45324,19.78349Z"/><path class="cls-4" d="M45.66665,35.30106l-.84145-.1716c.82932-1.06283,3.75848-2.251,5.95391-2.37327A10.64446,10.64446,0,0,1,58.18336,35.08c-.029.03615-.03508.05165-.04377.05331-.29626.05683-.59277.11236-.85082.16084A10.18826,10.18826,0,0,0,45.66665,35.30106Z"/><path class="cls-4" d="M50.83533,20.82452a8.57346,8.57346,0,0,1-2.55213-.15023c1.0485-.66926,4.88986-.59345,7.12173.13171A13.136,13.136,0,0,1,61.439,24.82419l-.99776-.064c-.59194-.497-1.13022-.99963-1.719-1.43372a11.75874,11.75874,0,0,0-5.92387-2.29164c-.51464-.05032-1.034-.05373-1.55143-.07326C51.0885,20.95556,50.926,20.9787,50.83533,20.82452Z"/><path class="cls-4" d="M53.22042,29.61684l-.46431-.51613a11.72192,11.72192,0,0,1,11.98171-1.67915l-.57654.507A11.28963,11.28963,0,0,0,53.22042,29.61684Z"/><path class="cls-4" d="M44.069,35.05576l-1.05358-.07686a12.42854,12.42854,0,0,0-10.28449-3.74637v-.723a12.76225,12.76225,0,0,1,6.11684.81677A13.06677,13.06677,0,0,1,44.069,35.05576Z"/><path class="cls-4" d="M31.61522,22.366l-.30709-.628a11.66734,11.66734,0,0,1,11.07459,3.00873l-.93965.10017A11.24754,11.24754,0,0,0,31.61522,22.366Z"/><path class="cls-4" d="M47.20564,15.27331l-.893-.28031a9.45105,9.45105,0,0,1,10.3411-.00618l-.90289.28584A8.93978,8.93978,0,0,0,47.20564,15.27331Z"/><path class="cls-4" d="M56.65936,35.44484l-.90772.27164a8.95592,8.95592,0,0,0-8.53961.00178l-.88171-.26143A9.37565,9.37565,0,0,1,56.65936,35.44484Z"/><path class="cls-4" d="M65.36709,20.09859l-.92193.28023a8.99959,8.99959,0,0,0-8.53445-.00667c-.1255-.03312-.27784-.06886-.42732-.114-.14787-.04469-.29286-.09892-.45652-.15493A9.46639,9.46639,0,0,1,65.36709,20.09859Z"/><path class="cls-4" d="M38.52012,30.60783l-.88328-.27127a9.35524,9.35524,0,0,1,10.29774-.00474l-.87542.27561A8.94256,8.94256,0,0,0,38.52012,30.60783Z"/><path class="cls-4" d="M47.17739,20.36515c-.334-.12883-.65607-.24843-.97465-.37668a8.79179,8.79179,0,0,0-7.32651.225c-.11651.055-.23249.111-.35372.169l-.8808-.27a9.40931,9.40931,0,0,1,10.28956-.03877C47.71374,20.24166,47.44126,20.22872,47.17739,20.36515Z"/><path class="cls-4" d="M42.39616,34.979l-.96159.0903a11.199,11.199,0,0,0-8.59-2.67578c-.02532-.12877-.05505-.23566-.06531-.34438-.01062-.1126-.00236-.227-.00236-.33937A11.54214,11.54214,0,0,1,42.39616,34.979Z"/><path class="cls-4" d="M63.71372,28.24962l-.80217.4879A10.12254,10.12254,0,0,0,54.402,30.18708c-.19118-.03365-.37492-.06393-.55773-.099-.09748-.01871-.19336-.04576-.29964-.07137.009-.18869.16316-.23852.27066-.31715a10.58636,10.58636,0,0,1,4.57481-1.92335,10.72381,10.72381,0,0,1,5.078.36736C63.53185,28.16377,63.59161,28.1964,63.71372,28.24962Z"/><path class="cls-4" d="M51.89885,38.4825a13.1965,13.1965,0,0,1,9.30924-2.90793l-.28066.71105a13.3319,13.3319,0,0,0-4.46127.57182,12.47921,12.47921,0,0,0-3.9837,2.12652C52.24332,38.88172,52.11978,38.66033,51.89885,38.4825Z"/><path class="cls-4" d="M50.94127,22.097a2.36057,2.36057,0,0,1-.05378-.27964c-.00816-.12639-.00213-.2537-.00213-.37321,2.46455-.53595,7.36943,1.30288,8.86054,3.312l-.93869.08678A11.28392,11.28392,0,0,0,50.94127,22.097Z"/><path class="cls-4" d="M46.27871,37.21619l-.73048.55637a11.40559,11.40559,0,0,0-7.726.827l-.83318-.388a10.38156,10.38156,0,0,1,3.07223-1.20529A12.07814,12.07814,0,0,1,46.27871,37.21619Z"/><path class="cls-4" d="M39.85233,25.07577a10.12126,10.12126,0,0,0-7.55064-1.66592l-.4201-.57585a8.2855,8.2855,0,0,1,3.76261-.21456,10.71486,10.71486,0,0,1,5.20493,2.27861Z"/><path class="cls-4" d="M35.06416,11.17a11.87843,11.87843,0,0,1,7.36349,3.36054l-1.00461.08174a11.23964,11.23964,0,0,0-7.431-2.73948A5.30266,5.30266,0,0,1,35.06416,11.17Z"/><path class="cls-4" d="M44.01979,14.56958h-.97771a13.17107,13.17107,0,0,0-3.28484-2.45965,12.69857,12.69857,0,0,0-3.82682-1.2501l.00786-.09838c.42541-.11562.84853-.24112,1.27773-.34034a.82988.82988,0,0,1,.37793.0433,12.54938,12.54938,0,0,1,4.79064,2.49328c.47582.39442.90623.844,1.35255,1.27334A4.07178,4.07178,0,0,1,44.01979,14.56958Z"/><path class="cls-4" d="M60.66183,36.76858c-.04562.0923-.08391.18387-.13419.2683-.08046.13514-.16888.26554-.264.41362a11.06176,11.06176,0,0,0-7.03333,2.39968l-.46568-.52013C54.21308,37.75439,58.73594,36.28913,60.66183,36.76858Z"/><path class="cls-4" d="M33.109,33.528l-.19345-.6971a4.52465,4.52465,0,0,1,.48205-.07781,10.75126,10.75126,0,0,1,7.23524,2.19249c.0556.042.103.095.18287.1696-.18264.04093-.329.07774-.477.10579-.15493.02936-.31145.05031-.49025.07856A10.01757,10.01757,0,0,0,33.109,33.528Z"/><path class="cls-4" d="M40.76162,14.69686l-.91374.14916a10.10749,10.10749,0,0,0-7.22465-1.70815c.0983-.12144.16692-.2137.24353-.29876.077-.08551.16558-.16061.2425-.24619.08678-.09652.16622-.19964.22771-.27425A10.32388,10.32388,0,0,1,40.76162,14.69686Z"/><path class="cls-4" d="M46.29,5.34573a13.0978,13.0978,0,0,1,6.42092,4.1021H51.703A12.48061,12.48061,0,0,0,45.395,5.885Z"/><path class="cls-4" d="M58.16206,24.91014l-.92682.1713a9.99759,9.99759,0,0,0-6.13962-1.812l-.13875-.689C52.81134,22.158,56.95743,23.50348,58.16206,24.91014Z"/><path class="cls-4" d="M31.63379,14.51437c.11562-.19373.19329-.3302.27721-.46271.08452-.13347.17525-.263.28314-.42392a9.7148,9.7148,0,0,1,7.12091,1.342l-.93121.29568A9.22571,9.22571,0,0,0,31.63379,14.51437Z"/><path class="cls-4" d="M44.20949,6.85572,44.94,6.22107a11.79121,11.79121,0,0,1,6.18438,3.20154L50.109,9.49888A11.2532,11.2532,0,0,0,44.20949,6.85572Z"/><path class="cls-4" d="M48.65394,15.86126l-.91525-.40058a8.61833,8.61833,0,0,1,7.48385-.00723l-.91976.40793A7.935,7.935,0,0,0,48.65394,15.86126Z"/><path class="cls-4" d="M54.28267,36.319a7.56738,7.56738,0,0,0-2.82144-.53323,7.456,7.456,0,0,0-2.78641.53258l-.88491-.38817a8.2799,8.2799,0,0,1,7.38952-.01112Z"/><path class="cls-4" d="M57.36226,20.98247c-.27919-.123-.52881-.2323-.77763-.34345a.38688.38688,0,0,1-.06852-.05075,8.21606,8.21606,0,0,1,7.35205-.00586l-.88621.39826a8.13712,8.13712,0,0,0-2.81672-.52664A7.88161,7.88161,0,0,0,57.36226,20.98247Z"/><path class="cls-4" d="M39.984,20.98187l-.87778-.38259a8.21622,8.21622,0,0,1,7.37435-.01439l-.88514.39709A7.71922,7.71922,0,0,0,39.984,20.98187Z"/><path class="cls-4" d="M39.9857,31.20468l-.94519-.41411a8.70854,8.70854,0,0,1,7.48923-.005l-.93044.41859A7.75592,7.75592,0,0,0,39.9857,31.20468Z"/><path class="cls-4" d="M55.91727,30.607l-.88032-.26377c1.17709-1.24233,5.4528-2.01655,7.18155-1.28592-.259.09086-.48.171-.7028.24582-.23015.07732-.462.14952-.73779.23833A8.95069,8.95069,0,0,0,55.91727,30.607Z"/><path class="cls-4" d="M31.12776,15.76748a.60119.60119,0,0,1,.01451-.16108c.069-.18735.14651-.37153.22419-.56524a8.61424,8.61424,0,0,1,6.46574.41652l-.92889.41242a7.70314,7.70314,0,0,0-5.32677-.10378A.46874.46874,0,0,1,31.12776,15.76748Z"/><path class="cls-4" d="M33.22951,24.44533c-.2104-.225-.46764-.37249-.58509-.67476a9.745,9.745,0,0,1,6.66615,1.42314c-.20659.06992-.34927.12223-.49447.16624-.15089.04575-.30421.08348-.47948.13095A9.02077,9.02077,0,0,0,33.22951,24.44533Z"/><path class="cls-4" d="M54.404,40.4166c-.25743-.05006-.49646-.09536-.73481-.144a1.07437,1.07437,0,0,1-.15194-.06149,1.66416,1.66416,0,0,1,.20142-.21865,10.4319,10.4319,0,0,1,4.58855-1.97718c.52192-.08662,1.05123-.12867,1.64807-.19955a3.23811,3.23811,0,0,1-.66762.81169A10.04333,10.04333,0,0,0,54.404,40.4166Z"/><path class="cls-4" d="M49.54949,9.56294l-1.00532.17462a10.37152,10.37152,0,0,0-2.44736-1.254,9.87,9.87,0,0,0-2.72172-.53607,2.72121,2.72121,0,0,1,.493-.713A10.72627,10.72627,0,0,1,49.54949,9.56294Z"/><path class="cls-4" d="M39.26482,35.44611l-.89572.27053a9.31839,9.31839,0,0,0-4.789-1.087c-.05412-.09708-.12224-.2039-.17471-.31792-.0471-.10235-.077-.21262-.11486-.32053A8.8,8.8,0,0,1,39.26482,35.44611Z"/><path class="cls-4" d="M44.92653,38.15212c-.12655.06651-.25492.12981-.37931.20014a2.1227,2.1227,0,0,1-1.2391.26979,9.64553,9.64553,0,0,0-3.37182.38034,1.3693,1.3693,0,0,1-.5917.03724,2.20912,2.20912,0,0,1-.91018-.27739,10.82071,10.82071,0,0,1,6.47633-.70164Z"/><path class="cls-4" d="M56.6938,25.20138l-.95728.29635a9.02877,9.02877,0,0,0-4.30318-1.0817l-.24684-.75332A9.82325,9.82325,0,0,1,56.6938,25.20138Z"/><path class="cls-4" d="M35.28289,19.69449l-.97507-.04362a12.79353,12.79353,0,0,0-3.5258-2.58078,3.34221,3.34221,0,0,1,.02991-.34734,3.24991,3.24991,0,0,1,.095-.326A10.82961,10.82961,0,0,1,35.28289,19.69449Z"/><path class="cls-4" d="M67.21712,22.64619l-.14774.70942c-.72766.23988-1.42544.42246-2.08311.7-.65937.2783-1.27874.65139-1.96925,1.01084l-.89643-.17741A10.68651,10.68651,0,0,1,67.21712,22.64619Z"/><path class="cls-4" d="M48.00391,9.864l-.96068.29942a8.89255,8.89255,0,0,0-4.38875-1.08237l.38939-.74351A9.62579,9.62579,0,0,1,48.00391,9.864Z"/><path class="cls-4" d="M49.24139,25.86366a6.417,6.417,0,0,1,2.42141-.99633,3.85756,3.85756,0,0,1,1.19864.07593,7.53856,7.53856,0,0,1,2.33093.74591l-.91115.405A7.98463,7.98463,0,0,0,49.24139,25.86366Z"/><path class="cls-4" d="M61.38087,30.69307c-.73955.01456-1.41493-.01969-2.0782.05442-.65081.07273-1.2893.25564-2.037.41189l-.8309-.35616a8.51451,8.51451,0,0,1,4.71433-.81183Z"/><path class="cls-4" d="M51.10287,40.08624l-.92851.09123c-.5832-.40174-1.1235-.77923-1.67007-1.14739a2.91311,2.91311,0,0,0-.56143-.31771,2.96571,2.96571,0,0,1-1.28306-1.3278A11.29751,11.29751,0,0,1,51.10287,40.08624Z"/><path class="cls-4" d="M45.59291,10.75791a8.18859,8.18859,0,0,0-3.40214-.51585l.26671-.756a8.49507,8.49507,0,0,1,4.04891.86826Z"/><path class="cls-4" d="M31.85025,16.15251a6.523,6.523,0,0,1,4.47424.0084l-.81036.47733a7.606,7.606,0,0,0-2.82537.00484Z"/><path class="cls-4" d="M45.04314,21.26017l-.84373.49242a7.27516,7.27516,0,0,0-2.81172.00473l-.85511-.49318A6.713,6.713,0,0,1,45.04314,21.26017Z"/><path class="cls-4" d="M53.72712,16.1508l-.78581.46078c-.5029-.03461-.97421-.09187-1.4456-.09253-.47178-.00066-.94363.05523-1.482.09072l-.76266-.4433A6.49446,6.49446,0,0,1,53.72712,16.1508Z"/><path class="cls-4" d="M62.42814,21.25952l-.85063.4923a7.33853,7.33853,0,0,0-2.81093.0039l-.85042-.49211A6.71913,6.71913,0,0,1,62.42814,21.25952Z"/><path class="cls-4" d="M50.06245,26.86684l-.83408-.49494a6.74132,6.74132,0,0,1,4.51131-.0007c-.15662.08937-.28315.16031-.40844.23339-.13625.07948-.27135.161-.43543.2585A7.43774,7.43774,0,0,0,50.06245,26.86684Z"/><path class="cls-4" d="M45.04176,31.48129l-.84293.49352a7.4356,7.4356,0,0,0-2.8159.00126l-.82865-.47585A6.48116,6.48116,0,0,1,45.04176,31.48129Z"/><path class="cls-4" d="M50.0536,37.08542l-.86579-.5154a7.29946,7.29946,0,0,1,4.57391-.00214l-.85338.51563A7.94464,7.94464,0,0,0,50.0536,37.08542Z"/><path class="cls-4" d="M50.076,6.424l-.80866-.47315c.66384-.50925,3.37406-.57433,4.453-.02563l-.83982.496A6.84414,6.84414,0,0,0,50.076,6.424Z"/><path class="cls-4" d="M41.9922,10.87631l.11736-.19941a7.0416,7.0416,0,0,1,2.95522.33854l-.81336.4855c-.50187-.03337-.97371-.08821-1.4457-.08952-.4723-.00131-.94474.05087-1.48792.08391l-.75738-.44382A1.65546,1.65546,0,0,1,41.9922,10.87631Z"/><path class="cls-4" d="M53.23192,9.18677l-.49448-.55523a11.462,11.462,0,0,1,3.08984-1.79782l.53025.58835A11.78217,11.78217,0,0,0,53.23192,9.18677Z"/><path class="cls-4" d="M52.47436,8.3247c-.09786-.08067-.18746-.15035-.27216-.22553-.08573-.0761-.16662-.15766-.28584-.27136a12.119,12.119,0,0,1,2.92369-1.82542l.6576.52441A12.97093,12.97093,0,0,0,52.47436,8.3247Z"/><path class="cls-4" d="M37.77007,35.93284l-.85972.381a8.21555,8.21555,0,0,0-2.65287-.51742l-.43186-.65632A6.77774,6.77774,0,0,1,37.77007,35.93284Z"/><path class="cls-4" d="M46.54361,21.266l-.33562.80266-2.46531,1.54852-.45106-.51488a12.32352,12.32352,0,0,1,3.1719-1.89759Z"/><path class="cls-4" d="M56.62533,7.76991l.417.60771c-.4721.2096-.93157.3921-1.37075.61464-.43437.2201-.84827.48064-1.30181.741L53.43184,9.556A10.46313,10.46313,0,0,1,56.62533,7.76991Z"/><path class="cls-4" d="M61.49534,31.21179l.13481.74821c-.35218-.03752-.65671-.08273-.96279-.099a8.82413,8.82413,0,0,0-.94683-.00232c-.31452.01709-.62729.0663-.98216.10606l-.86188-.50193A7.182,7.182,0,0,1,61.49534,31.21179Z"/><path class="cls-4" d="M37.82625,25.68725l-.87644.38577c-.51836-.13153-1.01646-.25794-1.51459-.38426a.4762.4762,0,0,0-.12537-.02924c-.65007.023-1.0666-.41733-1.62678-.79055A8.02246,8.02246,0,0,1,37.82625,25.68725Z"/><path class="cls-4" d="M64.54921,25.47866l-.81726-.24574a7.05439,7.05439,0,0,1,3.10915-1.31257c.00723.28784.00042.31111-.21236.73167Z"/><path class="cls-4" d="M58.63537,39.16756a7.35283,7.35283,0,0,1-2.95749,1.59189l-.72266-.21673A8.618,8.618,0,0,1,58.63537,39.16756Z"/><path class="cls-4" d="M33.03774,28.69024l.24382-.71745a12.64609,12.64609,0,0,1,2.08256,1.96588L34.321,29.86882Z"/><path class="cls-4" d="M57.26963,8.78136l.30622.63639-1.70027.73424-.91166-.28154A8.51508,8.51508,0,0,1,57.26963,8.78136Z"/><path class="cls-4" d="M61.39666,14.56064h-.95449l-1.40021-1.255a3.38407,3.38407,0,0,1,1.18989.05127A9.29624,9.29624,0,0,1,61.39666,14.56064Z"/><path class="cls-4" d="M34.41987,25.98122a6.586,6.586,0,0,1,1.95475.37328l-.83185.49168-1.556-.14969A2.11259,2.11259,0,0,1,34.41987,25.98122Z"/><path class="cls-4" d="M45.72243,22.92379l-.66715.91544.10825.21232-.628.46317-.48092-.54652A5.93442,5.93442,0,0,1,45.72243,22.92379Z"/><path class="cls-4" d="M57.966,10.53828l-.602.222-.91834-.40793a5.24807,5.24807,0,0,1,1.29658-.49848Z"/><path class="cls-4" d="M54.28438,41.00246a6.95423,6.95423,0,0,1-3.15927-.33452A10.88418,10.88418,0,0,1,54.28438,41.00246Z"/><path class="cls-4" d="M60.585,33.37443l1.04438-.77234a2.36739,2.36739,0,0,1,.00542.906l-.4711.37481Z"/><path class="cls-4" d="M43.66824,32.32431l-.87661.67253-.88354-.66349A3.96015,3.96015,0,0,1,43.66824,32.32431Z"/><path class="cls-4" d="M34.607,36.22a6.18675,6.18675,0,0,1,1.75832.35766l-.8699.51758A3.38608,3.38608,0,0,1,34.607,36.22Z"/><path class="cls-4" d="M52.35324,27.21761l-.873.66556-.87933-.66124A3.84367,3.84367,0,0,1,52.35324,27.21761Z"/><path class="cls-4" d="M52.37947,6.74826l-.89918.68906-.90184-.6844A5.70282,5.70282,0,0,1,52.37947,6.74826Z"/><path class="cls-4" d="M59.293,32.33441a3.9698,3.9698,0,0,1,1.754-.0089l-.87632.67087Z"/><path class="cls-4" d="M60.16867,22.773l-.881-.66691a4.62742,4.62742,0,0,1,1.78027-.02135Z"/><path class="cls-4" d="M50.58736,16.98562a4.302,4.302,0,0,1,1.765.00929l-.87467.66328Z"/><path class="cls-4" d="M34.97591,16.99171l-.87727.6655-.8925-.67078A4.40609,4.40609,0,0,1,34.97591,16.99171Z"/><path class="cls-4" d="M43.68127,22.09338l-.895.67609-.8796-.6618A4.33394,4.33394,0,0,1,43.68127,22.09338Z"/><path class="cls-4" d="M42.77423,12.54082l-.87718-.67256A5.4329,5.4329,0,0,1,43.67222,11.86,10.08646,10.08646,0,0,1,42.77423,12.54082Z"/><path class="cls-4" d="M52.35132,37.44241l-.87607.66466-.83372-.63322A3.26724,3.26724,0,0,1,52.35132,37.44241Z"/><path class="cls-4" d="M34.08817,27.89l-.54957-.44315.14163-.29a3.4459,3.4459,0,0,1,1.29855.059Z"/><path class="cls-4" d="M46.22337,24.74033l-.49545.33913-.97006-.18317a4.11255,4.11255,0,0,1,.86335-.62113Z"/><path class="cls-4" d="M63.53357,14.56171l-.42242.2834-.94-.16083c.17593-.26862.42154-.35533.62262-.53765Z"/><path class="cls-4" d="M66.36851,25.28021l-.453.74484-.81829-.35268,1.20867-.4743Z"/><path class="cls-4" d="M32.77215,29.95579l.14493-.81233.81973.71228Z"/><path class="cls-4" d="M40.70982,10.50474l-.72854.25172-.8681-.38154A3.17762,3.17762,0,0,1,40.70982,10.50474Z"/><path class="cls-4" d="M62.37939,13.95471l-.46078.34584-.49649-.57576C61.801,13.62422,62.04219,13.84327,62.37939,13.95471Z"/><path class="cls-4" d="M204.49528,64.34988a8.62637,8.62637,0,0,0-2.26594.613,9.19622,9.19622,0,0,0-2.00721,1.19761l-.34779-.32982A8.36753,8.36753,0,0,1,204.3994,63.874l.09588.29611Z"/><path class="cls-4" d="M204.49528,65.1289c-.22107.05031-.44224.10018-.66318.151a7.65907,7.65907,0,0,0-2.9714,1.40477c-.02336.0179-.04974.03185-.10493.06674L200.424,66.372a6.73463,6.73463,0,0,1,.95971-.6681,8.28544,8.28544,0,0,1,2.87357-1.03726c.07807-.01315.15859-.01173.238-.01709Z"/><path class="cls-4" d="M192.92983,52.84435c.22138.03984.44306.07812.66409.11984a4.91606,4.91606,0,0,1,1.58932.58215,6.96891,6.96891,0,0,0-1.81473-.2222,5.49507,5.49507,0,0,0-1.77658.364l-.62432-.27157a4.63314,4.63314,0,0,1,1.20562-.4474c.19056-.0484.38445-.08365.57683-.12487Z"/><path class="cls-4" d="M179.08725,62.01282l.09854-.106a8.19288,8.19288,0,0,1,2.05159,1.46594l-.61746.05971-1.53267-1.00021Z"/><path class="cls-4" d="M179.08725,62.79184a4.50761,4.50761,0,0,1,.4193.21372c.20646.13233.40207.28159.65815.46334l-.69184.13268-.28744-.19229-.09817-.31783Z"/><path class="cls-4" d="M182.16923,62.61669l-.34231-.31812a8.93864,8.93864,0,0,1,12.53628,1.09948h-.65463A8.57429,8.57429,0,0,0,182.16923,62.61669Z"/><path class="cls-4" d="M188.189,73.23983l-.34754-.33123a8.935,8.935,0,0,1,12.53424,1.124l-.68034-.03464a8.52907,8.52907,0,0,0-11.50636-.75812Z"/><path class="cls-4" d="M193.69249,70.47164a8.569,8.569,0,0,0-11.524-.78332l-.36706-.32829c.06859-.0613.12172-.11526.18117-.161a8.96234,8.96234,0,0,1,4.27508-1.80267,9.08983,9.08983,0,0,1,4.102.36582c.30174.09664.58853.19578.71034.55549l.23893-.176a9.11765,9.11765,0,0,1,3.098,2.35633c-.16616-.01139-.27535-.02179-.38476-.02554C193.913,70.46872,193.80352,70.47164,193.69249,70.47164Z"/><path class="cls-4" d="M194.36768,77.58244l-.68786-.04989a8.55213,8.55213,0,0,0-10.463-1.47463l-.41961-.27908c.61238-.72518,3.5099-1.48049,5.03753-1.40383A8.90207,8.90207,0,0,1,194.36768,77.58244Z"/><path class="cls-4" d="M199.28858,59.84532c-.141.00758-.25019.01153-.359.01983-.10846.00827-.21658.02091-.31381.03054A7.77922,7.77922,0,0,0,188.726,59.673l-.3279-.36807A8.20819,8.20819,0,0,1,199.28858,59.84532Z"/><path class="cls-4" d="M188.38808,73.45314a8.22287,8.22287,0,0,1,10.88266.53852l-.66348.06565a7.74941,7.74941,0,0,0-9.8732-.23115Z"/><path class="cls-4" d="M193.25563,63.37845l-.65.05753a7.8101,7.8101,0,0,0-9.90545-.23148l-.3159-.352A8.17437,8.17437,0,0,1,193.25563,63.37845Z"/><path class="cls-4" d="M193.23059,70.45416l-.64659.06468a7.71233,7.71233,0,0,0-9.88963-.20583c-.05022-.06958-.09413-.13516-.143-.19679-.04918-.062-.1033-.1201-.15519-.17982A8.12672,8.12672,0,0,1,193.23059,70.45416Z"/><path class="cls-4" d="M198.18967,57.99723v.574a8.623,8.623,0,0,0-10.00837.50284l-.34255-.31942A8.9225,8.9225,0,0,1,198.18967,57.99723Z"/><path class="cls-4" d="M194.74237,63.213l-.32921-.36848a8.19193,8.19193,0,0,1,9.58953-.49522c.062.16947.13508.36444.20418.56081.0219.06223.03322.12817.05544.21648A7.79445,7.79445,0,0,0,194.74237,63.213Z"/><path class="cls-4" d="M194.2049,62.62746,193.832,62.275c.08112-.06861.15221-.135.22946-.19313a9.07951,9.07951,0,0,1,8.86893-1.20116.7063.7063,0,0,1,.34928.26653c.12738.19063.2599.37783.3883.5678a.49441.49441,0,0,1,.03212.10852,8.52516,8.52516,0,0,0-9.49523.80389Z"/><path class="cls-4" d="M203.28346,68.14153l-.32693.37155a8.62106,8.62106,0,0,0-8.76357,1.17931l-.352-.33411A8.92649,8.92649,0,0,1,203.28346,68.14153Z"/><path class="cls-4" d="M188.397,66.96682c-.16415-.01357-.27186-.026-.37991-.03041-.10926-.00447-.21885-.001-.33535-.001a8.6425,8.6425,0,0,0-3.7905-2.30774,8.54747,8.54747,0,0,0-4.41323-.10362.83844.83844,0,0,1-.15674-.48706,8.84229,8.84229,0,0,1,4.92214.15836A8.97142,8.97142,0,0,1,188.397,66.96682Z"/><path class="cls-4" d="M189.51042,60.05314c-.16383-.02909-.34983-.0613-.53525-.09658-.01489-.00283-.02577-.02674-.03848-.04088a7.34164,7.34164,0,0,1,9.22827.01975c-.122.02481-.22165.04654-.32186.06506-.10725.01982-.21506.03662-.295.05008A7.08456,7.08456,0,0,0,189.51042,60.05314Z"/><path class="cls-4" d="M204.171,63.487l-.60323.10787a7.06873,7.06873,0,0,0-8.04068-.00445c-.06577-.01023-.17357-.02373-.28-.04451-.09425-.01841-.18694-.04489-.287-.06945.49665-.72308,2.702-1.57229,4.16951-1.64467A7.1559,7.1559,0,0,1,204.171,63.487Z"/><path class="cls-4" d="M192.18,70.55313l-.67564.12677a6.9624,6.9624,0,0,0-7.97611-.00177l-.65586-.12422c.09687-.08819.154-.151.22132-.19987a7.4806,7.4806,0,0,1,8.80144-.02509C191.98164,70.39082,192.06262,70.46042,192.18,70.55313Z"/><path class="cls-4" d="M192.12951,63.47526c-.00748.00543-.01433.01427-.02252.01577-.1954.03578-.39093.07077-.571.10313a7.06847,7.06847,0,0,0-8.04577.00052l-.5728-.10923c.50493-.72251,2.69052-1.568,4.14533-1.65074A7.18066,7.18066,0,0,1,192.12951,63.47526Z"/><path class="cls-4" d="M189.50821,74.21746l-.58251-.11879a6.97524,6.97524,0,0,1,4.12166-1.64292,7.36873,7.36873,0,0,1,5.12567,1.60867c-.02011.025-.02429.03576-.0303.03691-.20509.03934-.41035.07778-.589.11135A7.05293,7.05293,0,0,0,189.50821,74.21746Z"/><path class="cls-4" d="M193.08628,64.19592a5.93507,5.93507,0,0,1-1.76674-.104c.72583-.46331,3.38505-.41082,4.93009.09117a9.09359,9.09359,0,0,1,4.17714,2.78164l-.69071-.04432c-.40978-.344-.78241-.692-1.19-.99252a8.14009,8.14009,0,0,0-4.10086-1.58641c-.35626-.03483-.71581-.03719-1.074-.05071C193.26154,64.28664,193.14906,64.30266,193.08628,64.19592Z"/><path class="cls-4" d="M194.73738,70.2825l-.32142-.35729a8.11462,8.11462,0,0,1,8.29447-1.16242l-.39913.351A7.81538,7.81538,0,0,0,194.73738,70.2825Z"/><path class="cls-4" d="M188.40218,74.04765l-.72935-.05321a8.6038,8.6038,0,0,0-7.11955-2.59346v-.50051a8.83489,8.83489,0,0,1,4.23445.56541A9.04569,9.04569,0,0,1,188.40218,74.04765Z"/><path class="cls-4" d="M179.781,65.263l-.21258-.43473a8.07683,8.07683,0,0,1,7.6665,2.08282l-.65048.06935A7.78624,7.78624,0,0,0,179.781,65.263Z"/><path class="cls-4" d="M190.57359,60.353l-.61818-.194a6.54258,6.54258,0,0,1,7.15873-.00427l-.625.19787A6.18867,6.18867,0,0,0,190.57359,60.353Z"/><path class="cls-4" d="M197.118,74.317l-.62838.188a6.19984,6.19984,0,0,0-5.91164.00124l-.61037-.181A6.49039,6.49039,0,0,1,197.118,74.317Z"/><path class="cls-4" d="M203.146,63.6934l-.63821.194a6.23,6.23,0,0,0-5.90807-.00462c-.08688-.02293-.19234-.04767-.29582-.07894-.10236-.03095-.20273-.06849-.316-.10726A6.55318,6.55318,0,0,1,203.146,63.6934Z"/><path class="cls-4" d="M184.561,70.96852l-.61147-.18779a6.47628,6.47628,0,0,1,7.12872-.00328l-.606.1908A6.19061,6.19061,0,0,0,184.561,70.96852Z"/><path class="cls-4" d="M190.554,63.87792c-.23122-.08918-.45417-.172-.67471-.26076a6.08623,6.08623,0,0,0-5.07186.15573c-.08065.03805-.16094.07687-.24486.117l-.60975-.1869a6.51369,6.51369,0,0,1,7.12306-.02684C190.92533,63.79243,190.7367,63.78348,190.554,63.87792Z"/><path class="cls-4" d="M187.24417,73.99454l-.66567.0625a7.7526,7.7526,0,0,0-5.94652-1.85233c-.01753-.08915-.03811-.16314-.04521-.2384-.00736-.07795-.00164-.15713-.00164-.23494A7.99019,7.99019,0,0,1,187.24417,73.99454Z"/><path class="cls-4" d="M202.00148,69.336l-.55531.33775a7.00745,7.00745,0,0,0-5.89081,1.00348c-.13235-.0233-.25955-.04426-.3861-.06855-.06748-.013-.13385-.03168-.20743-.04941.00622-.13062.113-.16512.18737-.21955a7.32856,7.32856,0,0,1,3.167-1.33146,7.42362,7.42362,0,0,1,3.51532.25431C201.87558,69.2766,201.917,69.29919,202.00148,69.336Z"/><path class="cls-4" d="M193.82251,76.41985a9.13541,9.13541,0,0,1,6.44442-2.013l-.19429.49224a9.229,9.229,0,0,0-3.08836.39584,8.6389,8.6389,0,0,0-2.75776,1.47211C194.061,76.69621,193.97545,76.543,193.82251,76.41985Z"/><path class="cls-4" d="M193.15962,65.07683a1.63328,1.63328,0,0,1-.03723-.19359c-.00565-.08749-.00148-.17562-.00148-.25836a7.93135,7.93135,0,0,1,6.1338,2.29274l-.64982.06008A7.81139,7.81139,0,0,0,193.15962,65.07683Z"/><path class="cls-4" d="M189.93191,75.54323l-.50568.38516a7.89555,7.89555,0,0,0-5.34839.57249l-.57678-.26861a7.18659,7.18659,0,0,1,2.12678-.83437A8.36121,8.36121,0,0,1,189.93191,75.54323Z"/><path class="cls-4" d="M185.48318,67.1389a7.0065,7.0065,0,0,0-5.227-1.15325l-.29082-.39864a5.73565,5.73565,0,0,1,2.60471-.14853,7.41737,7.41737,0,0,1,3.60316,1.57739Z"/><path class="cls-4" d="M182.16852,57.5125a8.223,8.223,0,0,1,5.09745,2.32638l-.69545.05658a7.7808,7.7808,0,0,0-5.14417-1.89644A3.67149,3.67149,0,0,1,182.16852,57.5125Z"/><path class="cls-4" d="M188.36815,59.86588h-.67683a9.11788,9.11788,0,0,0-2.274-1.70272,8.79087,8.79087,0,0,0-2.64917-.8654l.00545-.0681c.29449-.08.5874-.16692.88452-.23561a.57459.57459,0,0,1,.26163.03,8.68749,8.68749,0,0,1,3.31637,1.726c.32939.273.62734.58424.93632.88148A2.82216,2.82216,0,0,1,188.36815,59.86588Z"/><path class="cls-4" d="M199.88877,75.23337c-.03157.0639-.05808.12728-.09289.18573-.0557.09355-.1169.18383-.18275.28633a7.65765,7.65765,0,0,0-4.8689,1.66121l-.32238-.36006A7.837,7.837,0,0,1,199.88877,75.23337Z"/><path class="cls-4" d="M180.815,72.99l-.13392-.48257a3.13392,3.13392,0,0,1,.33371-.05387,7.44266,7.44266,0,0,1,5.00867,1.51778c.03849.0291.07129.06573.1266.1174-.12644.02834-.22774.05382-.33019.07324-.10725.02033-.21561.03483-.33939.05438A6.93478,6.93478,0,0,0,180.815,72.99Z"/><path class="cls-4" d="M186.11265,59.954l-.63255.10326a6.997,6.997,0,0,0-5.00134-1.18249c.068-.08407.11555-.14793.16859-.20682.05331-.05919.11462-.11119.16787-.17042.06007-.06683.11507-.13821.15764-.18986A7.14684,7.14684,0,0,1,186.11265,59.954Z"/><path class="cls-4" d="M189.93972,53.48057a9.06709,9.06709,0,0,1,4.445,2.83972h-.69774a8.64,8.64,0,0,0-4.3668-2.4664Z"/><path class="cls-4" d="M198.15828,67.02424l-.64159.11858a6.921,6.921,0,0,0-4.25023-1.25438l-.096-.477A7.07121,7.07121,0,0,1,198.15828,67.02424Z"/><path class="cls-4" d="M179.79381,59.82766c.08-.13411.13381-.22859.1919-.32032.05851-.09239.12132-.18207.196-.29346a6.72515,6.72515,0,0,1,4.92952.929l-.64463.20468A6.38669,6.38669,0,0,0,179.79381,59.82766Z"/><path class="cls-4" d="M188.49947,54.52588l.5057-.43934a8.16252,8.16252,0,0,1,4.2812,2.2163l-.70289.05279A7.79012,7.79012,0,0,0,188.49947,54.52588Z"/><path class="cls-4" d="M191.57619,60.76006l-.63359-.27731a5.96615,5.96615,0,0,1,5.18077-.005l-.63671.28239A5.49305,5.49305,0,0,0,191.57619,60.76006Z"/><path class="cls-4" d="M195.47274,74.92214a5.2386,5.2386,0,0,0-1.95317-.36914,5.16152,5.16152,0,0,0-1.92893.36868l-.61258-.26871a5.73183,5.73183,0,0,1,5.11546-.0077Z"/><path class="cls-4" d="M197.60462,64.30527c-.19328-.08513-.36608-.16081-.53833-.23776a.26749.26749,0,0,1-.04743-.03513,5.68763,5.68763,0,0,1,5.08953-.00406l-.61349.2757a5.63282,5.63282,0,0,0-1.9499-.36457A5.456,5.456,0,0,0,197.60462,64.30527Z"/><path class="cls-4" d="M185.57434,64.30485l-.60766-.26485a5.68778,5.68778,0,0,1,5.105-.01l-.61275.27489A5.34372,5.34372,0,0,0,185.57434,64.30485Z"/><path class="cls-4" d="M185.57551,71.3817l-.65432-.28667a6.0286,6.0286,0,0,1,5.1845-.00345l-.64411.28978A5.36909,5.36909,0,0,0,185.57551,71.3817Z"/><path class="cls-4" d="M196.60431,70.968l-.60941-.1826c.81484-.86,3.77475-1.396,4.97149-.89019-.1793.0629-.33229.11837-.48651.17018-.15933.05352-.31985.1035-.51074.165A6.19623,6.19623,0,0,0,196.60431,70.968Z"/><path class="cls-4" d="M179.4435,60.69514a.41607.41607,0,0,1,.01005-.11151c.04773-.1297.10142-.2572.1552-.3913a5.96328,5.96328,0,0,1,4.476.28835l-.643.2855a5.33257,5.33257,0,0,0-3.68751-.07185A.3245.3245,0,0,1,179.4435,60.69514Z"/><path class="cls-4" d="M180.89846,66.70247c-.14565-.15579-.32372-.25786-.405-.46711a6.74613,6.74613,0,0,1,4.61471.98518c-.143.04841-.24179.08462-.3423.11509-.10446.03166-.2106.05778-.33193.09064A6.24482,6.24482,0,0,0,180.89846,66.70247Z"/><path class="cls-4" d="M195.55671,77.75875c-.1782-.03466-.34368-.066-.50868-.09972a.74405.74405,0,0,1-.10518-.04257,1.15229,1.15229,0,0,1,.13944-.15136,7.22157,7.22157,0,0,1,3.17647-1.36873c.3613-.06.72773-.08907,1.14089-.13813a2.242,2.242,0,0,1-.46216.5619A6.95251,6.95251,0,0,0,195.55671,77.75875Z"/><path class="cls-4" d="M192.19614,56.4l-.69594.12088a7.18007,7.18007,0,0,0-1.69421-.86809,6.83323,6.83323,0,0,0-1.88414-.3711,1.88372,1.88372,0,0,1,.34127-.49354A7.42534,7.42534,0,0,1,192.19614,56.4Z"/><path class="cls-4" d="M185.07647,74.31788l-.62007.18727a6.45074,6.45074,0,0,0-3.31524-.7525c-.03747-.0672-.08463-.14115-.121-.22008-.0326-.07086-.05329-.14719-.07951-.22189A6.0918,6.0918,0,0,1,185.07647,74.31788Z"/><path class="cls-4" d="M188.99585,76.19114c-.08761.046-.17647.08986-.26258.13854a1.46937,1.46937,0,0,1-.85778.18677,6.67738,6.67738,0,0,0-2.33418.2633.94792.94792,0,0,1-.40961.02577,1.5292,1.5292,0,0,1-.63008-.192,7.49075,7.49075,0,0,1,4.4833-.48572Z"/><path class="cls-4" d="M197.14187,67.22585l-.66269.20516a6.25016,6.25016,0,0,0-2.97893-.74882l-.17087-.5215A6.80029,6.80029,0,0,1,197.14187,67.22585Z"/><path class="cls-4" d="M182.31994,63.41365l-.675-.0302a8.85664,8.85664,0,0,0-2.44078-1.78657,2.313,2.313,0,0,1,.02071-.24045,2.25114,2.25114,0,0,1,.06575-.2257A7.49694,7.49694,0,0,1,182.31994,63.41365Z"/><path class="cls-4" d="M204.42674,65.457l-.10227.49111c-.50373.16606-.98677.29245-1.442.48461-.45646.19266-.88522.45093-1.36324.69976l-.62056-.12281A7.39787,7.39787,0,0,1,204.42674,65.457Z"/><path class="cls-4" d="M191.1262,56.60842l-.665.20727a6.15607,6.15607,0,0,0-3.03816-.74928l.26956-.5147A6.66357,6.66357,0,0,1,191.1262,56.60842Z"/><path class="cls-4" d="M191.98286,67.68432a4.4421,4.4421,0,0,1,1.67625-.68971,2.67,2.67,0,0,1,.82976.05255,5.21882,5.21882,0,0,1,1.61361.51637l-.63075.28037A5.52746,5.52746,0,0,0,191.98286,67.68432Z"/><path class="cls-4" d="M200.38654,71.02753c-.512.01008-.9795-.01363-1.43865.03768-.45054.05034-.89254.177-1.41015.28513l-.5752-.24656a5.89435,5.89435,0,0,1,3.26354-.562Z"/><path class="cls-4" d="M193.27149,77.53005l-.64277.06316c-.40373-.27811-.77776-.53943-1.15613-.7943a2.01722,2.01722,0,0,0-.38865-.21994,2.053,2.053,0,0,1-.88821-.91917A7.8208,7.8208,0,0,1,193.27149,77.53005Z"/><path class="cls-4" d="M189.45715,57.22721a5.66876,5.66876,0,0,0-2.35516-.35711l.18463-.52334a5.881,5.881,0,0,1,2.80291.60106Z"/><path class="cls-4" d="M179.94365,60.96168a4.5156,4.5156,0,0,1,3.09735.00581l-.561.33044a5.26525,5.26525,0,0,0-1.95589.00335Z"/><path class="cls-4" d="M189.07657,64.49751l-.58408.34088a5.0361,5.0361,0,0,0-1.94644.00328l-.592-.34141A4.64711,4.64711,0,0,1,189.07657,64.49751Z"/><path class="cls-4" d="M195.08815,60.9605l-.544.319c-.34813-.024-.6744-.0636-1.00073-.06406-.32659-.00046-.65324.03823-1.02592.0628l-.528-.30688A4.49585,4.49585,0,0,1,195.08815,60.9605Z"/><path class="cls-4" d="M201.11152,64.49706l-.58886.3408a5.08011,5.08011,0,0,0-1.94589.0027l-.58872-.34067A4.65139,4.65139,0,0,1,201.11152,64.49706Z"/><path class="cls-4" d="M192.55124,68.37878l-.57739-.34262a4.66673,4.66673,0,0,1,3.123-.00049c-.10842.06187-.196.111-.28276.16157-.09431.055-.18783.11142-.30142.179A5.149,5.149,0,0,0,192.55124,68.37878Z"/><path class="cls-4" d="M189.07562,71.57319l-.58353.34164a5.14735,5.14735,0,0,0-1.94933.00087l-.57365-.32941A4.48667,4.48667,0,0,1,189.07562,71.57319Z"/><path class="cls-4" d="M192.54512,75.45271l-.59936-.3568a5.05325,5.05325,0,0,1,3.16634-.00148l-.59076.35695A5.49974,5.49974,0,0,0,192.54512,75.45271Z"/><path class="cls-4" d="M192.56062,54.227l-.55981-.32755a4.434,4.434,0,0,1,3.08266-.01774l-.58138.34336A4.73782,4.73782,0,0,0,192.56062,54.227Z"/><path class="cls-4" d="M186.96453,57.30917l.08124-.138a4.87461,4.87461,0,0,1,2.04579.23436l-.56306.33609c-.34743-.0231-.67407-.06106-1.00081-.062-.327-.00091-.654.03521-1.03.05808l-.5243-.30723A1.146,1.146,0,0,1,186.96453,57.30917Z"/><path class="cls-4" d="M194.74534,56.13957l-.3423-.38436a7.93435,7.93435,0,0,1,2.139-1.24457l.36707.4073A8.1564,8.1564,0,0,0,194.74534,56.13957Z"/><path class="cls-4" d="M194.22092,55.54279c-.06775-.05584-.12978-.10408-.18841-.15613-.05935-.05267-.11534-.10913-.19788-.18784a8.38914,8.38914,0,0,1,2.024-1.26367l.45523.363A8.97926,8.97926,0,0,0,194.22092,55.54279Z"/><path class="cls-4" d="M184.04171,74.65482l-.59515.26377a5.68736,5.68736,0,0,0-1.83647-.3582l-.299-.45434A4.69194,4.69194,0,0,1,184.04171,74.65482Z"/><path class="cls-4" d="M190.11529,64.50154l-.23234.55565-1.70663,1.072-.31226-.35643a8.53093,8.53093,0,0,1,2.19579-1.31363Z"/><path class="cls-4" d="M197.09447,55.15874l.28867.42069c-.32682.14509-.64489.27143-.94892.42549-.3007.15237-.58722.33273-.90119.513l-.64929-.12273A7.24294,7.24294,0,0,1,197.09447,55.15874Z"/><path class="cls-4" d="M200.46578,71.38662l.09333.518c-.2438-.026-.45462-.05728-.66651-.06856a6.10873,6.10873,0,0,0-.65545-.00161c-.21773.01183-.43425.0459-.67991.07342l-.59665-.34746A4.97193,4.97193,0,0,1,200.46578,71.38662Z"/><path class="cls-4" d="M184.08061,67.5622l-.60673.26706c-.35884-.09106-.70366-.17857-1.04849-.266a.32908.32908,0,0,0-.08679-.02024c-.45.016-.73836-.2889-1.12616-.54727A5.55363,5.55363,0,0,1,184.08061,67.5622Z"/><path class="cls-4" d="M202.57985,67.4178l-.56575-.17011a4.88343,4.88343,0,0,1,2.15234-.90864c.005.19926.00029.21536-.147.5065Z"/><path class="cls-4" d="M198.48594,76.89409a5.09006,5.09006,0,0,1-2.04736,1.102l-.50026-.15A5.96586,5.96586,0,0,1,198.48594,76.89409Z"/><path class="cls-4" d="M180.76571,69.64106l.16879-.49667a8.755,8.755,0,0,1,1.44167,1.3609l-.72213-.04835Z"/><path class="cls-4" d="M197.54049,55.85892l.212.44055-1.177.50829-.6311-.19491A5.89484,5.89484,0,0,1,197.54049,55.85892Z"/><path class="cls-4" d="M200.39747,59.85969h-.66076l-.96931-.86881a2.34273,2.34273,0,0,1,.82371.03549A6.43457,6.43457,0,0,1,200.39747,59.85969Z"/><path class="cls-4" d="M181.72251,67.76571a4.55923,4.55923,0,0,1,1.35319.2584l-.57586.34037-1.07715-.10362A1.46211,1.46211,0,0,1,181.72251,67.76571Z"/><path class="cls-4" d="M189.54682,65.64917l-.46184.63372.07494.147-.43476.32064-.33292-.37834A4.10818,4.10818,0,0,1,189.54682,65.64917Z"/><path class="cls-4" d="M198.02254,57.07517l-.41671.1537-.63573-.28239a3.63268,3.63268,0,0,1,.89757-.34508Z"/><path class="cls-4" d="M195.47392,78.16432a4.8142,4.8142,0,0,1-2.187-.23158A7.53451,7.53451,0,0,1,195.47392,78.16432Z"/><path class="cls-4" d="M199.83556,72.88373l.723-.53466a1.63886,1.63886,0,0,1,.00375.62715l-.32612.25947Z"/><path class="cls-4" d="M188.12479,72.15678l-.60685.46556-.61164-.4593A2.74131,2.74131,0,0,1,188.12479,72.15678Z"/><path class="cls-4" d="M181.852,74.85358a4.28292,4.28292,0,0,1,1.21721.24759l-.60219.35831A2.34418,2.34418,0,0,1,181.852,74.85358Z"/><path class="cls-4" d="M194.13706,68.62161l-.60437.46074-.60872-.45775A2.66083,2.66083,0,0,1,194.13706,68.62161Z"/><path class="cls-4" d="M194.15522,54.45149l-.62246.477-.62431-.47379A3.94756,3.94756,0,0,1,194.15522,54.45149Z"/><path class="cls-4" d="M198.94116,72.16377a2.748,2.748,0,0,1,1.21425-.00616l-.60665.46442Z"/><path class="cls-4" d="M199.54738,65.54476l-.60988-.46167a3.20337,3.20337,0,0,1,1.23241-.01479Z"/><path class="cls-4" d="M192.91462,61.53841a2.97776,2.97776,0,0,1,1.22181.00643l-.6055.45916Z"/><path class="cls-4" d="M182.10743,61.54262l-.6073.4607-.61785-.46436A3.0504,3.0504,0,0,1,182.10743,61.54262Z"/><path class="cls-4" d="M188.13381,65.07431l-.6196.468-.60892-.45814A3.00024,3.00024,0,0,1,188.13381,65.07431Z"/><path class="cls-4" d="M187.5059,58.46145l-.60724-.46559a3.761,3.761,0,0,1,1.22888-.00573A6.98284,6.98284,0,0,1,187.5059,58.46145Z"/><path class="cls-4" d="M194.13574,75.69984l-.60647.46011-.57716-.43835A2.26173,2.26173,0,0,1,194.13574,75.69984Z"/><path class="cls-4" d="M181.49288,69.08706l-.38045-.30678.09805-.20076a2.38576,2.38576,0,0,1,.89894.04083Z"/><path class="cls-4" d="M189.8936,66.90669l-.343.23476-.67153-.1268a2.84719,2.84719,0,0,1,.59766-.43Z"/><path class="cls-4" d="M201.87677,59.86043l-.29243.19619-.65076-.11134c.1218-.186.29182-.246.431-.3722Z"/><path class="cls-4" d="M203.83928,67.28042l-.31356.51563-.56647-.24415.83672-.32834Z"/><path class="cls-4" d="M180.58185,70.51715l.10033-.56235.56746.49308Z"/><path class="cls-4" d="M186.07679,57.052l-.50434.17426-.601-.26413A2.19984,2.19984,0,0,1,186.07679,57.052Z"/><path class="cls-4" d="M201.07777,59.44023l-.319.23941-.3437-.39858C200.67739,59.21144,200.84434,59.36308,201.07777,59.44023Z"/><g class="cls-5"><polygon class="cls-6" points="16.725 29.982 16.725 29.982 23.583 49.35 16.725 68.718 16.725 68.718 70.986 68.718 70.986 29.982 16.725 29.982"/><path class="cls-7" d="M71.34115,69.07341h-55.118L23.20665,49.35l-6.98348-19.7227h55.118Zm-54.1136-.71028H70.63087V30.3376H17.22755L23.95993,49.35l-.04162.11861Z"/><polygon class="cls-6" points="242.588 29.982 242.588 29.982 235.73 49.35 242.588 68.718 242.588 68.718 188.327 68.718 188.327 29.982 242.588 29.982"/><path class="cls-7" d="M243.09034,69.07341H187.97167V29.62732h55.11867L236.10686,49.35ZM188.682,68.36313h53.404L235.35358,49.35l.04162-.11861L242.086,30.3376H188.682Z"/><rect class="cls-8" x="50.24784" y="57.00909" width="20.73817" height="0.71028"/><rect class="cls-8" x="53.23531" y="58.64467" width="17.7507" height="0.71028"/><rect class="cls-8" x="56.22277" y="60.28025" width="14.76323" height="0.71028"/><rect class="cls-8" x="59.21024" y="61.91583" width="11.77577" height="0.71028"/><rect class="cls-8" x="62.19771" y="63.55141" width="8.7883" height="0.71028"/><rect class="cls-8" x="65.18517" y="65.18699" width="5.80083" height="0.71028"/><rect class="cls-8" x="68.17264" y="66.82257" width="2.81337" height="0.71028"/><rect class="cls-8" x="188.32681" y="57.00909" width="20.73886" height="0.71028"/><rect class="cls-8" x="188.32681" y="58.64467" width="17.75128" height="0.71028"/><rect class="cls-8" x="188.32681" y="60.28025" width="14.7637" height="0.71028"/><rect class="cls-8" x="188.32681" y="61.91583" width="11.77611" height="0.71028"/><rect class="cls-8" x="188.32681" y="63.55141" width="8.78853" height="0.71028"/><rect class="cls-8" x="188.32681" y="65.18699" width="5.80095" height="0.71028"/><rect class="cls-8" x="188.32681" y="66.82257" width="2.81337" height="0.71028"/><rect class="cls-7" x="58.98622" y="49.06701" width="0.71024" height="26.55149" transform="translate(-23.83982 84.45404) rotate(-61.29911)"/><rect class="cls-7" x="186.69578" y="61.98764" width="26.5521" height="0.71024" transform="translate(-5.35841 103.75343) rotate(-28.71764)"/><rect class="cls-6" x="47.69635" y="17.23093" width="163.92038" height="38.73623"/><path class="cls-7" d="M211.972,56.32239H47.34153V16.87562H211.972ZM48.0518,55.61212H211.26171V17.5859H48.0518Z"/></g><text class="cls-9" transform="translate(93.42329 48.00083)">2<tspan class="cls-10" x="17.8291" y="0">02</tspan><tspan class="cls-11" x="57.11914" y="0">5</tspan></text><path class="cls-8" d="M45.14386,61.81131a1.63326,1.63326,0,0,1-1.15842-.479l-.059-.059a1.64012,1.64012,0,0,1,0-2.31685l.90551-.90549-1.75205-1.75205-.90551.9055a1.64012,1.64012,0,0,1-2.31684,0l-.059-.059a1.64243,1.64243,0,0,1,0-2.31683l.059-.059a1.64238,1.64238,0,0,1,2.31684,0l.90551.90551,1.75205-1.752-.90551-.90551a1.64243,1.64243,0,0,1,0-2.31684l.05895-.059a1.64013,1.64013,0,0,1,2.31687,0l.90552.9055.90551-.9055a1.64012,1.64012,0,0,1,2.31684,0l.059.059a1.6401,1.6401,0,0,1,0,2.31683l-.90551.90551,1.752,1.752.90552-.90551a1.64237,1.64237,0,0,1,2.31683,0l.059.05895a1.64242,1.64242,0,0,1,0,2.31686l-.059.059a1.64011,1.64011,0,0,1-2.31683,0l-.90552-.9055-1.752,1.75205.90551.90549a1.64243,1.64243,0,0,1,0,2.31688l-.059.059a1.64021,1.64021,0,0,1-2.31686,0l-.90551-.90553-.90552.90553A1.63323,1.63323,0,0,1,45.14386,61.81131Zm0-3.4485-.9055.90552a1.20133,1.20133,0,0,0,0,1.693l.059.059a1.19858,1.19858,0,0,0,1.69307,0l.90551-.90549Zm2.37583,1.75206.90551.90549a1.19851,1.19851,0,0,0,1.69308,0l.059-.05894a1.20132,1.20132,0,0,0,0-1.69309l-.90551-.90552Zm-2.06395-2.06394L47.20781,59.803l1.752-1.75206-1.752-1.75205ZM47.51969,55.987l1.75205,1.75207,1.752-1.75207-1.752-1.75205Zm-4.12788,0,1.752,1.75207L46.89591,55.987l-1.75205-1.75205Zm8.25576,0,.9055.90552a1.19855,1.19855,0,0,0,1.69307,0l.059-.059a1.20136,1.20136,0,0,0,0-1.69308l-.059-.05895a1.20132,1.20132,0,0,0-1.69309,0ZM41.016,54.73138a1.19348,1.19348,0,0,0-.84654.35009l-.059.059a1.20139,1.20139,0,0,0,0,1.69308l.059.059a1.19858,1.19858,0,0,0,1.69307,0l.90551-.90552-.90551-.90551A1.19348,1.19348,0,0,0,41.016,54.73138Zm4.43974-.80833,1.75207,1.752,1.752-1.752-1.752-1.75205Zm-.31188-3.31953a1.1934,1.1934,0,0,0-.84654.35008l-.05895.059a1.20137,1.20137,0,0,0,0,1.6931l.9055.90551,1.75205-1.75205-.90551-.90552A1.19354,1.19354,0,0,0,45.14386,50.60352Zm2.37583,1.2556,1.75205,1.75205.90551-.90551a1.20134,1.20134,0,0,0,0-1.69308l-.059-.059a1.19858,1.19858,0,0,0-1.69307,0Z"/><path class="cls-8" d="M47.26021,69.83747a.46843.46843,0,0,1-.4683-.46831V62.87665a.4683.4683,0,1,1,.9366,0v6.49251A.46843.46843,0,0,1,47.26021,69.83747Z"/><path class="cls-8" d="M45.4855,84.19336c-.09294,0-.16835-.20978-.16835-.46834V70.99214c0-.25856.07541-.46835.16835-.46835s.16836.20979.16836.46835V83.725C45.65386,83.98358,45.57845,84.19336,45.4855,84.19336Z"/><path class="cls-8" d="M45.96477,83.725a2.5607,2.5607,0,0,0-.02809-.29594,3.82647,3.82647,0,0,1-.02809-.45621V70.99214c0-.25856.07542-.46835.16839-.46835s.16838.20979.16838.46835V83.56721c0,.21547-.06284.46919-.14029.46919S45.96477,83.94049,45.96477,83.725Z"/><path class="cls-8" d="M46.61239,83.725c0,.08619-.02516-.14308-.05618-.14308A1.70214,1.70214,0,0,1,46.5,83.1233V70.99214c0-.25856.07544-.46835.16842-.46835s.16842.20979.16842.46835V83.40939c0,.17238-.05028.47005-.11224.47005S46.61239,83.89739,46.61239,83.725Z"/><path class="cls-8" d="M47.26,83.725c0,.12928-.03775.00977-.08428.00977s-.08427-.33178-.08427-.46106V70.99214c0-.25856.07545-.46835.16845-.46835s.16845.20979.16845.46835V83.25158c0,.12929-.0377.47089-.08418.47089S47.26,83.8543,47.26,83.725Z"/><path class="cls-8" d="M47.90764,83.725c0,.17237-.05033.16263-.11237.16263s-.11236-.29112-.11236-.46349v-12.432c0-.25856.07546-.46835.16848-.46835s.16848.20979.16848.46835V83.09377a1.8146,1.8146,0,0,1-.05611.47174C47.93277,83.56551,47.90764,83.81121,47.90764,83.725Z"/><path class="cls-8" d="M48.55526,83.725c0,.21547-.06291.31549-.14046.31549s-.14045-.25045-.14045-.46592V70.99214c0-.25856.07548-.46835.16851-.46835s.16852.20979.16852.46835V82.936a4.13164,4.13164,0,0,1-.02806.47259A2.86524,2.86524,0,0,0,48.55526,83.725Z"/><path class="cls-8" d="M49.03433,84.19336c.09306,0,.16855-.20978.16855-.46834V70.99214c0-.25856-.07549-.46835-.16855-.46835s-.16854.20979-.16854.46835V83.725C48.86579,83.98358,48.94128,84.19336,49.03433,84.19336Z"/><path class="cls-8" d="M45.99094,69.31841h2.5386a.506.506,0,0,1,.506.506v.60989a0,0,0,0,1,0,0H45.48491a0,0,0,0,1,0,0v-.60989A.506.506,0,0,1,45.99094,69.31841Z"/><path class="cls-8" d="M209.55278,61.81131a1.63328,1.63328,0,0,1-1.15842-.479l-.059-.059a1.64013,1.64013,0,0,1,0-2.31685l.9055-.90549-1.752-1.75205-.9055.9055a1.64013,1.64013,0,0,1-2.31685,0l-.059-.059a1.64243,1.64243,0,0,1,0-2.31683l.059-.059a1.6424,1.6424,0,0,1,2.31685,0l.9055.90551,1.752-1.752-.9055-.90551a1.64241,1.64241,0,0,1,0-2.31684l.05894-.059a1.64013,1.64013,0,0,1,2.31687,0l.90552.9055.90551-.9055a1.64012,1.64012,0,0,1,2.31684,0l.059.059a1.6401,1.6401,0,0,1,0,2.31683l-.90551.90551,1.752,1.752.90552-.90551a1.64238,1.64238,0,0,1,2.31684,0l.059.05895a1.64243,1.64243,0,0,1,0,2.31686l-.059.059a1.64013,1.64013,0,0,1-2.31684,0l-.90552-.9055-1.752,1.75205.90551.90549a1.64243,1.64243,0,0,1,0,2.31688l-.059.059a1.64021,1.64021,0,0,1-2.31686,0l-.90551-.90553-.90552.90553A1.63321,1.63321,0,0,1,209.55278,61.81131Zm0-3.4485-.9055.90552a1.20133,1.20133,0,0,0,0,1.693l.059.059a1.19858,1.19858,0,0,0,1.69307,0l.9055-.90549Zm2.37583,1.75206.90551.90549a1.19851,1.19851,0,0,0,1.69308,0l.059-.05894a1.20132,1.20132,0,0,0,0-1.69309l-.90551-.90552Zm-2.06394-2.06394,1.75206,1.75206,1.752-1.75206-1.752-1.75205Zm2.06394-2.06395,1.752,1.75207,1.752-1.75207-1.752-1.75205Zm-4.12788,0,1.75205,1.75207,1.752-1.75207-1.752-1.75205Zm8.25576,0,.90551.90552a1.19855,1.19855,0,0,0,1.69307,0l.059-.059a1.20139,1.20139,0,0,0,0-1.69308l-.059-.05895a1.20131,1.20131,0,0,0-1.69308,0Zm-10.63157-1.2556a1.1935,1.1935,0,0,0-.84654.35009l-.059.059a1.20136,1.20136,0,0,0,0,1.69308l.059.059a1.19858,1.19858,0,0,0,1.69307,0l.9055-.90552-.9055-.90551A1.1935,1.1935,0,0,0,205.42492,54.73138Zm4.43975-.80833,1.75206,1.752,1.752-1.752-1.752-1.75205Zm-.31189-3.31953a1.1934,1.1934,0,0,0-.84654.35008l-.059.059a1.20137,1.20137,0,0,0,0,1.6931l.9055.90551,1.752-1.75205-.9055-.90552A1.19358,1.19358,0,0,0,209.55278,50.60352Zm2.37583,1.2556,1.752,1.75205.90551-.90551a1.20134,1.20134,0,0,0,0-1.69308l-.059-.059a1.19858,1.19858,0,0,0-1.69307,0Z"/><path class="cls-8" d="M211.66913,69.83747a.46843.46843,0,0,1-.4683-.46831V62.87665a.4683.4683,0,1,1,.9366,0v6.49251A.46843.46843,0,0,1,211.66913,69.83747Z"/><path class="cls-8" d="M209.89443,84.19336c-.093,0-.16836-.20978-.16836-.46834V70.99214c0-.25856.07541-.46835.16836-.46835s.16835.20979.16835.46835V83.725C210.06278,83.98358,209.98737,84.19336,209.89443,84.19336Z"/><path class="cls-8" d="M210.37369,83.725a2.5607,2.5607,0,0,0-.02809-.29594,3.82647,3.82647,0,0,1-.02809-.45621V70.99214c0-.25856.07542-.46835.16839-.46835s.16838.20979.16838.46835V83.56721c0,.21547-.06284.46919-.14029.46919S210.37369,83.94049,210.37369,83.725Z"/><path class="cls-8" d="M211.02132,83.725c0,.08619-.02517-.14308-.05619-.14308a1.70254,1.70254,0,0,1-.05618-.45864V70.99214c0-.25856.07544-.46835.16842-.46835s.16842.20979.16842.46835V83.40939c0,.17238-.05027.47005-.11224.47005S211.02132,83.89739,211.02132,83.725Z"/><path class="cls-8" d="M211.66894,83.725c0,.12928-.03775.00977-.08428.00977s-.08427-.33178-.08427-.46106V70.99214c0-.25856.07545-.46835.16845-.46835s.16845.20979.16845.46835V83.25158c0,.12929-.0377.47089-.08417.47089S211.66894,83.8543,211.66894,83.725Z"/><path class="cls-8" d="M212.31656,83.725c0,.17237-.05033.16263-.11236.16263s-.11237-.29112-.11237-.46349v-12.432c0-.25856.07547-.46835.16848-.46835s.16849.20979.16849.46835V83.09377a1.81454,1.81454,0,0,1-.05612.47174C212.3417,83.56551,212.31656,83.81121,212.31656,83.725Z"/><path class="cls-8" d="M212.96418,83.725c0,.21547-.06291.31549-.14045.31549s-.14046-.25045-.14046-.46592V70.99214c0-.25856.07548-.46835.16851-.46835s.16852.20979.16852.46835V82.936a4.13164,4.13164,0,0,1-.02806.47259A2.86524,2.86524,0,0,0,212.96418,83.725Z"/><path class="cls-8" d="M213.44326,84.19336c.093,0,.16854-.20978.16854-.46834V70.99214c0-.25856-.07549-.46835-.16854-.46835s-.16855.20979-.16855.46835V83.725C213.27471,83.98358,213.3502,84.19336,213.44326,84.19336Z"/><path class="cls-8" d="M210.39986,69.31841h2.5386a.506.506,0,0,1,.506.506v.60989a0,0,0,0,1,0,0h-3.55065a0,0,0,0,1,0,0v-.60989A.506.506,0,0,1,210.39986,69.31841Z"/><path class="cls-8" d="M45.14386,61.81131a1.63326,1.63326,0,0,1-1.15842-.479l-.059-.059a1.64012,1.64012,0,0,1,0-2.31685l.90551-.90549-1.75205-1.75205-.90551.9055a1.64012,1.64012,0,0,1-2.31684,0l-.059-.059a1.64243,1.64243,0,0,1,0-2.31683l.059-.059a1.64238,1.64238,0,0,1,2.31684,0l.90551.90551,1.75205-1.752-.90551-.90551a1.64243,1.64243,0,0,1,0-2.31684l.05895-.059a1.64013,1.64013,0,0,1,2.31687,0l.90552.9055.90551-.9055a1.64012,1.64012,0,0,1,2.31684,0l.059.059a1.6401,1.6401,0,0,1,0,2.31683l-.90551.90551,1.752,1.752.90552-.90551a1.64237,1.64237,0,0,1,2.31683,0l.059.05895a1.64242,1.64242,0,0,1,0,2.31686l-.059.059a1.64011,1.64011,0,0,1-2.31683,0l-.90552-.9055-1.752,1.75205.90551.90549a1.64243,1.64243,0,0,1,0,2.31688l-.059.059a1.64021,1.64021,0,0,1-2.31686,0l-.90551-.90553-.90552.90553A1.63323,1.63323,0,0,1,45.14386,61.81131Zm0-3.4485-.9055.90552a1.20133,1.20133,0,0,0,0,1.693l.059.059a1.19858,1.19858,0,0,0,1.69307,0l.90551-.90549Zm2.37583,1.75206.90551.90549a1.19851,1.19851,0,0,0,1.69308,0l.059-.05894a1.20132,1.20132,0,0,0,0-1.69309l-.90551-.90552Zm-2.06395-2.06394L47.20781,59.803l1.752-1.75206-1.752-1.75205ZM47.51969,55.987l1.75205,1.75207,1.752-1.75207-1.752-1.75205Zm-4.12788,0,1.752,1.75207L46.89591,55.987l-1.75205-1.75205Zm8.25576,0,.9055.90552a1.19855,1.19855,0,0,0,1.69307,0l.059-.059a1.20136,1.20136,0,0,0,0-1.69308l-.059-.05895a1.20132,1.20132,0,0,0-1.69309,0ZM41.016,54.73138a1.19348,1.19348,0,0,0-.84654.35009l-.059.059a1.20139,1.20139,0,0,0,0,1.69308l.059.059a1.19858,1.19858,0,0,0,1.69307,0l.90551-.90552-.90551-.90551A1.19348,1.19348,0,0,0,41.016,54.73138Zm4.43974-.80833,1.75207,1.752,1.752-1.752-1.752-1.75205Zm-.31188-3.31953a1.1934,1.1934,0,0,0-.84654.35008l-.05895.059a1.20137,1.20137,0,0,0,0,1.6931l.9055.90551,1.75205-1.75205-.90551-.90552A1.19354,1.19354,0,0,0,45.14386,50.60352Zm2.37583,1.2556,1.75205,1.75205.90551-.90551a1.20134,1.20134,0,0,0,0-1.69308l-.059-.059a1.19858,1.19858,0,0,0-1.69307,0Z"/><path class="cls-8" d="M69.57932,47.0319,59.14643,36.599l10.43289-10.4329L80.01222,36.599ZM60.1508,36.599l9.42852,9.42852L79.00785,36.599l-9.42853-9.42853Z"/><path class="cls-8" d="M69.57932,44.60142,61.57691,36.599l8.00241-8.00242L77.58174,36.599ZM62.0791,36.599l7.50022,7.50022L77.07955,36.599l-7.50023-7.50023Z"/><text class="cls-12" transform="translate(65.32075 39.02231)">迎</text><path class="cls-8" d="M188.32681,47.0319,177.8946,36.599l10.43221-10.4329,10.4329,10.4329ZM178.899,36.599l9.42783,9.42852,9.42852-9.42852-9.42852-9.42853Z"/><path class="cls-8" d="M188.32681,44.60142,180.32439,36.599l8.00242-8.00242,8.00242,8.00242ZM180.82658,36.599l7.50023,7.50022L195.827,36.599l-7.50023-7.50023Z"/><text class="cls-12" transform="translate(184.0688 39.02231)">春</text><path class="cls-13" d="M227.86635,15.8145a3.601,3.601,0,0,0-.9458.25584,3.83888,3.83888,0,0,0-.8378.49988l-.14516-.13766a3.4925,3.4925,0,0,1,1.88874-.8167l.04.1236Z"/><path class="cls-13" d="M227.86635,16.13966c-.09227.021-.18458.04181-.27681.063a3.197,3.197,0,0,0-1.24025.58635c-.00975.00747-.02076.01329-.0438.02786l-.13846-.15839a2.81053,2.81053,0,0,1,.40057-.27887,3.45848,3.45848,0,0,1,1.19943-.43295c.03258-.00549.06619-.0049.09932-.00713Z"/><path class="cls-13" d="M223.039,11.01212c.0924.01663.18493.03261.27718.05a2.05186,2.05186,0,0,1,.66338.243,2.90877,2.90877,0,0,0-.75746-.09275,2.29363,2.29363,0,0,0-.74154.152l-.26059-.11336a1.93409,1.93409,0,0,1,.50322-.18674c.07954-.0202.16047-.03492.24077-.05212Z"/><path class="cls-13" d="M217.26111,14.839l.04113-.04423a3.42,3.42,0,0,1,.85633.61188l-.25773.02492-.63973-.41748Z"/><path class="cls-13" d="M217.26111,15.16417a1.88325,1.88325,0,0,1,.175.08921c.08618.05523.16782.11754.27471.1934l-.28877.05538-.12-.08026-.041-.13266Z"/><path class="cls-13" d="M218.54752,15.09107l-.14288-.13278a3.731,3.731,0,0,1,5.23261.45892H223.364A3.57888,3.57888,0,0,0,218.54752,15.09107Z"/><path class="cls-13" d="M221.06015,19.52514l-.14506-.13826a3.72944,3.72944,0,0,1,5.23176.46916l-.284-.01446a3.56,3.56,0,0,0-4.80273-.31644Z"/><path class="cls-13" d="M223.3573,18.3697a3.57668,3.57668,0,0,0-4.8101-.327l-.15321-.137c.02863-.02559.05081-.04811.07562-.0672a3.74092,3.74092,0,0,1,1.78441-.75243,3.79411,3.79411,0,0,1,1.71218.15269c.12594.04034.24565.08172.29649.23186l.09973-.07346a3.80583,3.80583,0,0,1,1.2931.98352c-.06935-.00475-.11493-.00909-.1606-.01065S223.40364,18.3697,223.3573,18.3697Z"/><path class="cls-13" d="M223.63912,21.33774l-.28711-.02083a3.56966,3.56966,0,0,0-4.36723-.61551l-.17514-.11649a3.78426,3.78426,0,0,1,2.10265-.586A3.71569,3.71569,0,0,1,223.63912,21.33774Z"/><path class="cls-13" d="M225.69309,13.93431c-.05887.00316-.10443.00481-.14985.00827-.04526.00345-.09039.00873-.131.01275a3.247,3.247,0,0,0-4.12795-.093l-.13686-.15363A3.42606,3.42606,0,0,1,225.69309,13.93431Z"/><path class="cls-13" d="M221.14325,19.61418a3.4322,3.4322,0,0,1,4.5424.22477l-.27694.0274a3.23461,3.23461,0,0,0-4.12105-.09648Z"/><path class="cls-13" d="M223.175,15.409l-.27131.024a3.25991,3.25991,0,0,0-4.13451-.09662l-.13186-.1469A3.412,3.412,0,0,1,223.175,15.409Z"/><path class="cls-13" d="M223.1645,18.36241l-.26988.027a3.21913,3.21913,0,0,0-4.12791-.08591c-.021-.029-.03929-.05641-.05969-.08214-.02053-.02588-.04312-.05013-.06477-.07505A3.39206,3.39206,0,0,1,223.1645,18.36241Z"/><path class="cls-13" d="M225.23441,13.16292v.2396a3.59925,3.59925,0,0,0-4.17747.20989l-.143-.13333A3.72424,3.72424,0,0,1,225.23441,13.16292Z"/><path class="cls-13" d="M223.79551,15.34l-.1374-.1538a3.41928,3.41928,0,0,1,4.00264-.2067c.02588.07073.05638.15211.08522.23407.00915.026.01387.0535.02314.09036A3.25339,3.25339,0,0,0,223.79551,15.34Z"/><path class="cls-13" d="M223.57118,15.09556l-.15563-.14711c.03386-.02863.06353-.05633.09577-.08061a3.78978,3.78978,0,0,1,3.70187-.50136.29485.29485,0,0,1,.14579.11125c.05317.07957.10848.1577.16207.237a.20657.20657,0,0,1,.01341.0453,3.55838,3.55838,0,0,0-3.96328.33554Z"/><path class="cls-13" d="M227.36054,17.39712l-.13646.15509a3.59838,3.59838,0,0,0-3.65789.49224l-.14693-.13946A3.7259,3.7259,0,0,1,227.36054,17.39712Z"/><path class="cls-13" d="M221.147,16.9068c-.06852-.00566-.11348-.01085-.15857-.01269-.04561-.00187-.09135-.00041-.14-.00041a3.60733,3.60733,0,0,0-1.58215-.96325,3.56767,3.56767,0,0,0-1.84206-.04325.34993.34993,0,0,1-.06543-.2033,3.69073,3.69073,0,0,1,2.05449.0661A3.74468,3.74468,0,0,1,221.147,16.9068Z"/><path class="cls-13" d="M221.61171,14.02105c-.06838-.01214-.146-.02559-.22341-.04031-.00621-.00119-.01075-.01116-.01606-.01706a3.06438,3.06438,0,0,1,3.85186.00824c-.05094.01035-.09252.01942-.13435.02715-.04476.00827-.08976.01529-.12313.02091A2.95708,2.95708,0,0,0,221.61171,14.02105Z"/><path class="cls-13" d="M227.731,15.45433l-.25179.045a2.95047,2.95047,0,0,0-3.35616-.00185c-.02745-.00427-.07244-.00991-.11685-.01858-.03934-.00768-.078-.01874-.11978-.029a2.94809,2.94809,0,0,1,1.74034-.68648A2.98687,2.98687,0,0,1,227.731,15.45433Z"/><path class="cls-13" d="M222.726,18.40372l-.282.05291a2.90611,2.90611,0,0,0-3.32921-.00074L218.841,18.404c.04043-.03681.06428-.063.09238-.08342a3.12237,3.12237,0,0,1,3.6737-.01047C222.64319,18.336,222.677,18.365,222.726,18.40372Z"/><path class="cls-13" d="M222.70491,15.44943l-.0094.00659c-.08155.01493-.16317.02953-.23833.043a2.95036,2.95036,0,0,0-3.35829.00022l-.23908-.04559a3.01265,3.01265,0,0,1,3.8451-.00426Z"/><path class="cls-13" d="M221.61079,19.9332l-.24314-.04958a2.91138,2.91138,0,0,1,1.72037-.68575,3.07565,3.07565,0,0,1,2.13944.67145l-.01264.01541c-.08561.01642-.17128.03246-.24585.04647A2.94388,2.94388,0,0,0,221.61079,19.9332Z"/><path class="cls-13" d="M223.10427,15.75024a2.47756,2.47756,0,0,1-.73744-.04341,3.58005,3.58005,0,0,1,2.05781.03805,3.79571,3.79571,0,0,1,1.74353,1.16105l-.2883-.0185c-.171-.1436-.32658-.28884-.49672-.41427a3.39753,3.39753,0,0,0-1.71168-.66216c-.14871-.01454-.29878-.01553-.44829-.02117C223.17742,15.7881,223.13047,15.79479,223.10427,15.75024Z"/><path class="cls-13" d="M223.79343,18.29076l-.13416-.14914a3.387,3.387,0,0,1,3.46209-.48518l-.16659.1465A3.26211,3.26211,0,0,0,223.79343,18.29076Z"/><path class="cls-13" d="M221.14914,19.86232l-.30443-.02221a3.59119,3.59119,0,0,0-2.97168-1.0825V18.5487a3.68764,3.68764,0,0,1,1.76744.236A3.77562,3.77562,0,0,1,221.14914,19.86232Z"/><path class="cls-13" d="M217.55066,16.19563l-.08873-.18146a3.37125,3.37125,0,0,1,3.2.86937l-.27152.02894A3.24992,3.24992,0,0,0,217.55066,16.19563Z"/><path class="cls-13" d="M222.05548,14.14623l-.258-.081a2.73085,2.73085,0,0,1,2.988-.00178l-.26088.08259A2.5831,2.5831,0,0,0,222.05548,14.14623Z"/><path class="cls-13" d="M224.78711,19.97474l-.26229.0785a2.58777,2.58777,0,0,0-2.4675.00051l-.25477-.07554A2.7091,2.7091,0,0,1,224.78711,19.97474Z"/><path class="cls-13" d="M227.30319,15.54048l-.26639.081a2.60044,2.60044,0,0,0-2.466-.00193c-.03627-.00957-.08029-.01989-.12348-.03294-.04272-.01292-.08462-.02859-.13191-.04477A2.73529,2.73529,0,0,1,227.30319,15.54048Z"/><path class="cls-13" d="M219.54582,18.5771l-.25523-.07838a2.70318,2.70318,0,0,1,2.97551-.00137l-.25295.07964A2.58394,2.58394,0,0,0,219.54582,18.5771Z"/><path class="cls-13" d="M222.04731,15.6175c-.09651-.03722-.18957-.07178-.28162-.10884a2.54037,2.54037,0,0,0-2.117.065c-.03366.01588-.06718.03208-.1022.04882l-.25451-.078a2.71879,2.71879,0,0,1,2.97314-.01121C222.20229,15.58182,222.12356,15.57808,222.04731,15.6175Z"/><path class="cls-13" d="M220.66579,19.84015l-.27785.02609a3.236,3.236,0,0,0-2.48207-.77316c-.00731-.03721-.0159-.06809-.01887-.09951-.00307-.03253-.00068-.06558-.00068-.09806A3.33512,3.33512,0,0,1,220.66579,19.84015Z"/><path class="cls-13" d="M226.82545,17.8957l-.23179.141a2.92488,2.92488,0,0,0-2.45881.41885c-.05524-.00973-.10833-.01848-.16115-.02862-.02817-.0054-.05587-.01322-.08658-.02062.00259-.05452.04714-.06892.0782-.09164a3.059,3.059,0,0,1,1.32189-.55574,3.09851,3.09851,0,0,1,1.46728.10614C226.7729,17.8709,226.79017,17.88032,226.82545,17.8957Z"/><path class="cls-13" d="M223.41157,20.85247a3.81312,3.81312,0,0,1,2.68988-.84024l-.08109.20546a3.85222,3.85222,0,0,0-1.28908.16522,3.6059,3.6059,0,0,0-1.15108.61446C223.5111,20.96782,223.4754,20.90386,223.41157,20.85247Z"/><path class="cls-13" d="M223.13488,16.11792a.68026.68026,0,0,1-.01554-.0808c-.00236-.03652-.00062-.0733-.00062-.10784a3.31055,3.31055,0,0,1,2.56024.957l-.27124.02507A3.26044,3.26044,0,0,0,223.13488,16.11792Z"/><path class="cls-13" d="M221.78764,20.48657l-.21107.16077a3.29555,3.29555,0,0,0-2.2324.23895l-.24075-.11211a2.9996,2.9996,0,0,1,.88771-.34827A3.49,3.49,0,0,1,221.78764,20.48657Z"/><path class="cls-13" d="M219.93075,16.97863a2.92449,2.92449,0,0,0-2.18174-.48137l-.12138-.16639a2.394,2.394,0,0,1,1.08719-.062,3.096,3.096,0,0,1,1.504.65839Z"/><path class="cls-13" d="M218.54722,12.96059a3.43225,3.43225,0,0,1,2.12767.971l-.29028.02361a3.24765,3.24765,0,0,0-2.14717-.79156A1.53224,1.53224,0,0,1,218.54722,12.96059Z"/><path class="cls-13" d="M221.13493,13.94289h-.2825a3.80578,3.80578,0,0,0-.94915-.71072,3.66957,3.66957,0,0,0-1.10575-.36121l.00227-.02842c.12292-.03341.24518-.06968.3692-.09835a.23978.23978,0,0,1,.1092.01252,3.626,3.626,0,0,1,1.38424.72043c.13749.114.26185.24385.39082.36792A1.1786,1.1786,0,0,1,221.13493,13.94289Z"/><path class="cls-13" d="M225.94361,20.35724c-.01318.02667-.02424.05312-.03877.07752-.02325.039-.0488.07673-.07628.11951a3.19628,3.19628,0,0,0-2.03227.69339l-.13456-.15029A3.27115,3.27115,0,0,1,225.94361,20.35724Z"/><path class="cls-13" d="M217.98228,19.42087l-.0559-.20142a1.30678,1.30678,0,0,1,.13929-.02249,3.1065,3.1065,0,0,1,2.09061.63352c.01606.01214.02975.02744.05284.049-.05278.01183-.09506.02246-.13782.03057-.04477.00848-.09.01454-.14166.0227A2.89459,2.89459,0,0,0,217.98228,19.42087Z"/><path class="cls-13" d="M220.19349,13.97966l-.264.0431a2.92055,2.92055,0,0,0-2.08755-.49356c.0284-.03509.04823-.06175.07037-.08633s.04784-.04641.07007-.07113c.02507-.0279.048-.05769.0658-.07925A2.98307,2.98307,0,0,1,220.19349,13.97966Z"/><path class="cls-13" d="M221.7909,11.27768a3.78454,3.78454,0,0,1,1.85531,1.18529H223.355a3.6063,3.6063,0,0,0-1.8227-1.02947Z"/><path class="cls-13" d="M225.22131,16.93077l-.2678.04949a2.88881,2.88881,0,0,0-1.774-.52357l-.0401-.19909A2.95157,2.95157,0,0,1,225.22131,16.93077Z"/><path class="cls-13" d="M217.556,13.92693c.0334-.056.05585-.09541.08009-.1337.02443-.03856.05064-.076.08182-.12249a2.80709,2.80709,0,0,1,2.05757.38778l-.26907.08544A2.66578,2.66578,0,0,0,217.556,13.92693Z"/><path class="cls-13" d="M221.18975,11.714l.21107-.18338a3.40709,3.40709,0,0,1,1.787.92508l-.29339.022A3.25156,3.25156,0,0,0,221.18975,11.714Z"/><path class="cls-13" d="M222.474,14.31611l-.26446-.11574a2.49025,2.49025,0,0,1,2.16244-.00209l-.26576.11787A2.29286,2.29286,0,0,0,222.474,14.31611Z"/><path class="cls-13" d="M224.10037,20.22733a2.1867,2.1867,0,0,0-.81525-.15408,2.15437,2.15437,0,0,0-.80513.15389l-.25569-.11216a2.39246,2.39246,0,0,1,2.13518-.00321Z"/><path class="cls-13" d="M224.99021,15.79588c-.08067-.03553-.1528-.06713-.2247-.09924a.112.112,0,0,1-.0198-.01467,2.374,2.374,0,0,1,2.12436-.00169l-.25607.11508a2.351,2.351,0,0,0-.81388-.15217A2.27712,2.27712,0,0,0,224.99021,15.79588Z"/><path class="cls-13" d="M219.9688,15.7957l-.25363-.11055a2.37407,2.37407,0,0,1,2.1308-.00415l-.25576.11473A2.23051,2.23051,0,0,0,219.9688,15.7957Z"/><path class="cls-13" d="M219.96929,18.74956l-.27311-.11965a2.51629,2.51629,0,0,1,2.164-.00144l-.26885.121A2.24107,2.24107,0,0,0,219.96929,18.74956Z"/><path class="cls-13" d="M224.57268,18.57687l-.25436-.07622a2.62347,2.62347,0,0,1,2.07509-.37156c-.07484.02625-.1387.0494-.20307.071-.06651.02234-.13351.0432-.21319.06886A2.58623,2.58623,0,0,0,224.57268,18.57687Z"/><path class="cls-13" d="M217.40981,14.289a.17367.17367,0,0,1,.00419-.04655c.01993-.05413.04234-.10735.06478-.16332a2.48906,2.48906,0,0,1,1.86826.12035l-.2684.11917a2.22586,2.22586,0,0,0-1.53916-.03A.13545.13545,0,0,1,217.40981,14.289Z"/><path class="cls-13" d="M218.0171,16.79646c-.06079-.065-.13512-.10763-.16906-.195a2.81583,2.81583,0,0,1,1.92617.41121c-.05969.02021-.10092.03532-.14287.048-.0436.01322-.0879.02412-.13855.03784A2.60652,2.60652,0,0,0,218.0171,16.79646Z"/><path class="cls-13" d="M224.13542,21.41133c-.07438-.01447-.14345-.02756-.21232-.04163a.309.309,0,0,1-.0439-.01777.481.481,0,0,1,.0582-.06318,3.01433,3.01433,0,0,1,1.32585-.5713c.1508-.025.30375-.03718.4762-.05765a.93572.93572,0,0,1-.1929.23453A2.90191,2.90191,0,0,0,224.13542,21.41133Z"/><path class="cls-13" d="M222.73273,12.49623l-.29049.05046a2.99624,2.99624,0,0,0-.70716-.36234,2.85184,2.85184,0,0,0-.78643-.1549.78614.78614,0,0,1,.14244-.206A3.09937,3.09937,0,0,1,222.73273,12.49623Z"/><path class="cls-13" d="M219.761,19.97511l-.25881.07817a2.69251,2.69251,0,0,0-1.38377-.31409c-.01564-.02805-.03533-.05892-.05049-.09186-.01361-.02958-.02224-.06144-.03319-.09262A2.54276,2.54276,0,0,1,219.761,19.97511Z"/><path class="cls-13" d="M221.39693,20.757c-.03656.01922-.07365.03751-.1096.05783a.6133.6133,0,0,1-.358.078,2.78714,2.78714,0,0,0-.97428.1099.39554.39554,0,0,1-.171.01076.63835.63835,0,0,1-.263-.08015,3.12664,3.12664,0,0,1,1.87132-.20274Z"/><path class="cls-13" d="M224.79706,17.01492l-.27661.08563a2.60867,2.60867,0,0,0-1.24339-.31255l-.07132-.21768A2.83851,2.83851,0,0,1,224.79706,17.01492Z"/><path class="cls-13" d="M218.61042,15.42372l-.28174-.01261a3.69691,3.69691,0,0,0-1.01877-.74571.96556.96556,0,0,1,.00864-.10036.93719.93719,0,0,1,.02745-.09421A3.12914,3.12914,0,0,1,218.61042,15.42372Z"/><path class="cls-13" d="M227.83775,16.2766l-.04269.205c-.21026.06931-.41188.12207-.60191.20228-.19053.08041-.36949.18821-.569.29207l-.259-.05126A3.08787,3.08787,0,0,1,227.83775,16.2766Z"/><path class="cls-13" d="M222.28613,12.58323l-.27758.08652a2.56952,2.56952,0,0,0-1.26812-.31275l.11251-.21484A2.78146,2.78146,0,0,1,222.28613,12.58323Z"/><path class="cls-13" d="M222.6437,17.20629a1.85415,1.85415,0,0,1,.69966-.28789,1.11452,1.11452,0,0,1,.34635.02194,2.17814,2.17814,0,0,1,.67351.21553l-.26327.117A2.30713,2.30713,0,0,0,222.6437,17.20629Z"/><path class="cls-13" d="M226.15138,18.60173c-.21369.00421-.40884-.00569-.60049.01573-.18805.021-.37255.07386-.5886.119l-.24008-.10291a2.46031,2.46031,0,0,1,1.36219-.23458Z"/><path class="cls-13" d="M223.18157,21.31587l-.26829.02636c-.16851-.11608-.32463-.22516-.48256-.33154a.84218.84218,0,0,0-.16223-.0918.85694.85694,0,0,1-.37073-.38366A3.26435,3.26435,0,0,1,223.18157,21.31587Z"/><path class="cls-13" d="M221.58948,12.84151a2.366,2.366,0,0,0-.983-.149l.07707-.21844a2.45462,2.45462,0,0,1,1.16992.25088Z"/><path class="cls-13" d="M217.61857,14.40027a1.88481,1.88481,0,0,1,1.29282.00243l-.23415.13792a2.19774,2.19774,0,0,0-.81638.0014Z"/><path class="cls-13" d="M221.43063,15.87612l-.2438.14228a2.10211,2.10211,0,0,0-.81244.00137l-.24708-.14251A1.93969,1.93969,0,0,1,221.43063,15.87612Z"/><path class="cls-13" d="M223.93984,14.39978l-.22706.13314c-.14531-.01-.28149-.02655-.4177-.02674s-.27266.016-.42822.02622l-.22037-.1281A1.87654,1.87654,0,0,1,223.93984,14.39978Z"/><path class="cls-13" d="M226.454,15.87593l-.24579.14225a2.12052,2.12052,0,0,0-.81221.00112l-.24572-.14219A1.94143,1.94143,0,0,1,226.454,15.87593Z"/><path class="cls-13" d="M222.88094,17.49615l-.241-.143a1.94785,1.94785,0,0,1,1.30353-.0002c-.04525.02582-.08181.04632-.118.06744-.03937.023-.0784.0465-.12581.07469A2.14921,2.14921,0,0,0,222.88094,17.49615Z"/><path class="cls-13" d="M221.43023,18.82949l-.24356.1426a2.14868,2.14868,0,0,0-.81365.00036l-.23944-.13749A1.8727,1.8727,0,0,1,221.43023,18.82949Z"/><path class="cls-13" d="M222.87839,20.44879l-.25017-.14893a2.10922,2.10922,0,0,1,1.32162-.00062l-.24658.149A2.29562,2.29562,0,0,0,222.87839,20.44879Z"/><path class="cls-13" d="M222.88486,11.58924l-.23366-.13672a1.85068,1.85068,0,0,1,1.28669-.0074l-.24267.14331A1.97752,1.97752,0,0,0,222.88486,11.58924Z"/><path class="cls-13" d="M220.54906,12.87573l.03391-.05762a2.03456,2.03456,0,0,1,.85391.09782l-.235.14028c-.145-.00964-.28135-.02549-.41773-.02587s-.273.0147-.42993.02425l-.21884-.12824A.47832.47832,0,0,1,220.54906,12.87573Z"/><path class="cls-13" d="M223.79675,12.38753l-.14287-.16043a3.31169,3.31169,0,0,1,.8928-.51947l.15321.17A3.40464,3.40464,0,0,0,223.79675,12.38753Z"/><path class="cls-13" d="M223.57786,12.13844c-.02827-.02331-.05416-.04344-.07864-.06517-.02477-.022-.04814-.04555-.08259-.0784a3.50146,3.50146,0,0,1,.84479-.52746l.19.15153A3.74829,3.74829,0,0,0,223.57786,12.13844Z"/><path class="cls-13" d="M219.32909,20.11575l-.24841.1101a2.37373,2.37373,0,0,0-.76654-.14951l-.12479-.18964A1.95837,1.95837,0,0,1,219.32909,20.11575Z"/><path class="cls-13" d="M221.86418,15.8778l-.097.23193-.71235.44744-.13033-.14878a3.5608,3.5608,0,0,1,.91651-.5483Z"/><path class="cls-13" d="M224.77727,11.97814l.12049.17559c-.13641.06057-.26917.1133-.39607.1776-.12551.0636-.24511.13888-.37616.21413l-.271-.05123A3.02321,3.02321,0,0,1,224.77727,11.97814Z"/><path class="cls-13" d="M226.18445,18.75162l.039.21619c-.10177-.01084-.18976-.02391-.2782-.02862a2.55027,2.55027,0,0,0-.27358-.00067c-.09088.00494-.18126.01916-.2838.03065l-.249-.145A2.07515,2.07515,0,0,1,226.18445,18.75162Z"/><path class="cls-13" d="M219.34532,17.15531l-.25324.11147-.43764-.111a.13754.13754,0,0,0-.03623-.00845c-.18783.00666-.30819-.12059-.47005-.22843A2.318,2.318,0,0,1,219.34532,17.15531Z"/><path class="cls-13" d="M227.06686,17.095l-.23614-.071a2.03836,2.03836,0,0,1,.89838-.37926c.00209.08317.00012.08989-.06136.21141Z"/><path class="cls-13" d="M225.35807,21.05042a2.1246,2.1246,0,0,1-.85456.46l-.20881-.06262A2.49007,2.49007,0,0,1,225.35807,21.05042Z"/><path class="cls-13" d="M217.96169,18.023l.07046-.20731a3.6554,3.6554,0,0,1,.60175.568l-.30142-.02018Z"/><path class="cls-13" d="M224.96344,12.27039l.08848.18389-.49128.21215-.26343-.08135A2.46065,2.46065,0,0,1,224.96344,12.27039Z"/><path class="cls-13" d="M226.15594,13.9403h-.2758l-.40459-.36263a.97776.97776,0,0,1,.34382.01481A2.68646,2.68646,0,0,1,226.15594,13.9403Z"/><path class="cls-13" d="M218.36106,17.24025a1.90317,1.90317,0,0,1,.56482.10786l-.24036.14207-.44961-.04325A.61061.61061,0,0,1,218.36106,17.24025Z"/><path class="cls-13" d="M221.62691,16.35682l-.19277.26451.03127.06135-.18146.13383-.139-.15791A1.71445,1.71445,0,0,1,221.62691,16.35682Z"/><path class="cls-13" d="M225.16465,12.77805l-.17393.06416-.26535-.11787a1.51611,1.51611,0,0,1,.37464-.144Z"/><path class="cls-13" d="M224.10086,21.58061a2.00944,2.00944,0,0,1-.91286-.09666A3.1447,3.1447,0,0,1,224.10086,21.58061Z"/><path class="cls-13" d="M225.9214,19.3765l.30177-.22316a.68414.68414,0,0,1,.00157.26177l-.13612.1083Z"/><path class="cls-13" d="M221.03335,19.07308l-.25329.19432-.2553-.19171A1.14415,1.14415,0,0,1,221.03335,19.07308Z"/><path class="cls-13" d="M218.41511,20.19871a1.7877,1.7877,0,0,1,.50806.10335l-.25135.14955A.97851.97851,0,0,1,218.41511,20.19871Z"/><path class="cls-13" d="M223.54286,17.59751l-.25226.19231-.25408-.19107A1.1107,1.1107,0,0,1,223.54286,17.59751Z"/><path class="cls-13" d="M223.55044,11.68293l-.25981.19911-.26059-.19776A1.64793,1.64793,0,0,1,223.55044,11.68293Z"/><path class="cls-13" d="M225.54808,19.076a1.14709,1.14709,0,0,1,.50682-.00257l-.25321.19385Z"/><path class="cls-13" d="M225.80112,16.31324l-.25457-.1927a1.33721,1.33721,0,0,1,.51441-.00618Z"/><path class="cls-13" d="M223.03262,14.641a1.243,1.243,0,0,1,.51.00268l-.25274.19165Z"/><path class="cls-13" d="M218.52172,14.64275l-.25348.1923-.25789-.19382A1.27312,1.27312,0,0,1,218.52172,14.64275Z"/><path class="cls-13" d="M221.03712,16.11687l-.25862.19536-.25416-.19123A1.25216,1.25216,0,0,1,221.03712,16.11687Z"/><path class="cls-13" d="M220.775,13.35668l-.25346-.19433a1.56936,1.56936,0,0,1,.51293-.00239A2.913,2.913,0,0,1,220.775,13.35668Z"/><path class="cls-13" d="M223.54231,20.55194l-.25314.19205-.2409-.183A.94407.94407,0,0,1,223.54231,20.55194Z"/><path class="cls-13" d="M218.26521,17.79178l-.1588-.128.04093-.0838a.99565.99565,0,0,1,.37521.017Z"/><path class="cls-13" d="M221.77165,16.8817l-.14316.098-.28029-.05292a1.188,1.188,0,0,1,.24946-.17948Z"/><path class="cls-13" d="M226.77339,13.94061l-.12205.08189-.27163-.04647c.05084-.07762.12181-.10267.17991-.15536Z"/><path class="cls-13" d="M227.59254,17.0377l-.13088.21522-.23644-.10191.34924-.137Z"/><path class="cls-13" d="M217.885,18.3887l.04188-.23472.23686.20581Z"/><path class="cls-13" d="M220.17852,12.76836l-.21051.07274-.25083-.11025A.9181.9181,0,0,1,220.17852,12.76836Z"/><path class="cls-13" d="M226.4399,13.76522l-.13315.09993-.14345-.16636C226.27278,13.66973,226.34246,13.733,226.4399,13.76522Z"/><path class="cls-13" d="M25.87835,66.06957a6.07184,6.07184,0,0,0-1.59483.43142,6.47217,6.47217,0,0,0-1.41273.84291l-.24478-.23214a5.88923,5.88923,0,0,1,3.18486-1.37713l.06748.20841Z"/><path class="cls-13" d="M25.87835,66.61786c-.15559.03542-.31126.07052-.46676.1063a5.3905,5.3905,0,0,0-2.09135.98871c-.01644.0126-.035.02242-.07386.047l-.23348-.26709a4.74051,4.74051,0,0,1,.67546-.47023,5.83164,5.83164,0,0,1,2.0225-.73005c.05495-.00925.11162-.00826.16749-.012Z"/><path class="cls-13" d="M17.73828,57.97167c.15581.028.31183.055.4674.08434a3.46034,3.46034,0,0,1,1.11861.40974,4.90479,4.90479,0,0,0-1.27726-.15639,3.8673,3.8673,0,0,0-1.2504.25623l-.43942-.19114a3.26031,3.26031,0,0,1,.84855-.31489c.13412-.03407.27059-.05888.406-.08789Z"/><path class="cls-13" d="M7.99549,64.42468l.06936-.07458a5.76636,5.76636,0,0,1,1.444,1.03177l-.43459.042-1.07874-.704Z"/><path class="cls-13" d="M7.99549,64.973a3.17317,3.17317,0,0,1,.29512.15042c.14531.09314.283.19819.46322.32611l-.48693.09338-.20231-.13533-.0691-.2237Z"/><path class="cls-13" d="M10.16468,64.8497l-.24093-.2239a6.29125,6.29125,0,0,1,8.82337.77385h-.46075A6.0348,6.0348,0,0,0,10.16468,64.8497Z"/><path class="cls-13" d="M14.40155,72.32656l-.2446-.23313a6.28867,6.28867,0,0,1,8.82193.79109L22.5,72.86014a6.003,6.003,0,0,0-8.09848-.53358Z"/><path class="cls-13" d="M18.27506,70.37823a6.03111,6.03111,0,0,0-8.11092-.55132l-.25835-.23106c.04828-.04315.08567-.08113.12752-.11332a6.30791,6.30791,0,0,1,3.00891-1.26876,6.39758,6.39758,0,0,1,2.88712.25747c.21238.068.41423.13779.5.391l.16817-.12388a6.41742,6.41742,0,0,1,2.18046,1.65845c-.117-.008-.1938-.01534-.27081-.018S18.3532,70.37823,18.27506,70.37823Z"/><path class="cls-13" d="M18.75027,75.383l-.48413-.03513A6.01921,6.01921,0,0,0,10.902,74.31l-.29534-.19643a6.38108,6.38108,0,0,1,3.54555-.98805A6.2655,6.2655,0,0,1,18.75027,75.383Z"/><path class="cls-13" d="M22.21373,62.89914c-.09926.00533-.17608.00811-.25267.01395-.07634.00583-.15243.01472-.22087.0215a5.47522,5.47522,0,0,0-6.96066-.15676l-.23079-.25905A5.77713,5.77713,0,0,1,22.21373,62.89914Z"/><path class="cls-13" d="M14.54167,72.47669a5.78748,5.78748,0,0,1,7.65951.379l-.467.04621a5.45424,5.45424,0,0,0-6.949-.16269Z"/><path class="cls-13" d="M17.96758,65.38585l-.4575.0405a5.497,5.497,0,0,0-6.97172-.16293l-.22234-.24771A5.75334,5.75334,0,0,1,17.96758,65.38585Z"/><path class="cls-13" d="M17.95,70.36593l-.45509.04552a5.42816,5.42816,0,0,0-6.96059-.14487c-.03535-.049-.06625-.09513-.10065-.13851-.03461-.04364-.07271-.08452-.10922-.12656A5.7198,5.7198,0,0,1,17.95,70.36593Z"/><path class="cls-13" d="M21.44029,61.59841v.404a6.06914,6.06914,0,0,0-7.04416.35392l-.24109-.22482A6.27987,6.27987,0,0,1,21.44029,61.59841Z"/><path class="cls-13" d="M19.014,65.26937l-.2317-.25934a5.76569,5.76569,0,0,1,6.74936-.34855c.04364.11928.09507.2565.14371.39471.01542.0438.02338.09022.039.15237A5.48594,5.48594,0,0,0,19.014,65.26937Z"/><path class="cls-13" d="M18.63571,64.85729l-.26244-.24807c.0571-.04829.10713-.095.1615-.13593a6.39039,6.39039,0,0,1,6.24219-.8454.497.497,0,0,1,.24584.18758c.08965.13417.18292.26593.27329.39963a.348.348,0,0,1,.02261.07638,6.00022,6.00022,0,0,0-6.683.56581Z"/><path class="cls-13" d="M25.02544,68.73823l-.23011.26151a6.06774,6.06774,0,0,0-6.168.83l-.24776-.23515A6.28271,6.28271,0,0,1,25.02544,68.73823Z"/><path class="cls-13" d="M14.548,67.91144c-.11554-.00955-.19135-.0183-.26739-.0214-.07691-.00314-.154-.0007-.236-.0007a6.083,6.083,0,0,0-2.66786-1.62425,6.016,6.016,0,0,0-3.10615-.07293.5901.5901,0,0,1-.11032-.3428,6.22337,6.22337,0,0,1,3.46434.11146A6.31434,6.31434,0,0,1,14.548,67.91144Z"/><path class="cls-13" d="M15.33161,63.04541c-.11531-.02048-.24623-.04315-.37673-.068-.01048-.002-.01814-.01882-.02709-.02877a5.16725,5.16725,0,0,1,6.49511.0139c-.08588.01747-.156.03276-.22653.04579-.07549.014-.15137.02578-.20763.03525A4.98628,4.98628,0,0,0,15.33161,63.04541Z"/><path class="cls-13" d="M25.65013,65.46225l-.42457.07592a4.97516,4.97516,0,0,0-5.65925-.00313c-.04629-.0072-.12216-.01671-.197-.03133-.06634-.013-.13157-.0316-.202-.04888a4.97109,4.97109,0,0,1,2.93461-1.15757A5.03655,5.03655,0,0,1,25.65013,65.46225Z"/><path class="cls-13" d="M17.21051,70.43558l-.47553.08923a4.90031,4.90031,0,0,0-5.6138-.00124l-.46161-.08744c.06818-.06207.10839-.10631.15577-.14067A5.265,5.265,0,0,1,17.01,70.2778C17.07092,70.32135,17.12791,70.37033,17.21051,70.43558Z"/><path class="cls-13" d="M17.175,65.454c-.00526.00382-.01009.01-.01586.0111-.13752.02518-.27514.04981-.40188.07258a4.975,4.975,0,0,0-5.66284.00037l-.40315-.07688A5.08007,5.08007,0,0,1,17.175,65.454Z"/><path class="cls-13" d="M15.33,73.01464l-.41-.08361A4.90933,4.90933,0,0,1,17.821,71.7747a5.18629,5.18629,0,0,1,3.60758,1.13223c-.01415.01761-.01709.02516-.02133.026-.14434.02769-.28881.05475-.41454.07837A4.96406,4.96406,0,0,0,15.33,73.01464Z"/><path class="cls-13" d="M17.84839,65.96121a4.17747,4.17747,0,0,1-1.24348-.07319,6.03667,6.03667,0,0,1,3.46993.06417,6.40018,6.40018,0,0,1,2.94,1.95779l-.48614-.0312c-.28841-.24214-.55068-.48705-.83757-.69855a5.72919,5.72919,0,0,0-2.8863-1.11656c-.25075-.02452-.5038-.02618-.7559-.0357C17.97174,66.02506,17.89257,66.03634,17.84839,65.96121Z"/><path class="cls-13" d="M19.01048,70.24511l-.22623-.25148a5.71129,5.71129,0,0,1,5.83787-.81813l-.28091.247A5.50065,5.50065,0,0,0,19.01048,70.24511Z"/><path class="cls-13" d="M14.55159,72.89512l-.51333-.03745a6.0556,6.0556,0,0,0-5.01093-1.82535v-.35227a6.21828,6.21828,0,0,1,2.98031.398A6.36661,6.36661,0,0,1,14.55159,72.89512Z"/><path class="cls-13" d="M8.48374,66.71224l-.14962-.306A5.6847,5.6847,0,0,1,13.73,67.87221l-.45783.04881A5.48017,5.48017,0,0,0,8.48374,66.71224Z"/><path class="cls-13" d="M16.07989,63.25649l-.43509-.13658a4.60485,4.60485,0,0,1,5.0385-.003l-.43991.13927A4.35576,4.35576,0,0,0,16.07989,63.25649Z"/><path class="cls-13" d="M20.686,73.08469l-.44227.13236a4.36362,4.36362,0,0,0-4.16077.00086l-.4296-.12737A4.56812,4.56812,0,0,1,20.686,73.08469Z"/><path class="cls-13" d="M24.92872,65.60752l-.44919.13653a4.38491,4.38491,0,0,0-4.15826-.00325c-.06115-.01614-.13537-.03354-.2082-.05556-.07205-.02178-.14269-.0482-.22243-.07549A4.61233,4.61233,0,0,1,24.92872,65.60752Z"/><path class="cls-13" d="M11.848,70.728l-.43036-.13217a4.55816,4.55816,0,0,1,5.01738-.00231l-.42653.13428A4.35711,4.35711,0,0,0,11.848,70.728Z"/><path class="cls-13" d="M16.06612,65.73739c-.16273-.06277-.31965-.121-.47488-.18353a4.28367,4.28367,0,0,0-3.56971.10961c-.05676.02678-.11327.0541-.17233.08234L11.42,65.61426a4.58451,4.58451,0,0,1,5.0134-.0189C16.32745,65.67722,16.19469,65.67092,16.06612,65.73739Z"/><path class="cls-13" d="M13.73656,72.85774l-.46852.044A5.45648,5.45648,0,0,0,9.08272,71.598c-.01234-.06274-.02683-.11482-.03182-.16779-.00518-.05486-.00116-.11059-.00116-.16536A5.62371,5.62371,0,0,1,13.73656,72.85774Z"/><path class="cls-13" d="M24.12315,69.579l-.39084.23773a4.932,4.932,0,0,0-4.14612.70627c-.09315-.0164-.18267-.03115-.27174-.04825-.0475-.00912-.09421-.02229-.146-.03477.00438-.09194.0795-.11622.13188-.15453a5.158,5.158,0,0,1,2.229-.93712,5.22494,5.22494,0,0,1,2.47418.179C24.03453,69.53713,24.06365,69.553,24.12315,69.579Z"/><path class="cls-13" d="M18.36657,74.56474a6.42974,6.42974,0,0,1,4.53576-1.41684l-.13675.34645a6.49543,6.49543,0,0,0-2.17367.27861,6.0801,6.0801,0,0,0-1.941,1.03611C18.53441,74.75925,18.47421,74.65138,18.36657,74.56474Z"/><path class="cls-13" d="M17.9,66.58121a1.15019,1.15019,0,0,1-.02621-.13624c-.004-.06159-.001-.12361-.001-.18185a5.58231,5.58231,0,0,1,4.31714,1.6137l-.45736.04228A5.4979,5.4979,0,0,0,17.9,66.58121Z"/><path class="cls-13" d="M15.62826,73.94775l-.35591.27108a5.55716,5.55716,0,0,0-3.76435.40294l-.40595-.189a5.0582,5.0582,0,0,1,1.49689-.58726A5.88486,5.88486,0,0,1,15.62826,73.94775Z"/><path class="cls-13" d="M12.49712,68.03256a4.93135,4.93135,0,0,0-3.67891-.81169l-.20468-.28058a4.037,4.037,0,0,1,1.83326-.10453,5.22057,5.22057,0,0,1,2.536,1.1102Z"/><path class="cls-13" d="M10.16418,61.25724A5.78756,5.78756,0,0,1,13.7519,62.8946l-.48948.03983a5.47631,5.47631,0,0,0-3.6206-1.33476A2.58352,2.58352,0,0,1,10.16418,61.25724Z"/><path class="cls-13" d="M14.52764,62.91361h-.47637a6.41735,6.41735,0,0,0-1.60048-1.19842,6.18709,6.18709,0,0,0-1.86455-.60909l.00383-.04793c.20728-.05633.41344-.11748.62256-.16583a.4043.4043,0,0,1,.18413.0211,6.11442,6.11442,0,0,1,2.33416,1.21481c.23183.19217.44154.4112.659.62041A1.98258,1.98258,0,0,1,14.52764,62.91361Z"/><path class="cls-13" d="M22.63617,73.72966c-.02223.045-.04088.08959-.06538.13073-.03921.06584-.08228.12938-.12863.20152a5.38969,5.38969,0,0,0-3.42686,1.1692l-.2269-.25342A5.516,5.516,0,0,1,22.63617,73.72966Z"/><path class="cls-13" d="M9.21156,72.15073l-.09426-.33964a2.20441,2.20441,0,0,1,.23487-.03792,5.23838,5.23838,0,0,1,3.52524,1.06826c.02709.02048.05017.04626.0891.08263-.089.01994-.16029.03788-.2324.05154-.07548.01431-.15175.02452-.23886.03828A4.88089,4.88089,0,0,0,9.21156,72.15073Z"/><path class="cls-13" d="M12.94016,62.97562l-.4452.07268A4.92475,4.92475,0,0,0,8.97488,62.216c.04789-.05917.08133-.10412.11865-.14556.03753-.04166.08068-.07826.11816-.12.04228-.047.081-.09727.11095-.13363A5.03015,5.03015,0,0,1,12.94016,62.97562Z"/><path class="cls-13" d="M15.63375,58.41946a6.3817,6.3817,0,0,1,3.12848,1.99867h-.49109a6.08092,6.08092,0,0,0-3.07347-1.73592Z"/><path class="cls-13" d="M21.4182,67.95186l-.45157.08346a4.87113,4.87113,0,0,0-2.99142-.88287l-.06761-.3357A4.97689,4.97689,0,0,1,21.4182,67.95186Z"/><path class="cls-13" d="M8.49279,62.88671c.05633-.09439.09418-.16089.13507-.22545.04118-.065.08538-.12814.138-.20654a4.73331,4.73331,0,0,1,3.46953.65388l-.45371.14406A4.49506,4.49506,0,0,0,8.49279,62.88671Z"/><path class="cls-13" d="M14.62007,59.15517,14.976,58.846a5.745,5.745,0,0,1,3.01323,1.55989l-.49471.03716A5.483,5.483,0,0,0,14.62007,59.15517Z"/><path class="cls-13" d="M16.78554,63.543l-.44593-.19518a4.19912,4.19912,0,0,1,3.64637-.00352l-.44814.19876A3.86619,3.86619,0,0,0,16.78554,63.543Z"/><path class="cls-13" d="M19.528,73.51061a3.68716,3.68716,0,0,0-1.37469-.25981,3.63274,3.63274,0,0,0-1.35763.25949l-.43116-.18913a4.03427,4.03427,0,0,1,3.60041-.00542Z"/><path class="cls-13" d="M21.02852,66.03817c-.136-.05991-.25766-.11318-.37889-.16734a.18812.18812,0,0,1-.03339-.02473,4.00313,4.00313,0,0,1,3.58215-.00285l-.43179.194a3.9646,3.9646,0,0,0-1.37239-.25659A3.84007,3.84007,0,0,0,21.02852,66.03817Z"/><path class="cls-13" d="M12.56128,66.03788l-.42768-.18641a4.00321,4.00321,0,0,1,3.593-.007l-.43127.19347A3.76105,3.76105,0,0,0,12.56128,66.03788Z"/><path class="cls-13" d="M12.56211,71.01876l-.46053-.20177a4.24311,4.24311,0,0,1,3.649-.00243l-.45334.204A3.77885,3.77885,0,0,0,12.56211,71.01876Z"/><path class="cls-13" d="M20.32447,70.72755l-.42892-.12851a4.42383,4.42383,0,0,1,3.49908-.62654c-.1262.04427-.23388.08331-.34243.11977-.11213.03767-.22511.07285-.35947.11612A4.361,4.361,0,0,0,20.32447,70.72755Z"/><path class="cls-13" d="M8.24624,63.49726a.29247.29247,0,0,1,.00707-.07848c.03359-.09128.07138-.181.10923-.2754a4.19712,4.19712,0,0,1,3.15031.20294l-.45258.20094A3.75326,3.75326,0,0,0,8.4649,63.4967.22841.22841,0,0,1,8.24624,63.49726Z"/><path class="cls-13" d="M9.27028,67.72539c-.10252-.10965-.22785-.18149-.28508-.32877a4.7481,4.7481,0,0,1,3.248.6934c-.10066.03407-.17018.05955-.24092.081-.07352.02229-.14822.04067-.23362.0638A4.39513,4.39513,0,0,0,9.27028,67.72539Z"/><path class="cls-13" d="M19.58715,75.50709c-.12543-.02439-.2419-.04646-.358-.07018a.52292.52292,0,0,1-.074-.03.81092.81092,0,0,1,.09813-.10654,5.08281,5.08281,0,0,1,2.23569-.96334c.25429-.0422.51219-.06269.803-.09723a1.57756,1.57756,0,0,1-.32528.39548A4.8935,4.8935,0,0,0,19.58715,75.50709Z"/><path class="cls-13" d="M17.22189,60.47422l-.48983.08508a5.05345,5.05345,0,0,0-1.19243-.611,4.80919,4.80919,0,0,0-1.32611-.26119,1.32578,1.32578,0,0,1,.2402-.34737A5.22618,5.22618,0,0,1,17.22189,60.47422Z"/><path class="cls-13" d="M12.21087,73.08532l-.43642.1318a4.54025,4.54025,0,0,0-2.33336-.52962c-.02637-.04731-.05956-.09935-.08512-.15491-.02295-.04987-.03751-.10359-.056-.15617A4.28755,4.28755,0,0,1,12.21087,73.08532Z"/><path class="cls-13" d="M14.96943,74.40377c-.06166.0324-.1242.06324-.18481.09751a1.03424,1.03424,0,0,1-.60373.13145,4.69934,4.69934,0,0,0-1.64285.18532.66734.66734,0,0,1-.2883.01814,1.07634,1.07634,0,0,1-.44347-.13515,5.2722,5.2722,0,0,1,3.15547-.34187Z"/><path class="cls-13" d="M20.70282,68.09376l-.46642.14439a4.399,4.399,0,0,0-2.09665-.527l-.12026-.367A4.78614,4.78614,0,0,1,20.70282,68.09376Z"/><path class="cls-13" d="M10.27075,65.41063l-.47509-.02126a6.23333,6.23333,0,0,0-1.71788-1.25743,1.63022,1.63022,0,0,1,.01457-.16924,1.58664,1.58664,0,0,1,.04628-.15885A5.27647,5.27647,0,0,1,10.27075,65.41063Z"/><path class="cls-13" d="M25.83011,66.84879l-.072.34565c-.35454.11688-.69452.20584-1.015.34108-.32126.1356-.623.31738-.95948.49251l-.43677-.08644A5.20683,5.20683,0,0,1,25.83011,66.84879Z"/><path class="cls-13" d="M16.46883,60.62092l-.46807.14589a4.33273,4.33273,0,0,0-2.13834-.52737l.18972-.36226A4.69,4.69,0,0,1,16.46883,60.62092Z"/><path class="cls-13" d="M17.07177,68.41644a3.12655,3.12655,0,0,1,1.17979-.48544,1.87948,1.87948,0,0,1,.584.037,3.6731,3.6731,0,0,1,1.13571.36343l-.444.19734A3.8903,3.8903,0,0,0,17.07177,68.41644Z"/><path class="cls-13" d="M22.98651,70.76948c-.36033.0071-.6894-.00959-1.01257.02652-.31709.03543-.62819.12455-.9925.20068l-.40484-.17353a4.14856,4.14856,0,0,1,2.297-.39555Z"/><path class="cls-13" d="M17.97874,75.34613l-.4524.04445c-.28415-.19574-.5474-.37966-.81371-.559a1.41961,1.41961,0,0,0-.27354-.15479,1.445,1.445,0,0,1-.62515-.64695A5.5045,5.5045,0,0,1,17.97874,75.34613Z"/><path class="cls-13" d="M15.29411,61.05644a3.98974,3.98974,0,0,0-1.65762-.25134l.12994-.36834a4.1392,4.1392,0,0,1,1.97276.423Z"/><path class="cls-13" d="M8.59825,63.68486a3.17826,3.17826,0,0,1,2.18.00409l-.39484.23257a3.70617,3.70617,0,0,0-1.37661.00236Z"/><path class="cls-13" d="M15.02625,66.17347l-.41109.23993a3.54451,3.54451,0,0,0-1.37.0023l-.41664-.24029A3.27081,3.27081,0,0,1,15.02625,66.17347Z"/><path class="cls-13" d="M19.25736,63.684l-.38287.22451c-.245-.01687-.47467-.04476-.70434-.04509-.22987-.00032-.45977.02691-.72208.04421l-.37159-.216A3.16436,3.16436,0,0,1,19.25736,63.684Z"/><path class="cls-13" d="M23.49677,66.17316l-.41446.23986a3.57563,3.57563,0,0,0-1.36957.0019l-.41435-.23977A3.27375,3.27375,0,0,1,23.49677,66.17316Z"/><path class="cls-13" d="M17.47182,68.90522l-.40639-.24115a3.28462,3.28462,0,0,1,2.19805-.00034c-.07631.04354-.138.07811-.199.11372-.06638.03872-.1322.07842-.21215.12594A3.624,3.624,0,0,0,17.47182,68.90522Z"/><path class="cls-13" d="M15.02558,71.15353l-.4107.24046a3.62278,3.62278,0,0,0-1.372.00061l-.40375-.23185A3.15786,3.15786,0,0,1,15.02558,71.15353Z"/><path class="cls-13" d="M17.46751,73.884l-.42185-.25112a3.5566,3.5566,0,0,1,2.22856-.001l-.4158.25124A3.87056,3.87056,0,0,0,17.46751,73.884Z"/><path class="cls-13" d="M17.47841,58.94482l-.394-.23054a3.1208,3.1208,0,0,1,2.16966-.01248l-.40919.24166A3.33472,3.33472,0,0,0,17.47841,58.94482Z"/><path class="cls-13" d="M13.53974,61.11413l.05718-.09716a3.43094,3.43094,0,0,1,1.43988.16495l-.3963.23655c-.24453-.01626-.47443-.043-.70439-.04362-.23012-.00064-.46031.02479-.725.04089l-.369-.21625A.80664.80664,0,0,1,13.53974,61.11413Z"/><path class="cls-13" d="M19.01608,60.29093l-.24092-.27052a5.58436,5.58436,0,0,1,1.50547-.876l.25835.28666A5.741,5.741,0,0,0,19.01608,60.29093Z"/><path class="cls-13" d="M18.647,59.87091c-.04768-.03931-.09134-.07326-.13261-.10989-.04177-.03708-.08118-.07681-.13927-.13222a5.90482,5.90482,0,0,1,1.42451-.8894l.32041.25551A6.31966,6.31966,0,0,0,18.647,59.87091Z"/><path class="cls-13" d="M11.48258,73.32246l-.41888.18565A4.00307,4.00307,0,0,0,9.77114,73.256l-.21042-.31977A3.30229,3.30229,0,0,1,11.48258,73.32246Z"/><path class="cls-13" d="M15.75732,66.17631l-.16352.39108-1.20118.75449-.21977-.25086a6.00411,6.00411,0,0,1,1.54545-.92457Z"/><path class="cls-13" d="M20.66946,59.6006l.20317.29609c-.23.10212-.45388.191-.66787.29947-.21164.10724-.4133.23418-.63428.36106l-.457-.08637A5.09772,5.09772,0,0,1,20.66946,59.6006Z"/><path class="cls-13" d="M23.04228,71.02222l.06569.36455c-.1716-.01828-.32-.04031-.46911-.04826a4.30249,4.30249,0,0,0-.46132-.00113c-.15325.00833-.30564.03231-.47854.05168l-.41994-.24455A3.49931,3.49931,0,0,1,23.04228,71.02222Z"/><path class="cls-13" d="M11.51,68.33049l-.427.188c-.25256-.06409-.49525-.12568-.73795-.18723a.23189.23189,0,0,0-.06109-.01424c-.31673.01123-.51968-.20334-.79262-.38518A3.90874,3.90874,0,0,1,11.51,68.33049Z"/><path class="cls-13" d="M24.53022,68.22886l-.39819-.11973a3.437,3.437,0,0,1,1.51487-.63953c.00353.14024.00021.15158-.10347.35649Z"/><path class="cls-13" d="M21.64881,74.89852a3.58246,3.58246,0,0,1-1.441.77562l-.3521-.1056A4.1989,4.1989,0,0,1,21.64881,74.89852Z"/><path class="cls-13" d="M9.17684,69.79364l.1188-.34956a6.162,6.162,0,0,1,1.01469.95783l-.50826-.034Z"/><path class="cls-13" d="M20.98338,60.0934l.1492.31008-.82842.35774L19.86,60.624A4.14911,4.14911,0,0,1,20.98338,60.0934Z"/><path class="cls-13" d="M22.9942,62.90925h-.46506l-.68222-.61149a1.64894,1.64894,0,0,1,.57975.025A4.52884,4.52884,0,0,1,22.9942,62.90925Z"/><path class="cls-13" d="M9.85026,68.47372a3.20893,3.20893,0,0,1,.95241.18187l-.4053.23957-.75813-.07294A1.02925,1.02925,0,0,1,9.85026,68.47372Z"/><path class="cls-13" d="M15.35722,66.984l-.325.446.05274.10344-.306.22568-.23432-.26629A2.89175,2.89175,0,0,1,15.35722,66.984Z"/><path class="cls-13" d="M21.32266,60.94943l-.29329.10818-.44744-.19875a2.55657,2.55657,0,0,1,.63173-.24288Z"/><path class="cls-13" d="M19.52887,75.79254a3.38822,3.38822,0,0,1-1.53929-.163A5.3033,5.3033,0,0,1,19.52887,75.79254Z"/><path class="cls-13" d="M22.59872,72.07593l.50885-.37631a1.15331,1.15331,0,0,1,.00264.4414l-.22953.18262Z"/><path class="cls-13" d="M14.35636,71.56428l-.42712.32767-.43049-.32327A1.92948,1.92948,0,0,1,14.35636,71.56428Z"/><path class="cls-13" d="M9.94141,73.46236a3.01417,3.01417,0,0,1,.8567.17426l-.42383.25218A1.64974,1.64974,0,0,1,9.94141,73.46236Z"/><path class="cls-13" d="M18.588,69.07613l-.42537.32428-.42844-.32218A1.87289,1.87289,0,0,1,18.588,69.07613Z"/><path class="cls-13" d="M18.60074,59.10281l-.43811.33574-.4394-.33347A2.7787,2.7787,0,0,1,18.60074,59.10281Z"/><path class="cls-13" d="M21.96921,71.5692a1.934,1.934,0,0,1,.85462-.00434l-.427.32687Z"/><path class="cls-13" d="M22.39589,66.91056l-.42926-.32494a2.25472,2.25472,0,0,1,.86741-.0104Z"/><path class="cls-13" d="M17.72757,64.09078a2.0959,2.0959,0,0,1,.85994.00453l-.42617.32317Z"/><path class="cls-13" d="M10.12118,64.09375l-.42744.32425-.43485-.32683A2.14685,2.14685,0,0,1,10.12118,64.09375Z"/><path class="cls-13" d="M14.36271,66.57944l-.4361.32941-.42857-.32244A2.11152,2.11152,0,0,1,14.36271,66.57944Z"/><path class="cls-13" d="M13.92077,61.92513l-.42739-.32769a2.64707,2.64707,0,0,1,.86491-.004A4.91407,4.91407,0,0,1,13.92077,61.92513Z"/><path class="cls-13" d="M18.587,74.058l-.42685.32385-.40622-.30853A1.592,1.592,0,0,1,18.587,74.058Z"/><path class="cls-13" d="M9.68864,69.40372l-.26777-.21591.069-.1413a1.67878,1.67878,0,0,1,.6327.02874Z"/><path class="cls-13" d="M15.6013,67.86912l-.24141.16523-.47264-.08924a2.004,2.004,0,0,1,.42065-.30264Z"/><path class="cls-13" d="M24.03537,62.90978l-.20582.13808-.458-.07837c.08572-.13088.20539-.17312.30336-.262Z"/><path class="cls-13" d="M25.41664,68.13217l-.22069.36291-.3987-.17184.5889-.23109Z"/><path class="cls-13" d="M9.04744,70.41026l.07061-.3958.3994.347Z"/><path class="cls-13" d="M12.91492,60.93309l-.355.12265-.423-.1859A1.54816,1.54816,0,0,1,12.91492,60.93309Z"/><path class="cls-13" d="M23.473,62.614l-.22451.16851-.2419-.28053C23.19122,62.453,23.30872,62.55973,23.473,62.614Z"/></g></g></svg>