<?xml version="1.0" encoding="utf-8"?>
<!-- Generator: Adobe Illustrator 24.2.1, SVG Export Plug-In . SVG Version: 6.00 Build 0)  -->
<svg version="1.1" id="圖層_1" xmlns="http://www.w3.org/2000/svg" xmlns:xlink="http://www.w3.org/1999/xlink" x="0px" y="0px"
	 viewBox="0 0 258.3 87.9" style="enable-background:new 0 0 258.3 87.9;" xml:space="preserve">
<style type="text/css">
	.st0{clip-path:url(#SVGID_2_);}
	.st1{fill:#F5D0CF;}
	.st2{fill:#FFFFFF;}
	.st3{fill:#EA9FA6;}
	.st4{fill:#599EB0;}
	.st5{enable-background:new    ;}
	.st6{fill:#D70051;}
	.st7{fill:#C8E6DF;}
</style>
<g id="圖層_6">
	<g>
		<defs>
			<rect id="SVGID_1_" y="0" width="258.3" height="87.9"/>
		</defs>
		<clipPath id="SVGID_2_">
			<use xlink:href="#SVGID_1_"  style="overflow:visible;"/>
		</clipPath>
		<g class="st0">
			<path class="st1" d="M67.3,21c-1.1,0.1-2.2,0.4-3.3,0.9c-1,0.5-2,1-2.9,1.7l-0.5-0.5c1.8-1.6,4.1-2.6,6.5-2.8l0.1,0.4V21z"/>
			<path class="st1" d="M67.3,22.2c-0.3,0.1-0.6,0.1-1,0.2c-1.6,0.4-3,1.1-4.3,2c0,0-0.1,0-0.2,0.1L61.4,24c0.4-0.4,0.9-0.7,1.4-1
				c1.3-0.8,2.7-1.3,4.2-1.5c0.1,0,0.2,0,0.3,0L67.3,22.2z"/>
			<path class="st1" d="M50.6,4.4c0.3,0.1,0.6,0.1,1,0.2c0.8,0.1,1.6,0.4,2.3,0.8c-0.9-0.2-1.7-0.3-2.6-0.3c-0.9,0-1.7,0.2-2.6,0.5
				l-0.9-0.4c0.5-0.3,1.1-0.5,1.7-0.6c0.3-0.1,0.6-0.1,0.8-0.2L50.6,4.4z"/>
			<path class="st1" d="M30.6,17.7l0.1-0.2c1.1,0.5,2.1,1.3,3,2.1l-0.9,0.1l-2.2-1.4L30.6,17.7z"/>
			<path class="st1" d="M30.6,18.8c0.2,0.1,0.4,0.2,0.6,0.3c0.3,0.2,0.6,0.4,1,0.7l-1,0.2l-0.4-0.3l-0.1-0.5V18.8z"/>
			<path class="st1" d="M35.1,18.5l-0.5-0.5c4.5-4.1,13.1-4.3,18.1,1.6h-0.9C47.3,15,40.1,14.6,35.1,18.5z"/>
			<path class="st1" d="M43.8,33.9l-0.5-0.5c5.5-4.5,13.5-3.8,18.1,1.6l-1,0C56,30.4,48.7,29.9,43.8,33.9z"/>
			<path class="st1" d="M51.7,29.9c-4.4-4.6-11.6-5.1-16.6-1.1l-0.5-0.5c0.1-0.1,0.2-0.2,0.3-0.2c1.8-1.4,3.9-2.3,6.2-2.6
				c2-0.3,4-0.1,5.9,0.5c0.4,0.1,0.9,0.3,1,0.8l0.3-0.3c1.7,0.8,3.2,2,4.5,3.4c-0.2,0-0.4,0-0.6,0C52,29.9,51.9,29.9,51.7,29.9z"/>
			<path class="st1" d="M52.7,40.2l-1-0.1c-3.9-4.1-10.2-5-15.1-2.1L36,37.6c0.9-1,5.1-2.1,7.3-2C46.9,35.7,50.3,37.3,52.7,40.2z"/>
			<path class="st1" d="M59.8,14.5c-0.2,0-0.4,0-0.5,0c-0.2,0-0.3,0-0.5,0c-4.1-3.5-10.1-3.6-14.3-0.3l-0.5-0.5
				C48.7,10,55.5,10.3,59.8,14.5z"/>
			<path class="st1" d="M44,34.2c4.7-3.7,11.4-3.4,15.7,0.8l-1,0.1c-4.1-3.5-10-3.7-14.3-0.3L44,34.2z"/>
			<path class="st1" d="M51.1,19.6l-0.9,0.1c-4.1-3.5-10.1-3.6-14.3-0.3l-0.5-0.5C40,15.1,46.8,15.4,51.1,19.6z"/>
			<path class="st1" d="M51,29.9L50.1,30C46,26.4,40,26.3,35.8,29.7c-0.1-0.1-0.1-0.2-0.2-0.3c-0.1-0.1-0.1-0.2-0.2-0.3
				C40,25.3,46.8,25.7,51,29.9z"/>
			<path class="st1" d="M58.2,11.9v0.8c-4.5-2.9-10.3-2.6-14.5,0.7L43.3,13C47.5,9.4,53.5,9,58.2,11.9z"/>
			<path class="st1" d="M53.2,19.4l-0.5-0.5c4-3.2,9.6-3.5,13.9-0.7c0.1,0.2,0.2,0.5,0.3,0.8c0,0.1,0,0.2,0.1,0.3
				C62.9,16.2,57.3,16.2,53.2,19.4z"/>
			<path class="st1" d="M52.5,18.6L51.9,18c0.1-0.1,0.2-0.2,0.3-0.3c3.7-2.8,8.5-3.4,12.8-1.7c0.2,0.1,0.4,0.2,0.5,0.4
				c0.2,0.3,0.4,0.5,0.6,0.8c0,0.1,0,0.1,0,0.2C61.8,15,56.4,15.4,52.5,18.6z"/>
			<path class="st1" d="M65.6,26.5l-0.5,0.5c-4.2-1.8-9.1-1.1-12.7,1.7l-0.5-0.5C55.8,25.1,61.1,24.4,65.6,26.5z"/>
			<path class="st1" d="M44.1,24.8c-0.2,0-0.4,0-0.5,0c-0.2,0-0.3,0-0.5,0c-1.5-1.6-3.4-2.7-5.5-3.3c-2.1-0.6-4.3-0.7-6.4-0.1
				C31,21.1,31,20.8,31,20.6c2.3-0.6,4.8-0.5,7.1,0.2C40.4,21.6,42.5,23,44.1,24.8z"/>
			<path class="st1" d="M45.7,14.8c-0.2,0-0.5-0.1-0.8-0.1c0,0,0,0-0.1-0.1c3.9-3.1,9.4-3.1,13.3,0c-0.2,0-0.3,0.1-0.5,0.1
				c-0.2,0-0.3,0.1-0.4,0.1C53.8,12.4,49.2,12.4,45.7,14.8z"/>
			<path class="st1" d="M66.8,19.8L66,20c-3.5-2.4-8.1-2.4-11.6,0c-0.1,0-0.3,0-0.4-0.1c-0.1,0-0.3-0.1-0.4-0.1c0.7-1,3.9-2.3,6-2.4
				C62.2,17.2,64.8,18.1,66.8,19.8z"/>
			<path class="st1" d="M49.5,30l-1,0.2c-3.5-2.4-8.1-2.4-11.5,0L36.1,30c0.1-0.1,0.2-0.2,0.3-0.3c3.8-2.8,8.9-2.8,12.7,0
				C49.2,29.8,49.4,29.9,49.5,30z"/>
			<path class="st1" d="M49.5,19.8C49.4,19.8,49.4,19.8,49.5,19.8c-0.3,0.1-0.6,0.1-0.9,0.2c-3.5-2.4-8.1-2.4-11.6,0l-0.8-0.2
				c0.7-1,3.9-2.3,6-2.4C44.8,17.2,47.4,18.1,49.5,19.8z"/>
			<path class="st1" d="M45.7,35.3l-0.8-0.2c0.8-1.1,3.8-2.3,6-2.4c2.7-0.2,5.3,0.6,7.4,2.3c0,0,0,0.1,0,0.1
				c-0.3,0.1-0.6,0.1-0.9,0.2C53.8,32.9,49.2,32.9,45.7,35.3z"/>
			<path class="st1" d="M50.8,20.8c-0.9,0.1-1.7,0-2.6-0.2c1-0.7,4.9-0.6,7.1,0.1c2.3,0.7,4.4,2.1,6,4l-1-0.1
				c-0.6-0.5-1.1-1-1.7-1.4C57,22,54.9,21.2,52.8,21c-0.5-0.1-1-0.1-1.6-0.1C51.1,21,50.9,21,50.8,20.8z"/>
			<path class="st1" d="M53.2,29.6l-0.5-0.5c3.4-2.7,8-3.4,12-1.7l-0.6,0.5C60.5,26.5,56.3,27.2,53.2,29.6z"/>
			<path class="st1" d="M44.1,35.1L43,35c-2.7-2.8-6.5-4.2-10.3-3.7v-0.7c2.1-0.2,4.2,0,6.1,0.8C40.9,32.1,42.7,33.4,44.1,35.1z"/>
			<path class="st1" d="M31.6,22.4l-0.3-0.6c4-1,8.2,0.1,11.1,3l-0.9,0.1C38.7,22.5,35.1,21.6,31.6,22.4z"/>
			<path class="st1" d="M47.2,15.3L46.3,15c3.1-2.1,7.2-2.1,10.3,0l-0.9,0.3C53.1,13.8,49.9,13.8,47.2,15.3z"/>
			<path class="st1" d="M56.7,35.4l-0.9,0.3c-2.7-1.4-5.9-1.4-8.5,0l-0.9-0.3C49.5,33.4,53.5,33.4,56.7,35.4z"/>
			<path class="st1" d="M65.4,20.1l-0.9,0.3c-2.7-1.4-5.9-1.4-8.5,0c-0.1,0-0.3-0.1-0.4-0.1c-0.1,0-0.3-0.1-0.5-0.2
				C58.2,18.1,62.2,18.1,65.4,20.1z"/>
			<path class="st1" d="M38.5,30.6l-0.9-0.3c3.1-2.1,7.2-2.1,10.3,0l-0.9,0.3C44.4,29.2,41.2,29.2,38.5,30.6z"/>
			<path class="st1" d="M47.2,20.4c-0.3-0.1-0.7-0.2-1-0.4c-2.4-1-5-0.9-7.3,0.2c-0.1,0.1-0.2,0.1-0.4,0.2l-0.9-0.3
				c3.1-2.1,7.2-2.1,10.3,0C47.7,20.2,47.4,20.2,47.2,20.4z"/>
			<path class="st1" d="M42.4,35l-1,0.1c-2.4-2.1-5.5-3-8.6-2.7c0-0.1-0.1-0.2-0.1-0.3c0-0.1,0-0.2,0-0.3
				C36.3,31.3,39.9,32.5,42.4,35z"/>
			<path class="st1" d="M63.7,28.2l-0.8,0.5c-2.9-0.8-6-0.3-8.5,1.4c-0.2,0-0.4-0.1-0.6-0.1c-0.1,0-0.2,0-0.3-0.1
				c0-0.2,0.2-0.2,0.3-0.3c1.4-1,2.9-1.7,4.6-1.9c1.7-0.3,3.4-0.2,5.1,0.4C63.5,28.2,63.6,28.2,63.7,28.2z"/>
			<path class="st1" d="M51.9,38.5c2.6-2.1,5.9-3.2,9.3-2.9l-0.3,0.7c-1.5-0.1-3,0.1-4.5,0.6c-1.4,0.5-2.8,1.2-4,2.1
				C52.2,38.9,52.1,38.7,51.9,38.5z"/>
			<path class="st1" d="M50.9,22.1c0-0.1,0-0.2-0.1-0.3c0-0.1,0-0.3,0-0.4c2.5-0.5,7.4,1.3,8.9,3.3l-0.9,0.1
				C56.6,23,53.8,22,50.9,22.1z"/>
			<path class="st1" d="M46.3,37.2l-0.7,0.6c-2.6-0.6-5.3-0.3-7.7,0.8L37,38.2c1-0.6,2-1,3.1-1.2C42.1,36.5,44.3,36.6,46.3,37.2z"/>
			<path class="st1" d="M39.9,25.1c-2.2-1.5-4.9-2.1-7.6-1.7l-0.4-0.6c1.2-0.4,2.5-0.4,3.8-0.2c1.9,0.3,3.7,1.1,5.2,2.3L39.9,25.1z"
				/>
			<path class="st1" d="M35.1,11.2c2.8,0.2,5.4,1.4,7.4,3.4l-1,0.1c-2.1-1.8-4.7-2.8-7.4-2.7C34.3,11.6,34.7,11.4,35.1,11.2z"/>
			<path class="st1" d="M44,14.6h-1c-1-1-2.1-1.8-3.3-2.5c-1.2-0.6-2.5-1-3.8-1.3l0-0.1c0.4-0.1,0.8-0.2,1.3-0.3c0.1,0,0.3,0,0.4,0
				c1.8,0.5,3.4,1.3,4.8,2.5c0.5,0.4,0.9,0.8,1.4,1.3C43.8,14.3,43.9,14.5,44,14.6z"/>
			<path class="st1" d="M60.7,36.8c0,0.1-0.1,0.2-0.1,0.3c-0.1,0.1-0.2,0.3-0.3,0.4c-2.6,0-5,0.8-7,2.4l-0.5-0.5
				C54.2,37.8,58.7,36.3,60.7,36.8z"/>
			<path class="st1" d="M33.1,33.5l-0.2-0.7c0.2,0,0.3-0.1,0.5-0.1c2.6-0.2,5.2,0.6,7.2,2.2c0.1,0,0.1,0.1,0.2,0.2
				c-0.2,0-0.3,0.1-0.5,0.1c-0.2,0-0.3,0.1-0.5,0.1C37.9,33.9,35.5,33.3,33.1,33.5z"/>
			<path class="st1" d="M40.8,14.7l-0.9,0.1c-2.1-1.5-4.7-2.1-7.2-1.7c0.1-0.1,0.2-0.2,0.2-0.3c0.1-0.1,0.2-0.2,0.2-0.2
				c0.1-0.1,0.2-0.2,0.2-0.3C36,12.1,38.7,13,40.8,14.7z"/>
			<path class="st1" d="M46.3,5.3C48.8,6,51,7.5,52.7,9.4h-1c-1.7-1.8-3.9-3-6.3-3.6L46.3,5.3z"/>
			<path class="st1" d="M58.2,24.9l-0.9,0.2c-1.8-1.3-3.9-1.9-6.1-1.8L51,22.6C52.8,22.2,57,23.5,58.2,24.9z"/>
			<path class="st1" d="M31.6,14.5c0.1-0.2,0.2-0.3,0.3-0.5c0.1-0.1,0.2-0.3,0.3-0.4c2.5-0.5,5,0,7.1,1.3l-0.9,0.3
				C36.3,14.2,33.9,13.9,31.6,14.5z"/>
			<path class="st1" d="M44.2,6.9l0.7-0.6c2.3,0.4,4.5,1.5,6.2,3.2l-1,0.1C48.4,8.1,46.4,7.1,44.2,6.9z"/>
			<path class="st1" d="M48.7,15.9l-0.9-0.4c2.4-1.1,5.1-1.1,7.5,0l-0.9,0.4C52.5,15.2,50.5,15.2,48.7,15.9z"/>
			<path class="st1" d="M54.3,36.3c-0.9-0.4-1.9-0.5-2.8-0.5c-1,0-1.9,0.2-2.8,0.5l-0.9-0.4c2.3-1.2,5.1-1.2,7.4,0L54.3,36.3z"/>
			<path class="st1" d="M57.4,21c-0.3-0.1-0.5-0.2-0.8-0.3c0,0,0,0-0.1-0.1c2.3-1.2,5-1.2,7.4,0L63,21c-0.9-0.3-1.9-0.5-2.8-0.5
				C59.2,20.5,58.3,20.6,57.4,21z"/>
			<path class="st1" d="M40,21l-0.9-0.4c2.3-1.2,5.1-1.2,7.4,0L45.6,21C43.8,20.3,41.8,20.3,40,21z"/>
			<path class="st1" d="M40,31.2L39,30.8c2.4-1.1,5.1-1.1,7.5,0l-0.9,0.4C43.8,30.5,41.8,30.5,40,31.2z"/>
			<path class="st1" d="M55.9,30.6L55,30.3c1.2-1.2,5.5-2,7.2-1.3c-0.3,0.1-0.5,0.2-0.7,0.2c-0.2,0.1-0.5,0.1-0.7,0.2
				C59.1,29.4,57.4,29.8,55.9,30.6z"/>
			<path class="st1" d="M31.1,15.8c0-0.1,0-0.1,0-0.2c0.1-0.2,0.1-0.4,0.2-0.6c2.1-0.7,4.4-0.6,6.5,0.4l-0.9,0.4
				c-1.7-0.7-3.6-0.7-5.3-0.1C31.4,15.8,31.3,15.8,31.1,15.8z"/>
			<path class="st1" d="M33.2,24.4c-0.2-0.2-0.5-0.4-0.6-0.7c2.3-0.3,4.7,0.2,6.7,1.4c-0.2,0.1-0.3,0.1-0.5,0.2
				c-0.2,0-0.3,0.1-0.5,0.1C36.8,24.6,35,24.3,33.2,24.4z"/>
			<path class="st1" d="M54.4,40.4c-0.3-0.1-0.5-0.1-0.7-0.1c-0.1,0-0.1,0-0.2-0.1c0.1-0.1,0.1-0.2,0.2-0.2c1.3-1,2.9-1.7,4.6-2
				c0.5-0.1,1.1-0.1,1.6-0.2c-0.2,0.3-0.4,0.6-0.7,0.8C57.5,38.8,55.8,39.4,54.4,40.4z"/>
			<path class="st1" d="M49.5,9.6l-1,0.2c-0.8-0.5-1.6-0.9-2.4-1.3c-0.9-0.3-1.8-0.5-2.7-0.5c0.1-0.3,0.3-0.5,0.5-0.7
				C45.9,7.4,47.9,8.2,49.5,9.6z"/>
			<path class="st1" d="M39.3,35.4l-0.9,0.3c-1.5-0.8-3.1-1.2-4.8-1.1c-0.1-0.1-0.1-0.2-0.2-0.3c0-0.1-0.1-0.2-0.1-0.3
				C35.4,33.7,37.5,34.3,39.3,35.4z"/>
			<path class="st1" d="M44.9,38.2c-0.1,0.1-0.3,0.1-0.4,0.2c-0.4,0.2-0.8,0.3-1.2,0.3c-1.1-0.1-2.3,0.1-3.4,0.4
				c-0.2,0.1-0.4,0.1-0.6,0c-0.3,0-0.6-0.1-0.9-0.3C40.5,37.9,42.7,37.6,44.9,38.2L44.9,38.2z"/>
			<path class="st1" d="M56.7,25.2l-1,0.3c-1.3-0.7-2.8-1.1-4.3-1.1l-0.2-0.8C53.1,23.6,55.1,24.2,56.7,25.2z"/>
			<path class="st1" d="M35.3,19.7l-1,0c-1-1.1-2.2-1.9-3.5-2.6c0-0.1,0-0.2,0-0.3c0-0.1,0.1-0.2,0.1-0.3
				C32.6,17.1,34.1,18.2,35.3,19.7z"/>
			<path class="st1" d="M67.2,22.6l-0.1,0.7c-0.7,0.2-1.4,0.4-2.1,0.7c-0.7,0.3-1.3,0.7-2,1l-0.9-0.2C63.6,23.7,65.3,22.9,67.2,22.6
				z"/>
			<path class="st1" d="M48,9.9l-1,0.3c-1.3-0.7-2.9-1.1-4.4-1.1L43,8.3C44.8,8.4,46.5,8.9,48,9.9z"/>
			<path class="st1" d="M49.2,25.9c0.7-0.5,1.6-0.8,2.4-1c0.4,0,0.8,0,1.2,0.1c0.8,0.1,1.6,0.4,2.3,0.7l-0.9,0.4
				C52.7,25.5,50.9,25.4,49.2,25.9z"/>
			<path class="st1" d="M61.4,30.7c-0.7,0-1.4,0-2.1,0.1c-0.7,0.1-1.3,0.3-2,0.4l-0.8-0.4c1.5-0.7,3.1-1,4.7-0.8L61.4,30.7z"/>
			<path class="st1" d="M51.1,40.1l-0.9,0.1c-0.6-0.4-1.1-0.8-1.7-1.1c-0.2-0.1-0.4-0.2-0.6-0.3c-0.6-0.3-1-0.8-1.3-1.3
				C48.3,37.9,49.9,38.9,51.1,40.1z"/>
			<path class="st1" d="M45.6,10.8c-1.1-0.4-2.2-0.6-3.4-0.5l0.3-0.8c1.4,0,2.8,0.2,4,0.9L45.6,10.8z"/>
			<path class="st1" d="M31.9,16.2c1.4-0.5,3-0.5,4.5,0l-0.8,0.5c-0.9-0.2-1.9-0.2-2.8,0L31.9,16.2z"/>
			<path class="st1" d="M45,21.3l-0.8,0.5c-0.9-0.2-1.9-0.2-2.8,0l-0.9-0.5C42,20.7,43.6,20.7,45,21.3z"/>
			<path class="st1" d="M53.7,16.2l-0.8,0.5c-0.5,0-1-0.1-1.4-0.1c-0.5,0-0.9,0.1-1.5,0.1l-0.8-0.4C50.7,15.6,52.3,15.6,53.7,16.2z"
				/>
			<path class="st1" d="M62.4,21.3l-0.9,0.5c-0.9-0.2-1.9-0.2-2.8,0l-0.9-0.5C59.4,20.7,61,20.7,62.4,21.3z"/>
			<path class="st1" d="M50.1,26.9l-0.8-0.5c1.5-0.5,3.1-0.5,4.5,0c-0.2,0.1-0.3,0.2-0.4,0.2c-0.1,0.1-0.3,0.2-0.4,0.3
				C52,26.7,51,26.7,50.1,26.9z"/>
			<path class="st1" d="M45,31.5L44.2,32c-0.9-0.2-1.9-0.2-2.8,0l-0.8-0.5C42,31,43.6,31,45,31.5z"/>
			<path class="st1" d="M50.1,37.1l-0.9-0.5c1.5-0.5,3.1-0.5,4.6,0l-0.9,0.5C52,36.9,51,36.9,50.1,37.1z"/>
			<path class="st1" d="M50.1,6.4L49.3,6c0.7-0.5,3.4-0.6,4.5,0l-0.8,0.5C52,6.2,51,6.2,50.1,6.4z"/>
			<path class="st1" d="M42,10.9l0.1-0.2c1-0.1,2,0,3,0.3l-0.8,0.5c-0.5,0-1-0.1-1.4-0.1c-0.5,0-0.9,0.1-1.5,0.1l-0.8-0.4
				C41,10.8,41.5,10.7,42,10.9z"/>
			<path class="st1" d="M53.2,9.2l-0.5-0.6c0.9-0.8,2-1.4,3.1-1.8l0.5,0.6C55.2,7.8,54.2,8.4,53.2,9.2z"/>
			<path class="st1" d="M52.5,8.3c-0.1-0.1-0.2-0.2-0.3-0.2C52.1,8,52,7.9,51.9,7.8c0.9-0.7,1.9-1.4,2.9-1.8l0.7,0.5
				C54.4,7,53.4,7.6,52.5,8.3z"/>
			<path class="st1" d="M37.8,35.9l-0.9,0.4c-0.8-0.3-1.7-0.5-2.7-0.5l-0.4-0.7C35.2,35,36.6,35.3,37.8,35.9z"/>
			<path class="st1" d="M46.5,21.3l-0.3,0.8l-2.5,1.5l-0.5-0.5C44.2,22.3,45.3,21.7,46.5,21.3L46.5,21.3z"/>
			<path class="st1" d="M56.6,7.8L57,8.4c-0.5,0.2-0.9,0.4-1.4,0.6c-0.4,0.2-0.8,0.5-1.3,0.7l-0.9-0.2C54.4,8.8,55.5,8.2,56.6,7.8z"
				/>
			<path class="st1" d="M61.5,31.2l0.1,0.7c-0.4,0-0.7-0.1-1-0.1c-0.3,0-0.6,0-0.9,0c-0.3,0-0.6,0.1-1,0.1l-0.9-0.5
				C59,31.1,60.3,31,61.5,31.2z"/>
			<path class="st1" d="M37.8,25.7l-0.9,0.4c-0.5-0.1-1-0.3-1.5-0.4c0,0-0.1,0-0.1,0c-0.7,0-1.1-0.4-1.6-0.8
				C35.1,24.8,36.5,25,37.8,25.7z"/>
			<path class="st1" d="M64.5,25.5l-0.8-0.2c0.9-0.7,2-1.1,3.1-1.3c0,0.3,0,0.3-0.2,0.7L64.5,25.5z"/>
			<path class="st1" d="M58.6,39.2c-0.8,0.8-1.9,1.3-3,1.6L55,40.5C56.1,39.8,57.3,39.3,58.6,39.2z"/>
			<path class="st1" d="M33,28.7l0.2-0.7c0.8,0.6,1.5,1.2,2.1,2l-1-0.1L33,28.7z"/>
			<path class="st1" d="M57.3,8.8l0.3,0.6l-1.7,0.7L55,9.9C55.7,9.4,56.5,9,57.3,8.8z"/>
			<path class="st1" d="M61.4,14.6h-1L59,13.3c0.4-0.1,0.8,0,1.2,0.1C60.7,13.7,61,14.1,61.4,14.6z"/>
			<path class="st1" d="M34.4,26c0.7,0,1.3,0.2,2,0.4l-0.8,0.5L34,26.7C34.1,26.4,34.2,26.2,34.4,26z"/>
			<path class="st1" d="M45.7,22.9l-0.7,0.9l0.1,0.2l-0.6,0.5L44.1,24C44.5,23.5,45.1,23.2,45.7,22.9z"/>
			<path class="st1" d="M58,10.5l-0.6,0.2l-0.9-0.4c0.4-0.2,0.8-0.4,1.3-0.5L58,10.5z"/>
			<path class="st1" d="M54.3,41c-1.1,0.1-2.1,0-3.2-0.3C52.2,40.6,53.3,40.7,54.3,41z"/>
			<path class="st1" d="M60.6,33.4l1-0.8c0.1,0.3,0.1,0.6,0,0.9l-0.5,0.4L60.6,33.4z"/>
			<path class="st1" d="M43.7,32.3L42.8,33l-0.9-0.7C42.5,32.2,43.1,32.2,43.7,32.3z"/>
			<path class="st1" d="M34.6,36.2c0.6,0,1.2,0.2,1.8,0.4l-0.9,0.5C35.1,36.9,34.8,36.6,34.6,36.2z"/>
			<path class="st1" d="M52.4,27.2l-0.9,0.7l-0.9-0.7C51.2,27.1,51.8,27.1,52.4,27.2z"/>
			<path class="st1" d="M52.4,6.7l-0.9,0.7l-0.9-0.7C51.2,6.7,51.8,6.7,52.4,6.7z"/>
			<path class="st1" d="M59.3,32.3c0.6-0.1,1.2-0.1,1.8,0L60.2,33L59.3,32.3z"/>
			<path class="st1" d="M60.2,22.8l-0.9-0.7c0.6-0.1,1.2-0.1,1.8,0L60.2,22.8z"/>
			<path class="st1" d="M50.6,17c0.6-0.1,1.2-0.1,1.8,0l-0.9,0.7L50.6,17z"/>
			<path class="st1" d="M35,17l-0.9,0.7L33.2,17C33.8,16.9,34.4,16.9,35,17z"/>
			<path class="st1" d="M43.7,22.1l-0.9,0.7l-0.9-0.7C42.5,22,43.1,22,43.7,22.1z"/>
			<path class="st1" d="M42.8,12.5l-0.9-0.7c0.6-0.1,1.2-0.1,1.8,0C43.4,12.1,43.1,12.3,42.8,12.5z"/>
			<path class="st1" d="M52.4,37.4l-0.9,0.7l-0.8-0.6C51.2,37.3,51.8,37.3,52.4,37.4z"/>
			<path class="st1" d="M34.1,27.9l-0.5-0.4l0.1-0.3c0.4-0.1,0.9,0,1.3,0.1L34.1,27.9z"/>
			<path class="st1" d="M46.2,24.7l-0.5,0.3l-1-0.2c0.3-0.2,0.5-0.5,0.9-0.6L46.2,24.7z"/>
			<path class="st1" d="M63.5,14.6l-0.4,0.3l-0.9-0.2c0.2-0.3,0.4-0.4,0.6-0.5L63.5,14.6z"/>
			<path class="st1" d="M66.4,25.3L65.9,26l-0.8-0.4L66.4,25.3L66.4,25.3z"/>
			<path class="st1" d="M32.8,30l0.1-0.8l0.8,0.7L32.8,30z"/>
			<path class="st1" d="M40.7,10.5L40,10.8l-0.9-0.4C39.6,10.3,40.2,10.3,40.7,10.5z"/>
			<path class="st1" d="M62.4,14l-0.5,0.3l-0.5-0.6C61.8,13.6,62,13.8,62.4,14z"/>
			<path class="st1" d="M204.5,64.3c-0.8,0.1-1.5,0.3-2.3,0.6c-0.7,0.3-1.4,0.7-2,1.2l-0.3-0.3c1.3-1.1,2.9-1.8,4.5-2l0.1,0.3V64.3z
				"/>
			<path class="st1" d="M204.5,65.1c-0.2,0.1-0.4,0.1-0.7,0.2c-1.1,0.2-2.1,0.7-3,1.4c0,0,0,0-0.1,0.1l-0.3-0.4
				c0.3-0.3,0.6-0.5,1-0.7c0.9-0.5,1.9-0.9,2.9-1c0.1,0,0.2,0,0.2,0V65.1z"/>
			<path class="st1" d="M192.9,52.8c0.2,0,0.4,0.1,0.7,0.1c0.6,0.1,1.1,0.3,1.6,0.6c-0.6-0.2-1.2-0.2-1.8-0.2
				c-0.6,0-1.2,0.1-1.8,0.4l-0.6-0.3c0.4-0.2,0.8-0.4,1.2-0.4c0.2,0,0.4-0.1,0.6-0.1L192.9,52.8z"/>
			<path class="st1" d="M179.1,62l0.1-0.1c0.8,0.4,1.4,0.9,2.1,1.5l-0.6,0.1l-1.5-1V62z"/>
			<path class="st1" d="M179.1,62.8c0.1,0.1,0.3,0.1,0.4,0.2c0.2,0.1,0.4,0.3,0.7,0.5l-0.7,0.1l-0.3-0.2l-0.1-0.3V62.8z"/>
			<path class="st1" d="M182.2,62.6l-0.3-0.3c3.8-3.1,9.4-2.6,12.5,1.1h-0.7C190.6,60.2,185.6,59.9,182.2,62.6z"/>
			<path class="st1" d="M188.2,73.2l-0.3-0.3c3.8-3.1,9.4-2.6,12.5,1.1l-0.7,0C196.6,70.8,191.6,70.5,188.2,73.2L188.2,73.2z"/>
			<path class="st1" d="M193.7,70.5c-3.1-3.2-8.1-3.5-11.5-0.8l-0.4-0.3c0.1-0.1,0.1-0.1,0.2-0.2c1.2-1,2.7-1.6,4.3-1.8
				c1.4-0.2,2.8-0.1,4.1,0.4c0.3,0.1,0.6,0.2,0.7,0.6l0.2-0.2c1.2,0.6,2.2,1.4,3.1,2.4c-0.2,0-0.3,0-0.4,0
				C193.9,70.5,193.8,70.5,193.7,70.5z"/>
			<path class="st1" d="M194.4,77.6l-0.7,0c-2.7-2.8-7.1-3.5-10.5-1.5l-0.4-0.3c0.6-0.7,3.5-1.5,5-1.4
				C190.4,74.5,192.7,75.6,194.4,77.6z"/>
			<path class="st1" d="M199.3,59.8c-0.1,0-0.3,0-0.4,0c-0.1,0-0.2,0-0.3,0c-2.8-2.4-7-2.5-9.9-0.2l-0.3-0.4
				C191.6,56.7,196.3,56.9,199.3,59.8z"/>
			<path class="st1" d="M188.4,73.5c3.2-2.6,7.9-2.4,10.9,0.5l-0.7,0.1c-2.8-2.4-7-2.5-9.9-0.2L188.4,73.5z"/>
			<path class="st1" d="M193.3,63.4l-0.6,0.1c-2.8-2.4-7-2.5-9.9-0.2l-0.3-0.4C185.6,60.2,190.3,60.5,193.3,63.4z"/>
			<path class="st1" d="M193.2,70.5l-0.6,0.1c-2.8-2.5-7-2.5-9.9-0.2c-0.1-0.1-0.1-0.1-0.1-0.2c0-0.1-0.1-0.1-0.2-0.2
				C185.6,67.3,190.3,67.5,193.2,70.5z"/>
			<path class="st1" d="M198.2,58v0.6c-3.1-2-7.1-1.8-10,0.5l-0.3-0.3C190.8,56.3,194.9,56,198.2,58z"/>
			<path class="st1" d="M194.7,63.2l-0.3-0.4c2.8-2.2,6.6-2.4,9.6-0.5c0.1,0.2,0.1,0.4,0.2,0.6c0,0.1,0,0.1,0.1,0.2
				C201.4,61,197.5,61,194.7,63.2z"/>
			<path class="st1" d="M194.2,62.6l-0.4-0.4c0.1-0.1,0.2-0.1,0.2-0.2c2.5-1.9,5.9-2.4,8.9-1.2c0.1,0,0.3,0.1,0.3,0.3
				c0.1,0.2,0.3,0.4,0.4,0.6c0,0,0,0.1,0,0.1C200.7,60.1,196.9,60.5,194.2,62.6L194.2,62.6z"/>
			<path class="st1" d="M203.3,68.1l-0.3,0.4c-2.9-1.2-6.3-0.8-8.8,1.2l-0.4-0.3C196.5,67.2,200.2,66.7,203.3,68.1z"/>
			<path class="st1" d="M188.4,67c-0.2,0-0.3,0-0.4,0c-0.1,0-0.2,0-0.3,0c-1-1.1-2.3-1.9-3.8-2.3c-1.4-0.4-3-0.5-4.4-0.1
				c-0.1-0.1-0.2-0.3-0.2-0.5c1.6-0.4,3.3-0.4,4.9,0.2C185.9,64.7,187.3,65.7,188.4,67z"/>
			<path class="st1" d="M189.5,60.1c-0.2,0-0.3-0.1-0.5-0.1c0,0,0,0,0,0c2.7-2.2,6.5-2.2,9.2,0c-0.1,0-0.2,0-0.3,0.1
				c-0.1,0-0.2,0-0.3,0.1C195.1,58.4,191.9,58.4,189.5,60.1z"/>
			<path class="st1" d="M204.2,63.5l-0.6,0.1c-2.4-1.7-5.6-1.7-8,0c-0.1,0-0.2,0-0.3,0c-0.1,0-0.2,0-0.3-0.1
				c0.5-0.7,2.7-1.6,4.2-1.6C201,61.7,202.8,62.3,204.2,63.5z"/>
			<path class="st1" d="M192.2,70.6l-0.7,0.1c-2.4-1.7-5.6-1.7-8,0l-0.7-0.1c0.1-0.1,0.2-0.2,0.2-0.2c2.6-1.9,6.2-1.9,8.8,0
				C192,70.4,192.1,70.5,192.2,70.6z"/>
			<path class="st1" d="M192.1,63.5C192.1,63.5,192.1,63.5,192.1,63.5c-0.2,0.1-0.4,0.1-0.6,0.1c-2.4-1.7-5.6-1.7-8,0l-0.6-0.1
				c0.5-0.7,2.7-1.6,4.1-1.7C188.9,61.7,190.7,62.3,192.1,63.5z"/>
			<path class="st1" d="M189.5,74.2l-0.6-0.1c1.2-1,2.6-1.6,4.1-1.6c1.9-0.1,3.7,0.4,5.1,1.6c0,0,0,0,0,0c-0.2,0-0.4,0.1-0.6,0.1
				C195.1,72.5,191.9,72.5,189.5,74.2z"/>
			<path class="st1" d="M193.1,64.2c-0.6,0.1-1.2,0-1.8-0.1c0.7-0.5,3.4-0.4,4.9,0.1c1.6,0.5,3.1,1.5,4.2,2.8l-0.7,0
				c-0.4-0.3-0.8-0.7-1.2-1c-1.2-0.9-2.6-1.4-4.1-1.6c-0.4,0-0.7,0-1.1-0.1C193.3,64.3,193.1,64.3,193.1,64.2z"/>
			<path class="st1" d="M194.7,70.3l-0.3-0.4c2.3-1.9,5.5-2.3,8.3-1.2l-0.4,0.4C199.8,68.2,196.9,68.6,194.7,70.3z"/>
			<path class="st1" d="M188.4,74l-0.7-0.1c-1.8-1.9-4.5-2.9-7.1-2.6v-0.5c1.4-0.2,2.9,0,4.2,0.6C186.2,72,187.4,72.9,188.4,74z"/>
			<path class="st1" d="M179.8,65.3l-0.2-0.4c2.7-0.7,5.7,0.1,7.7,2.1l-0.7,0.1C184.7,65.4,182.2,64.7,179.8,65.3z"/>
			<path class="st1" d="M190.6,60.4l-0.6-0.2c2.2-1.4,5-1.4,7.2,0l-0.6,0.2C194.6,59.3,192.4,59.3,190.6,60.4z"/>
			<path class="st1" d="M197.1,74.3l-0.6,0.2c-1.8-1-4.1-1-5.9,0l-0.6-0.2C192.1,72.9,194.9,72.9,197.1,74.3z"/>
			<path class="st1" d="M203.1,63.7l-0.6,0.2c-1.8-1-4.1-1-5.9,0c-0.1,0-0.2,0-0.3-0.1c-0.1,0-0.2-0.1-0.3-0.1
				C198.2,62.3,201,62.3,203.1,63.7z"/>
			<path class="st1" d="M184.6,71l-0.6-0.2c2.2-1.4,5-1.4,7.1,0l-0.6,0.2C188.6,70,186.4,70,184.6,71z"/>
			<path class="st1" d="M190.6,63.9c-0.2-0.1-0.5-0.2-0.7-0.3c-1.6-0.7-3.5-0.6-5.1,0.2c-0.1,0-0.2,0.1-0.2,0.1l-0.6-0.2
				c2.2-1.4,5-1.4,7.1,0C190.9,63.8,190.7,63.8,190.6,63.9z"/>
			<path class="st1" d="M187.2,74l-0.7,0.1c-1.6-1.4-3.8-2.1-5.9-1.9c0-0.1,0-0.2,0-0.2c0-0.1,0-0.2,0-0.2
				C183,71.4,185.5,72.3,187.2,74z"/>
			<path class="st1" d="M202,69.3l-0.6,0.3c-2-0.6-4.2-0.2-5.9,1c-0.1,0-0.3,0-0.4-0.1c-0.1,0-0.1,0-0.2,0c0-0.1,0.1-0.2,0.2-0.2
				c0.9-0.7,2-1.1,3.2-1.3c1.2-0.2,2.4-0.1,3.5,0.3C201.9,69.3,201.9,69.3,202,69.3z"/>
			<path class="st1" d="M193.8,76.4c1.8-1.5,4.1-2.2,6.4-2l-0.2,0.5c-1,0-2.1,0.1-3.1,0.4c-1,0.3-1.9,0.8-2.8,1.5
				C194.1,76.7,194,76.5,193.8,76.4z"/>
			<path class="st1" d="M193.2,65.1c0-0.1,0-0.1,0-0.2c0-0.1,0-0.2,0-0.3c2.3-0.2,4.5,0.7,6.1,2.3l-0.6,0.1
				C197.1,65.7,195.2,65,193.2,65.1z"/>
			<path class="st1" d="M189.9,75.5l-0.5,0.4c-1.8-0.4-3.7-0.2-5.3,0.6l-0.6-0.3c0.7-0.4,1.4-0.7,2.1-0.8
				C187.1,75.1,188.5,75.1,189.9,75.5z"/>
			<path class="st1" d="M185.5,67.1c-1.5-1.1-3.4-1.5-5.2-1.2l-0.3-0.4c0.8-0.2,1.7-0.3,2.6-0.1c1.3,0.2,2.6,0.7,3.6,1.6L185.5,67.1
				z"/>
			<path class="st1" d="M182.2,57.5c1.9,0.2,3.7,1,5.1,2.3l-0.7,0.1c-1.4-1.2-3.3-1.9-5.1-1.9C181.7,57.8,181.9,57.6,182.2,57.5z"/>
			<path class="st1" d="M188.4,59.9h-0.7c-0.7-0.7-1.4-1.3-2.3-1.7c-0.8-0.4-1.7-0.7-2.6-0.9l0-0.1c0.3-0.1,0.6-0.2,0.9-0.2
				c0.1,0,0.2,0,0.3,0c1.2,0.3,2.3,0.9,3.3,1.7c0.3,0.3,0.6,0.6,0.9,0.9C188.2,59.7,188.3,59.8,188.4,59.9z"/>
			<path class="st1" d="M199.9,75.2c0,0.1-0.1,0.1-0.1,0.2c-0.1,0.1-0.1,0.2-0.2,0.3c-1.8,0-3.5,0.6-4.9,1.7l-0.3-0.4
				C196,75.7,197.9,75.1,199.9,75.2z"/>
			<path class="st1" d="M180.8,73l-0.1-0.5c0.1,0,0.2,0,0.3-0.1c1.8-0.1,3.6,0.4,5,1.5c0,0,0.1,0.1,0.1,0.1c-0.1,0-0.2,0.1-0.3,0.1
				c-0.1,0-0.2,0-0.3,0.1C184.1,73.3,182.5,72.8,180.8,73z"/>
			<path class="st1" d="M186.1,60l-0.6,0.1c-1.5-1-3.2-1.4-5-1.2c0.1-0.1,0.1-0.1,0.2-0.2c0.1-0.1,0.1-0.1,0.2-0.2
				c0.1-0.1,0.1-0.1,0.2-0.2C182.8,58.2,184.7,58.8,186.1,60z"/>
			<path class="st1" d="M189.9,53.5c1.7,0.5,3.3,1.5,4.4,2.8h-0.7c-1.2-1.2-2.7-2.1-4.4-2.5L189.9,53.5z"/>
			<path class="st1" d="M198.2,67l-0.6,0.1c-1.2-0.9-2.7-1.3-4.3-1.3l-0.1-0.5C195,65.3,196.8,65.9,198.2,67z"/>
			<path class="st1" d="M179.8,59.8c0.1-0.1,0.1-0.2,0.2-0.3c0.1-0.1,0.1-0.2,0.2-0.3c1.7-0.3,3.5,0,4.9,0.9l-0.6,0.2
				C183,59.6,181.4,59.4,179.8,59.8z"/>
			<path class="st1" d="M188.5,54.5l0.5-0.4c1.6,0.3,3.1,1.1,4.3,2.2l-0.7,0.1C191.4,55.4,190,54.7,188.5,54.5z"/>
			<path class="st1" d="M191.6,60.8l-0.6-0.3c1.6-0.8,3.5-0.8,5.2,0l-0.6,0.3C194.2,60.3,192.8,60.3,191.6,60.8z"/>
			<path class="st1" d="M195.5,74.9c-0.6-0.2-1.3-0.4-2-0.4c-0.7,0-1.3,0.1-1.9,0.4l-0.6-0.3c1.6-0.8,3.5-0.8,5.1,0L195.5,74.9z"/>
			<path class="st1" d="M197.6,64.3c-0.2-0.1-0.4-0.2-0.5-0.2c0,0,0,0,0,0c1.6-0.8,3.5-0.8,5.1,0l-0.6,0.3c-0.6-0.2-1.3-0.4-1.9-0.4
				C198.9,63.9,198.2,64.1,197.6,64.3z"/>
			<path class="st1" d="M185.6,64.3L185,64c1.6-0.8,3.5-0.8,5.1,0l-0.6,0.3C188.2,63.8,186.8,63.8,185.6,64.3z"/>
			<path class="st1" d="M185.6,71.4l-0.7-0.3c1.6-0.8,3.5-0.8,5.2,0l-0.6,0.3C188.2,70.9,186.8,70.9,185.6,71.4z"/>
			<path class="st1" d="M196.6,71l-0.6-0.2c0.8-0.9,3.8-1.4,5-0.9c-0.2,0.1-0.3,0.1-0.5,0.2c-0.2,0.1-0.3,0.1-0.5,0.2
				C198.8,70.2,197.6,70.4,196.6,71z"/>
			<path class="st1" d="M179.4,60.7c0,0,0-0.1,0-0.1c0-0.1,0.1-0.3,0.2-0.4c1.5-0.5,3.1-0.4,4.5,0.3l-0.6,0.3
				c-1.2-0.5-2.5-0.5-3.7-0.1C179.7,60.7,179.5,60.7,179.4,60.7z"/>
			<path class="st1" d="M180.9,66.7c-0.1-0.2-0.3-0.3-0.4-0.5c1.6-0.2,3.2,0.1,4.6,1c-0.1,0-0.2,0.1-0.3,0.1c-0.1,0-0.2,0.1-0.3,0.1
				C183.4,66.8,182.1,66.6,180.9,66.7z"/>
			<path class="st1" d="M195.6,77.8c-0.2,0-0.3-0.1-0.5-0.1c0,0-0.1,0-0.1,0c0-0.1,0.1-0.1,0.1-0.2c0.9-0.7,2-1.2,3.2-1.4
				c0.4-0.1,0.7-0.1,1.1-0.1c-0.1,0.2-0.3,0.4-0.5,0.6C197.7,76.6,196.6,77.1,195.6,77.8z"/>
			<path class="st1" d="M192.2,56.4l-0.7,0.1c-0.5-0.4-1.1-0.7-1.7-0.9c-0.6-0.2-1.2-0.3-1.9-0.4c0.1-0.2,0.2-0.3,0.3-0.5
				C189.7,54.9,191.1,55.5,192.2,56.4z"/>
			<path class="st1" d="M185.1,74.3l-0.6,0.2c-1-0.5-2.2-0.8-3.3-0.8c0-0.1-0.1-0.1-0.1-0.2c0-0.1-0.1-0.1-0.1-0.2
				C182.4,73.1,183.9,73.5,185.1,74.3z"/>
			<path class="st1" d="M189,76.2c-0.1,0-0.2,0.1-0.3,0.1c-0.3,0.1-0.6,0.2-0.9,0.2c-0.8-0.1-1.6,0-2.3,0.3c-0.1,0-0.3,0-0.4,0
				c-0.2,0-0.4-0.1-0.6-0.2C185.9,76,187.5,75.8,189,76.2L189,76.2z"/>
			<path class="st1" d="M197.1,67.2l-0.7,0.2c-0.9-0.5-1.9-0.8-3-0.7l-0.2-0.5C194.7,66.1,196,66.5,197.1,67.2z"/>
			<path class="st1" d="M182.3,63.4l-0.7,0c-0.7-0.7-1.5-1.3-2.4-1.8c0-0.1,0-0.2,0-0.2c0-0.1,0-0.2,0.1-0.2
				C180.5,61.6,181.5,62.4,182.3,63.4z"/>
			<path class="st1" d="M204.4,65.5l-0.1,0.5c-0.5,0.2-1,0.3-1.4,0.5c-0.5,0.2-0.9,0.5-1.4,0.7l-0.6-0.1
				C201.9,66.2,203.1,65.7,204.4,65.5z"/>
			<path class="st1" d="M191.1,56.6l-0.7,0.2c-0.9-0.5-2-0.8-3-0.7l0.3-0.5C188.9,55.6,190.1,55.9,191.1,56.6z"/>
			<path class="st1" d="M192,67.7c0.5-0.3,1.1-0.6,1.7-0.7c0.3,0,0.6,0,0.8,0.1c0.6,0.1,1.1,0.3,1.6,0.5l-0.6,0.3
				C194.4,67.4,193.1,67.4,192,67.7z"/>
			<path class="st1" d="M200.4,71c-0.5,0-1,0-1.4,0c-0.5,0.1-0.9,0.2-1.4,0.3l-0.6-0.2c1-0.5,2.1-0.7,3.3-0.6L200.4,71z"/>
			<path class="st1" d="M193.3,77.5l-0.6,0.1c-0.4-0.3-0.8-0.5-1.2-0.8c-0.1-0.1-0.3-0.2-0.4-0.2c-0.4-0.2-0.7-0.5-0.9-0.9
				C191.4,76,192.4,76.7,193.3,77.5z"/>
			<path class="st1" d="M189.5,57.2c-0.8-0.3-1.6-0.4-2.4-0.4l0.2-0.5c1,0,1.9,0.2,2.8,0.6L189.5,57.2z"/>
			<path class="st1" d="M179.9,61c1-0.4,2.1-0.4,3.1,0l-0.6,0.3c-0.6-0.1-1.3-0.1-2,0L179.9,61z"/>
			<path class="st1" d="M189.1,64.5l-0.6,0.3c-0.6-0.1-1.3-0.1-1.9,0l-0.6-0.3C187,64.1,188.1,64.1,189.1,64.5z"/>
			<path class="st1" d="M195.1,61l-0.5,0.3c-0.3,0-0.7-0.1-1-0.1c-0.3,0-0.7,0-1,0.1L192,61C193,60.6,194.1,60.6,195.1,61z"/>
			<path class="st1" d="M201.1,64.5l-0.6,0.3c-0.6-0.1-1.3-0.1-1.9,0l-0.6-0.3C199,64.1,200.1,64.1,201.1,64.5z"/>
			<path class="st1" d="M192.6,68.4L192,68c1-0.4,2.1-0.4,3.1,0c-0.1,0.1-0.2,0.1-0.3,0.2c-0.1,0.1-0.2,0.1-0.3,0.2
				C193.9,68.3,193.2,68.3,192.6,68.4z"/>
			<path class="st1" d="M189.1,71.6l-0.6,0.3c-0.6-0.1-1.3-0.1-1.9,0l-0.6-0.3C187,71.2,188.1,71.2,189.1,71.6z"/>
			<path class="st1" d="M192.5,75.5l-0.6-0.4c1-0.3,2.1-0.3,3.2,0l-0.6,0.4C193.9,75.3,193.2,75.3,192.5,75.5z"/>
			<path class="st1" d="M192.6,54.2l-0.6-0.3c1-0.4,2.1-0.4,3.1,0l-0.6,0.3C193.9,54.1,193.2,54.1,192.6,54.2z"/>
			<path class="st1" d="M187,57.3l0.1-0.1c0.7-0.1,1.4,0,2,0.2l-0.6,0.3c-0.3,0-0.7-0.1-1-0.1c-0.3,0-0.7,0-1,0.1l-0.5-0.3
				C186.3,57.2,186.6,57.2,187,57.3z"/>
			<path class="st1" d="M194.7,56.1l-0.3-0.4c0.6-0.5,1.4-0.9,2.1-1.2l0.4,0.4C196.1,55.2,195.4,55.6,194.7,56.1z"/>
			<path class="st1" d="M194.2,55.5c-0.1-0.1-0.1-0.1-0.2-0.2c-0.1-0.1-0.1-0.1-0.2-0.2c0.6-0.5,1.3-0.9,2-1.3l0.5,0.4
				C195.6,54.6,194.9,55,194.2,55.5z"/>
			<path class="st1" d="M184,74.7l-0.6,0.3c-0.6-0.2-1.2-0.3-1.8-0.4l-0.3-0.5C182.3,74,183.2,74.2,184,74.7z"/>
			<path class="st1" d="M190.1,64.5l-0.2,0.6l-1.7,1.1l-0.3-0.4C188.5,65.2,189.3,64.8,190.1,64.5L190.1,64.5z"/>
			<path class="st1" d="M197.1,55.2l0.3,0.4c-0.3,0.1-0.6,0.3-0.9,0.4c-0.3,0.2-0.6,0.3-0.9,0.5l-0.6-0.1
				C195.5,55.9,196.3,55.4,197.1,55.2z"/>
			<path class="st1" d="M200.5,71.4l0.1,0.5c-0.2,0-0.5-0.1-0.7-0.1c-0.2,0-0.4,0-0.7,0c-0.2,0-0.4,0-0.7,0.1l-0.6-0.3
				C198.8,71.3,199.6,71.2,200.5,71.4z"/>
			<path class="st1" d="M184.1,67.6l-0.6,0.3c-0.4-0.1-0.7-0.2-1-0.3c0,0-0.1,0-0.1,0c-0.4,0-0.7-0.3-1.1-0.5
				C182.2,66.9,183.2,67.1,184.1,67.6z"/>
			<path class="st1" d="M202.6,67.4l-0.6-0.2c0.6-0.5,1.4-0.8,2.2-0.9c0,0.2,0,0.2-0.1,0.5L202.6,67.4z"/>
			<path class="st1" d="M198.5,76.9c-0.6,0.5-1.3,0.9-2,1.1l-0.5-0.2C196.7,77.3,197.6,77,198.5,76.9z"/>
			<path class="st1" d="M180.8,69.6l0.2-0.5c0.5,0.4,1,0.9,1.4,1.4l-0.7,0L180.8,69.6z"/>
			<path class="st1" d="M197.5,55.9l0.2,0.4l-1.2,0.5l-0.6-0.2C196.4,56.3,197,56,197.5,55.9z"/>
			<path class="st1" d="M200.4,59.9h-0.7l-1-0.9c0.3,0,0.6,0,0.8,0C199.9,59.3,200.2,59.6,200.4,59.9z"/>
			<path class="st1" d="M181.7,67.8c0.5,0,0.9,0.1,1.4,0.3l-0.6,0.3l-1.1-0.1C181.5,68.1,181.6,67.9,181.7,67.8z"/>
			<path class="st1" d="M189.5,65.6l-0.5,0.6l0.1,0.1l-0.4,0.3l-0.3-0.4C188.7,66.1,189.1,65.8,189.5,65.6z"/>
			<path class="st1" d="M198,57.1l-0.4,0.2l-0.6-0.3c0.3-0.2,0.6-0.3,0.9-0.3L198,57.1z"/>
			<path class="st1" d="M195.5,78.2c-0.7,0.1-1.5,0-2.2-0.2C194,77.9,194.8,78,195.5,78.2z"/>
			<path class="st1" d="M199.8,72.9l0.7-0.5c0,0.2,0,0.4,0,0.6l-0.3,0.3L199.8,72.9z"/>
			<path class="st1" d="M188.1,72.2l-0.6,0.5l-0.6-0.5C187.3,72.1,187.7,72.1,188.1,72.2z"/>
			<path class="st1" d="M181.9,74.9c0.4,0,0.8,0.1,1.2,0.2l-0.6,0.4C182.2,75.3,182,75.1,181.9,74.9z"/>
			<path class="st1" d="M194.1,68.6l-0.6,0.5l-0.6-0.5C193.3,68.5,193.7,68.5,194.1,68.6z"/>
			<path class="st1" d="M194.2,54.5l-0.6,0.5l-0.6-0.5C193.3,54.4,193.7,54.4,194.2,54.5z"/>
			<path class="st1" d="M198.9,72.2c0.4-0.1,0.8-0.1,1.2,0l-0.6,0.5L198.9,72.2z"/>
			<path class="st1" d="M199.5,65.5l-0.6-0.5c0.4-0.1,0.8-0.1,1.2,0L199.5,65.5z"/>
			<path class="st1" d="M192.9,61.5c0.4-0.1,0.8-0.1,1.2,0l-0.6,0.5L192.9,61.5z"/>
			<path class="st1" d="M182.1,61.5l-0.6,0.5l-0.6-0.5C181.3,61.5,181.7,61.5,182.1,61.5z"/>
			<path class="st1" d="M188.1,65.1l-0.6,0.5l-0.6-0.5C187.3,65,187.7,65,188.1,65.1z"/>
			<path class="st1" d="M187.5,58.5l-0.6-0.5c0.4-0.1,0.8-0.1,1.2,0C187.9,58.2,187.7,58.3,187.5,58.5z"/>
			<path class="st1" d="M194.1,75.7l-0.6,0.5l-0.6-0.4C193.3,75.6,193.7,75.6,194.1,75.7z"/>
			<path class="st1" d="M181.5,69.1l-0.4-0.3l0.1-0.2c0.3,0,0.6,0,0.9,0L181.5,69.1z"/>
			<path class="st1" d="M189.9,66.9l-0.3,0.2l-0.7-0.1c0.2-0.2,0.4-0.3,0.6-0.4L189.9,66.9z"/>
			<path class="st1" d="M201.9,59.9l-0.3,0.2l-0.7-0.1c0.1-0.2,0.3-0.2,0.4-0.4L201.9,59.9z"/>
			<path class="st1" d="M203.8,67.3l-0.3,0.5l-0.6-0.2L203.8,67.3L203.8,67.3z"/>
			<path class="st1" d="M180.6,70.5l0.1-0.6l0.6,0.5L180.6,70.5z"/>
			<path class="st1" d="M186.1,57.1l-0.5,0.2L185,57C185.3,56.9,185.7,56.9,186.1,57.1z"/>
			<path class="st1" d="M201.1,59.4l-0.3,0.2l-0.3-0.4C200.7,59.2,200.8,59.4,201.1,59.4z"/>
			<g>
				<polygon class="st2" points="16.7,30 16.7,30 23.6,49.3 16.7,68.7 16.7,68.7 71,68.7 71,30 				"/>
				<path class="st3" d="M71.3,69.1H16.2l7-19.7l-7-19.7h55.1L71.3,69.1z M17.2,68.4h53.4v-38H17.2l6.7,19l0,0.1L17.2,68.4z"/>
				<polygon class="st2" points="242.6,30 242.6,30 235.7,49.3 242.6,68.7 242.6,68.7 188.3,68.7 188.3,30 				"/>
				<path class="st3" d="M243.1,69.1H188V29.6h55.1l-7,19.7L243.1,69.1z M188.7,68.4h53.4l-6.7-19l0-0.1l6.7-18.9h-53.4V68.4z"/>
				<rect x="50.2" y="57" class="st4" width="20.7" height="0.7"/>
				<rect x="53.2" y="58.6" class="st4" width="17.8" height="0.7"/>
				<rect x="56.2" y="60.3" class="st4" width="14.8" height="0.7"/>
				<rect x="59.2" y="61.9" class="st4" width="11.8" height="0.7"/>
				<rect x="62.2" y="63.6" class="st4" width="8.8" height="0.7"/>
				<rect x="65.2" y="65.2" class="st4" width="5.8" height="0.7"/>
				<rect x="68.2" y="66.8" class="st4" width="2.8" height="0.7"/>
				<rect x="188.3" y="57" class="st4" width="20.7" height="0.7"/>
				<rect x="188.3" y="58.6" class="st4" width="17.8" height="0.7"/>
				<rect x="188.3" y="60.3" class="st4" width="14.8" height="0.7"/>
				<rect x="188.3" y="61.9" class="st4" width="11.8" height="0.7"/>
				<rect x="188.3" y="63.6" class="st4" width="8.8" height="0.7"/>
				<rect x="188.3" y="65.2" class="st4" width="5.8" height="0.7"/>
				<rect x="188.3" y="66.8" class="st4" width="2.8" height="0.7"/>
				
					<rect x="59" y="49.1" transform="matrix(0.4802 -0.8771 0.8771 0.4802 -23.8398 84.454)" class="st3" width="0.7" height="26.6"/>
				
					<rect x="186.7" y="62" transform="matrix(0.877 -0.4805 0.4805 0.877 -5.3584 103.7534)" class="st3" width="26.6" height="0.7"/>
				<rect x="47.7" y="17.2" class="st2" width="163.9" height="38.7"/>
				<path class="st3" d="M212,56.3H47.3V16.9H212V56.3z M48.1,55.6h163.2v-38H48.1V55.6z"/>
			</g>
			<g class="st5">
				<path class="st6" d="M107.3,44.9l-0.9,3.1H93.4v-0.1l2-1.4c9.5-7.6,11-20.6,5.3-20.6c-3.3,0-5.6,2.1-6.6,7.2h-0.1l1.2-7.3h0.1
					c1.3,1.5,2.8,0,5.4,0c6.5,0,10.6,8.2-4.4,20.1h8.1c1.9,0,2.2,0,2.6-1H107.3z"/>
			</g>
			<g class="st5">
				<path class="st6" d="M129.1,37c0,6.1-2.9,11.3-8.9,11.3c-6.1,0-8.9-5.2-8.9-11.3c0-6.1,2.9-11.3,8.9-11.3
					C126.2,25.7,129.1,31,129.1,37z M117.9,26.2c-8.5,1.8-4.3,23.6,4.6,21.7C131,46.1,126.8,24.3,117.9,26.2z"/>
				<path class="st6" d="M146.3,44.9l-0.9,3.1h-12.9v-0.1l2-1.4c9.5-7.6,11-20.6,5.3-20.6c-3.3,0-5.6,2.1-6.6,7.2h-0.1l1.2-7.3h0.1
					c1.3,1.5,2.8,0,5.4,0c6.5,0,10.6,8.2-4.4,20.1h8.1c1.9,0,2.2,0,2.6-1H146.3z"/>
			</g>
			<g class="st5">
				<path class="st6" d="M152.3,36c0.4-0.2,3.7-1.9,6.5-1.9c7.9,0,7.7,14.2-1.4,14.2c-5.6,0-6.8-5.4-6.9-6h0.1
					c0,0.7,1.7,5.7,5.8,5.7c6.5,0,7.5-13.1,1.4-13.1c-2.3,0-5.4,1.9-5.8,2.1l1.6-11h8.2c1.1,0,1.7,0,2.1-1h0.2l-1.1,3.1h-9.6
					L152.3,36z"/>
			</g>
			<path class="st4" d="M45.1,61.8c-0.4,0-0.9-0.2-1.2-0.5l-0.1-0.1c-0.6-0.6-0.6-1.7,0-2.3l0.9-0.9l-1.8-1.8l-0.9,0.9
				c-0.6,0.6-1.7,0.6-2.3,0l-0.1-0.1c-0.6-0.6-0.6-1.7,0-2.3l0.1-0.1c0.6-0.6,1.7-0.6,2.3,0l0.9,0.9l1.8-1.8L43.9,53
				c-0.6-0.6-0.6-1.7,0-2.3l0.1-0.1c0.6-0.6,1.7-0.6,2.3,0l0.9,0.9l0.9-0.9c0.6-0.6,1.7-0.6,2.3,0l0.1,0.1c0.6,0.6,0.6,1.7,0,2.3
				l-0.9,0.9l1.8,1.8l0.9-0.9c0.6-0.6,1.7-0.6,2.3,0l0.1,0.1c0.6,0.6,0.6,1.7,0,2.3l-0.1,0.1c-0.6,0.6-1.7,0.6-2.3,0l-0.9-0.9
				l-1.8,1.8l0.9,0.9c0.6,0.6,0.6,1.7,0,2.3l-0.1,0.1c-0.6,0.6-1.7,0.6-2.3,0l-0.9-0.9l-0.9,0.9C46,61.6,45.6,61.8,45.1,61.8z
				 M45.1,58.4l-0.9,0.9c-0.5,0.5-0.5,1.2,0,1.7l0.1,0.1c0.5,0.5,1.2,0.5,1.7,0l0.9-0.9L45.1,58.4z M47.5,60.1l0.9,0.9
				c0.5,0.5,1.2,0.5,1.7,0l0.1-0.1c0.5-0.5,0.5-1.2,0-1.7l-0.9-0.9L47.5,60.1z M45.5,58.1l1.8,1.8l1.8-1.8l-1.8-1.8L45.5,58.1z
				 M47.5,56l1.8,1.8L51,56l-1.8-1.8L47.5,56z M43.4,56l1.8,1.8l1.8-1.8l-1.8-1.8L43.4,56z M51.6,56l0.9,0.9c0.5,0.5,1.2,0.5,1.7,0
				l0.1-0.1c0.5-0.5,0.5-1.2,0-1.7l-0.1-0.1c-0.5-0.5-1.2-0.5-1.7,0L51.6,56z M41,54.7c-0.3,0-0.6,0.1-0.8,0.4l-0.1,0.1
				c-0.5,0.5-0.5,1.2,0,1.7l0.1,0.1c0.5,0.5,1.2,0.5,1.7,0l0.9-0.9l-0.9-0.9C41.6,54.9,41.3,54.7,41,54.7z M45.5,53.9l1.8,1.8
				l1.8-1.8l-1.8-1.8L45.5,53.9z M45.1,50.6c-0.3,0-0.6,0.1-0.8,0.4L44.2,51c-0.5,0.5-0.5,1.2,0,1.7l0.9,0.9l1.8-1.8L46,51
				C45.8,50.7,45.5,50.6,45.1,50.6z M47.5,51.9l1.8,1.8l0.9-0.9c0.5-0.5,0.5-1.2,0-1.7L50.1,51c-0.5-0.5-1.2-0.5-1.7,0L47.5,51.9z"
				/>
			<path class="st4" d="M47.3,69.8c-0.3,0-0.5-0.2-0.5-0.5v-6.5c0-0.3,0.2-0.5,0.5-0.5c0.3,0,0.5,0.2,0.5,0.5c0,0,0,0,0,0v6.5
				C47.7,69.6,47.5,69.8,47.3,69.8z"/>
			<path class="st4" d="M45.5,84.2c-0.1,0-0.2-0.2-0.2-0.5V71c0-0.3,0.1-0.5,0.2-0.5s0.2,0.2,0.2,0.5v12.7
				C45.7,84,45.6,84.2,45.5,84.2z"/>
			<path class="st4" d="M46,83.7c0-0.1,0-0.2,0-0.3c0-0.2,0-0.3,0-0.5V71c0-0.3,0.1-0.5,0.2-0.5s0.2,0.2,0.2,0.5v12.6
				c0,0.2-0.1,0.5-0.1,0.5S46,83.9,46,83.7z"/>
			<path class="st4" d="M46.6,83.7c0,0.1,0-0.1-0.1-0.1c0-0.1-0.1-0.3-0.1-0.5V71c0-0.3,0.1-0.5,0.2-0.5s0.2,0.2,0.2,0.5v12.4
				c0,0.2-0.1,0.5-0.1,0.5S46.6,83.9,46.6,83.7z"/>
			<path class="st4" d="M47.3,83.7C47.3,83.9,47.2,83.7,47.3,83.7c-0.1,0-0.2-0.3-0.2-0.5V71c0-0.3,0.1-0.5,0.2-0.5s0.2,0.2,0.2,0.5
				v12.3C47.4,83.4,47.4,83.7,47.3,83.7C47.3,83.7,47.3,83.9,47.3,83.7z"/>
			<path class="st4" d="M47.9,83.7c0,0.2-0.1,0.2-0.1,0.2s-0.1-0.3-0.1-0.5V71c0-0.3,0.1-0.5,0.2-0.5S48,70.7,48,71v12.1
				c0,0.2,0,0.3-0.1,0.5C47.9,83.6,47.9,83.8,47.9,83.7z"/>
			<path class="st4" d="M48.6,83.7c0,0.2-0.1,0.3-0.1,0.3s-0.1-0.3-0.1-0.5V71c0-0.3,0.1-0.5,0.2-0.5s0.2,0.2,0.2,0.5v11.9
				c0,0.2,0,0.3,0,0.5C48.6,83.5,48.6,83.6,48.6,83.7z"/>
			<path class="st4" d="M49,84.2c0.1,0,0.2-0.2,0.2-0.5V71c0-0.3-0.1-0.5-0.2-0.5s-0.2,0.2-0.2,0.5v12.7C48.9,84,48.9,84.2,49,84.2z
				"/>
			<path class="st4" d="M46,69.3h2.5c0.3,0,0.5,0.2,0.5,0.5v0.6l0,0h-3.6l0,0v-0.6C45.5,69.5,45.7,69.3,46,69.3
				C46,69.3,46,69.3,46,69.3z"/>
			<path class="st4" d="M209.6,61.8c-0.4,0-0.9-0.2-1.2-0.5l-0.1-0.1c-0.6-0.6-0.6-1.7,0-2.3l0.9-0.9l-1.8-1.8l-0.9,0.9
				c-0.6,0.6-1.7,0.6-2.3,0l-0.1-0.1c-0.6-0.6-0.6-1.7,0-2.3l0.1-0.1c0.6-0.6,1.7-0.6,2.3,0l0.9,0.9l1.8-1.8l-0.9-0.9
				c-0.6-0.6-0.6-1.7,0-2.3l0.1-0.1c0.6-0.6,1.7-0.6,2.3,0l0.9,0.9l0.9-0.9c0.6-0.6,1.7-0.6,2.3,0l0.1,0.1c0.6,0.6,0.6,1.7,0,2.3
				l-0.9,0.9l1.8,1.8l0.9-0.9c0.6-0.6,1.7-0.6,2.3,0l0.1,0.1c0.6,0.6,0.6,1.7,0,2.3l-0.1,0.1c-0.6,0.6-1.7,0.6-2.3,0l-0.9-0.9
				l-1.8,1.8l0.9,0.9c0.6,0.6,0.6,1.7,0,2.3l-0.1,0.1c-0.6,0.6-1.7,0.6-2.3,0l-0.9-0.9l-0.9,0.9C210.4,61.6,210,61.8,209.6,61.8z
				 M209.6,58.4l-0.9,0.9c-0.5,0.5-0.5,1.2,0,1.7l0.1,0.1c0.5,0.5,1.2,0.5,1.7,0l0.9-0.9L209.6,58.4z M211.9,60.1l0.9,0.9
				c0.5,0.5,1.2,0.5,1.7,0l0.1-0.1c0.5-0.5,0.5-1.2,0-1.7l-0.9-0.9L211.9,60.1z M209.9,58.1l1.8,1.8l1.8-1.8l-1.8-1.8L209.9,58.1z
				 M211.9,56l1.8,1.8l1.8-1.8l-1.8-1.8L211.9,56z M207.8,56l1.8,1.8l1.8-1.8l-1.8-1.8L207.8,56z M216.1,56l0.9,0.9
				c0.5,0.5,1.2,0.5,1.7,0l0.1-0.1c0.5-0.5,0.5-1.2,0-1.7l-0.1-0.1c-0.5-0.5-1.2-0.5-1.7,0L216.1,56z M205.4,54.7
				c-0.3,0-0.6,0.1-0.8,0.4l-0.1,0.1c-0.5,0.5-0.5,1.2,0,1.7l0.1,0.1c0.5,0.5,1.2,0.5,1.7,0l0.9-0.9l-0.9-0.9
				C206,54.9,205.7,54.7,205.4,54.7L205.4,54.7z M209.9,53.9l1.8,1.8l1.8-1.8l-1.8-1.8L209.9,53.9z M209.6,50.6
				c-0.3,0-0.6,0.1-0.8,0.4l-0.1,0.1c-0.5,0.5-0.5,1.2,0,1.7l0.9,0.9l1.8-1.8l-0.9-0.9C210.2,50.7,209.9,50.6,209.6,50.6L209.6,50.6
				z M211.9,51.9l1.8,1.8l0.9-0.9c0.5-0.5,0.5-1.2,0-1.7l-0.1-0.1c-0.5-0.5-1.2-0.5-1.7,0L211.9,51.9z"/>
			<path class="st4" d="M211.7,69.8c-0.3,0-0.5-0.2-0.5-0.5v-6.5c0-0.3,0.2-0.5,0.5-0.5s0.5,0.2,0.5,0.5c0,0,0,0,0,0v6.5
				C212.1,69.6,211.9,69.8,211.7,69.8z"/>
			<path class="st4" d="M209.9,84.2c-0.1,0-0.2-0.2-0.2-0.5V71c0-0.3,0.1-0.5,0.2-0.5s0.2,0.2,0.2,0.5v12.7
				C210.1,84,210,84.2,209.9,84.2z"/>
			<path class="st4" d="M210.4,83.7c0-0.1,0-0.2,0-0.3c0-0.2,0-0.3,0-0.5V71c0-0.3,0.1-0.5,0.2-0.5s0.2,0.2,0.2,0.5v12.6
				c0,0.2-0.1,0.5-0.1,0.5S210.4,83.9,210.4,83.7z"/>
			<path class="st4" d="M211,83.7c0,0.1,0-0.1-0.1-0.1c0-0.1-0.1-0.3-0.1-0.5V71c0-0.3,0.1-0.5,0.2-0.5s0.2,0.2,0.2,0.5v12.4
				c0,0.2-0.1,0.5-0.1,0.5S211,83.9,211,83.7z"/>
			<path class="st4" d="M211.7,83.7C211.7,83.9,211.6,83.7,211.7,83.7c-0.1,0-0.2-0.3-0.2-0.5V71c0-0.3,0.1-0.5,0.2-0.5
				s0.2,0.2,0.2,0.5v12.3C211.8,83.4,211.8,83.7,211.7,83.7C211.7,83.7,211.7,83.9,211.7,83.7z"/>
			<path class="st4" d="M212.3,83.7c0,0.2-0.1,0.2-0.1,0.2s-0.1-0.3-0.1-0.5V71c0-0.3,0.1-0.5,0.2-0.5s0.2,0.2,0.2,0.5v12.1
				c0,0.2,0,0.3-0.1,0.5C212.3,83.6,212.3,83.8,212.3,83.7z"/>
			<path class="st4" d="M213,83.7c0,0.2-0.1,0.3-0.1,0.3s-0.1-0.3-0.1-0.5V71c0-0.3,0.1-0.5,0.2-0.5s0.2,0.2,0.2,0.5v11.9
				c0,0.2,0,0.3,0,0.5C213,83.5,213,83.6,213,83.7z"/>
			<path class="st4" d="M213.4,84.2c0.1,0,0.2-0.2,0.2-0.5V71c0-0.3-0.1-0.5-0.2-0.5s-0.2,0.2-0.2,0.5v12.7
				C213.3,84,213.4,84.2,213.4,84.2z"/>
			<path class="st4" d="M210.4,69.3h2.5c0.3,0,0.5,0.2,0.5,0.5v0.6l0,0h-3.6l0,0v-0.6C209.9,69.5,210.1,69.3,210.4,69.3
				C210.4,69.3,210.4,69.3,210.4,69.3z"/>
			<path class="st4" d="M45.1,61.8c-0.4,0-0.9-0.2-1.2-0.5l-0.1-0.1c-0.6-0.6-0.6-1.7,0-2.3l0.9-0.9l-1.8-1.8l-0.9,0.9
				c-0.6,0.6-1.7,0.6-2.3,0l-0.1-0.1c-0.6-0.6-0.6-1.7,0-2.3l0.1-0.1c0.6-0.6,1.7-0.6,2.3,0l0.9,0.9l1.8-1.8L43.9,53
				c-0.6-0.6-0.6-1.7,0-2.3l0.1-0.1c0.6-0.6,1.7-0.6,2.3,0l0.9,0.9l0.9-0.9c0.6-0.6,1.7-0.6,2.3,0l0.1,0.1c0.6,0.6,0.6,1.7,0,2.3
				l-0.9,0.9l1.8,1.8l0.9-0.9c0.6-0.6,1.7-0.6,2.3,0l0.1,0.1c0.6,0.6,0.6,1.7,0,2.3l-0.1,0.1c-0.6,0.6-1.7,0.6-2.3,0l-0.9-0.9
				l-1.8,1.8l0.9,0.9c0.6,0.6,0.6,1.7,0,2.3l-0.1,0.1c-0.6,0.6-1.7,0.6-2.3,0l-0.9-0.9l-0.9,0.9C46,61.6,45.6,61.8,45.1,61.8z
				 M45.1,58.4l-0.9,0.9c-0.5,0.5-0.5,1.2,0,1.7l0.1,0.1c0.5,0.5,1.2,0.5,1.7,0l0.9-0.9L45.1,58.4z M47.5,60.1l0.9,0.9
				c0.5,0.5,1.2,0.5,1.7,0l0.1-0.1c0.5-0.5,0.5-1.2,0-1.7l-0.9-0.9L47.5,60.1z M45.5,58.1l1.8,1.8l1.8-1.8l-1.8-1.8L45.5,58.1z
				 M47.5,56l1.8,1.8L51,56l-1.8-1.8L47.5,56z M43.4,56l1.8,1.8l1.8-1.8l-1.8-1.8L43.4,56z M51.6,56l0.9,0.9c0.5,0.5,1.2,0.5,1.7,0
				l0.1-0.1c0.5-0.5,0.5-1.2,0-1.7l-0.1-0.1c-0.5-0.5-1.2-0.5-1.7,0L51.6,56z M41,54.7c-0.3,0-0.6,0.1-0.8,0.4l-0.1,0.1
				c-0.5,0.5-0.5,1.2,0,1.7l0.1,0.1c0.5,0.5,1.2,0.5,1.7,0l0.9-0.9l-0.9-0.9C41.6,54.9,41.3,54.7,41,54.7z M45.5,53.9l1.8,1.8
				l1.8-1.8l-1.8-1.8L45.5,53.9z M45.1,50.6c-0.3,0-0.6,0.1-0.8,0.4L44.2,51c-0.5,0.5-0.5,1.2,0,1.7l0.9,0.9l1.8-1.8L46,51
				C45.8,50.7,45.5,50.6,45.1,50.6z M47.5,51.9l1.8,1.8l0.9-0.9c0.5-0.5,0.5-1.2,0-1.7L50.1,51c-0.5-0.5-1.2-0.5-1.7,0L47.5,51.9z"
				/>
			<path class="st4" d="M69.6,47L59.1,36.6l10.4-10.4L80,36.6L69.6,47z M60.2,36.6l9.4,9.4l9.4-9.4l-9.4-9.4L60.2,36.6z"/>
			<path class="st4" d="M69.6,44.6l-8-8l8-8l8,8L69.6,44.6z M62.1,36.6l7.5,7.5l7.5-7.5l-7.5-7.5L62.1,36.6z"/>
			<g class="st5">
				<path class="st6" d="M67.3,35.1c0,0.1-0.1,0.2-0.2,0.2c-0.2,0-0.5-0.1-0.8-0.3c-0.4-0.2-0.6-0.4-0.6-0.4c0,0,0,0,0.1,0
					c0,0,0.1,0,0.2,0h0.3c0.3,0,0.6,0,0.7,0.1C67.2,34.6,67.3,34.8,67.3,35.1z M67.4,37.7c-0.2-0.1-0.4-0.2-0.5-0.2
					c-0.2-0.1-0.3-0.2-0.3-0.4c0-0.1,0-0.3,0.1-0.5c0-0.1,0.1-0.2,0.1-0.3c-0.2,0.1-0.5,0.2-0.7,0.2c-0.1,0-0.2,0-0.3,0
					c-0.1,0-0.1,0-0.2-0.1c0,0,0,0,0.1-0.1c0,0,0.1,0,0.2,0c0.2,0,0.4-0.1,0.6-0.3c0.2-0.2,0.3-0.3,0.5-0.5c0.1,0,0.3,0.1,0.5,0.2
					c0.3,0.2,0.4,0.3,0.4,0.3c0,0-0.1,0.2-0.4,0.4S67.2,37,67.2,37c0.1,0.1,0.2,0.2,0.5,0.2c0.1,0,0.2,0.1,0.3,0.1
					c0.1,0.1,0.2,0.2,0.2,0.3c0.1,0.1,0.1,0.1,0.1,0.2c0,0.1-0.1,0.2-0.3,0.3c-0.1,0.1-0.3,0.1-0.4,0.2h0.1c0.3,0,0.7,0.1,1.1,0.2
					c0.5,0.1,0.9,0.3,1.1,0.3c0.5,0.2,1.1,0.3,1.6,0.3s1.1,0.1,1.7,0.1c0.1,0,0.1,0,0.2,0c0.1,0,0.1,0,0.1,0.1
					c0,0.1-0.2,0.2-0.7,0.4c-0.4,0.1-0.7,0.2-0.9,0.2c-0.2,0-0.5-0.1-1-0.3c-0.1,0-0.4-0.2-1.1-0.4c-0.3-0.1-0.7-0.3-1-0.4
					c-0.4-0.1-0.8-0.2-1.1-0.2c-0.3,0-0.5,0-0.7,0.1c-0.2,0.1-0.4,0.2-0.6,0.3c-0.1,0-0.1,0.1-0.2,0.1c0,0-0.1,0-0.1,0
					c-0.1,0-0.1-0.1-0.1-0.2c0-0.1,0-0.2,0.1-0.3c0.1-0.1,0.1-0.2,0.2-0.2c0,0,0.1,0,0.1,0c0.1,0,0.1,0,0.1,0c0.2,0,0.4-0.1,0.7-0.3
					S67.4,37.8,67.4,37.7z M67.8,33.8c0,0.1-0.1,0.2-0.2,0.2c-0.2,0-0.5-0.1-0.8-0.3c-0.4-0.2-0.6-0.4-0.6-0.4c0,0,0,0,0.1-0.1
					c0,0,0.1,0,0.1,0c0.1,0,0.1,0,0.2,0s0.2,0,0.2,0c0.3,0,0.5,0,0.7,0.1C67.6,33.4,67.8,33.5,67.8,33.8z M68.6,36.6v-0.9
					c0,0,0-0.1,0-0.1c0-0.1,0-0.2,0-0.3c0-0.1,0-0.2,0-0.3c0-0.1-0.1-0.2-0.2-0.3c0,0-0.1-0.1-0.1-0.2c0,0,0,0,0.1-0.1s0.1,0,0.2,0
					h0c0.2-0.1,0.3-0.3,0.5-0.5c0.2-0.2,0.3-0.4,0.4-0.5v-0.2c0-0.1,0-0.1,0.1-0.1c0.1,0,0.2,0.1,0.4,0.2c0.2,0.2,0.3,0.3,0.3,0.4
					c0,0.1,0,0.1-0.1,0.1s-0.1,0.1-0.2,0.1c-0.4,0.2-0.7,0.4-1.1,0.6c0.1,0.1,0.2,0.2,0.2,0.3s0.1,0.2,0.1,0.4v1.1
					c0.4-0.3,0.7-0.5,0.9-0.6c0.2-0.2,0.4-0.2,0.4-0.2l0,0c0,0.1-0.1,0.3-0.4,0.6c-0.3,0.4-0.7,0.8-1,1.2c0,0.1-0.1,0.1-0.1,0.2
					c-0.1,0.1-0.1,0.1-0.2,0.1c-0.1,0-0.2-0.1-0.3-0.3c-0.1-0.2-0.2-0.4-0.2-0.5c0-0.1,0-0.1,0.1-0.2C68.4,36.6,68.5,36.6,68.6,36.6
					z M71.1,34.2c0.1,0,0.1,0.1,0.2,0.1c0,0,0,0.1,0,0.2c0,0,0,0.1,0,0.2c0,0.1,0,0.1,0,0.2v2.6c0,0.3,0,0.5,0,0.8
					c0,0.4-0.1,0.6-0.2,0.6c-0.1,0-0.2-0.2-0.3-0.6s-0.1-0.8-0.1-1.1V35c0-0.2-0.1-0.4-0.2-0.6c0-0.1-0.1-0.2-0.2-0.3
					c0-0.1,0-0.1,0.1-0.1c0.1,0,0.2,0,0.3,0c0.1,0,0.2,0,0.2,0c0.1,0,0.3-0.1,0.4-0.1c0.2,0,0.3-0.1,0.5-0.1c0,0,0.1,0,0.2-0.1
					c0.2-0.1,0.3-0.2,0.3-0.2c0.1,0,0.2,0.1,0.5,0.3s0.4,0.4,0.4,0.5c0,0,0,0.1-0.1,0.1c0,0-0.1,0.1-0.1,0.1c-0.1,0.5-0.3,1-0.4,1.3
					c-0.2,0.6-0.5,0.9-0.8,0.9c-0.1,0-0.1-0.1-0.2-0.2c-0.1-0.2-0.1-0.3-0.1-0.3c-0.1-0.1-0.1-0.1-0.1-0.2c-0.1-0.1-0.1-0.1-0.1-0.2
					c0,0,0,0,0.1,0c0,0,0.1,0,0.2,0c0.1,0,0.1,0,0.1,0c0.2,0,0.3-0.2,0.4-0.7c0.1-0.4,0.2-0.7,0.2-0.9c0-0.1,0-0.3-0.1-0.3
					S72.1,34,72,34c-0.1,0-0.3,0-0.4,0.1C71.4,34.1,71.3,34.2,71.1,34.2z"/>
			</g>
			<path class="st4" d="M188.3,47l-10.4-10.4l10.4-10.4l10.4,10.4L188.3,47z M178.9,36.6l9.4,9.4l9.4-9.4l-9.4-9.4L178.9,36.6z"/>
			<path class="st4" d="M188.3,44.6l-8-8l8-8l8,8L188.3,44.6z M180.8,36.6l7.5,7.5l7.5-7.5l-7.5-7.5L180.8,36.6z"/>
			<g class="st5">
				<path class="st6" d="M189,35.9c-0.1,0-0.3,0-0.4,0c-0.2,0-0.3,0-0.5,0c-0.2,0.3-0.3,0.5-0.4,0.6c-0.1,0.2-0.3,0.4-0.5,0.6
					c0.1,0.1,0.1,0.1,0.2,0.2l1.4-0.2c0,0,0.1-0.1,0.3-0.2c0.1,0,0.1-0.1,0.2-0.1c0.1,0,0.2,0.1,0.4,0.2s0.3,0.3,0.3,0.3
					c0,0,0,0.1-0.1,0.2c0,0.1-0.1,0.2-0.1,0.2v1.4c0,0.1,0,0.3-0.1,0.5c-0.1,0.2-0.2,0.4-0.3,0.4c-0.1,0-0.1,0-0.2-0.1
					c-0.1-0.1-0.1-0.2-0.1-0.2H189c-0.2,0-0.4,0-0.7,0c-0.2,0-0.5,0.1-0.8,0.1c0,0.1-0.1,0.2-0.1,0.2c-0.1,0-0.2-0.1-0.3-0.2
					c-0.1-0.1-0.1-0.3-0.1-0.5c0-0.1,0-0.1,0-0.2c0.1-0.2,0.1-0.4,0.1-0.4v-0.7c0-0.2,0-0.3,0-0.4c0-0.1,0-0.2-0.1-0.3
					c-0.2,0.3-0.6,0.5-0.9,0.7c-0.4,0.3-0.8,0.4-1.1,0.4l-0.1,0c0,0,0-0.1,0.1-0.1c0,0,0.1-0.1,0.1-0.1c0.4-0.3,0.8-0.6,1.2-0.9
					c0.4-0.4,0.7-0.8,0.9-1.2c-0.5,0-0.9,0.2-1.3,0.3c-0.1,0-0.2,0.1-0.2,0.1s-0.1,0-0.1,0c-0.1,0-0.2,0-0.5-0.1
					c-0.2-0.1-0.3-0.2-0.3-0.2c0,0,0.1,0,0.2,0l0.4,0c0.3,0,0.6,0,1-0.1c0.5-0.1,0.9-0.2,1-0.2c0-0.1,0.1-0.2,0.2-0.3
					c0.1-0.1,0.1-0.3,0.1-0.4c-0.1,0-0.2,0-0.4,0c-0.3,0.1-0.5,0.1-0.6,0.1c-0.1,0-0.2,0-0.4-0.1c-0.1-0.1-0.1-0.1-0.1-0.2
					c0,0,0,0,0.1,0c0.1,0,0.2,0,0.2,0c0.1,0,0.1,0,0.2,0c0.2,0,0.3,0,0.5,0c0.2,0,0.4-0.1,0.5-0.1c0-0.1,0.1-0.2,0.1-0.2
					c0,0,0-0.1,0.1-0.3c-0.1,0-0.3,0-0.5,0.1c-0.2,0-0.4,0.1-0.5,0.1c-0.1,0-0.2,0-0.4-0.1c-0.2-0.1-0.3-0.1-0.3-0.2c0,0,0,0,0.1,0
					c0.1,0,0.1,0,0.3,0s0.2,0,0.2,0c0.2,0,0.4,0,0.6,0s0.4,0,0.6-0.1c0-0.1,0.1-0.3,0.1-0.3c0-0.1,0.1-0.3,0.1-0.3
					c0-0.1,0-0.2-0.1-0.3c-0.1-0.1-0.2-0.2-0.2-0.3c0,0,0-0.1,0.1-0.1c0,0,0.1,0,0.1,0c0.2,0,0.4,0.1,0.6,0.2
					c0.3,0.1,0.4,0.2,0.4,0.4c-0.1,0.1-0.1,0.3-0.2,0.4c-0.1,0.2-0.1,0.3-0.2,0.4c0.1,0,0.3,0,0.5-0.1c0.4-0.1,0.7-0.2,0.8-0.2
					c0.2,0,0.4,0,0.5,0.1c0.1,0,0.2,0.1,0.2,0.2c0,0.1-0.3,0.2-0.9,0.2c-0.4,0-0.7,0-1.1,0.1c0,0,0,0.1-0.1,0.2
					c0,0.1-0.1,0.2-0.1,0.3c0.2,0,0.4,0,0.6-0.1c0.2,0,0.4-0.1,0.6-0.1c0.2,0,0.3,0,0.4,0.1c0.1,0,0.2,0.1,0.2,0.2
					c0,0.1-0.2,0.2-0.7,0.2c-0.2,0-0.5,0-0.9,0c0,0.1,0.1,0.1,0.2,0.3c0.1,0.1,0.1,0.2,0.2,0.3h0.6c0.2,0,0.3,0,0.5,0
					c0.5,0,0.8-0.1,0.8-0.1c0.2,0,0.4,0,0.6,0.1c0.2,0.1,0.3,0.2,0.3,0.3c0,0,0,0.1-0.1,0.1c0,0-0.1,0-0.2,0h0
					c-0.8-0.1-1.5-0.2-2.3-0.3c0.3,0.4,0.7,0.7,1.2,1.1c0.4,0.3,0.9,0.6,1.4,0.8c0.1,0,0.1,0.1,0.1,0.1c0.1,0,0.1,0.1,0.1,0.1
					c0,0,0,0.1-0.1,0.1s-0.1,0-0.1,0c-0.4,0-0.7,0-0.9-0.1c-0.3-0.1-0.6-0.2-0.8-0.5C189.8,37.1,189.4,36.5,189,35.9z M189.2,39.5
					v-1.9c0-0.1,0-0.1,0-0.2c0-0.1-0.1-0.1-0.1-0.1l-1.6,0.3c0,0,0,0.1,0,0.3c0,0.1,0,0.3,0,0.4v0.1c0.1,0,0.3-0.1,0.7-0.2
					c0.2,0,0.3-0.1,0.4-0.1c0.1,0,0.2,0,0.3,0s0.1,0.1,0.1,0.1c0,0.1-0.2,0.2-0.7,0.2c-0.3,0-0.6,0.1-0.8,0.1v1c0.7-0.1,1-0.1,1-0.1
					C188.8,39.5,189,39.5,189.2,39.5z M188.8,35.7l-0.3-0.6h-0.1l-0.3,0.6c0.1,0,0.2,0,0.4,0C188.6,35.7,188.7,35.7,188.8,35.7z"/>
			</g>
			<path class="st7" d="M227.9,15.8c-0.3,0-0.6,0.1-0.9,0.3c-0.3,0.1-0.6,0.3-0.8,0.5l-0.1-0.1c0.5-0.5,1.2-0.7,1.9-0.8L227.9,15.8
				L227.9,15.8z"/>
			<path class="st7" d="M227.9,16.1c-0.1,0-0.2,0-0.3,0.1c-0.5,0.1-0.9,0.3-1.2,0.6c0,0,0,0,0,0l-0.1-0.2c0.1-0.1,0.3-0.2,0.4-0.3
				c0.4-0.2,0.8-0.4,1.2-0.4c0,0,0.1,0,0.1,0L227.9,16.1z"/>
			<path class="st7" d="M223,11c0.1,0,0.2,0,0.3,0.1c0.2,0,0.5,0.1,0.7,0.2c-0.2-0.1-0.5-0.1-0.8-0.1c-0.3,0-0.5,0.1-0.7,0.2
				l-0.3-0.1c0.2-0.1,0.3-0.1,0.5-0.2C222.8,11,222.9,11,223,11L223,11z"/>
			<path class="st7" d="M217.3,14.8L217.3,14.8c0.4,0.1,0.6,0.3,0.9,0.6l-0.3,0l-0.6-0.4L217.3,14.8z"/>
			<path class="st7" d="M217.3,15.2c0.1,0,0.1,0.1,0.2,0.1c0.1,0.1,0.2,0.1,0.3,0.2l-0.3,0.1l-0.1-0.1l0-0.1L217.3,15.2z"/>
			<path class="st7" d="M218.5,15.1l-0.1-0.1c1.6-1.3,3.9-1.1,5.2,0.5h-0.3C222.1,14.1,220,13.9,218.5,15.1z"/>
			<path class="st7" d="M221.1,19.5l-0.1-0.1c1.6-1.3,3.9-1.1,5.2,0.5l-0.3,0C224.6,18.5,222.5,18.4,221.1,19.5L221.1,19.5z"/>
			<path class="st7" d="M223.4,18.4c-1.3-1.3-3.4-1.5-4.8-0.3l-0.2-0.1c0,0,0.1,0,0.1-0.1c0.5-0.4,1.1-0.7,1.8-0.8
				c0.6-0.1,1.2,0,1.7,0.2c0.1,0,0.2,0.1,0.3,0.2l0.1-0.1c0.5,0.2,0.9,0.6,1.3,1c-0.1,0-0.1,0-0.2,0S223.4,18.4,223.4,18.4z"/>
			<path class="st7" d="M223.6,21.3l-0.3,0c-1.1-1.2-2.9-1.4-4.4-0.6l-0.2-0.1c0.6-0.4,1.4-0.6,2.1-0.6C222,20,223,20.5,223.6,21.3z
				"/>
			<path class="st7" d="M225.7,13.9c-0.1,0-0.1,0-0.1,0c0,0-0.1,0-0.1,0c-1.2-1-2.9-1.1-4.1-0.1l-0.1-0.2
				C222.5,12.6,224.5,12.7,225.7,13.9z"/>
			<path class="st7" d="M221.1,19.6c1.4-1.1,3.3-1,4.5,0.2l-0.3,0c-1.2-1-2.9-1.1-4.1-0.1L221.1,19.6z"/>
			<path class="st7" d="M223.2,15.4l-0.3,0c-1.2-1-2.9-1.1-4.1-0.1l-0.1-0.1C220,14.1,221.9,14.2,223.2,15.4z"/>
			<path class="st7" d="M223.2,18.4l-0.3,0c-1.2-1-2.9-1.1-4.1-0.1c0,0,0-0.1-0.1-0.1c0,0,0-0.1-0.1-0.1
				C220,17.1,221.9,17.1,223.2,18.4z"/>
			<path class="st7" d="M225.2,13.2v0.2c-1.3-0.8-3-0.7-4.2,0.2l-0.1-0.1C222.1,12.5,223.9,12.3,225.2,13.2z"/>
			<path class="st7" d="M223.8,15.3l-0.1-0.2c1.1-0.9,2.8-1,4-0.2c0,0.1,0.1,0.2,0.1,0.2c0,0,0,0.1,0,0.1
				C226.6,14.4,225,14.4,223.8,15.3z"/>
			<path class="st7" d="M223.6,15.1l-0.2-0.1c0,0,0.1-0.1,0.1-0.1c1.1-0.8,2.5-1,3.7-0.5c0.1,0,0.1,0.1,0.1,0.1
				c0.1,0.1,0.1,0.2,0.2,0.2c0,0,0,0,0,0C226.3,14.1,224.7,14.2,223.6,15.1L223.6,15.1z"/>
			<path class="st7" d="M227.4,17.4l-0.1,0.2c-1.2-0.5-2.6-0.3-3.7,0.5l-0.1-0.1C224.5,17,226.1,16.8,227.4,17.4z"/>
			<path class="st7" d="M221.1,16.9c-0.1,0-0.1,0-0.2,0c0,0-0.1,0-0.1,0c-0.4-0.5-1-0.8-1.6-1c-0.6-0.2-1.2-0.2-1.8,0
				c0-0.1-0.1-0.1-0.1-0.2c0.7-0.2,1.4-0.2,2.1,0.1C220.1,16,220.7,16.4,221.1,16.9z"/>
			<path class="st7" d="M221.6,14c-0.1,0-0.1,0-0.2,0c0,0,0,0,0,0c1.1-0.9,2.7-0.9,3.9,0c-0.1,0-0.1,0-0.1,0c0,0-0.1,0-0.1,0
				C224,13.3,222.6,13.3,221.6,14z"/>
			<path class="st7" d="M227.7,15.5l-0.3,0c-1-0.7-2.3-0.7-3.4,0c0,0-0.1,0-0.1,0c0,0-0.1,0-0.1,0c0.5-0.4,1.1-0.7,1.7-0.7
				C226.4,14.7,227.1,15,227.7,15.5z"/>
			<path class="st7" d="M222.7,18.4l-0.3,0.1c-1-0.7-2.3-0.7-3.3,0l-0.3-0.1c0,0,0.1-0.1,0.1-0.1c1.1-0.8,2.6-0.8,3.7,0
				C222.6,18.3,222.7,18.4,222.7,18.4z"/>
			<path class="st7" d="M222.7,15.4L222.7,15.4c-0.1,0-0.2,0-0.2,0c-1-0.7-2.3-0.7-3.4,0l-0.2,0C220,14.5,221.6,14.5,222.7,15.4
				L222.7,15.4z"/>
			<path class="st7" d="M221.6,19.9l-0.2,0c0.5-0.4,1.1-0.7,1.7-0.7c0.8-0.1,1.5,0.2,2.1,0.7l0,0c-0.1,0-0.2,0-0.2,0
				C224,19.2,222.6,19.2,221.6,19.9z"/>
			<path class="st7" d="M223.1,15.8c-0.2,0-0.5,0-0.7,0c0.7-0.2,1.4-0.2,2.1,0c0.7,0.2,1.3,0.6,1.7,1.2l-0.3,0
				c-0.2-0.1-0.3-0.3-0.5-0.4c-0.5-0.4-1.1-0.6-1.7-0.7c-0.1,0-0.3,0-0.4,0C223.2,15.8,223.1,15.8,223.1,15.8z"/>
			<path class="st7" d="M223.8,18.3l-0.1-0.1c1-0.8,2.3-1,3.5-0.5l-0.2,0.1C225.9,17.4,224.7,17.6,223.8,18.3z"/>
			<path class="st7" d="M221.1,19.9l-0.3,0c-0.8-0.8-1.9-1.2-3-1.1v-0.2c0.6-0.1,1.2,0,1.8,0.2C220.2,19,220.7,19.4,221.1,19.9z"/>
			<path class="st7" d="M217.6,16.2l-0.1-0.2c1.1-0.3,2.4,0,3.2,0.9l-0.3,0C219.6,16.2,218.6,16,217.6,16.2z"/>
			<path class="st7" d="M222.1,14.1l-0.3-0.1c0.9-0.6,2.1-0.6,3,0l-0.3,0.1C223.8,13.7,222.8,13.7,222.1,14.1z"/>
			<path class="st7" d="M224.8,20l-0.3,0.1c-0.8-0.4-1.7-0.4-2.5,0l-0.3-0.1C222.7,19.4,223.9,19.4,224.8,20z"/>
			<path class="st7" d="M227.3,15.5l-0.3,0.1c-0.8-0.4-1.7-0.4-2.5,0c0,0-0.1,0-0.1,0c0,0-0.1,0-0.1,0
				C225.2,14.9,226.4,14.9,227.3,15.5z"/>
			<path class="st7" d="M219.5,18.6l-0.3-0.1c0.9-0.6,2.1-0.6,3,0l-0.3,0.1C221.2,18.2,220.3,18.2,219.5,18.6z"/>
			<path class="st7" d="M222,15.6c-0.1,0-0.2-0.1-0.3-0.1c-0.7-0.3-1.5-0.3-2.1,0.1c0,0-0.1,0-0.1,0l-0.3-0.1c0.9-0.6,2.1-0.6,3,0
				C222.2,15.6,222.1,15.6,222,15.6z"/>
			<path class="st7" d="M220.7,19.8l-0.3,0c-0.7-0.6-1.6-0.9-2.5-0.8c0,0,0-0.1,0-0.1c0,0,0-0.1,0-0.1
				C218.9,18.8,219.9,19.1,220.7,19.8z"/>
			<path class="st7" d="M226.8,17.9l-0.2,0.1c-0.8-0.2-1.7-0.1-2.5,0.4c-0.1,0-0.1,0-0.2,0c0,0-0.1,0-0.1,0c0-0.1,0-0.1,0.1-0.1
				c0.4-0.3,0.8-0.5,1.3-0.6C225.8,17.7,226.3,17.7,226.8,17.9C226.8,17.9,226.8,17.9,226.8,17.9z"/>
			<path class="st7" d="M223.4,20.9c0.8-0.6,1.7-0.9,2.7-0.8l-0.1,0.2c-0.4,0-0.9,0-1.3,0.2c-0.4,0.1-0.8,0.3-1.2,0.6
				C223.5,21,223.5,20.9,223.4,20.9z"/>
			<path class="st7" d="M223.1,16.1C223.1,16.1,223.1,16.1,223.1,16.1c0-0.1,0-0.2,0-0.2c1-0.1,1.9,0.3,2.6,1l-0.3,0
				C224.8,16.4,224,16.1,223.1,16.1z"/>
			<path class="st7" d="M221.8,20.5l-0.2,0.2c-0.7-0.2-1.5-0.1-2.2,0.2l-0.2-0.1c0.3-0.2,0.6-0.3,0.9-0.3
				C220.6,20.3,221.2,20.3,221.8,20.5z"/>
			<path class="st7" d="M219.9,17c-0.6-0.4-1.4-0.6-2.2-0.5l-0.1-0.2c0.4-0.1,0.7-0.1,1.1-0.1c0.6,0.1,1.1,0.3,1.5,0.7L219.9,17z"/>
			<path class="st7" d="M218.5,13c0.8,0.1,1.6,0.4,2.1,1l-0.3,0c-0.6-0.5-1.4-0.8-2.1-0.8C218.3,13.1,218.4,13,218.5,13z"/>
			<path class="st7" d="M221.1,13.9h-0.3c-0.3-0.3-0.6-0.5-0.9-0.7c-0.3-0.2-0.7-0.3-1.1-0.4l0,0c0.1,0,0.2-0.1,0.4-0.1
				c0,0,0.1,0,0.1,0c0.5,0.1,1,0.4,1.4,0.7C220.8,13.6,220.9,13.7,221.1,13.9C221.1,13.9,221.1,13.9,221.1,13.9z"/>
			<path class="st7" d="M225.9,20.4C225.9,20.4,225.9,20.4,225.9,20.4c-0.1,0.1-0.1,0.2-0.1,0.2c-0.7,0-1.5,0.2-2,0.7l-0.1-0.2
				C224.3,20.6,225.1,20.3,225.9,20.4z"/>
			<path class="st7" d="M218,19.4l-0.1-0.2c0,0,0.1,0,0.1,0c0.8,0,1.5,0.2,2.1,0.6c0,0,0,0,0.1,0c-0.1,0-0.1,0-0.1,0
				c0,0-0.1,0-0.1,0C219.4,19.5,218.7,19.4,218,19.4z"/>
			<path class="st7" d="M220.2,14l-0.3,0c-0.6-0.4-1.4-0.6-2.1-0.5c0,0,0-0.1,0.1-0.1s0,0,0.1-0.1c0,0,0-0.1,0.1-0.1
				C218.8,13.2,219.6,13.5,220.2,14z"/>
			<path class="st7" d="M221.8,11.3c0.7,0.2,1.4,0.6,1.9,1.2h-0.3c-0.5-0.5-1.1-0.9-1.8-1L221.8,11.3z"/>
			<path class="st7" d="M225.2,16.9l-0.3,0c-0.5-0.4-1.1-0.5-1.8-0.5l0-0.2C223.9,16.2,224.6,16.4,225.2,16.9z"/>
			<path class="st7" d="M217.6,13.9c0-0.1,0.1-0.1,0.1-0.1c0,0,0.1-0.1,0.1-0.1c0.7-0.1,1.4,0,2.1,0.4l-0.3,0.1
				C218.9,13.8,218.2,13.7,217.6,13.9z"/>
			<path class="st7" d="M221.2,11.7l0.2-0.2c0.7,0.1,1.3,0.4,1.8,0.9l-0.3,0C222.4,12.1,221.8,11.8,221.2,11.7z"/>
			<path class="st7" d="M222.5,14.3l-0.3-0.1c0.7-0.3,1.5-0.3,2.2,0l-0.3,0.1C223.6,14.1,223,14.1,222.5,14.3z"/>
			<path class="st7" d="M224.1,20.2c-0.3-0.1-0.5-0.2-0.8-0.2c-0.3,0-0.5,0.1-0.8,0.2l-0.3-0.1c0.7-0.3,1.5-0.3,2.1,0L224.1,20.2z"
				/>
			<path class="st7" d="M225,15.8c-0.1,0-0.2-0.1-0.2-0.1c0,0,0,0,0,0c0.7-0.3,1.5-0.3,2.1,0l-0.3,0.1c-0.3-0.1-0.5-0.1-0.8-0.2
				C225.5,15.6,225.2,15.7,225,15.8z"/>
			<path class="st7" d="M220,15.8l-0.3-0.1c0.7-0.3,1.5-0.3,2.1,0l-0.3,0.1C221.1,15.6,220.5,15.6,220,15.8z"/>
			<path class="st7" d="M220,18.7l-0.3-0.1c0.7-0.3,1.5-0.3,2.2,0l-0.3,0.1C221.1,18.5,220.5,18.5,220,18.7z"/>
			<path class="st7" d="M224.6,18.6l-0.3-0.1c0.6-0.4,1.4-0.5,2.1-0.4c-0.1,0-0.1,0-0.2,0.1c-0.1,0-0.1,0-0.2,0.1
				C225.5,18.2,225,18.3,224.6,18.6z"/>
			<path class="st7" d="M217.4,14.3C217.4,14.3,217.4,14.3,217.4,14.3c0-0.1,0-0.2,0.1-0.2c0.6-0.2,1.3-0.2,1.9,0.1l-0.3,0.1
				c-0.5-0.2-1-0.2-1.5,0C217.5,14.3,217.5,14.3,217.4,14.3z"/>
			<path class="st7" d="M218,16.8c-0.1-0.1-0.1-0.1-0.2-0.2c0.7-0.1,1.4,0,1.9,0.4c-0.1,0-0.1,0-0.1,0c0,0-0.1,0-0.1,0
				C219,16.9,218.5,16.7,218,16.8z"/>
			<path class="st7" d="M224.1,21.4c-0.1,0-0.1,0-0.2,0c0,0,0,0,0,0c0,0,0,0,0.1-0.1c0.4-0.3,0.8-0.5,1.3-0.6c0.2,0,0.3,0,0.5-0.1
				c-0.1,0.1-0.1,0.2-0.2,0.2C225,20.9,224.6,21.1,224.1,21.4z"/>
			<path class="st7" d="M222.7,12.5l-0.3,0.1c-0.2-0.2-0.5-0.3-0.7-0.4c-0.3-0.1-0.5-0.1-0.8-0.2c0-0.1,0.1-0.1,0.1-0.2
				C221.7,11.9,222.3,12.1,222.7,12.5z"/>
			<path class="st7" d="M219.8,20l-0.3,0.1c-0.4-0.2-0.9-0.3-1.4-0.3c0,0,0-0.1-0.1-0.1c0,0,0-0.1,0-0.1
				C218.6,19.5,219.3,19.6,219.8,20z"/>
			<path class="st7" d="M221.4,20.8c0,0-0.1,0-0.1,0.1c-0.1,0.1-0.2,0.1-0.4,0.1c-0.3,0-0.7,0-1,0.1c-0.1,0-0.1,0-0.2,0
				c-0.1,0-0.2,0-0.3-0.1C220.1,20.7,220.8,20.6,221.4,20.8L221.4,20.8z"/>
			<path class="st7" d="M224.8,17l-0.3,0.1c-0.4-0.2-0.8-0.3-1.2-0.3l-0.1-0.2C223.8,16.6,224.3,16.7,224.8,17z"/>
			<path class="st7" d="M218.6,15.4l-0.3,0c-0.3-0.3-0.6-0.6-1-0.7c0,0,0-0.1,0-0.1c0,0,0-0.1,0-0.1C217.8,14.7,218.3,15,218.6,15.4
				z"/>
			<path class="st7" d="M227.8,16.3l0,0.2c-0.2,0.1-0.4,0.1-0.6,0.2c-0.2,0.1-0.4,0.2-0.6,0.3l-0.3-0.1
				C226.8,16.6,227.3,16.4,227.8,16.3z"/>
			<path class="st7" d="M222.3,12.6l-0.3,0.1c-0.4-0.2-0.8-0.3-1.3-0.3l0.1-0.2C221.4,12.2,221.9,12.3,222.3,12.6z"/>
			<path class="st7" d="M222.6,17.2c0.2-0.1,0.4-0.2,0.7-0.3c0.1,0,0.2,0,0.3,0c0.2,0,0.5,0.1,0.7,0.2l-0.3,0.1
				C223.6,17.1,223.1,17.1,222.6,17.2z"/>
			<path class="st7" d="M226.2,18.6c-0.2,0-0.4,0-0.6,0c-0.2,0-0.4,0.1-0.6,0.1l-0.2-0.1c0.4-0.2,0.9-0.3,1.4-0.2L226.2,18.6z"/>
			<path class="st7" d="M223.2,21.3l-0.3,0c-0.2-0.1-0.3-0.2-0.5-0.3c-0.1,0-0.1-0.1-0.2-0.1c-0.2-0.1-0.3-0.2-0.4-0.4
				C222.4,20.7,222.8,21,223.2,21.3z"/>
			<path class="st7" d="M221.6,12.8c-0.3-0.1-0.6-0.2-1-0.1l0.1-0.2c0.4,0,0.8,0.1,1.2,0.3L221.6,12.8z"/>
			<path class="st7" d="M217.6,14.4c0.4-0.2,0.9-0.2,1.3,0l-0.2,0.1c-0.3-0.1-0.5-0.1-0.8,0L217.6,14.4z"/>
			<path class="st7" d="M221.4,15.9l-0.2,0.1c-0.3-0.1-0.5-0.1-0.8,0l-0.2-0.1C220.5,15.7,221,15.7,221.4,15.9z"/>
			<path class="st7" d="M223.9,14.4l-0.2,0.1c-0.1,0-0.3,0-0.4,0s-0.3,0-0.4,0l-0.2-0.1C223.1,14.2,223.5,14.2,223.9,14.4z"/>
			<path class="st7" d="M226.5,15.9l-0.2,0.1c-0.3-0.1-0.5-0.1-0.8,0l-0.2-0.1C225.6,15.7,226,15.7,226.5,15.9z"/>
			<path class="st7" d="M222.9,17.5l-0.2-0.1c0.4-0.1,0.9-0.1,1.3,0c0,0-0.1,0-0.1,0.1c0,0-0.1,0-0.1,0.1
				C223.4,17.4,223.2,17.4,222.9,17.5z"/>
			<path class="st7" d="M221.4,18.8l-0.2,0.1c-0.3-0.1-0.5-0.1-0.8,0l-0.2-0.1C220.6,18.7,221,18.7,221.4,18.8z"/>
			<path class="st7" d="M222.9,20.4l-0.3-0.1c0.4-0.1,0.9-0.1,1.3,0l-0.2,0.1C223.4,20.4,223.2,20.4,222.9,20.4z"/>
			<path class="st7" d="M222.9,11.6l-0.2-0.1c0.4-0.2,0.9-0.2,1.3,0l-0.2,0.1C223.4,11.5,223.2,11.5,222.9,11.6z"/>
			<path class="st7" d="M220.5,12.9L220.5,12.9c0.3-0.1,0.6-0.1,0.9,0l-0.2,0.1c-0.1,0-0.3,0-0.4,0s-0.3,0-0.4,0l-0.2-0.1
				C220.3,12.8,220.4,12.8,220.5,12.9z"/>
			<path class="st7" d="M223.8,12.4l-0.1-0.2c0.3-0.2,0.6-0.4,0.9-0.5l0.2,0.2C224.4,12,224.1,12.2,223.8,12.4z"/>
			<path class="st7" d="M223.6,12.1C223.5,12.1,223.5,12.1,223.6,12.1c-0.1-0.1-0.1-0.1-0.2-0.1c0.3-0.2,0.5-0.4,0.8-0.5l0.2,0.2
				C224.1,11.8,223.8,11.9,223.6,12.1z"/>
			<path class="st7" d="M219.3,20.1l-0.2,0.1c-0.2-0.1-0.5-0.1-0.8-0.1l-0.1-0.2C218.6,19.8,219,19.9,219.3,20.1z"/>
			<path class="st7" d="M221.9,15.9l-0.1,0.2l-0.7,0.4l-0.1-0.1C221.2,16.2,221.5,16,221.9,15.9L221.9,15.9z"/>
			<path class="st7" d="M224.8,12l0.1,0.2c-0.1,0.1-0.3,0.1-0.4,0.2c-0.1,0.1-0.2,0.1-0.4,0.2l-0.3-0.1
				C224.1,12.3,224.4,12.1,224.8,12z"/>
			<path class="st7" d="M226.2,18.8l0,0.2c-0.1,0-0.2,0-0.3,0c-0.1,0-0.2,0-0.3,0c-0.1,0-0.2,0-0.3,0l-0.2-0.1
				C225.5,18.7,225.8,18.7,226.2,18.8z"/>
			<path class="st7" d="M219.3,17.2l-0.3,0.1l-0.4-0.1c0,0,0,0,0,0c-0.2,0-0.3-0.1-0.5-0.2C218.6,16.9,219,17,219.3,17.2z"/>
			<path class="st7" d="M227.1,17.1l-0.2-0.1c0.3-0.2,0.6-0.3,0.9-0.4c0,0.1,0,0.1-0.1,0.2L227.1,17.1z"/>
			<path class="st7" d="M225.4,21.1c-0.2,0.2-0.5,0.4-0.9,0.5l-0.2-0.1C224.6,21.2,225,21.1,225.4,21.1z"/>
			<path class="st7" d="M218,18l0.1-0.2c0.2,0.2,0.4,0.4,0.6,0.6l-0.3,0L218,18z"/>
			<path class="st7" d="M225,12.3l0.1,0.2l-0.5,0.2l-0.3-0.1C224.5,12.4,224.7,12.3,225,12.3z"/>
			<path class="st7" d="M226.2,13.9h-0.3l-0.4-0.4c0.1,0,0.2,0,0.3,0C225.9,13.7,226.1,13.8,226.2,13.9z"/>
			<path class="st7" d="M218.4,17.2c0.2,0,0.4,0,0.6,0.1l-0.2,0.1l-0.4,0C218.3,17.4,218.3,17.3,218.4,17.2z"/>
			<path class="st7" d="M221.6,16.4l-0.2,0.3l0,0.1l-0.2,0.1l-0.1-0.2C221.3,16.5,221.5,16.4,221.6,16.4z"/>
			<path class="st7" d="M225.2,12.8l-0.2,0.1l-0.3-0.1c0.1-0.1,0.2-0.1,0.4-0.1L225.2,12.8z"/>
			<path class="st7" d="M224.1,21.6c-0.3,0-0.6,0-0.9-0.1C223.5,21.5,223.8,21.5,224.1,21.6z"/>
			<path class="st7" d="M225.9,19.4l0.3-0.2c0,0.1,0,0.2,0,0.3l-0.1,0.1L225.9,19.4z"/>
			<path class="st7" d="M221,19.1l-0.3,0.2l-0.3-0.2C220.7,19,220.9,19,221,19.1z"/>
			<path class="st7" d="M218.4,20.2c0.2,0,0.3,0,0.5,0.1l-0.3,0.1C218.6,20.4,218.5,20.3,218.4,20.2z"/>
			<path class="st7" d="M223.5,17.6l-0.3,0.2l-0.3-0.2C223.2,17.6,223.4,17.6,223.5,17.6z"/>
			<path class="st7" d="M223.6,11.7l-0.3,0.2l-0.3-0.2C223.2,11.7,223.4,11.7,223.6,11.7z"/>
			<path class="st7" d="M225.5,19.1c0.2,0,0.3,0,0.5,0l-0.3,0.2L225.5,19.1z"/>
			<path class="st7" d="M225.8,16.3l-0.3-0.2c0.2,0,0.3,0,0.5,0L225.8,16.3z"/>
			<path class="st7" d="M223,14.6c0.2,0,0.3,0,0.5,0l-0.3,0.2L223,14.6z"/>
			<path class="st7" d="M218.5,14.6l-0.3,0.2l-0.3-0.2C218.2,14.6,218.4,14.6,218.5,14.6z"/>
			<path class="st7" d="M221,16.1l-0.3,0.2l-0.3-0.2C220.7,16.1,220.9,16.1,221,16.1z"/>
			<path class="st7" d="M220.8,13.4l-0.3-0.2c0.2,0,0.3,0,0.5,0C221,13.2,220.9,13.3,220.8,13.4z"/>
			<path class="st7" d="M223.5,20.6l-0.3,0.2l-0.2-0.2C223.2,20.5,223.4,20.5,223.5,20.6z"/>
			<path class="st7" d="M218.3,17.8l-0.2-0.1l0-0.1c0.1,0,0.3,0,0.4,0L218.3,17.8z"/>
			<path class="st7" d="M221.8,16.9l-0.1,0.1l-0.3-0.1c0.1-0.1,0.2-0.1,0.2-0.2L221.8,16.9z"/>
			<path class="st7" d="M226.8,13.9l-0.1,0.1l-0.3,0c0.1-0.1,0.1-0.1,0.2-0.2L226.8,13.9z"/>
			<path class="st7" d="M227.6,17l-0.1,0.2l-0.2-0.1L227.6,17L227.6,17z"/>
			<path class="st7" d="M217.9,18.4l0-0.2l0.2,0.2L217.9,18.4z"/>
			<path class="st7" d="M220.2,12.8l-0.2,0.1l-0.3-0.1C219.9,12.7,220,12.7,220.2,12.8z"/>
			<path class="st7" d="M226.4,13.8l-0.1,0.1l-0.1-0.2C226.3,13.7,226.3,13.7,226.4,13.8z"/>
			<path class="st7" d="M25.9,66.1c-0.5,0.1-1.1,0.2-1.6,0.4c-0.5,0.2-1,0.5-1.4,0.8l-0.2-0.2c0.9-0.8,2-1.2,3.2-1.4l0.1,0.2
				L25.9,66.1z"/>
			<path class="st7" d="M25.9,66.6c-0.2,0-0.3,0.1-0.5,0.1c-0.8,0.2-1.5,0.5-2.1,1c0,0,0,0-0.1,0L23,67.5c0.2-0.2,0.4-0.3,0.7-0.5
				c0.6-0.4,1.3-0.6,2-0.7c0.1,0,0.1,0,0.2,0L25.9,66.6z"/>
			<path class="st7" d="M17.7,58c0.2,0,0.3,0.1,0.5,0.1c0.4,0.1,0.8,0.2,1.1,0.4c-0.4-0.1-0.8-0.2-1.3-0.2c-0.4,0-0.9,0.1-1.3,0.3
				l-0.4-0.2c0.3-0.1,0.6-0.2,0.8-0.3c0.1,0,0.3-0.1,0.4-0.1L17.7,58z"/>
			<path class="st7" d="M8,64.4L8,64.4c0.6,0.2,1.1,0.5,1.5,1l-0.4,0L8,64.7L8,64.4z"/>
			<path class="st7" d="M8,65c0.1,0,0.2,0.1,0.3,0.2c0.1,0.1,0.3,0.2,0.5,0.3l-0.5,0.1l-0.2-0.1L8,65.2L8,65z"/>
			<path class="st7" d="M10.2,64.8l-0.2-0.2c2.7-2.2,6.6-1.9,8.8,0.8h-0.5C16.1,63.1,12.6,62.9,10.2,64.8z"/>
			<path class="st7" d="M14.4,72.3l-0.2-0.2c2.7-2.2,6.6-1.9,8.8,0.8l-0.5,0C20.3,70.6,16.8,70.4,14.4,72.3L14.4,72.3z"/>
			<path class="st7" d="M18.3,70.4c-2.2-2.3-5.7-2.5-8.1-0.6l-0.3-0.2c0,0,0.1-0.1,0.1-0.1c0.9-0.7,1.9-1.1,3-1.3c1-0.1,2,0,2.9,0.3
				c0.2,0.1,0.4,0.1,0.5,0.4l0.2-0.1c0.8,0.4,1.6,1,2.2,1.7c-0.1,0-0.2,0-0.3,0S18.4,70.4,18.3,70.4z"/>
			<path class="st7" d="M18.8,75.4l-0.5,0c-1.9-2-5-2.4-7.4-1l-0.3-0.2c1.1-0.7,2.3-1,3.5-1C15.9,73.2,17.6,74,18.8,75.4z"/>
			<path class="st7" d="M22.2,62.9c-0.1,0-0.2,0-0.3,0c-0.1,0-0.2,0-0.2,0c-2-1.7-4.9-1.8-7-0.2l-0.2-0.3
				C16.8,60.7,20.1,60.8,22.2,62.9z"/>
			<path class="st7" d="M14.5,72.5c2.3-1.8,5.6-1.7,7.7,0.4l-0.5,0c-2-1.7-4.9-1.8-6.9-0.2L14.5,72.5z"/>
			<path class="st7" d="M18,65.4l-0.5,0c-2-1.7-4.9-1.8-7-0.2L10.3,65C12.6,63.2,15.9,63.3,18,65.4z"/>
			<path class="st7" d="M18,70.4l-0.5,0c-2-1.7-4.9-1.8-7-0.1c0,0-0.1-0.1-0.1-0.1c0,0-0.1-0.1-0.1-0.1C12.6,68.2,15.9,68.3,18,70.4
				z"/>
			<path class="st7" d="M21.4,61.6V62c-2.2-1.4-5-1.3-7,0.4l-0.2-0.2C16.2,60.4,19.1,60.2,21.4,61.6z"/>
			<path class="st7" d="M19,65.3L18.8,65c1.9-1.6,4.7-1.7,6.7-0.3c0,0.1,0.1,0.3,0.1,0.4c0,0,0,0.1,0,0.2C23.7,63.7,21,63.7,19,65.3
				z"/>
			<path class="st7" d="M18.6,64.9l-0.3-0.2c0.1,0,0.1-0.1,0.2-0.1c1.8-1.4,4.2-1.7,6.2-0.8c0.1,0,0.2,0.1,0.2,0.2
				c0.1,0.1,0.2,0.3,0.3,0.4c0,0,0,0.1,0,0.1C23.2,63.1,20.5,63.3,18.6,64.9z"/>
			<path class="st7" d="M25,68.7L24.8,69c-2.1-0.9-4.4-0.6-6.2,0.8l-0.2-0.2C20.2,68.1,22.8,67.7,25,68.7z"/>
			<path class="st7" d="M14.5,67.9c-0.1,0-0.2,0-0.3,0c-0.1,0-0.2,0-0.2,0c-0.7-0.8-1.7-1.3-2.7-1.6c-1-0.3-2.1-0.3-3.1-0.1
				c-0.1-0.1-0.1-0.2-0.1-0.3c1.1-0.3,2.3-0.3,3.5,0.1C12.8,66.3,13.8,67,14.5,67.9z"/>
			<path class="st7" d="M15.3,63c-0.1,0-0.2,0-0.4-0.1c0,0,0,0,0,0c1.9-1.5,4.6-1.5,6.5,0c-0.1,0-0.2,0-0.2,0c-0.1,0-0.2,0-0.2,0
				C19.3,61.9,17,61.9,15.3,63z"/>
			<path class="st7" d="M25.7,65.5l-0.4,0.1c-1.7-1.2-4-1.2-5.7,0c0,0-0.1,0-0.2,0c-0.1,0-0.1,0-0.2,0c0.8-0.7,1.9-1.1,2.9-1.2
				C23.4,64.2,24.7,64.6,25.7,65.5z"/>
			<path class="st7" d="M17.2,70.4l-0.5,0.1c-1.7-1.2-3.9-1.2-5.6,0l-0.5-0.1c0.1-0.1,0.1-0.1,0.2-0.1c1.8-1.3,4.3-1.4,6.2,0
				C17.1,70.3,17.1,70.4,17.2,70.4z"/>
			<path class="st7" d="M17.2,65.5C17.2,65.5,17.2,65.5,17.2,65.5c-0.2,0-0.3,0.1-0.4,0.1c-1.7-1.2-4-1.2-5.7,0l-0.4-0.1
				C12.6,63.9,15.3,63.9,17.2,65.5z"/>
			<path class="st7" d="M15.3,73l-0.4-0.1c0.8-0.7,1.8-1.1,2.9-1.2c1.3-0.1,2.6,0.3,3.6,1.1c0,0,0,0,0,0C21.3,73,21.1,73,21,73
				C19.3,71.8,17,71.8,15.3,73z"/>
			<path class="st7" d="M17.8,66c-0.4,0-0.8,0-1.2-0.1c1.1-0.3,2.3-0.3,3.5,0.1c1.1,0.4,2.2,1,2.9,2l-0.5,0
				c-0.3-0.2-0.6-0.5-0.8-0.7c-0.8-0.6-1.8-1-2.9-1.1c-0.3,0-0.5,0-0.8,0C18,66,17.9,66,17.8,66z"/>
			<path class="st7" d="M19,70.2L18.8,70c1.6-1.3,3.9-1.6,5.8-0.8l-0.3,0.2C22.5,68.7,20.5,69.1,19,70.2z"/>
			<path class="st7" d="M14.6,72.9l-0.5,0c-1.3-1.4-3.1-2-5-1.8v-0.4c1-0.1,2,0,3,0.4C13,71.5,13.9,72.1,14.6,72.9z"/>
			<path class="st7" d="M8.5,66.7l-0.1-0.3c1.9-0.5,4,0.1,5.4,1.5l-0.5,0C12,66.8,10.2,66.3,8.5,66.7z"/>
			<path class="st7" d="M16.1,63.3l-0.4-0.1c1.5-1,3.5-1,5,0l-0.4,0.1C18.9,62.6,17.4,62.6,16.1,63.3z"/>
			<path class="st7" d="M20.7,73.1l-0.4,0.1c-1.3-0.7-2.9-0.7-4.2,0l-0.4-0.1C17.2,72.1,19.2,72.1,20.7,73.1z"/>
			<path class="st7" d="M24.9,65.6l-0.4,0.1c-1.3-0.7-2.9-0.7-4.2,0c-0.1,0-0.1,0-0.2-0.1c-0.1,0-0.1,0-0.2-0.1
				C21.4,64.6,23.4,64.6,24.9,65.6z"/>
			<path class="st7" d="M11.8,70.7l-0.4-0.1c1.5-1,3.5-1,5,0L16,70.7C14.7,70,13.1,70,11.8,70.7z"/>
			<path class="st7" d="M16.1,65.7c-0.2-0.1-0.3-0.1-0.5-0.2c-1.1-0.5-2.5-0.4-3.6,0.1c-0.1,0-0.1,0.1-0.2,0.1l-0.4-0.1
				c1.5-1,3.5-1,5,0C16.3,65.7,16.2,65.7,16.1,65.7z"/>
			<path class="st7" d="M13.7,72.9l-0.5,0c-1.2-1-2.7-1.5-4.2-1.3c0-0.1,0-0.1,0-0.2c0-0.1,0-0.1,0-0.2C10.8,71,12.5,71.6,13.7,72.9
				z"/>
			<path class="st7" d="M24.1,69.6l-0.4,0.2c-1.4-0.4-2.9-0.1-4.1,0.7c-0.1,0-0.2,0-0.3,0c0,0-0.1,0-0.1,0c0-0.1,0.1-0.1,0.1-0.2
				c0.7-0.5,1.4-0.8,2.2-0.9c0.8-0.1,1.7-0.1,2.5,0.2C24,69.5,24.1,69.6,24.1,69.6z"/>
			<path class="st7" d="M18.4,74.6c1.3-1,2.9-1.5,4.5-1.4l-0.1,0.3c-0.7,0-1.5,0.1-2.2,0.3c-0.7,0.2-1.4,0.6-1.9,1
				C18.5,74.8,18.5,74.7,18.4,74.6z"/>
			<path class="st7" d="M17.9,66.6c0,0,0-0.1,0-0.1c0-0.1,0-0.1,0-0.2c1.6-0.1,3.2,0.5,4.3,1.6l-0.5,0C20.7,67,19.3,66.5,17.9,66.6z
				"/>
			<path class="st7" d="M15.6,73.9l-0.4,0.3c-1.3-0.3-2.6-0.2-3.8,0.4l-0.4-0.2c0.5-0.3,1-0.5,1.5-0.6
				C13.6,73.6,14.6,73.6,15.6,73.9z"/>
			<path class="st7" d="M12.5,68c-1.1-0.7-2.4-1-3.7-0.8l-0.2-0.3c0.6-0.2,1.2-0.2,1.8-0.1c0.9,0.1,1.8,0.5,2.5,1.1L12.5,68z"/>
			<path class="st7" d="M10.2,61.3c1.4,0.1,2.6,0.7,3.6,1.6l-0.5,0c-1-0.9-2.3-1.3-3.6-1.3C9.8,61.5,10,61.3,10.2,61.3z"/>
			<path class="st7" d="M14.5,62.9h-0.5c-0.5-0.5-1-0.9-1.6-1.2c-0.6-0.3-1.2-0.5-1.9-0.6l0,0c0.2-0.1,0.4-0.1,0.6-0.2
				c0.1,0,0.1,0,0.2,0c0.9,0.2,1.7,0.6,2.3,1.2c0.2,0.2,0.4,0.4,0.7,0.6C14.4,62.8,14.5,62.9,14.5,62.9z"/>
			<path class="st7" d="M22.6,73.7c0,0,0,0.1-0.1,0.1c0,0.1-0.1,0.1-0.1,0.2c-1.2,0-2.5,0.4-3.4,1.2L18.8,75
				C19.9,74.1,21.2,73.6,22.6,73.7z"/>
			<path class="st7" d="M9.2,72.2l-0.1-0.3c0.1,0,0.2,0,0.2,0c1.3-0.1,2.5,0.3,3.5,1.1c0,0,0.1,0,0.1,0.1c-0.1,0-0.2,0-0.2,0.1
				c-0.1,0-0.2,0-0.2,0C11.5,72.3,10.4,72,9.2,72.2z"/>
			<path class="st7" d="M12.9,63L12.5,63c-1-0.7-2.3-1-3.5-0.8c0-0.1,0.1-0.1,0.1-0.1c0,0,0.1-0.1,0.1-0.1c0,0,0.1-0.1,0.1-0.1
				C10.6,61.7,11.9,62.1,12.9,63z"/>
			<path class="st7" d="M15.6,58.4c1.2,0.3,2.3,1,3.1,2h-0.5c-0.8-0.9-1.9-1.5-3.1-1.7L15.6,58.4z"/>
			<path class="st7" d="M21.4,68L21,68c-0.9-0.6-1.9-0.9-3-0.9l-0.1-0.3C19.2,66.7,20.4,67.1,21.4,68z"/>
			<path class="st7" d="M8.5,62.9c0.1-0.1,0.1-0.2,0.1-0.2c0-0.1,0.1-0.1,0.1-0.2c1.2-0.2,2.4,0,3.5,0.7l-0.5,0.1
				C10.8,62.7,9.6,62.6,8.5,62.9z"/>
			<path class="st7" d="M14.6,59.2l0.4-0.3c1.1,0.2,2.2,0.7,3,1.6l-0.5,0C16.7,59.7,15.7,59.3,14.6,59.2z"/>
			<path class="st7" d="M16.8,63.5l-0.4-0.2c1.2-0.6,2.5-0.6,3.6,0l-0.4,0.2C18.7,63.2,17.7,63.2,16.8,63.5z"/>
			<path class="st7" d="M19.5,73.5c-0.4-0.2-0.9-0.3-1.4-0.3c-0.5,0-0.9,0.1-1.4,0.3l-0.4-0.2c1.1-0.6,2.5-0.6,3.6,0L19.5,73.5z"/>
			<path class="st7" d="M21,66c-0.1-0.1-0.3-0.1-0.4-0.2c0,0,0,0,0,0c1.1-0.6,2.5-0.6,3.6,0L23.8,66c-0.4-0.2-0.9-0.3-1.4-0.3
				C21.9,65.8,21.5,65.9,21,66z"/>
			<path class="st7" d="M12.6,66l-0.4-0.2c1.1-0.6,2.5-0.6,3.6,0L15.3,66C14.4,65.7,13.4,65.7,12.6,66z"/>
			<path class="st7" d="M12.6,71l-0.5-0.2c1.2-0.6,2.5-0.6,3.6,0L15.3,71C14.4,70.7,13.4,70.7,12.6,71z"/>
			<path class="st7" d="M20.3,70.7l-0.4-0.1c1-0.7,2.3-0.9,3.5-0.6c-0.1,0-0.2,0.1-0.3,0.1c-0.1,0-0.2,0.1-0.4,0.1
				C21.9,70.2,21,70.3,20.3,70.7z"/>
			<path class="st7" d="M8.2,63.5C8.2,63.5,8.2,63.4,8.2,63.5c0-0.2,0.1-0.3,0.1-0.4c1-0.3,2.2-0.3,3.2,0.2l-0.5,0.2
				c-0.8-0.3-1.8-0.3-2.6-0.1C8.4,63.5,8.3,63.5,8.2,63.5z"/>
			<path class="st7" d="M9.3,67.7C9.2,67.6,9,67.5,9,67.4c1.1-0.2,2.3,0.1,3.2,0.7c-0.1,0-0.2,0.1-0.2,0.1c-0.1,0-0.1,0-0.2,0.1
				C11,67.8,10.1,67.6,9.3,67.7z"/>
			<path class="st7" d="M19.6,75.5c-0.1,0-0.2,0-0.4-0.1c0,0-0.1,0-0.1,0c0,0,0.1-0.1,0.1-0.1c0.7-0.5,1.4-0.8,2.2-1
				c0.3,0,0.5-0.1,0.8-0.1c-0.1,0.1-0.2,0.3-0.3,0.4C21.1,74.7,20.3,75,19.6,75.5z"/>
			<path class="st7" d="M17.2,60.5l-0.5,0.1c-0.4-0.3-0.8-0.5-1.2-0.6c-0.4-0.1-0.9-0.2-1.3-0.3c0.1-0.1,0.1-0.2,0.2-0.3
				C15.5,59.4,16.4,59.8,17.2,60.5z"/>
			<path class="st7" d="M12.2,73.1l-0.4,0.1c-0.7-0.4-1.5-0.6-2.3-0.5c0,0-0.1-0.1-0.1-0.2c0,0,0-0.1-0.1-0.2
				C10.3,72.3,11.4,72.5,12.2,73.1z"/>
			<path class="st7" d="M15,74.4c-0.1,0-0.1,0.1-0.2,0.1c-0.2,0.1-0.4,0.2-0.6,0.1c-0.6,0-1.1,0-1.6,0.2c-0.1,0-0.2,0-0.3,0
				c-0.2,0-0.3-0.1-0.4-0.1C12.8,74.3,13.9,74.1,15,74.4L15,74.4z"/>
			<path class="st7" d="M20.7,68.1l-0.5,0.1c-0.6-0.3-1.4-0.5-2.1-0.5L18,67.3C19,67.3,19.9,67.6,20.7,68.1z"/>
			<path class="st7" d="M10.3,65.4l-0.5,0c-0.5-0.5-1.1-0.9-1.7-1.3c0-0.1,0-0.1,0-0.2c0-0.1,0-0.1,0-0.2C9,64.1,9.7,64.7,10.3,65.4
				z"/>
			<path class="st7" d="M25.8,66.8l-0.1,0.3c-0.4,0.1-0.7,0.2-1,0.3c-0.3,0.1-0.6,0.3-1,0.5l-0.4-0.1C24.1,67.4,24.9,67,25.8,66.8z"
				/>
			<path class="st7" d="M16.5,60.6L16,60.8c-0.7-0.4-1.4-0.5-2.1-0.5l0.2-0.4C14.9,59.9,15.7,60.2,16.5,60.6z"/>
			<path class="st7" d="M17.1,68.4c0.4-0.2,0.8-0.4,1.2-0.5c0.2,0,0.4,0,0.6,0c0.4,0.1,0.8,0.2,1.1,0.4l-0.4,0.2
				C18.7,68.2,17.9,68.2,17.1,68.4z"/>
			<path class="st7" d="M23,70.8c-0.4,0-0.7,0-1,0c-0.3,0-0.6,0.1-1,0.2l-0.4-0.2c0.7-0.3,1.5-0.5,2.3-0.4L23,70.8z"/>
			<path class="st7" d="M18,75.3l-0.5,0c-0.3-0.2-0.5-0.4-0.8-0.6c-0.1-0.1-0.2-0.1-0.3-0.2c-0.3-0.1-0.5-0.4-0.6-0.6
				C16.6,74.3,17.4,74.7,18,75.3z"/>
			<path class="st7" d="M15.3,61.1c-0.5-0.2-1.1-0.3-1.7-0.3l0.1-0.4c0.7,0,1.4,0.1,2,0.4L15.3,61.1z"/>
			<path class="st7" d="M8.6,63.7c0.7-0.3,1.5-0.3,2.2,0l-0.4,0.2c-0.5-0.1-0.9-0.1-1.4,0L8.6,63.7z"/>
			<path class="st7" d="M15,66.2l-0.4,0.2c-0.5-0.1-0.9-0.1-1.4,0l-0.4-0.2C13.5,65.9,14.3,65.9,15,66.2z"/>
			<path class="st7" d="M19.3,63.7l-0.4,0.2c-0.2,0-0.5,0-0.7,0c-0.2,0-0.5,0-0.7,0l-0.4-0.2C17.8,63.4,18.6,63.4,19.3,63.7z"/>
			<path class="st7" d="M23.5,66.2l-0.4,0.2c-0.5-0.1-0.9-0.1-1.4,0l-0.4-0.2C22,65.9,22.8,65.9,23.5,66.2z"/>
			<path class="st7" d="M17.5,68.9l-0.4-0.2c0.7-0.3,1.5-0.3,2.2,0c-0.1,0-0.1,0.1-0.2,0.1c-0.1,0-0.1,0.1-0.2,0.1
				C18.4,68.8,17.9,68.8,17.5,68.9z"/>
			<path class="st7" d="M15,71.2l-0.4,0.2c-0.5-0.1-0.9-0.1-1.4,0l-0.4-0.2C13.5,70.9,14.3,70.9,15,71.2z"/>
			<path class="st7" d="M17.5,73.9L17,73.6c0.7-0.2,1.5-0.2,2.2,0l-0.4,0.3C18.4,73.8,17.9,73.8,17.5,73.9z"/>
			<path class="st7" d="M17.5,58.9l-0.4-0.2c0.7-0.3,1.5-0.3,2.2,0l-0.4,0.2C18.4,58.8,17.9,58.9,17.5,58.9z"/>
			<path class="st7" d="M13.5,61.1L13.5,61.1c0.5-0.1,1-0.1,1.5,0.1l-0.4,0.2c-0.2,0-0.5,0-0.7,0c-0.2,0-0.5,0-0.7,0l-0.4-0.2
				C13,61.1,13.3,61,13.5,61.1z"/>
			<path class="st7" d="M19,60.3L18.8,60c0.5-0.4,1-0.7,1.5-0.9l0.3,0.3C20,59.6,19.5,59.9,19,60.3z"/>
			<path class="st7" d="M18.6,59.9c0,0-0.1-0.1-0.1-0.1c0,0-0.1-0.1-0.1-0.1c0.4-0.4,0.9-0.7,1.4-0.9l0.3,0.3
				C19.6,59.2,19.1,59.5,18.6,59.9z"/>
			<path class="st7" d="M11.5,73.3l-0.4,0.2c-0.4-0.2-0.9-0.2-1.3-0.3l-0.2-0.3C10.2,72.9,10.9,73,11.5,73.3z"/>
			<path class="st7" d="M15.8,66.2l-0.2,0.4l-1.2,0.8l-0.2-0.3C14.6,66.7,15.2,66.4,15.8,66.2L15.8,66.2z"/>
			<path class="st7" d="M20.7,59.6l0.2,0.3c-0.2,0.1-0.5,0.2-0.7,0.3c-0.2,0.1-0.4,0.2-0.6,0.4l-0.5-0.1
				C19.6,60.1,20.1,59.8,20.7,59.6z"/>
			<path class="st7" d="M23,71l0.1,0.4c-0.2,0-0.3,0-0.5,0c-0.2,0-0.3,0-0.5,0c-0.2,0-0.3,0-0.5,0.1l-0.4-0.2
				C21.8,71,22.5,70.9,23,71z"/>
			<path class="st7" d="M11.5,68.3l-0.4,0.2c-0.3-0.1-0.5-0.1-0.7-0.2c0,0,0,0-0.1,0c-0.3,0-0.5-0.2-0.8-0.4
				C10.2,67.9,10.9,68,11.5,68.3z"/>
			<path class="st7" d="M24.5,68.2l-0.4-0.1c0.4-0.3,1-0.6,1.5-0.6c0,0.1,0,0.2-0.1,0.4L24.5,68.2z"/>
			<path class="st7" d="M21.6,74.9c-0.4,0.4-0.9,0.6-1.4,0.8l-0.4-0.1C20.4,75.2,21,75,21.6,74.9z"/>
			<path class="st7" d="M9.2,69.8l0.1-0.3c0.4,0.3,0.7,0.6,1,1l-0.5,0L9.2,69.8z"/>
			<path class="st7" d="M21,60.1l0.1,0.3l-0.8,0.4l-0.4-0.1C20.2,60.4,20.6,60.2,21,60.1z"/>
			<path class="st7" d="M23,62.9h-0.5l-0.7-0.6c0.2,0,0.4,0,0.6,0C22.6,62.5,22.8,62.7,23,62.9z"/>
			<path class="st7" d="M9.9,68.5c0.3,0,0.6,0.1,1,0.2l-0.4,0.2l-0.8-0.1C9.7,68.7,9.8,68.6,9.9,68.5z"/>
			<path class="st7" d="M15.4,67L15,67.4l0.1,0.1l-0.3,0.2l-0.2-0.3C14.8,67.3,15.1,67.1,15.4,67z"/>
			<path class="st7" d="M21.3,60.9L21,61.1l-0.4-0.2c0.2-0.1,0.4-0.2,0.6-0.2L21.3,60.9z"/>
			<path class="st7" d="M19.5,75.8c-0.5,0.1-1,0-1.5-0.2C18.5,75.6,19,75.7,19.5,75.8z"/>
			<path class="st7" d="M22.6,72.1l0.5-0.4c0,0.1,0,0.3,0,0.4l-0.2,0.2L22.6,72.1z"/>
			<path class="st7" d="M14.4,71.6l-0.4,0.3l-0.4-0.3C13.8,71.5,14.1,71.5,14.4,71.6z"/>
			<path class="st7" d="M9.9,73.5c0.3,0,0.6,0.1,0.9,0.2l-0.4,0.3C10.2,73.8,10.1,73.6,9.9,73.5z"/>
			<path class="st7" d="M18.6,69.1l-0.4,0.3l-0.4-0.3C18,69,18.3,69,18.6,69.1z"/>
			<path class="st7" d="M18.6,59.1l-0.4,0.3l-0.4-0.3C18,59.1,18.3,59.1,18.6,59.1z"/>
			<path class="st7" d="M22,71.6c0.3-0.1,0.6-0.1,0.9,0l-0.4,0.3L22,71.6z"/>
			<path class="st7" d="M22.4,66.9L22,66.6c0.3-0.1,0.6-0.1,0.9,0L22.4,66.9z"/>
			<path class="st7" d="M17.7,64.1c0.3-0.1,0.6-0.1,0.9,0l-0.4,0.3L17.7,64.1z"/>
			<path class="st7" d="M10.1,64.1l-0.4,0.3l-0.4-0.3C9.5,64,9.8,64,10.1,64.1z"/>
			<path class="st7" d="M14.4,66.6l-0.4,0.3l-0.4-0.3C13.8,66.5,14.1,66.5,14.4,66.6z"/>
			<path class="st7" d="M13.9,61.9l-0.4-0.3c0.3,0,0.6-0.1,0.9,0C14.2,61.7,14.1,61.8,13.9,61.9z"/>
			<path class="st7" d="M18.6,74.1l-0.4,0.3l-0.4-0.3C18,74,18.3,74,18.6,74.1z"/>
			<path class="st7" d="M9.7,69.4l-0.3-0.2L9.5,69c0.2,0,0.4,0,0.6,0L9.7,69.4z"/>
			<path class="st7" d="M15.6,67.9L15.4,68l-0.5-0.1c0.1-0.1,0.3-0.2,0.4-0.3L15.6,67.9z"/>
			<path class="st7" d="M24,62.9L23.8,63L23.4,63c0.1-0.1,0.2-0.2,0.3-0.3L24,62.9z"/>
			<path class="st7" d="M25.4,68.1l-0.2,0.4l-0.4-0.2L25.4,68.1L25.4,68.1z"/>
			<path class="st7" d="M9,70.4L9.1,70l0.4,0.3L9,70.4z"/>
			<path class="st7" d="M12.9,60.9l-0.4,0.1l-0.4-0.2C12.4,60.8,12.7,60.8,12.9,60.9z"/>
			<path class="st7" d="M23.5,62.6l-0.2,0.2L23,62.5C23.2,62.5,23.3,62.6,23.5,62.6z"/>
		</g>
	</g>
</g>
</svg>
