<svg xmlns="http://www.w3.org/2000/svg" xmlns:xlink="http://www.w3.org/1999/xlink" viewBox="0 0 68.69856 23.16848"><defs><style>.cls-1{fill:none;}.cls-2{fill:#a8c0c2;}.cls-3{fill:url(#新增圖樣_2_拷貝);}</style><pattern id="新增圖樣_2_拷貝" data-name="新增圖樣 2 拷貝" width="10.62991" height="7.08661" patternTransform="translate(0 22.97733)" patternUnits="userSpaceOnUse" viewBox="0 0 10.63 7.087"><rect class="cls-1" width="10.62991" height="7.08661"/><circle class="cls-2" cx="10.62988" cy="7.0868" r="1.41732"/><circle class="cls-2" cx="-0.00003" cy="7.0868" r="1.41732"/><circle class="cls-2" cx="10.62988" cy="0.00018" r="1.41732"/><circle class="cls-2" cx="5.31492" cy="3.54349" r="1.41732"/><circle class="cls-2" cx="-0.00003" cy="0.00018" r="1.41732"/></pattern></defs><g id="圖層_6" data-name="圖層 6"><path class="cls-3" d="M16.70063,4.26213A4.26212,4.26212,0,0,1,20.96276,0H64.43645a4.26213,4.26213,0,0,1,0,8.52426H20.96276A4.26212,4.26212,0,0,1,16.70063,4.26213Z"/><path class="cls-3" d="M4.26211,14.64424h26.4448a3.03923,3.03923,0,0,0-.49109-6.0388H42.64937a3.03923,3.03923,0,0,0-.49109,6.0388h5.57754a4.26212,4.26212,0,0,1,0,8.52424H4.26211a4.26212,4.26212,0,0,1,0-8.52424Z"/></g></svg>