<svg xmlns="http://www.w3.org/2000/svg" viewBox="0 0 157.90473 184.09375"><defs><style>.cls-1{fill:#f5d0cf;}.cls-2{fill:#c8e6df;}.cls-3{fill:#ea9fa6;}.cls-4{fill:#231815;}.cls-5{fill:#898989;}.cls-6{fill:#3e3a39;}.cls-7{font-size:18.38322px;fill:#599eb0;font-family:NymphaTrial-Regular, Nympha Trial;letter-spacing:0.063em;}.cls-8{letter-spacing:0.03001em;}.cls-9{letter-spacing:0.023em;}.cls-10{letter-spacing:0.05998em;}.cls-11{letter-spacing:0.08202em;}.cls-12{letter-spacing:0.10003em;}</style></defs><g id="圖層_6" data-name="圖層 6"><rect class="cls-1" x="44.78287" y="108.32611" width="113.12187" height="13.76225"/><rect class="cls-2" y="108.32611" width="43.84462" height="13.76225"/><rect class="cls-2" x="142.17141" y="93.62285" width="15.73332" height="13.76225"/><rect class="cls-1" y="122.98264" width="15.73332" height="13.76225"/><path class="cls-3" d="M5.76925,36.22363v-.459l1.1211.459h3.88672v.23731H6.81418v6.376c0,.04493-.041.09864-.11915.16114a1.07453,1.07453,0,0,1-.31835.16113,1.33009,1.33009,0,0,1-.42969.06836H5.76925ZM6.25363,39.127h4.40625v.2461H6.25363Zm0,3.02246h4.40625v.23731H6.25363Zm3.92187-5.92578h-.08593l.50195-.56054,1.002.79a.41058.41058,0,0,1-.127.10547.74408.74408,0,0,1-.21289.07227v6.19726c-.00586.02247-.05664.0625-.15235.11915a1.71867,1.71867,0,0,1-.35351.14843,1.39008,1.39008,0,0,1-.40234.06348H10.1755Z"/><path class="cls-3" d="M34.81808,37.95508c.16992.15332.32031.28711.44922.40332.13086.11621.26953.2373.416.36523.14843.127.27734.24512.39062.35254a.14841.14841,0,0,1-.08789.10156.4368.4368,0,0,1-.18359.03418H28.197l-.08594-.27148h6.002Z"/><path class="cls-3" d="M51.7673,41.7334h6.03711l.64453-.85742c.1582.124.29688.23632.416.335s.24609.20508.38281.31836c.13476.11328.25781.21777.36523.31445-.02343.08984-.10547.13574-.24609.13574H51.84543Zm.832-4.78028H56.99l.62695-.832c.15234.11914.28906.22852.4082.32715.11914.09961.24219.20215.36914.30957.127.1084.24414.207.35157.29785-.02149.08985-.10352.13575-.2461.13575h-5.832Z"/><path class="cls-3" d="M82.20089,41.419q.22853.17871.4043.31445.17286.13476.36914.292c.12891.10547.24805.20313.35547.293-.02148.09082-.10547.13574-.24609.13574h-7.709l-.0664-.24609H81.572Zm-.4414-5.84083c.15234.11329.28711.21485.40234.30567.11719.09082.23633.18555.36133.28418.125.09961.24023.19433.34766.28515-.02149.08985-.10352.13575-.2461.13575h-6.791l-.07618-.24707H81.156ZM81.115,38.39648c.14062.11329.26757.2129.377.29688.11133.085.22852.17773.35156.27637.125.09863.23828.1914.33985.27636-.01563.08985-.09766.13575-.2461.13575H76.40207l-.06641-.24707h4.17578Z"/><path class="cls-3" d="M100.38253,42.87891q0,.05127-.11132.14062a.9784.9784,0,0,1-.29688.15235,1.24319,1.24319,0,0,1-.39844.06347h-.16211V35.75684l1.05274.43261h5.33984v.2461h-5.42383Zm5.44141-1.08692v.2461H99.93136V41.792Zm-3.35351-5.60254q-.00879.82325-.05469,1.541a6.3315,6.3315,0,0,1-.22071,1.32422,3.38835,3.38835,0,0,1-.55273,1.10742,3.55624,3.55624,0,0,1-1.05664.90039l-.10156-.12793a3.29324,3.29324,0,0,0,.63672-.95508,4.20679,4.20679,0,0,0,.30078-1.10742,10.598,10.598,0,0,0,.09375-1.26074q.01172-.66651.01172-1.42188Zm1.69726,0V39.458a.16332.16332,0,0,0,.03516.11426.19161.19161,0,0,0,.14258.03808h.31445c.05664,0,.11328-.001.16992-.0039s.10156-.00391.13672-.00391a.34783.34783,0,0,1,.08789-.00879h.08984c.02735-.00586.0625-.0127.10157-.02148s.07031-.01563.09375-.02149h.084l.03516.00879a.621.621,0,0,1,.23828.166.36081.36081,0,0,1,.0664.22461.384.384,0,0,1-.11328.28906.78.78,0,0,1-.3789.165,3.65767,3.65767,0,0,1-.72071.05566h-.48437a1.27311,1.27311,0,0,1-.49219-.07226.37419.37419,0,0,1-.21289-.23829,1.59371,1.59371,0,0,1-.05078-.44531V36.18945Zm1.08789,0,.4668-.52636.9414.75586a.42333.42333,0,0,1-.127.09765.76924.76924,0,0,1-.2207.07227v6.18847c0,.02246-.04492.05762-.13281.10547a1.901,1.901,0,0,1-.32227.13672,1.17389,1.17389,0,0,1-.36914.06348h-.15234V36.18945Z"/><path class="cls-3" d="M122.47628,42.51367h6.48633l.56055-.82324c.13477.125.25586.2334.35937.32715.10547.09277.21485.19336.332.30078.11523.1084.21875.21.30859.30566-.02148.09082-.10352.13575-.24609.13575h-7.73243Zm.51758-6.09472h5.39844l.57813-.78125c.14062.11328.26757.21679.37695.30957.11133.09375.22656.19043.34375.28906.11914.09863.22656.19336.32422.28418-.02344.09082-.10547.13574-.2461.13574h-6.707Zm.40821,2.53808h4.88086v.23731h-4.80469Zm2.19726-2.53808h1.05274q-.09082.51708-.22071,1.15039c-.084.42089-.17383.86035-.27148,1.31543q-.14355.68407-.293,1.35449-.14649.66943-.293,1.28125-.14355.61083-.26172,1.0957h-1.05273q.13476-.49218.27929-1.1084.14356-.61523.29688-1.29394.15234-.6797.293-1.3584.14063-.67969.26367-1.30762Q125.51535,36.91944,125.59933,36.419Zm2.06445,2.53808h-.08593l.49218-.51758.95118.73828a.33925.33925,0,0,1-.11914.09766.74913.74913,0,0,1-.22071.07227V42.6416h-1.01758Z"/><path class="cls-3" d="M149.94894,39.042a.20188.20188,0,0,1-.10351.09766.50889.50889,0,0,1-.2461.0039,9.27552,9.27552,0,0,1-.60547,1.10352,10.27947,10.27947,0,0,1-.791,1.07422,8.97335,8.97335,0,0,1-.94532.97168,6.40253,6.40253,0,0,1-1.07812.77246l-.06836-.05859a6.0805,6.0805,0,0,0,.7207-.90918,10.27838,10.27838,0,0,0,.65039-1.1377q.30177-.61085.53516-1.23437a10.80889,10.80889,0,0,0,.37695-1.21875Zm2.96289-2.35156q.22852.19482.416.34766.18456.1538.38086.32324.19629.16992.35742.32226c-.02344.09082-.10547.13575-.2461.13575h-7.56445l-.06836-.2461h6.07031Zm-4.02539-1.32422a3.7064,3.7064,0,0,1,1.0625.24609,2.00122,2.00122,0,0,1,.64063.40723,1.0235,1.0235,0,0,1,.2832.47168.79959.79959,0,0,1-.00391.44531.64934.64934,0,0,1-.2207.32715.59064.59064,0,0,1-.37695.123.74748.74748,0,0,1-.459-.1875,2.30392,2.30392,0,0,0-.17383-.65332,3.30606,3.30606,0,0,0-.34765-.624,2.64572,2.64572,0,0,0-.46289-.50489Zm2.10547,3.24317a8.73317,8.73317,0,0,1,1.42578.98828,5.6301,5.6301,0,0,1,.918.99316,3.89556,3.89556,0,0,1,.48828.91309,2.21069,2.21069,0,0,1,.14063.74707.91137.91137,0,0,1-.14063.50879.42109.42109,0,0,1-.35351.1914.75338.75338,0,0,1-.48243-.21679,6.53076,6.53076,0,0,0-.32812-1.03516,11.11269,11.11269,0,0,0-.50391-1.07031q-.29-.53467-.61523-1.03516-.32812-.501-.65039-.92578Z"/><path class="cls-4" d="M78.06613,58.28613v-.48437h1.04492V54.45312h-.834V54.084a3.57772,3.57772,0,0,0,.543-.13964,2.294,2.294,0,0,0,.42383-.19825h.44532v4.05567h.9375v.48437Z"/><path class="cls-4" d="M101.3923,58.28613v-.34375q.68554-.68115,1.16406-1.20019a5.93021,5.93021,0,0,0,.72657-.93555,1.54445,1.54445,0,0,0,.248-.78711,1.10633,1.10633,0,0,0-.09179-.46094.692.692,0,0,0-.28321-.3125,1.02849,1.02849,0,0,0-1.01562.04786,2.06251,2.06251,0,0,0-.4375.38183l-.33594-.32422a2.34492,2.34492,0,0,1,.60352-.50293,1.5394,1.5394,0,0,1,.77148-.18457,1.48515,1.48515,0,0,1,.72266.165,1.19058,1.19058,0,0,1,.4707.46485,1.39185,1.39185,0,0,1,.168.70019,1.79466,1.79466,0,0,1-.24024.86621,5.3192,5.3192,0,0,1-.66406.91992q-.41895.48048-.95312,1.04785c.11718-.00878.24609-.01855.38086-.02929.13671-.01074.26367-.01563.38281-.01563h1.3164v.50293Z"/><path class="cls-4" d="M126.3923,58.36914a2.09247,2.09247,0,0,1-.64062-.08984,1.75924,1.75924,0,0,1-.48633-.23535,2.00186,2.00186,0,0,1-.36328-.31836l.29882-.375a2.31419,2.31419,0,0,0,.48047.37207,1.30683,1.30683,0,0,0,.67188.16211,1.12818,1.12818,0,0,0,.49414-.10157.77668.77668,0,0,0,.45508-.73242.83226.83226,0,0,0-.13672-.47461.89177.89177,0,0,0-.45508-.31152,2.68868,2.68868,0,0,0-.85938-.11133v-.45215a2.125,2.125,0,0,0,.76368-.11133.82649.82649,0,0,0,.40429-.30566.787.787,0,0,0,.12305-.42969.68544.68544,0,0,0-.209-.52539.8219.8219,0,0,0-.58008-.19433,1.10265,1.10265,0,0,0-.52539.13085,1.74294,1.74294,0,0,0-.44141.334l-.3125-.36914a2.75,2.75,0,0,1,.582-.4043,1.54342,1.54342,0,0,1,.7168-.16211,1.73671,1.73671,0,0,1,.70312.13379,1.10157,1.10157,0,0,1,.48438.3916,1.07178,1.07178,0,0,1,.17383.62012,1.01269,1.01269,0,0,1-.22852.68164,1.40182,1.40182,0,0,1-.59765.40137V55.918a1.5641,1.5641,0,0,1,.49609.22265,1.15474,1.15474,0,0,1,.35547.38477,1.08084,1.08084,0,0,1,.13476.55078,1.17574,1.17574,0,0,1-.20312.69434,1.3472,1.3472,0,0,1-.541.44238A1.80068,1.80068,0,0,1,126.3923,58.36914Z"/><path class="cls-4" d="M150.49191,58.28613v-3.0498c0-.11426.00391-.25781.01172-.42969s.01562-.31738.01953-.43652h-.02539c-.06055.10644-.12109.21191-.18164.31543-.0625.10449-.12695.21289-.19336.32812l-1.06445,1.55371h2.60351v.46485h-3.209v-.38282l1.94336-2.90332h.64257v4.54Z"/><path class="cls-4" d="M8.35324,73.18652a2.09258,2.09258,0,0,1-.64063-.08984,1.91575,1.91575,0,0,1-.48437-.22852,2.80825,2.80825,0,0,1-.3711-.2998l.293-.38184a2.49656,2.49656,0,0,0,.29492.252,1.41614,1.41614,0,0,0,.84961.26367.99667.99667,0,0,0,.5-.127.952.952,0,0,0,.36133-.35645,1.0838,1.0838,0,0,0,.13281-.54785,1.00217,1.00217,0,0,0-.26367-.74121A.95009.95009,0,0,0,8.322,70.665a1.02035,1.02035,0,0,0-.40235.07324,2.38424,2.38424,0,0,0-.375.207l-.3125-.19726.15235-2.18457H9.65207v.50293H7.89425L7.77316,70.417a1.38125,1.38125,0,0,1,.32227-.13769,1.40688,1.40688,0,0,1,.3789-.04688,1.64981,1.64981,0,0,1,.707.14942,1.16967,1.16967,0,0,1,.50782.46484,1.74306,1.74306,0,0,1-.02735,1.63965,1.45368,1.45368,0,0,1-.57031.52148A1.60818,1.60818,0,0,1,8.35324,73.18652Z"/><path class="cls-4" d="M32.20285,73.18652a1.46182,1.46182,0,0,1-.625-.13379,1.33064,1.33064,0,0,1-.4961-.40722,2.02122,2.02122,0,0,1-.32812-.68457,3.51582,3.51582,0,0,1-.11719-.959,4.17283,4.17283,0,0,1,.14063-1.16113,2.20424,2.20424,0,0,1,.38086-.7832,1.45462,1.45462,0,0,1,.55468-.43946,1.58413,1.58413,0,0,1,.64844-.13671,1.37364,1.37364,0,0,1,.63672.13671,1.6541,1.6541,0,0,1,.459.34082l-.32422.36231a.98177.98177,0,0,0-.74609-.35645,1.01518,1.01518,0,0,0-.59766.19141,1.28464,1.28464,0,0,0-.43945.63672,3.54371,3.54371,0,0,0-.166,1.209,3.21241,3.21241,0,0,0,.12109.94629,1.24194,1.24194,0,0,0,.34766.582.7963.7963,0,0,0,.543.19727.70988.70988,0,0,0,.41211-.124.831.831,0,0,0,.28516-.34668,1.208,1.208,0,0,0,.10547-.52246,1.25924,1.25924,0,0,0-.0957-.51563.72212.72212,0,0,0-.28321-.334.85834.85834,0,0,0-.46679-.11817,1.00141,1.00141,0,0,0-.48438.14649,1.52594,1.52594,0,0,0-.49609.49707l-.01953-.459a1.86179,1.86179,0,0,1,.32421-.33105,1.40678,1.40678,0,0,1,.37891-.21289A1.124,1.124,0,0,1,32.24,70.334a1.43468,1.43468,0,0,1,.6875.15625,1.06607,1.06607,0,0,1,.45312.46778,1.70677,1.70677,0,0,1,.1582.77637,1.5407,1.5407,0,0,1-.18164.76074,1.32869,1.32869,0,0,1-.48632.50976A1.28044,1.28044,0,0,1,32.20285,73.18652Z"/><path class="cls-4" d="M55.15793,73.10352a11.748,11.748,0,0,1,.11523-1.18067,6.38361,6.38361,0,0,1,.23828-1.01562,5.836,5.836,0,0,1,.39258-.92676,7.49752,7.49752,0,0,1,.57226-.91406H54.20871v-.50293h2.92382v.35742a7.1847,7.1847,0,0,0-.65625.98633,5.11426,5.11426,0,0,0-.40039.958,6.45516,6.45516,0,0,0-.21679,1.03223q-.07032.54347-.09571,1.20606Z"/><path class="cls-4" d="M79.28878,73.18652a1.78837,1.78837,0,0,1-.76953-.15918,1.28215,1.28215,0,0,1-.52929-.43945,1.11777,1.11777,0,0,1-.19141-.64355,1.09748,1.09748,0,0,1,.125-.53125,1.44259,1.44259,0,0,1,.32031-.40723,2.20745,2.20745,0,0,1,.40821-.29v-.02539a1.91782,1.91782,0,0,1-.44336-.43652,1.01469,1.01469,0,0,1-.1875-.61426,1.09743,1.09743,0,0,1,.16992-.61133,1.12068,1.12068,0,0,1,.457-.4043,1.47,1.47,0,0,1,.6543-.14257,1.45225,1.45225,0,0,1,.6875.15234,1.08194,1.08194,0,0,1,.43945.42676,1.262,1.262,0,0,1,.15234.624,1.0445,1.0445,0,0,1-.09961.45215,1.52715,1.52715,0,0,1-.24218.37207,2.44248,2.44248,0,0,1-.27539.27051v.02539a3.08006,3.08006,0,0,1,.3789.27734,1.26225,1.26225,0,0,1,.291.37207,1.149,1.149,0,0,1,.11328.5293,1.084,1.084,0,0,1-.18164.60742,1.24427,1.24427,0,0,1-.50977.43652A1.749,1.749,0,0,1,79.28878,73.18652Zm.00586-.43359a1.02512,1.02512,0,0,0,.47461-.10156.745.745,0,0,0,.42383-.6875.70446.70446,0,0,0-.10156-.38184.95481.95481,0,0,0-.27149-.27441,2.42577,2.42577,0,0,0-.39062-.21289c-.14844-.06543-.30664-.13086-.4707-.19434a1.67663,1.67663,0,0,0-.46289.42676.93606.93606,0,0,0-.18164.5664.80185.80185,0,0,0,.127.43946.87147.87147,0,0,0,.35351.30859A1.11821,1.11821,0,0,0,79.29464,72.75293Zm.3125-2.12012a1.71685,1.71685,0,0,0,.35352-.43554.99209.99209,0,0,0,.123-.48145.86724.86724,0,0,0-.0918-.4043.70394.70394,0,0,0-.26953-.28906.80936.80936,0,0,0-.42774-.1084.75.75,0,0,0-.53515.19727.69493.69493,0,0,0-.209.52832.678.678,0,0,0,.14844.45215,1.25948,1.25948,0,0,0,.39258.30273Q79.33469,70.519,79.60714,70.63281Z"/><path class="cls-4" d="M102.57,73.18652a1.40034,1.40034,0,0,1-.63476-.13672,1.57049,1.57049,0,0,1-.45508-.34082l.31836-.36328a1.00294,1.00294,0,0,0,.3418.26075.92811.92811,0,0,0,.41015.0957,1.021,1.021,0,0,0,.59766-.19043,1.28826,1.28826,0,0,0,.43945-.64063,3.54818,3.54818,0,0,0,.166-1.206,3.288,3.288,0,0,0-.11719-.94531,1.2391,1.2391,0,0,0-.34766-.58594.81061.81061,0,0,0-.55273-.2002.67306.67306,0,0,0-.40234.127.90121.90121,0,0,0-.28711.35058,1.1946,1.1946,0,0,0-.10742.52832,1.335,1.335,0,0,0,.09179.5127.71371.71371,0,0,0,.28321.33691.88416.88416,0,0,0,.47265.11817.96054.96054,0,0,0,.48047-.15039,1.56583,1.56583,0,0,0,.49219-.499l.02539.46485a1.57976,1.57976,0,0,1-.32617.32422,1.60174,1.60174,0,0,1-.38282.21386,1.10016,1.10016,0,0,1-.39257.07324,1.43043,1.43043,0,0,1-.67969-.15625,1.06074,1.06074,0,0,1-.45313-.46777,1.69215,1.69215,0,0,1-.1582-.77051,1.53941,1.53941,0,0,1,.18359-.76757,1.34781,1.34781,0,0,1,.48829-.50977,1.26992,1.26992,0,0,1,.66406-.18066,1.42784,1.42784,0,0,1,.625.13671,1.368,1.368,0,0,1,.49609.41016,2.10655,2.10655,0,0,1,.332.67871,3.38673,3.38673,0,0,1,.11914.958,4.10265,4.10265,0,0,1-.14257,1.16211,2.319,2.319,0,0,1-.38477.7832,1.47352,1.47352,0,0,1-.55469.43945A1.6,1.6,0,0,1,102.57,73.18652Z"/><path class="cls-4" d="M123.25558,73.10352v-.48438h1.04492V69.27051h-.834v-.36914a3.57811,3.57811,0,0,0,.543-.13965,2.29494,2.29494,0,0,0,.42383-.19824h.44531v4.05566h.9375v.48438Z"/><path class="cls-4" d="M128.50753,73.18652a1.16381,1.16381,0,0,1-.77539-.27441,1.72515,1.72515,0,0,1-.5-.80176,4.13323,4.13323,0,0,1-.17578-1.293,4.04207,4.04207,0,0,1,.17578-1.27929,1.69418,1.69418,0,0,1,.5-.79,1.26374,1.26374,0,0,1,1.55274,0,1.6941,1.6941,0,0,1,.5.79,4.04178,4.04178,0,0,1,.17578,1.27929,4.13293,4.13293,0,0,1-.17578,1.293,1.72507,1.72507,0,0,1-.5.80176A1.16533,1.16533,0,0,1,128.50753,73.18652Zm0-.47168a.64327.64327,0,0,0,.46875-.19726,1.31881,1.31881,0,0,0,.3125-.61719,4.33851,4.33851,0,0,0,.11133-1.083,4.24988,4.24988,0,0,0-.11133-1.07519,1.2763,1.2763,0,0,0-.3125-.60547.66493.66493,0,0,0-.93164,0,1.26119,1.26119,0,0,0-.3164.60547,4.24988,4.24988,0,0,0-.11133,1.07519,4.33851,4.33851,0,0,0,.11133,1.083,1.30278,1.30278,0,0,0,.3164.61719A.64317.64317,0,0,0,128.50753,72.71484Z"/><path class="cls-4" d="M146.865,73.10352v-.48438h1.04492V69.27051h-.834v-.36914a3.57749,3.57749,0,0,0,.543-.13965,2.29463,2.29463,0,0,0,.42383-.19824h.44531v4.05566h.9375v.48438Z"/><path class="cls-4" d="M150.90793,73.10352v-.48438h1.04492V69.27051h-.834v-.36914a3.57811,3.57811,0,0,0,.543-.13965,2.29463,2.29463,0,0,0,.42383-.19824h.44531v4.05566h.9375v.48438Z"/><path class="cls-4" d="M5.22433,87.9248v-.48437h1.043V84.0918h-.834v-.36914a3.54744,3.54744,0,0,0,.54492-.13965,2.42086,2.42086,0,0,0,.42383-.19824h.44531v4.05566h.93555v.48437Z"/><path class="cls-4" d="M8.98605,87.9248v-.34375q.68847-.68115,1.166-1.20019a5.789,5.789,0,0,0,.72461-.93555,1.54838,1.54838,0,0,0,.25-.78711,1.07641,1.07641,0,0,0-.09375-.46093.68126.68126,0,0,0-.28321-.3125.95068.95068,0,0,0-.48437-.11133.9667.9667,0,0,0-.53125.15918,2.05277,2.05277,0,0,0-.43555.38183l-.33789-.32422a2.38545,2.38545,0,0,1,.60547-.50293,1.53189,1.53189,0,0,1,.76953-.18457,1.47988,1.47988,0,0,1,.72266.165,1.19549,1.19549,0,0,1,.47265.46485,1.41236,1.41236,0,0,1,.168.70019,1.7766,1.7766,0,0,1-.24219.86621,5.40649,5.40649,0,0,1-.66211.91993q-.41893.48047-.95507,1.04785c.11914-.00879.24609-.01856.38281-.0293.13476-.01074.26172-.01562.38086-.01562H11.9216v.50292Z"/><path class="cls-4" d="M28.83175,87.9248v-.48437h1.043V84.0918h-.834v-.36914a3.54744,3.54744,0,0,0,.54492-.13965,2.42052,2.42052,0,0,0,.42383-.19824h.44531v4.05566h.93555v.48437Z"/><path class="cls-4" d="M33.988,88.00781a2.09256,2.09256,0,0,1-.64062-.08984,1.81448,1.81448,0,0,1-.48633-.23535,2.0022,2.0022,0,0,1-.36328-.31836l.30078-.375a2.21506,2.21506,0,0,0,.48047.37207,1.30175,1.30175,0,0,0,.67187.16211,1.12551,1.12551,0,0,0,.49219-.10156.77664.77664,0,0,0,.45508-.73243.81762.81762,0,0,0-.13672-.47461.88345.88345,0,0,0-.45508-.31152A2.68038,2.68038,0,0,0,33.447,85.792v-.45215a2.11793,2.11793,0,0,0,.76367-.11132.80887.80887,0,0,0,.4043-.30567.77271.77271,0,0,0,.125-.42969.67994.67994,0,0,0-.21094-.52539.81681.81681,0,0,0-.57813-.19433,1.097,1.097,0,0,0-.52539.13086,1.75242,1.75242,0,0,0-.44336.334l-.3125-.36914a2.76185,2.76185,0,0,1,.584-.4043,1.52977,1.52977,0,0,1,.71484-.16211,1.75294,1.75294,0,0,1,.70508.13379,1.096,1.096,0,0,1,.48242.3916,1.07273,1.07273,0,0,1,.17578.62012,1.01273,1.01273,0,0,1-.22851.68164,1.42053,1.42053,0,0,1-.59961.40137v.02539a1.5449,1.5449,0,0,1,.49609.22266,1.18108,1.18108,0,0,1,.35742.38476,1.08018,1.08018,0,0,1,.13282.55078,1.16211,1.16211,0,0,1-.20313.69434,1.33411,1.33411,0,0,1-.541.44238A1.788,1.788,0,0,1,33.988,88.00781Z"/><path class="cls-4" d="M52.43722,87.9248v-.48437h1.043V84.0918h-.834v-.36914a3.54744,3.54744,0,0,0,.54492-.13965,2.42052,2.42052,0,0,0,.42383-.19824h.44531v4.05566h.93555v.48437Z"/><path class="cls-4" d="M58.08371,87.9248V84.875c0-.11426.0039-.25781.01367-.42969q.01171-.25781.01758-.43652h-.02539c-.0586.10644-.11914.21191-.18164.31543-.06055.10449-.125.21289-.19336.32812l-1.0625,1.55371h2.60351v.46485h-3.209v-.38281l1.9414-2.90332h.64258v4.54Z"/><path class="cls-4" d="M76.04464,87.9248v-.48437h1.04493V84.0918h-.834v-.36914a3.57811,3.57811,0,0,0,.543-.13965,2.29463,2.29463,0,0,0,.42383-.19824h.44531v4.05566h.9375v.48437Z"/><path class="cls-4" d="M81.195,88.00781a2.07068,2.07068,0,0,1-.63867-.08984,1.88441,1.88441,0,0,1-.48437-.22852,2.82967,2.82967,0,0,1-.37305-.2998l.293-.38184a2.5201,2.5201,0,0,0,.29687.252,1.41614,1.41614,0,0,0,.84961.26367,1.00181,1.00181,0,0,0,.5-.127.9608.9608,0,0,0,.35938-.35644,1.0648,1.0648,0,0,0,.13476-.54785,1.00308,1.00308,0,0,0-.26562-.74121.94706.94706,0,0,0-.70313-.26465,1.01041,1.01041,0,0,0-.40039.07324,2.48463,2.48463,0,0,0-.377.207l-.31055-.19726.15235-2.18457h2.26562v.50293H80.738l-.12109,1.35058a1.40333,1.40333,0,0,1,.32031-.13769,1.42755,1.42755,0,0,1,.37891-.04688,1.64373,1.64373,0,0,1,.707.14941,1.16377,1.16377,0,0,1,.50977.46485,1.53612,1.53612,0,0,1,.1914.80469,1.52035,1.52035,0,0,1-.2207.835,1.44069,1.44069,0,0,1-.57031.52148A1.5965,1.5965,0,0,1,81.195,88.00781Z"/><path class="cls-4" d="M99.65011,87.9248v-.48437H100.695V84.0918h-.834v-.36914a3.57811,3.57811,0,0,0,.543-.13965,2.29494,2.29494,0,0,0,.42383-.19824h.44531v4.05566h.9375v.48437Z"/><path class="cls-4" d="M105.04269,88.00781a1.45942,1.45942,0,0,1-.623-.13379,1.33632,1.33632,0,0,1-.498-.40722,2.05654,2.05654,0,0,1-.32617-.68457,3.43711,3.43711,0,0,1-.11915-.959,4.17283,4.17283,0,0,1,.14063-1.16113,2.239,2.239,0,0,1,.38281-.7832,1.44919,1.44919,0,0,1,.55274-.43946,1.59312,1.59312,0,0,1,.65039-.13672,1.37923,1.37923,0,0,1,.63672.13672,1.64459,1.64459,0,0,1,.457.34082l-.32422.36231a.93837.93837,0,0,0-.334-.26074.94792.94792,0,0,0-.41015-.09571,1.02533,1.02533,0,0,0-.59961.19141,1.30954,1.30954,0,0,0-.43945.63672,3.599,3.599,0,0,0-.16407,1.209,3.14865,3.14865,0,0,0,.1211.94629,1.23989,1.23989,0,0,0,.3457.582.79779.79779,0,0,0,.54492.19727.70809.70809,0,0,0,.41016-.124.84989.84989,0,0,0,.28711-.34668,1.20791,1.20791,0,0,0,.10547-.52246,1.29221,1.29221,0,0,0-.09571-.51562.73361.73361,0,0,0-.2832-.334.86082.86082,0,0,0-.46875-.11816,1.00141,1.00141,0,0,0-.48438.14649,1.526,1.526,0,0,0-.49609.49707l-.01953-.459a1.87191,1.87191,0,0,1,.32617-.331,1.35015,1.35015,0,0,1,.37891-.21289,1.11548,1.11548,0,0,1,.38476-.07325,1.44006,1.44006,0,0,1,.6875.15625,1.05163,1.05163,0,0,1,.45118.46778,1.68083,1.68083,0,0,1,.16015.77636,1.54082,1.54082,0,0,1-.18164.76075,1.3193,1.3193,0,0,1-.48828.50976A1.28042,1.28042,0,0,1,105.04269,88.00781Z"/><path class="cls-4" d="M123.25558,87.9248v-.48437h1.04492V84.0918h-.834v-.36914a3.57811,3.57811,0,0,0,.543-.13965,2.29494,2.29494,0,0,0,.42383-.19824h.44531v4.05566h.9375v.48437Z"/><path class="cls-4" d="M127.99972,87.9248a11.78239,11.78239,0,0,1,.11328-1.18066,6.38217,6.38217,0,0,1,.24024-1.01562,6.01135,6.01135,0,0,1,.39062-.92676,7.49642,7.49642,0,0,1,.57227-.91406H127.0505v-.50293h2.92188v.35742a7.18286,7.18286,0,0,0-.65625.98633,5.24672,5.24672,0,0,0-.40039.958,6.45516,6.45516,0,0,0-.2168,1.03223q-.0703.54345-.0957,1.20605Z"/><path class="cls-4" d="M146.865,87.9248v-.48437h1.04492V84.0918h-.834v-.36914a3.57749,3.57749,0,0,0,.543-.13965,2.29463,2.29463,0,0,0,.42383-.19824h.44531v4.05566h.9375v.48437Z"/><path class="cls-4" d="M152.13058,88.00781a1.78837,1.78837,0,0,1-.76953-.15918,1.28224,1.28224,0,0,1-.5293-.43945,1.11785,1.11785,0,0,1-.1914-.64356,1.09735,1.09735,0,0,1,.125-.53124,1.44259,1.44259,0,0,1,.32031-.40723,2.20739,2.20739,0,0,1,.4082-.29v-.02539a1.91822,1.91822,0,0,1-.44336-.43652,1.01469,1.01469,0,0,1-.1875-.61426,1.09736,1.09736,0,0,1,.16993-.61133,1.12062,1.12062,0,0,1,.457-.4043,1.47,1.47,0,0,1,.65429-.14258,1.4522,1.4522,0,0,1,.6875.15235,1.0819,1.0819,0,0,1,.43946.42676,1.262,1.262,0,0,1,.15234.624,1.0445,1.0445,0,0,1-.09961.45215,1.52688,1.52688,0,0,1-.24219.37207,2.44164,2.44164,0,0,1-.27539.27051V85.626a3.07912,3.07912,0,0,1,.37891.27734,1.26206,1.26206,0,0,1,.291.37207,1.149,1.149,0,0,1,.11329.5293,1.084,1.084,0,0,1-.18164.60742,1.24427,1.24427,0,0,1-.50977.43652A1.749,1.749,0,0,1,152.13058,88.00781Zm.00586-.43359a1.02515,1.02515,0,0,0,.47461-.10156.745.745,0,0,0,.42383-.6875.70455.70455,0,0,0-.10156-.38184.95481.95481,0,0,0-.27149-.27441,2.42585,2.42585,0,0,0-.39062-.21289c-.14844-.06543-.30664-.13086-.47071-.19434a1.67677,1.67677,0,0,0-.46289.42676.93612.93612,0,0,0-.18164.5664.80186.80186,0,0,0,.127.43946.87141.87141,0,0,0,.35351.30859A1.11821,1.11821,0,0,0,152.13644,87.57422Zm.3125-2.12012a1.71693,1.71693,0,0,0,.35352-.43555.992.992,0,0,0,.123-.48144.86723.86723,0,0,0-.09179-.4043.70394.70394,0,0,0-.26953-.28906.80929.80929,0,0,0-.42774-.1084.75.75,0,0,0-.53516.19727.69491.69491,0,0,0-.209.52832.67805.67805,0,0,0,.14844.45215,1.25948,1.25948,0,0,0,.39258.30273Q152.17648,85.34034,152.44894,85.4541Z"/><path class="cls-4" d="M5.22433,102.74707v-.48437h1.043V98.91406h-.834v-.36914a3.54629,3.54629,0,0,0,.54492-.13965,2.41942,2.41942,0,0,0,.42383-.19824h.44531v4.05567h.93555v.48437Z"/><path class="cls-4" d="M10.16378,102.83008a1.38615,1.38615,0,0,1-.63281-.13672,1.57084,1.57084,0,0,1-.45508-.34082l.31836-.36328a1.01457,1.01457,0,0,0,.33985.26074.9405.9405,0,0,0,.41015.0957,1.03119,1.03119,0,0,0,.59961-.19043,1.31329,1.31329,0,0,0,.43946-.64062,3.59788,3.59788,0,0,0,.166-1.20606,3.28229,3.28229,0,0,0-.11914-.94531,1.23718,1.23718,0,0,0-.3457-.58594.81559.81559,0,0,0-.55469-.20019.66724.66724,0,0,0-.40039.12695.90125.90125,0,0,0-.28711.35059,1.19457,1.19457,0,0,0-.10742.52832,1.299,1.299,0,0,0,.0918.51269.70306.70306,0,0,0,.2832.33692.87243.87243,0,0,0,.4707.11816.96044.96044,0,0,0,.48047-.15039,1.58953,1.58953,0,0,0,.49414-.499l.02539.46484a1.63853,1.63853,0,0,1-.32812.32422,1.53011,1.53011,0,0,1-.38282.21387,1.09791,1.09791,0,0,1-.39062.07324,1.433,1.433,0,0,1-.68164-.15625,1.05665,1.05665,0,0,1-.45117-.46777,1.66637,1.66637,0,0,1-.16016-.77051,1.54,1.54,0,0,1,.18555-.76758,1.3578,1.3578,0,0,1,.48633-.50977,1.2769,1.2769,0,0,1,.666-.18066,1.41921,1.41921,0,0,1,.623.13672,1.352,1.352,0,0,1,.49609.41016,2.06733,2.06733,0,0,1,.332.67871,3.3819,3.3819,0,0,1,.1211.958,4.17435,4.17435,0,0,1-.14258,1.16211,2.28482,2.28482,0,0,1-.38672.78321,1.468,1.468,0,0,1-.55273.43945A1.61607,1.61607,0,0,1,10.16378,102.83008Z"/><path class="cls-4" d="M28.5505,102.74707v-.34375q.68849-.68115,1.166-1.2002a5.78886,5.78886,0,0,0,.72461-.93554,1.54838,1.54838,0,0,0,.25-.78711,1.07645,1.07645,0,0,0-.09375-.46094.68134.68134,0,0,0-.2832-.3125.95074.95074,0,0,0-.48438-.11133.96672.96672,0,0,0-.53125.15918,2.05306,2.05306,0,0,0-.43555.38184l-.33789-.32422a2.38545,2.38545,0,0,1,.60547-.50293,1.53181,1.53181,0,0,1,.76953-.18457,1.47985,1.47985,0,0,1,.72266.165,1.19555,1.19555,0,0,1,.47266.46484,1.4125,1.4125,0,0,1,.168.7002,1.77662,1.77662,0,0,1-.24218.86621,5.40661,5.40661,0,0,1-.66211.91992q-.419.48047-.95508,1.04785c.11914-.00879.24609-.01855.38281-.02929.13477-.01075.26172-.01563.38086-.01563h1.31836v.50293Z"/><path class="cls-4" d="M34.08371,102.83008a1.169,1.169,0,0,1-.77735-.27442,1.72511,1.72511,0,0,1-.5-.80175,4.196,4.196,0,0,1-.17383-1.293,4.10341,4.10341,0,0,1,.17383-1.2793,1.69418,1.69418,0,0,1,.5-.79,1.26658,1.26658,0,0,1,1.55469,0,1.6941,1.6941,0,0,1,.5.79,4.10341,4.10341,0,0,1,.17383,1.2793,4.196,4.196,0,0,1-.17383,1.293,1.725,1.725,0,0,1-.5.80175A1.16893,1.16893,0,0,1,34.08371,102.83008Zm0-.47168a.64966.64966,0,0,0,.46875-.19727,1.33658,1.33658,0,0,0,.31054-.61718,4.33862,4.33862,0,0,0,.11133-1.083,4.24991,4.24991,0,0,0-.11133-1.0752,1.2933,1.2933,0,0,0-.31054-.60547.66734.66734,0,0,0-.9336,0,1.2603,1.2603,0,0,0-.31445.60547,4.24991,4.24991,0,0,0-.11133,1.0752,4.33862,4.33862,0,0,0,.11133,1.083,1.30191,1.30191,0,0,0,.31445.61718A.65073.65073,0,0,0,34.08371,102.3584Z"/><path class="cls-4" d="M52.156,102.74707v-.34375q.68849-.68115,1.166-1.2002a5.78944,5.78944,0,0,0,.72461-.93554,1.54838,1.54838,0,0,0,.25-.78711,1.07645,1.07645,0,0,0-.09375-.46094.68131.68131,0,0,0-.28321-.3125.95068.95068,0,0,0-.48437-.11133.96672.96672,0,0,0-.53125.15918,2.05306,2.05306,0,0,0-.43555.38184l-.33789-.32422a2.38545,2.38545,0,0,1,.60547-.50293,1.53181,1.53181,0,0,1,.76953-.18457,1.47985,1.47985,0,0,1,.72266.165,1.19546,1.19546,0,0,1,.47265.46484,1.41239,1.41239,0,0,1,.168.7002,1.77672,1.77672,0,0,1-.24218.86621,5.40661,5.40661,0,0,1-.66211.91992q-.419.48047-.95508,1.04785c.11914-.00879.24609-.01855.38281-.02929.13477-.01075.26172-.01563.38086-.01563h1.31836v.50293Z"/><path class="cls-4" d="M56.48019,102.74707v-.48437h1.043V98.91406h-.834v-.36914a3.54629,3.54629,0,0,0,.54492-.13965,2.41942,2.41942,0,0,0,.42383-.19824h.44531v4.05567h.93554v.48437Z"/><path class="cls-4" d="M75.76535,102.74707v-.34375q.68555-.68115,1.16406-1.2002a5.929,5.929,0,0,0,.72656-.93554,1.54438,1.54438,0,0,0,.24805-.78711,1.10617,1.10617,0,0,0-.0918-.46094.692.692,0,0,0-.2832-.3125,1.02847,1.02847,0,0,0-1.01563.04785,2.06333,2.06333,0,0,0-.4375.38184L75.74,98.8125a2.34488,2.34488,0,0,1,.60351-.50293A1.53936,1.53936,0,0,1,77.115,98.125a1.48511,1.48511,0,0,1,.72265.165,1.19064,1.19064,0,0,1,.47071.46484,1.39191,1.39191,0,0,1,.168.7002,1.79467,1.79467,0,0,1-.24023.86621,5.3192,5.3192,0,0,1-.66406.91992q-.419.48047-.95313,1.04785c.11719-.00879.2461-.01855.38086-.02929.13672-.01075.26367-.01563.38281-.01563h1.31641v.50293Z"/><path class="cls-4" d="M79.80832,102.74707v-.34375q.68555-.68115,1.16406-1.2002a5.929,5.929,0,0,0,.72656-.93554,1.54438,1.54438,0,0,0,.24805-.78711,1.10617,1.10617,0,0,0-.0918-.46094.692.692,0,0,0-.2832-.3125,1.02847,1.02847,0,0,0-1.01563.04785,2.06333,2.06333,0,0,0-.4375.38184l-.33593-.32422a2.34471,2.34471,0,0,1,.60351-.50293,1.53936,1.53936,0,0,1,.77149-.18457,1.48511,1.48511,0,0,1,.72265.165,1.19055,1.19055,0,0,1,.4707.46484,1.39181,1.39181,0,0,1,.168.7002,1.79467,1.79467,0,0,1-.24023.86621,5.3192,5.3192,0,0,1-.66406.91992q-.41895.48047-.95313,1.04785c.11719-.00879.2461-.01855.38086-.02929.13672-.01075.26367-.01563.38281-.01563h1.31641v.50293Z"/><path class="cls-4" d="M99.37082,102.74707v-.34375q.68555-.68115,1.16406-1.2002a5.929,5.929,0,0,0,.72656-.93554,1.54438,1.54438,0,0,0,.24805-.78711,1.10617,1.10617,0,0,0-.0918-.46094.692.692,0,0,0-.2832-.3125,1.02847,1.02847,0,0,0-1.01563.04785,2.06333,2.06333,0,0,0-.4375.38184l-.33593-.32422a2.34471,2.34471,0,0,1,.60351-.50293,1.53936,1.53936,0,0,1,.77149-.18457,1.48511,1.48511,0,0,1,.72265.165,1.19055,1.19055,0,0,1,.4707.46484,1.39181,1.39181,0,0,1,.168.7002,1.79467,1.79467,0,0,1-.24023.86621,5.3192,5.3192,0,0,1-.66406.91992q-.41895.48047-.95313,1.04785c.11719-.00879.2461-.01855.38086-.02929.13672-.01075.26367-.01563.38281-.01563h1.31641v.50293Z"/><path class="cls-4" d="M104.80832,102.83008a2.09256,2.09256,0,0,1-.64063-.08985,1.75868,1.75868,0,0,1-.48633-.23535,2.00143,2.00143,0,0,1-.36328-.31836l.29883-.375a2.31325,2.31325,0,0,0,.48047.37207,1.3067,1.3067,0,0,0,.67187.16211,1.12815,1.12815,0,0,0,.49414-.10156.77664.77664,0,0,0,.45508-.73242.83218.83218,0,0,0-.13672-.47461.89168.89168,0,0,0-.45507-.31152,2.68872,2.68872,0,0,0-.85938-.11133v-.45215a2.1249,2.1249,0,0,0,.76367-.11133.82652.82652,0,0,0,.4043-.30566.787.787,0,0,0,.123-.42969.68545.68545,0,0,0-.209-.52539.82187.82187,0,0,0-.58008-.19434,1.10269,1.10269,0,0,0-.52539.13086,1.74283,1.74283,0,0,0-.4414.334l-.3125-.36914a2.74907,2.74907,0,0,1,.582-.4043,1.54341,1.54341,0,0,1,.71679-.16211,1.73676,1.73676,0,0,1,.70313.13379,1.10148,1.10148,0,0,1,.48437.3916,1.07178,1.07178,0,0,1,.17383.62012,1.01273,1.01273,0,0,1-.22851.68164,1.402,1.402,0,0,1-.59766.40137v.02539a1.564,1.564,0,0,1,.49609.22265,1.15464,1.15464,0,0,1,.35547.38477,1.08075,1.08075,0,0,1,.13477.55078,1.1757,1.1757,0,0,1-.20313.69434,1.34719,1.34719,0,0,1-.541.44238A1.80087,1.80087,0,0,1,104.80832,102.83008Z"/><path class="cls-4" d="M122.97628,102.74707v-.34375q.68556-.68115,1.16407-1.2002a5.9296,5.9296,0,0,0,.72656-.93554,1.54438,1.54438,0,0,0,.248-.78711,1.10617,1.10617,0,0,0-.0918-.46094.692.692,0,0,0-.2832-.3125,1.02847,1.02847,0,0,0-1.01563.04785,2.06333,2.06333,0,0,0-.4375.38184l-.33594-.32422a2.34492,2.34492,0,0,1,.60352-.50293,1.53935,1.53935,0,0,1,.77148-.18457,1.48512,1.48512,0,0,1,.72266.165,1.19055,1.19055,0,0,1,.4707.46484,1.39192,1.39192,0,0,1,.168.7002,1.79478,1.79478,0,0,1-.24023.86621,5.3192,5.3192,0,0,1-.66406.91992q-.41895.48047-.95313,1.04785c.11719-.00879.24609-.01855.38086-.02929.13672-.01075.26367-.01563.38281-.01563h1.31641v.50293Z"/><path class="cls-4" d="M128.904,102.74707v-3.0498c0-.11426.00391-.25782.01172-.42969s.01562-.31738.01953-.43653h-.02539c-.06055.10645-.1211.21192-.18164.31543-.0625.1045-.127.2129-.19336.32813l-1.06445,1.55371h2.60351v.46484h-3.209v-.38281l1.94336-2.90332h.64257v4.54Z"/><path class="cls-4" d="M146.58566,102.74707v-.34375q.68555-.68115,1.16406-1.2002a5.929,5.929,0,0,0,.72656-.93554,1.54438,1.54438,0,0,0,.24805-.78711,1.10617,1.10617,0,0,0-.0918-.46094.692.692,0,0,0-.2832-.3125,1.02845,1.02845,0,0,0-1.01562.04785,2.06284,2.06284,0,0,0-.4375.38184l-.33594-.32422a2.345,2.345,0,0,1,.60351-.50293,1.53936,1.53936,0,0,1,.77149-.18457,1.48515,1.48515,0,0,1,.72266.165,1.19055,1.19055,0,0,1,.4707.46484,1.39192,1.39192,0,0,1,.168.7002,1.79469,1.79469,0,0,1-.24024.86621,5.3192,5.3192,0,0,1-.66406.91992q-.419.48047-.95312,1.04785c.11718-.00879.24609-.01855.38085-.02929.13672-.01075.26368-.01563.38282-.01563h1.3164v.50293Z"/><path class="cls-4" d="M152.01535,102.83008a2.07058,2.07058,0,0,1-.63867-.08985,1.88464,1.88464,0,0,1-.48438-.22851,2.82891,2.82891,0,0,1-.37305-.29981l.293-.38183a2.5192,2.5192,0,0,0,.29688.252,1.41608,1.41608,0,0,0,.84961.26367,1.00191,1.00191,0,0,0,.5-.12695.96073.96073,0,0,0,.35937-.35645,1.06468,1.06468,0,0,0,.13477-.54785,1.00308,1.00308,0,0,0-.26563-.74121.947.947,0,0,0-.70312-.26465,1.01034,1.01034,0,0,0-.40039.07325,2.48333,2.48333,0,0,0-.377.207l-.31054-.19727.15234-2.18457h2.26563V98.71h-1.75586l-.1211,1.35059a1.404,1.404,0,0,1,.32031-.1377,1.42762,1.42762,0,0,1,.37891-.04687,1.64355,1.64355,0,0,1,.707.14941,1.16375,1.16375,0,0,1,.50977.46484,1.53617,1.53617,0,0,1,.1914.80469,1.52021,1.52021,0,0,1-.2207.835,1.44065,1.44065,0,0,1-.57031.52149A1.59646,1.59646,0,0,1,152.01535,102.83008Z"/><path class="cls-4" d="M4.94308,117.56836v-.34375q.68849-.68115,1.166-1.2002a5.78944,5.78944,0,0,0,.72461-.93554,1.54838,1.54838,0,0,0,.25-.78711,1.07645,1.07645,0,0,0-.09375-.46094.68131.68131,0,0,0-.28321-.3125.95068.95068,0,0,0-.48437-.11133.96672.96672,0,0,0-.53125.15918,2.05282,2.05282,0,0,0-.43555.38184l-.33789-.32422a2.38545,2.38545,0,0,1,.60547-.50293,1.53181,1.53181,0,0,1,.76953-.18457,1.47985,1.47985,0,0,1,.72266.165,1.19546,1.19546,0,0,1,.47265.46484,1.41239,1.41239,0,0,1,.168.7002,1.77663,1.77663,0,0,1-.24219.86621,5.406,5.406,0,0,1-.6621.91992q-.419.48047-.95508,1.04785c.11914-.00879.24609-.01855.38281-.0293.13477-.01074.26172-.01562.38086-.01562H7.87863v.50293Z"/><path class="cls-4" d="M10.61691,117.65137a1.46188,1.46188,0,0,1-.625-.13379,1.33056,1.33056,0,0,1-.49609-.40723,2.02123,2.02123,0,0,1-.32813-.68457,3.51613,3.51613,0,0,1-.11719-.959,4.173,4.173,0,0,1,.14063-1.16114,2.20441,2.20441,0,0,1,.38086-.7832,1.45462,1.45462,0,0,1,.55469-.43945,1.58393,1.58393,0,0,1,.64843-.13672,1.37346,1.37346,0,0,1,.63672.13672,1.65415,1.65415,0,0,1,.459.34082l-.32422.3623a.98176.98176,0,0,0-.7461-.35644,1.01514,1.01514,0,0,0-.59765.1914,1.28468,1.28468,0,0,0-.43946.63672,3.54406,3.54406,0,0,0-.166,1.209,3.2125,3.2125,0,0,0,.12109.94629,1.242,1.242,0,0,0,.34766.582.79635.79635,0,0,0,.543.19726.70985.70985,0,0,0,.41211-.124.831.831,0,0,0,.28515-.34668,1.20783,1.20783,0,0,0,.10547-.52246,1.25924,1.25924,0,0,0-.0957-.51563.7221.7221,0,0,0-.2832-.334.85844.85844,0,0,0-.4668-.11816,1.00139,1.00139,0,0,0-.48438.14648,1.52614,1.52614,0,0,0-.49609.49707l-.01953-.459a1.86157,1.86157,0,0,1,.32422-.33106,1.40711,1.40711,0,0,1,.3789-.21289,1.124,1.124,0,0,1,.38477-.07324,1.43466,1.43466,0,0,1,.6875.15625,1.066,1.066,0,0,1,.45312.46777,1.7068,1.7068,0,0,1,.15821.77637,1.54078,1.54078,0,0,1-.18164.76074,1.32889,1.32889,0,0,1-.48633.50977A1.28051,1.28051,0,0,1,10.61691,117.65137Z"/><path class="cls-4" d="M28.5505,117.56836v-.34375q.68849-.68115,1.166-1.2002a5.78886,5.78886,0,0,0,.72461-.93554,1.54838,1.54838,0,0,0,.25-.78711,1.07645,1.07645,0,0,0-.09375-.46094.68134.68134,0,0,0-.2832-.3125.95074.95074,0,0,0-.48438-.11133.96672.96672,0,0,0-.53125.15918,2.05306,2.05306,0,0,0-.43555.38184l-.33789-.32422a2.38545,2.38545,0,0,1,.60547-.50293,1.53181,1.53181,0,0,1,.76953-.18457,1.47985,1.47985,0,0,1,.72266.165,1.19555,1.19555,0,0,1,.47266.46484,1.4125,1.4125,0,0,1,.168.7002,1.77662,1.77662,0,0,1-.24218.86621,5.40661,5.40661,0,0,1-.66211.91992q-.419.48047-.95508,1.04785c.11914-.00879.24609-.01855.38281-.0293.13477-.01074.26172-.01562.38086-.01562h1.31836v.50293Z"/><path class="cls-4" d="M33.57394,117.56836a11.75053,11.75053,0,0,1,.11524-1.18066,6.38131,6.38131,0,0,1,.23828-1.01563,5.83507,5.83507,0,0,1,.39257-.92676,7.49718,7.49718,0,0,1,.57227-.91406H32.62472v-.50293h2.92383v.35742a7.18347,7.18347,0,0,0-.65625.98633,5.11407,5.11407,0,0,0-.40039.958,6.4548,6.4548,0,0,0-.2168,1.03222q-.0703.54346-.0957,1.20606Z"/><path class="cls-4" d="M52.156,117.56836v-.34375q.68849-.68115,1.166-1.2002a5.78944,5.78944,0,0,0,.72461-.93554,1.54838,1.54838,0,0,0,.25-.78711,1.07645,1.07645,0,0,0-.09375-.46094.68131.68131,0,0,0-.28321-.3125.95068.95068,0,0,0-.48437-.11133.96672.96672,0,0,0-.53125.15918,2.05306,2.05306,0,0,0-.43555.38184l-.33789-.32422a2.38545,2.38545,0,0,1,.60547-.50293,1.53181,1.53181,0,0,1,.76953-.18457,1.47985,1.47985,0,0,1,.72266.165,1.19546,1.19546,0,0,1,.47265.46484,1.41239,1.41239,0,0,1,.168.7002,1.77672,1.77672,0,0,1-.24218.86621,5.40661,5.40661,0,0,1-.66211.91992q-.419.48047-.95508,1.04785c.11914-.00879.24609-.01855.38281-.0293.13477-.01074.26172-.01562.38086-.01562h1.31836v.50293Z"/><path class="cls-4" d="M57.70285,117.65137a1.7973,1.7973,0,0,1-.77149-.15918,1.28873,1.28873,0,0,1-.52734-.43946,1.10349,1.10349,0,0,1-.19141-.64355,1.11907,1.11907,0,0,1,.123-.53125,1.48516,1.48516,0,0,1,.32227-.40723,2.14454,2.14454,0,0,1,.4082-.29v-.02539a1.88059,1.88059,0,0,1-.44336-.43652,1.01467,1.01467,0,0,1-.1875-.61426,1.11235,1.11235,0,0,1,.168-.61133,1.1387,1.1387,0,0,1,.459-.40429,1.46137,1.46137,0,0,1,.65235-.14258,1.4468,1.4468,0,0,1,.6875.15234,1.05854,1.05854,0,0,1,.43945.42676,1.2621,1.2621,0,0,1,.15234.624,1.07186,1.07186,0,0,1-.09765.45215,1.58677,1.58677,0,0,1-.24219.37207,2.29379,2.29379,0,0,1-.27734.27051v.02539a3.08091,3.08091,0,0,1,.3789.27735,1.23688,1.23688,0,0,1,.293.37207,1.14929,1.14929,0,0,1,.11133.52929,1.084,1.084,0,0,1-.18164.60742,1.24436,1.24436,0,0,1-.50977.43653A1.74622,1.74622,0,0,1,57.70285,117.65137Zm.00586-.4336a1.03639,1.03639,0,0,0,.47461-.10156.76527.76527,0,0,0,.31054-.28027.75178.75178,0,0,0,.11133-.40723.68794.68794,0,0,0-.10156-.38183.97276.97276,0,0,0-.26953-.27442,2.5374,2.5374,0,0,0-.39258-.21289c-.14844-.06543-.30469-.13086-.4707-.19434a1.66865,1.66865,0,0,0-.46094.42676.93609.93609,0,0,0-.18164.56641.786.786,0,0,0,.127.43945.859.859,0,0,0,.35352.3086A1.11238,1.11238,0,0,0,57.70871,117.21777Zm.3125-2.12011a1.707,1.707,0,0,0,.35156-.43555.973.973,0,0,0,.125-.48145.89177.89177,0,0,0-.0918-.40429.72181.72181,0,0,0-.27148-.28907.80227.80227,0,0,0-.42578-.10839.75008.75008,0,0,0-.53516.19726.68929.68929,0,0,0-.21094.52832.67911.67911,0,0,0,.15039.45215,1.2506,1.2506,0,0,0,.39063.30274C57.66574,114.94238,57.83761,115.02148,58.02121,115.09766Z"/><path class="cls-4" d="M75.76535,117.56836v-.34375q.68555-.68115,1.16406-1.2002a5.929,5.929,0,0,0,.72656-.93554,1.54438,1.54438,0,0,0,.24805-.78711,1.10617,1.10617,0,0,0-.0918-.46094.692.692,0,0,0-.2832-.3125,1.02847,1.02847,0,0,0-1.01563.04785,2.06333,2.06333,0,0,0-.4375.38184l-.33593-.32422a2.34488,2.34488,0,0,1,.60351-.50293,1.53936,1.53936,0,0,1,.77149-.18457,1.48511,1.48511,0,0,1,.72265.165,1.19064,1.19064,0,0,1,.47071.46484,1.39191,1.39191,0,0,1,.168.7002,1.79467,1.79467,0,0,1-.24023.86621,5.3192,5.3192,0,0,1-.66406.91992q-.419.48047-.95313,1.04785c.11719-.00879.2461-.01855.38086-.0293.13672-.01074.26367-.01562.38281-.01562h1.31641v.50293Z"/><path class="cls-4" d="M80.98605,117.65137a1.40038,1.40038,0,0,1-.63477-.13672,1.5708,1.5708,0,0,1-.45507-.34082l.31836-.36328a1.003,1.003,0,0,0,.34179.26074.92815.92815,0,0,0,.41016.0957,1.021,1.021,0,0,0,.59766-.19043,1.28834,1.28834,0,0,0,.43945-.64062,3.54828,3.54828,0,0,0,.166-1.20606,3.28851,3.28851,0,0,0-.11718-.94531,1.23926,1.23926,0,0,0-.34766-.58594.8106.8106,0,0,0-.55273-.20019.67308.67308,0,0,0-.40235.127.90125.90125,0,0,0-.28711.35059,1.19471,1.19471,0,0,0-.10742.52832,1.33475,1.33475,0,0,0,.0918.51269.71382.71382,0,0,0,.2832.33692.88422.88422,0,0,0,.47266.11816.9605.9605,0,0,0,.48047-.15039,1.566,1.566,0,0,0,.49218-.499l.02539.46484a1.579,1.579,0,0,1-.32617.32422,1.60119,1.60119,0,0,1-.38281.21387,1.10047,1.10047,0,0,1-.39258.07324,1.43061,1.43061,0,0,1-.67969-.15625,1.06075,1.06075,0,0,1-.45312-.46778,1.69211,1.69211,0,0,1-.1582-.7705,1.53937,1.53937,0,0,1,.18359-.76758,1.348,1.348,0,0,1,.48828-.50977,1.27,1.27,0,0,1,.66406-.18066,1.42767,1.42767,0,0,1,.625.13672,1.368,1.368,0,0,1,.4961.41015,2.10671,2.10671,0,0,1,.332.67872,3.38665,3.38665,0,0,1,.11914.958,4.10262,4.10262,0,0,1-.14258,1.16211,2.31909,2.31909,0,0,1-.38476.78321,1.4737,1.4737,0,0,1-.55469.43945A1.6,1.6,0,0,1,80.98605,117.65137Z"/><path class="cls-4" d="M100.76535,117.65137a2.09256,2.09256,0,0,1-.64063-.08985,1.759,1.759,0,0,1-.48633-.23535,2.00177,2.00177,0,0,1-.36328-.31836l.29883-.375a2.31385,2.31385,0,0,0,.48047.37207,1.3067,1.3067,0,0,0,.67187.16211,1.12822,1.12822,0,0,0,.49415-.10156.77665.77665,0,0,0,.45507-.73242.83218.83218,0,0,0-.13672-.47461.89168.89168,0,0,0-.45507-.31152,2.68868,2.68868,0,0,0-.85938-.11133v-.45215a2.1249,2.1249,0,0,0,.76367-.11133.82648.82648,0,0,0,.4043-.30566.787.787,0,0,0,.123-.42969.68545.68545,0,0,0-.209-.52539.82187.82187,0,0,0-.58008-.19434,1.10269,1.10269,0,0,0-.52539.13086,1.74283,1.74283,0,0,0-.4414.334l-.3125-.36914a2.74907,2.74907,0,0,1,.582-.4043,1.54342,1.54342,0,0,1,.7168-.16211,1.73658,1.73658,0,0,1,.70312.13379,1.1015,1.1015,0,0,1,.48438.3916,1.07183,1.07183,0,0,1,.17382.62012,1.01275,1.01275,0,0,1-.22851.68164,1.40184,1.40184,0,0,1-.59766.40136v.0254a1.56415,1.56415,0,0,1,.4961.22265,1.15471,1.15471,0,0,1,.35546.38477,1.08072,1.08072,0,0,1,.13477.55078,1.17571,1.17571,0,0,1-.20312.69433,1.34731,1.34731,0,0,1-.541.44239A1.80087,1.80087,0,0,1,100.76535,117.65137Z"/><path class="cls-4" d="M104.90207,117.65137a1.16378,1.16378,0,0,1-.77539-.27442,1.725,1.725,0,0,1-.5-.80175,4.133,4.133,0,0,1-.17579-1.293,4.04183,4.04183,0,0,1,.17579-1.2793,1.694,1.694,0,0,1,.5-.79,1.26372,1.26372,0,0,1,1.55273,0,1.6941,1.6941,0,0,1,.5.79,4.04185,4.04185,0,0,1,.17578,1.2793,4.133,4.133,0,0,1-.17578,1.293,1.72508,1.72508,0,0,1-.5.80175A1.16533,1.16533,0,0,1,104.90207,117.65137Zm0-.47168a.64328.64328,0,0,0,.46875-.19727,1.319,1.319,0,0,0,.3125-.61719,4.339,4.339,0,0,0,.11132-1.083,4.25043,4.25043,0,0,0-.11132-1.0752,1.27648,1.27648,0,0,0-.3125-.60547.66493.66493,0,0,0-.93164,0,1.26111,1.26111,0,0,0-.31641.60547,4.24991,4.24991,0,0,0-.11133,1.0752,4.33848,4.33848,0,0,0,.11133,1.083,1.30265,1.30265,0,0,0,.31641.61719A.64311.64311,0,0,0,104.90207,117.17969Z"/><path class="cls-4" d="M124.37082,117.65137a2.09256,2.09256,0,0,1-.64063-.08985,1.75868,1.75868,0,0,1-.48633-.23535,2.00143,2.00143,0,0,1-.36328-.31836l.29883-.375a2.31359,2.31359,0,0,0,.48047.37207,1.3067,1.3067,0,0,0,.67187.16211,1.12815,1.12815,0,0,0,.49414-.10156.77664.77664,0,0,0,.45508-.73242.83218.83218,0,0,0-.13672-.47461.89168.89168,0,0,0-.45507-.31152,2.68872,2.68872,0,0,0-.85938-.11133v-.45215a2.1249,2.1249,0,0,0,.76367-.11133.82652.82652,0,0,0,.4043-.30566.787.787,0,0,0,.123-.42969.68545.68545,0,0,0-.209-.52539.82187.82187,0,0,0-.58008-.19434,1.10269,1.10269,0,0,0-.52539.13086,1.74283,1.74283,0,0,0-.4414.334l-.3125-.36914a2.74907,2.74907,0,0,1,.582-.4043,1.54341,1.54341,0,0,1,.71679-.16211,1.73659,1.73659,0,0,1,.70313.13379,1.10141,1.10141,0,0,1,.48437.3916,1.07176,1.07176,0,0,1,.17383.62012,1.01275,1.01275,0,0,1-.22851.68164,1.4019,1.4019,0,0,1-.59766.40136v.0254a1.564,1.564,0,0,1,.49609.22265,1.15464,1.15464,0,0,1,.35547.38477,1.08072,1.08072,0,0,1,.13477.55078,1.17565,1.17565,0,0,1-.20313.69433,1.34721,1.34721,0,0,1-.541.44239A1.80087,1.80087,0,0,1,124.37082,117.65137Z"/><path class="cls-4" d="M127.29855,117.56836V117.084h1.04492v-3.34863h-.834v-.36914a3.57811,3.57811,0,0,0,.543-.13965,2.29323,2.29323,0,0,0,.42382-.19824h.44532V117.084h.9375v.48438Z"/><path class="cls-5" d="M6.96457,132.38867v-.34375q.68847-.68115,1.166-1.20019a5.78932,5.78932,0,0,0,.72461-.93555,1.54828,1.54828,0,0,0,.25-.78711,1.07645,1.07645,0,0,0-.09375-.46094.68134.68134,0,0,0-.2832-.3125.95072.95072,0,0,0-.48438-.11133.96683.96683,0,0,0-.53125.15918,2.05276,2.05276,0,0,0-.43554.38184l-.33789-.32422a2.38558,2.38558,0,0,1,.60546-.50293,1.53182,1.53182,0,0,1,.76954-.18457,1.47981,1.47981,0,0,1,.72265.165,1.19555,1.19555,0,0,1,.47266.46484,1.41239,1.41239,0,0,1,.168.7002,1.7766,1.7766,0,0,1-.24219.86621,5.40606,5.40606,0,0,1-.66211.91992q-.419.48047-.95508,1.04785c.11914-.00878.2461-.01855.38281-.02929.13477-.01075.26172-.01563.38086-.01563H9.90011v.50293Z"/><path class="cls-5" d="M31.96652,132.47168a2.09258,2.09258,0,0,1-.64063-.08984,1.81443,1.81443,0,0,1-.48632-.23536,2.00151,2.00151,0,0,1-.36329-.31836l.30079-.375a2.215,2.215,0,0,0,.48046.37208,1.3019,1.3019,0,0,0,.67188.1621,1.12537,1.12537,0,0,0,.49219-.10156.77668.77668,0,0,0,.45508-.73242.81767.81767,0,0,0-.13672-.47461.88345.88345,0,0,0-.45508-.31152,2.68045,2.68045,0,0,0-.85938-.11133v-.45215a2.11771,2.11771,0,0,0,.76368-.11133.80883.80883,0,0,0,.40429-.30566.77263.77263,0,0,0,.125-.42969.67989.67989,0,0,0-.21094-.52539.81679.81679,0,0,0-.57812-.19434,1.09707,1.09707,0,0,0-.52539.13086,1.75269,1.75269,0,0,0-.44336.334l-.3125-.36914a2.762,2.762,0,0,1,.584-.4043,1.52972,1.52972,0,0,1,.71485-.16211,1.753,1.753,0,0,1,.70508.13379,1.09608,1.09608,0,0,1,.48242.3916,1.07273,1.07273,0,0,1,.17578.62012,1.01269,1.01269,0,0,1-.22852.68164,1.42059,1.42059,0,0,1-.59961.40137v.02539a1.54484,1.54484,0,0,1,.4961.22265,1.18111,1.18111,0,0,1,.35742.38477,1.08025,1.08025,0,0,1,.13281.55078,1.16211,1.16211,0,0,1-.20312.69434,1.33429,1.33429,0,0,1-.541.44238A1.788,1.788,0,0,1,31.96652,132.47168Z"/><path class="cls-5" d="M56.06222,132.38867v-3.0498c0-.11426.00391-.25782.01367-.42969q.01173-.25782.01758-.43652h-.02539c-.05859.10644-.11914.21191-.18164.31543-.06055.10449-.125.21289-.19336.32812l-1.0625,1.55371H57.2341v.46485h-3.209V130.752l1.94141-2.90332h.64258v4.54Z"/><path class="cls-5" d="M79.17355,132.47168a2.07059,2.07059,0,0,1-.63867-.08984,1.88514,1.88514,0,0,1-.48438-.22852,2.8289,2.8289,0,0,1-.373-.2998l.293-.38184a2.51908,2.51908,0,0,0,.29687.252,1.41614,1.41614,0,0,0,.84961.26367,1.00191,1.00191,0,0,0,.5-.12695.96077.96077,0,0,0,.35937-.35644,1.06472,1.06472,0,0,0,.13477-.54786,1.0031,1.0031,0,0,0-.26562-.74121.94711.94711,0,0,0-.70313-.26464,1.01037,1.01037,0,0,0-.40039.07324,2.48463,2.48463,0,0,0-.377.207l-.31055-.19727.15234-2.18457h2.26563v.50293H78.71652l-.12109,1.35059a1.40381,1.40381,0,0,1,.32031-.1377,1.42749,1.42749,0,0,1,.3789-.04687,1.64363,1.64363,0,0,1,.707.14941,1.16369,1.16369,0,0,1,.50976.46485,1.53611,1.53611,0,0,1,.19141.80468,1.52022,1.52022,0,0,1-.22071.835,1.44058,1.44058,0,0,1-.57031.52149A1.59643,1.59643,0,0,1,79.17355,132.47168Z"/><path class="cls-5" d="M103.02121,132.47168a1.45942,1.45942,0,0,1-.623-.13379,1.33638,1.33638,0,0,1-.49805-.40723,2.05655,2.05655,0,0,1-.32617-.68457,3.43706,3.43706,0,0,1-.11914-.959,4.17283,4.17283,0,0,1,.14063-1.16113,2.239,2.239,0,0,1,.38281-.78321,1.44906,1.44906,0,0,1,.55273-.43945,1.593,1.593,0,0,1,.65039-.13672,1.37907,1.37907,0,0,1,.63672.13672,1.64429,1.64429,0,0,1,.457.34082l-.32422.36231a.93844.93844,0,0,0-.334-.26075.94806.94806,0,0,0-.41016-.0957,1.02537,1.02537,0,0,0-.59961.19141,1.30962,1.30962,0,0,0-.43945.63671,3.59939,3.59939,0,0,0-.16406,1.209,3.14876,3.14876,0,0,0,.12109.94629,1.24,1.24,0,0,0,.34571.582.79779.79779,0,0,0,.54492.19727.70806.70806,0,0,0,.41015-.124.8498.8498,0,0,0,.28711-.34668,1.2078,1.2078,0,0,0,.10547-.52246,1.29218,1.29218,0,0,0-.0957-.51562.73361.73361,0,0,0-.2832-.334.86082.86082,0,0,0-.46875-.11816,1.0015,1.0015,0,0,0-.48438.14648,1.526,1.526,0,0,0-.49609.49707l-.01953-.459a1.87163,1.87163,0,0,1,.32617-.33106,1.35059,1.35059,0,0,1,.3789-.21289,1.11551,1.11551,0,0,1,.38477-.07324,1.44006,1.44006,0,0,1,.6875.15625,1.05169,1.05169,0,0,1,.45117.46777,1.6809,1.6809,0,0,1,.16016.77637,1.54078,1.54078,0,0,1-.18164.76074,1.31947,1.31947,0,0,1-.48828.50977A1.28054,1.28054,0,0,1,103.02121,132.47168Z"/><path class="cls-5" d="M125.97824,132.38867a11.7765,11.7765,0,0,1,.11328-1.18066,6.382,6.382,0,0,1,.24023-1.01563,6.01238,6.01238,0,0,1,.39063-.92676,7.49782,7.49782,0,0,1,.57226-.91406H125.029v-.50293h2.92187v.35742a7.1853,7.1853,0,0,0-.65625.98633,5.24851,5.24851,0,0,0-.40039.958,6.45516,6.45516,0,0,0-.21679,1.03223q-.07032.54345-.09571,1.20605Z"/><path class="cls-5" d="M148.88644,117.56836V117.084h1.04492v-3.34863h-.834v-.36914a3.57811,3.57811,0,0,0,.543-.13965,2.29364,2.29364,0,0,0,.42383-.19824h.44531V117.084h.9375v.48438Z"/><path class="cls-5" d="M150.1091,132.47168a1.78834,1.78834,0,0,1-.76953-.15918,1.28219,1.28219,0,0,1-.5293-.43945,1.11788,1.11788,0,0,1-.19141-.64356,1.09751,1.09751,0,0,1,.125-.53125,1.44272,1.44272,0,0,1,.32032-.40722,2.20705,2.20705,0,0,1,.4082-.29v-.02539a1.91787,1.91787,0,0,1-.44336-.43653,1.01465,1.01465,0,0,1-.1875-.61426,1.09742,1.09742,0,0,1,.16992-.61132,1.12061,1.12061,0,0,1,.457-.4043,1.46985,1.46985,0,0,1,.6543-.14258,1.45213,1.45213,0,0,1,.6875.15235,1.08192,1.08192,0,0,1,.43945.42675,1.26212,1.26212,0,0,1,.15235.624,1.04464,1.04464,0,0,1-.09961.45215,1.52766,1.52766,0,0,1-.24219.37207,2.44148,2.44148,0,0,1-.27539.2705v.02539a3.08015,3.08015,0,0,1,.3789.27735,1.262,1.262,0,0,1,.291.37207,1.14894,1.14894,0,0,1,.11328.52929,1.084,1.084,0,0,1-.18164.60743,1.24425,1.24425,0,0,1-.50976.43652A1.749,1.749,0,0,1,150.1091,132.47168Zm.00586-.43359a1.02518,1.02518,0,0,0,.47461-.10157.745.745,0,0,0,.42382-.6875.70445.70445,0,0,0-.10156-.38183.9548.9548,0,0,0-.27148-.27442,2.42632,2.42632,0,0,0-.39063-.21289c-.14844-.06543-.30664-.13086-.4707-.19433a1.67675,1.67675,0,0,0-.46289.42675.93611.93611,0,0,0-.18164.56641.8019.8019,0,0,0,.12695.43945.87145.87145,0,0,0,.35352.3086A1.11821,1.11821,0,0,0,150.115,132.03809Zm.3125-2.12012a1.717,1.717,0,0,0,.35351-.43555.992.992,0,0,0,.12305-.48144.86721.86721,0,0,0-.0918-.4043.70375.70375,0,0,0-.26953-.28906.80925.80925,0,0,0-.42773-.1084.75008.75008,0,0,0-.53516.19726.69494.69494,0,0,0-.209.52832.678.678,0,0,0,.14843.45215,1.25962,1.25962,0,0,0,.39258.30274Q150.155,129.80421,150.42746,129.918Z"/><rect class="cls-2" x="39.04187" y="151.97665" width="12.3894" height="10.83726"/><path class="cls-6" d="M56.987,157.79785q.208-.04687.59863-.15039.39111-.104.89258-.24023.501-.1377,1.02246-.291l.02734.08008q-.35449.21387-.88281.52148-.52881.30762-1.23633.67481a.24163.24163,0,0,1-.06055.11719.20656.20656,0,0,1-.10058.06347Zm.07422-1.751H58.6921l.30762-.46192q.20069.1875.334.31152a3.31912,3.31912,0,0,1,.23437.23731c-.01855.07129-.07812.10644-.18066.10644H57.114Zm.90234-1.55762.85547.08691a.20633.20633,0,0,1-.07031.11621.34174.34174,0,0,1-.17676.07032V159.917a1.2863,1.2863,0,0,1-.05371.3916.47015.47015,0,0,1-.22364.26075,1.37585,1.37585,0,0,1-.52539.12988,1.90074,1.90074,0,0,0-.04-.25391.4053.4053,0,0,0-.09375-.1875.45346.45346,0,0,0-.17382-.123,1.32374,1.32374,0,0,0-.31348-.084v-.10058c.11523.00976.21387.01562.29394.0205.08008.00391.15723.00879.23047.01368.07325.0039.126.00585.15723.00585a.154.154,0,0,0,.10645-.02636.1266.1266,0,0,0,.02734-.09375Zm1.78418,3.58984.876.16016a.17774.17774,0,0,1-.07032.10351.34385.34385,0,0,1-.16992.05664,4.52142,4.52142,0,0,1-.331,1.04,2.72,2.72,0,0,1-.51856.75489,2.77341,2.77341,0,0,1-.71484.51855l-.07324-.08008a3.21664,3.21664,0,0,0,.70507-1.07324A4.29251,4.29251,0,0,0,59.74777,158.0791Zm-.42774-.54883h2.90821l.36816-.4541c.084.07129.16211.13379.2334.18653.07129.05371.14453.1123.2207.17382.07618.0625.14453.12305.207.18067-.01757.06738-.07812.10058-.18066.10058H59.37375Zm.44141-2.59375v-.27343l.6416.27343h2.0127v.1875H60.37668v1.93848c0,.01758-.02637.04395-.08008.07715a.86553.86553,0,0,1-.19727.08691.8383.8383,0,0,1-.251.03614h-.08691Zm.32129,3.89746a1.86246,1.86246,0,0,0,.42773.72559,1.28241,1.28241,0,0,0,.6211.32715,4.00079,4.00079,0,0,0,.876.084h.40821c.16894,0,.34082-.001.51465-.0039.17382-.002.31836-.00293.43457-.00293v.08691a.28863.28863,0,0,0-.21094.17383.78115.78115,0,0,0-.07031.34082H61.97433a3.19458,3.19458,0,0,1-.72168-.07324,1.41656,1.41656,0,0,1-.55566-.26074,1.54357,1.54357,0,0,1-.41114-.51856,3.51362,3.51362,0,0,1-.2832-.8457Zm-.01367-3.03515H62.4089v.1875H60.06906Zm.02051.85644h2.33886v.19336H60.08957Zm.82812.875h.6084v2.64746l-.6084-.12695Zm.32813,1.14356h.81543l.36132-.48145c.08887.07617.168.1416.23731.19727.06836.05566.14062.11621.2168.18066a2.23756,2.23756,0,0,1,.20019.19043c-.01758.07129-.07519.10645-.17383.10645H61.24582Zm.84863-3.73731H62.028l.30762-.34082.6543.502a.33048.33048,0,0,1-.10352.07617.61694.61694,0,0,1-.17676.05664v1.75195c0,.01758-.02929.041-.08691.07031a1.32847,1.32847,0,0,1-.2041.08008.732.732,0,0,1-.2168.03711h-.10742Z"/><path class="cls-6" d="M66.17257,154.48926l.92286.28711a.19218.19218,0,0,1-.084.10058.30357.30357,0,0,1-.17676.03321,10.35375,10.35375,0,0,1-.55859,1.22656,8.08835,8.08835,0,0,1-.67481,1.05957,6.32073,6.32073,0,0,1-.77246.85547l-.08691-.05957a8.32547,8.32547,0,0,0,.542-.99317q.26661-.57129.498-1.21679A13.39064,13.39064,0,0,0,66.17257,154.48926Zm-.53418,2.09179.19336-.24023.65528.24023c-.02246.0625-.0918.10547-.207.127v3.791c0,.01758-.02735.043-.08008.07618a.84258.84258,0,0,1-.19727.08691.81726.81726,0,0,1-.24414.03711h-.12012Zm2.15918,2.06543.8418.415a.14571.14571,0,0,1-.07715.07325.32782.32782,0,0,1-.16992.01367,4.12279,4.12279,0,0,1-.502.57129,5.23975,5.23975,0,0,1-.6709.54785,4.837,4.837,0,0,1-.793.44531l-.05957-.08008a4.20013,4.20013,0,0,0,.60156-.60547,5.86839,5.86839,0,0,0,.49414-.70507A4.5908,4.5908,0,0,0,67.79757,158.64648Zm-1.331-.4746h3.6709l.35351-.48731c.08985.07129.16895.13672.23731.19727q.104.08935.21386.19043c.07422.0664.13965.1289.19727.18652-.01269.07129-.07129.10742-.17383.10742H66.52023Zm.168-1.98536h3.38867l.35449-.47461c.085.07618.16016.14161.22754.19727.06641.05566.13574.11621.207.18066s.13574.126.19336.1836c-.01269.07129-.07129.10742-.17383.10742H66.68722Zm.82226-1.61035.875.08692a.21687.21687,0,0,1-.0664.11621.32363.32363,0,0,1-.17383.07031v3.43652h-.63477Zm1.624,4.18457a4.34543,4.34543,0,0,1,.98242.43457,2.29367,2.29367,0,0,1,.57812.48828,1.20862,1.20862,0,0,1,.24805.46094.55919.55919,0,0,1-.0166.36035.29971.29971,0,0,1-.21094.18067.44608.44608,0,0,1-.331-.08008,2.6301,2.6301,0,0,0-.22364-.46777,5.00892,5.00892,0,0,0-.32812-.48145q-.18311-.24024-.38086-.4541c-.13184-.14258-.25977-.27246-.38379-.3877Zm.08691-4.17871.88281.08106a.23343.23343,0,0,1-.06347.123.33916.33916,0,0,1-.18457.07032v3.42968h-.63477Z"/><path class="cls-6" d="M73.4255,155.29785a1.47815,1.47815,0,0,1,.127.61817.971.971,0,0,1-.11719.44824.65521.65521,0,0,1-.251.25683.47112.47112,0,0,1-.30078.03711.24986.24986,0,0,1-.207-.17675.27612.27612,0,0,1,.0332-.25782.49154.49154,0,0,1,.208-.16406.78449.78449,0,0,0,.30371-.29.67662.67662,0,0,0,.09668-.46484Zm4.78614.32129v.19336H73.35226v-.19336Zm-4.82618,1.25c.10254-.00879.24414-.02246.42383-.04q.271-.02783.60547-.07031.334-.044.68164-.084l.01367.09375q-.21385.09375-.542.23731c-.21777.0957-.47461.20117-.76855.31738a.22653.22653,0,0,1-.07032.10059.25634.25634,0,0,1-.08984.04687Zm.64161,2.76758c0,.01758-.02637.042-.08008.07324a1.07958,1.07958,0,0,1-.19727.08692.78152.78152,0,0,1-.251.04H73.405v-2.52734l.66894.28125h3.36914v.19336h-3.416Zm3.3291-5.14746c.14746.11133.27246.207.37793.28711a3.43763,3.43763,0,0,1,.27734.23437c-.01855.07129-.07812.10645-.18066.10645h-4.3584l-.05371-.19336h3.583Zm-3.75,1.54394a2.65653,2.65653,0,0,1,.76855-.03027,1.14536,1.14536,0,0,1,.458.14746.44711.44711,0,0,1,.19336.2168.20518.20518,0,0,1-.02637.19726.22187.22187,0,0,1-.21094.07032,2.23473,2.23473,0,0,0-.34375-.19043q-.21093-.09669-.4414-.18067a3.034,3.034,0,0,0-.4375-.124Zm3.89062,3.15528v.19336H73.80636v-.19336Zm.00684-.81543v.19336H73.8132v-.19336ZM75.9255,159.7832c0,.11133.01563.17969.04688.2041a.51455.51455,0,0,0,.2539.03711h1.61817a1.51318,1.51318,0,0,0,.20019-.01074.15726.15726,0,0,0,.11329-.06347,2.69257,2.69257,0,0,0,.2207-.62793h.08008l.01367.60839a1.41532,1.41532,0,0,1,.22363.11329.13524.13524,0,0,1,.04395.11425.29478.29478,0,0,1-.08008.207.543.543,0,0,1-.28418.12989,2.82288,2.82288,0,0,1-.56543.04394H76.20578a2.17635,2.17635,0,0,1-.56739-.05664.38422.38422,0,0,1-.26464-.23144,1.38626,1.38626,0,0,1-.07032-.501v-2.15918h.62207Zm.06641-2.47363c0,.01367-.0459.04-.13965.08105a.99256.99256,0,0,1-.38183.05958H75.364v-2.52637h.62793Zm.19434-.6084a3.30357,3.30357,0,0,1,.86914.01758,1.50148,1.50148,0,0,1,.52148.17676.48791.48791,0,0,1,.2207.24023.20487.20487,0,0,1-.03027.208.25361.25361,0,0,1-.22363.06641,3.48716,3.48716,0,0,0-.39844-.2168c-.16211-.07813-.332-.15332-.50781-.22461a4.1242,4.1242,0,0,0-.49121-.167Zm1.55761-.38769c-.04492.03613-.10742.02929-.1875-.01953-.08886.02246-.21.0498-.36426.083q-.23.05127-.49414.09375c-.17675.0293-.34277.05078-.498.06348l-.03418-.08008c.12988-.05762.26953-.1289.42187-.21387.15137-.085.29492-.168.43067-.251.13574-.082.24414-.15039.32422-.20313Zm-.6084,1.27734.30762-.334.64844.49414a.30007.30007,0,0,1-.09668.07031.61582.61582,0,0,1-.1709.05664v1.55078c0,.01856-.0293.042-.08691.07031a1.14,1.14,0,0,1-.207.07715.84379.84379,0,0,1-.22754.03321H77.196v-2.01856Zm.72852-1.97168.34082-.34766.61523.5879a.224.224,0,0,1-.09668.04687.98734.98734,0,0,1-.15722.01953,2.73744,2.73744,0,0,1-.35449.34473,4.99917,4.99917,0,0,1-.40723.31054l-.06738-.04687c.02636-.084.05273-.18262.07715-.29395s.04785-.22265.07031-.334c.02148-.11133.04-.207.05273-.28711Z"/><path class="cls-6" d="M82.67062,155.29785q.208.15967.35156.28027c.09571.08106.17871.15626.25.22754-.01758.07129-.07519.10743-.17383.10743H80.37179l-.05371-.19434h2.03223Zm-.27344.916q.20068.15381.33106.26367c.08691.07324.165.14648.2373.21777-.01855.07129-.07617.10645-.17383.10645H80.67257l-.05371-.19336H82.0964Zm0,.90918q.20068.15381.33106.26367c.08691.07324.165.14648.2373.21777-.01855.07129-.07617.10645-.17383.10645H80.67257l-.05371-.19336H82.0964Zm-1.10351,3.3623q0,.02637-.07324.07324a.72245.72245,0,0,1-.18067.08008.7765.7765,0,0,1-.23437.03418h-.08008v-2.52734l.5957.24707h1.14258v.19433H81.29367Zm1.20312-.59473v.19336H81.06027v-.19336ZM81.153,154.54883a1.92762,1.92762,0,0,1,.61914.1709.817.817,0,0,1,.31739.26367.49019.49019,0,0,1,.08691.28418.35561.35561,0,0,1-.09375.23047.348.348,0,0,1-.2207.11035.38988.38988,0,0,1-.28028-.08985,1.40944,1.40944,0,0,0-.18066-.50488,2.19054,2.19054,0,0,0-.30762-.4248Zm1.0166,3.84375.28711-.31348.62207.47461a.45648.45648,0,0,1-.10351.07031.65938.65938,0,0,1-.16406.05664v1.61719c0,.01758-.02637.041-.08008.07031a1.02846,1.02846,0,0,1-.19043.07715.71766.71766,0,0,1-.21094.03321h-.09375v-2.08594Zm3.78321-2.23926c.08984.07129.16894.13574.2373.19434.06934.05761.1416.11914.21778.18359.07519.06445.14453.12793.207.19043-.01758.07129-.07618.10742-.17383.10742h-3.3086l-.05371-.19433H85.5925Zm.31445-1.07617a.20031.20031,0,0,1-.14062.0498.617.617,0,0,1-.22657-.043c-.22363.07129-.48144.1377-.77539.2002q-.44238.09375-.92969.16406-.48779.07032-.96972.09668l-.02637-.09961a9.19684,9.19684,0,0,0,.90234-.25781q.46143-.15673.86622-.334a5.74323,5.74323,0,0,0,.6582-.33106Zm-2.34668,5.43457c0,.01855-.02441.043-.07324.07422a.80747.80747,0,0,1-.1875.083.77356.77356,0,0,1-.24024.0371h-.08691v-2.915l.62207.26074h1.8584v.19433H83.92062Zm1.8252-.52734v.19335H83.62668v-.19335Zm-.748-1.832h-.5752v-2.9082l.5752-.17383Zm.43359-.10058.30762-.334.65527.501a.35253.35253,0,0,1-.11328.08105.74222.74222,0,0,1-.1875.05958v2.1123c0,.01367-.02734.0332-.083.06055a1.24371,1.24371,0,0,1-.19726.07031.86725.86725,0,0,1-.21387.03027h-.09375v-2.58105Z"/><path class="cls-6" d="M92.05734,156.27344l.44726-.38086.65528.6289a.30132.30132,0,0,1-.127.05957,1.18945,1.18945,0,0,1-.22071.02735,4.65686,4.65686,0,0,1-.84179.80469,7.57584,7.57584,0,0,1-1.127.70214,10.0867,10.0867,0,0,1-1.31054.5586,11.11964,11.11964,0,0,1-1.4004.38769l-.04687-.09375a10.13171,10.13171,0,0,0,1.28418-.49121,8.995,8.995,0,0,0,1.16992-.64844,6.74128,6.74128,0,0,0,.95606-.75585,3.88015,3.88015,0,0,0,.65429-.79883ZM88.989,155.044a1.90172,1.90172,0,0,1,.11621.665,1.115,1.115,0,0,1-.11328.48829.79675.79675,0,0,1-.251.29687.49317.49317,0,0,1-.207.07422.40269.40269,0,0,1-.21094-.03027.28564.28564,0,0,1-.14355-.14356.29089.29089,0,0,1,.02051-.26465.55076.55076,0,0,1,.207-.19043.80524.80524,0,0,0,.24023-.20019,1.02681,1.02681,0,0,0,.18067-.31446.90526.90526,0,0,0,.05371-.38085Zm2.125.90917a.16892.16892,0,0,1-.09961.08008.35417.35417,0,0,1-.18066.00684,4.76118,4.76118,0,0,1-1.083,1.10937,5.69582,5.69582,0,0,1-1.25.69532l-.06738-.08692a4.6312,4.6312,0,0,0,.67187-.56445,6.61449,6.61449,0,0,0,.64551-.75586,5.3048,5.3048,0,0,0,.52832-.88574Zm2.52051-.56152v.19336h-4.7666v-.19336Zm-3.48926,5.09375c0,.01758-.02148.042-.06348.07324a.68388.68388,0,0,1-.17773.08692.80782.80782,0,0,1-.27344.04h-.11426v-2.19239l.06739-.08007.64843.2539h-.08691Zm2.52051-.44824v.19434H89.77023v-.19434Zm.01953-1.37012v.19434H89.80441V158.667Zm-2.56738-2.27929a2.79825,2.79825,0,0,0,.71875.75878,4.57151,4.57151,0,0,0,1.00976.54786,7.82262,7.82262,0,0,0,1.20313.36425,10.46,10.46,0,0,0,1.28711.2002l-.00684.08105a.60194.60194,0,0,0-.34375.2002.90253.90253,0,0,0-.18457.38086,8.1366,8.1366,0,0,1-1.584-.48438,4.94591,4.94591,0,0,1-1.29-.792,3.60782,3.60782,0,0,1-.90235-1.18359Zm2.34668-.11426v.19433h-2.2793l.12012-.19433ZM90.613,154.48926a1.88541,1.88541,0,0,1,.62207.09277.7305.7305,0,0,1,.32422.21485.38294.38294,0,0,1,.08985.25683.35233.35233,0,0,1-.30762.33789.43288.43288,0,0,1-.28711-.07422,1.09482,1.09482,0,0,0-.17773-.4375,1.3074,1.3074,0,0,0-.31739-.34375Zm1.61133,4.17773.30762-.32715.6416.48731a.27957.27957,0,0,1-.09082.06738.62031.62031,0,0,1-.15625.05371v1.53711c0,.01367-.03027.0332-.09082.06055a1.59391,1.59391,0,0,1-.21387.07324.85564.85564,0,0,1-.22363.0332H92.2839V158.667Zm1.06934-3.27539.34765-.35449.62207.59473a.44325.44325,0,0,1-.25488.07324,4.76705,4.76705,0,0,1-.35742.37793,3.72953,3.72953,0,0,1-.41113.35156l-.07325-.04687c.02637-.09375.05274-.20215.07715-.32422.02442-.12305.04883-.24414.07324-.36426.02442-.1211.041-.22266.04981-.30762Z"/><path class="cls-6" d="M96.27414,154.90332v-.26758l.69531.26758H96.863v1.959q0,.44092-.0166.94239a7.307,7.307,0,0,1-.10742,1.01562,4.84445,4.84445,0,0,1-.28418.9961,3.12966,3.12966,0,0,1-.54785.88964l-.10059-.05371a5.07833,5.07833,0,0,0,.33106-1.19629,10.87476,10.87476,0,0,0,.11718-1.30078q.02052-.665.01954-1.293Zm.27441,0H97.9255v.1875H96.54855Zm0,1.52441H97.9255v.19336H96.54855Zm0,1.57715H97.9255v.19434H96.54855Zm1.083-3.10156H97.571l.28809-.334.62793.49414a.28492.28492,0,0,1-.08985.06738.62848.62848,0,0,1-.15722.05371v4.71875a1.32851,1.32851,0,0,1-.04981.38477.45133.45133,0,0,1-.2207.26074,1.358,1.358,0,0,1-.52539.12988,1.39135,1.39135,0,0,0-.03321-.25976.396.396,0,0,0-.08691-.18067.46993.46993,0,0,0-.17383-.12695,1.09173,1.09173,0,0,0-.30761-.08106v-.09961c.11132.00391.20605.00977.28418.01661s.15136.01269.2207.0166c.06933.00488.11719.00683.14355.00683a.14484.14484,0,0,0,.11426-.0332.16069.16069,0,0,0,.02637-.10059Zm1.14355,0v-.27441l.68848.27441h-.08691v5.60156c0,.01367-.02051.03711-.06055.07032a.56372.56372,0,0,1-.1709.09082.8025.8025,0,0,1-.27051.04h-.09961Zm.32032,2.20606h2.2666v.19433H99.156Zm.00683-2.20606h2.21289v.1875H99.10226Zm2.02539,2.20606h-.07324l.34766-.34766.60156.52832a.14511.14511,0,0,1-.084.06641.86294.86294,0,0,1-.16992.03417,6.23741,6.23741,0,0,1-.41113,1.20606,4.47042,4.47042,0,0,1-.71875,1.09961,3.88307,3.88307,0,0,1-1.14356.86914l-.0664-.08691a3.7505,3.7505,0,0,0,.8623-.94629,5.36367,5.36367,0,0,0,.5586-1.166A6.78833,6.78833,0,0,0,101.12765,157.10938Zm-1.29687.01367a4.52257,4.52257,0,0,0,.32812,1.043,3.4562,3.4562,0,0,0,1.20313,1.43066,4.71969,4.71969,0,0,0,.82226.44727l-.02051.07324a.66093.66093,0,0,0-.35449.16406.9144.9144,0,0,0-.24023.36426,3.96762,3.96762,0,0,1-.70215-.58789,3.50756,3.50756,0,0,1-.53125-.74512,4.71989,4.71989,0,0,1-.374-.94629,8.19972,8.19972,0,0,1-.23731-1.19629Zm1.2373-2.21973h-.06738l.31445-.30762.59473.48145a.23324.23324,0,0,1-.08692.06055.59859.59859,0,0,1-.15332.04c-.00488.2627-.0166.48536-.03711.668a2.00914,2.00914,0,0,1-.08984.44141.54809.54809,0,0,1-.17383.25391.7636.7636,0,0,1-.28808.124,1.86711,1.86711,0,0,1-.39453.03613.88524.88524,0,0,0-.02344-.21387.28438.28438,0,0,0-.09668-.15332.53261.53261,0,0,0-.22363-.11328,2.56938,2.56938,0,0,0-.33106-.07422l.00684-.0996c.07519.0039.165.01074.26757.01953s.19922.01562.29.0205c.0918.00391.15723.00684.19727.00684a.43219.43219,0,0,0,.11035-.01074.14231.14231,0,0,0,.06348-.03613.68073.68073,0,0,0,.08691-.34766C101.05246,155.50684,101.0632,155.24219,101.06808,154.90332Z"/><path class="cls-6" d="M104.029,154.90332v-.26758l.69531.26758h-.10644v1.959q0,.44092-.01661.94239a7.30543,7.30543,0,0,1-.10742,1.01562,4.84382,4.84382,0,0,1-.28418.9961,3.12943,3.12943,0,0,1-.54785.88964l-.10058-.05371a5.07784,5.07784,0,0,0,.33105-1.19629,10.87475,10.87475,0,0,0,.11719-1.30078q.02051-.665.01953-1.293Zm.27441,0h1.377v.1875h-1.377Zm0,1.52441h1.377v.19336h-1.377Zm0,1.57715h1.377v.19434h-1.377Zm1.083-3.10156h-.06055l.28809-.334.62793.49414a.285.285,0,0,1-.08984.06738.62856.62856,0,0,1-.15723.05371v4.71875a1.32816,1.32816,0,0,1-.04981.38477.45133.45133,0,0,1-.2207.26074,1.358,1.358,0,0,1-.52539.12988,1.39141,1.39141,0,0,0-.0332-.25976.39608.39608,0,0,0-.08692-.18067.46989.46989,0,0,0-.17382-.12695,1.0919,1.0919,0,0,0-.30762-.08106v-.09961c.11133.00391.20605.00977.28418.01661s.15137.01269.2207.0166c.06934.00488.11719.00683.14356.00683a.14483.14483,0,0,0,.11425-.0332.16069.16069,0,0,0,.02637-.10059Zm1.14356,0v-.27441l.68847.27441h-.08691v5.60156c0,.01367-.02051.03711-.06055.07032a.56372.56372,0,0,1-.1709.09082.80246.80246,0,0,1-.27051.04H106.53Zm.32031,2.20606h2.2666v.19433h-2.20606Zm.00683-2.20606H109.07v.1875h-2.21289Zm2.02539,2.20606h-.07324l.34766-.34766.60156.52832a.14512.14512,0,0,1-.084.06641.86307.86307,0,0,1-.16993.03417,6.23674,6.23674,0,0,1-.41113,1.20606,4.47042,4.47042,0,0,1-.71875,1.09961,3.88315,3.88315,0,0,1-1.14355.86914l-.06641-.08691a3.75073,3.75073,0,0,0,.86231-.94629,5.36409,5.36409,0,0,0,.55859-1.166A6.78753,6.78753,0,0,0,108.88253,157.10938Zm-1.29687.01367a4.52257,4.52257,0,0,0,.32812,1.043,3.4562,3.4562,0,0,0,1.20313,1.43066,4.71978,4.71978,0,0,0,.82227.44727l-.02051.07324a.66087.66087,0,0,0-.35449.16406.91441.91441,0,0,0-.24024.36426,3.968,3.968,0,0,1-.70215-.58789,3.50791,3.50791,0,0,1-.53125-.74512,4.71989,4.71989,0,0,1-.374-.94629,8.19972,8.19972,0,0,1-.23731-1.19629Zm1.2373-2.21973h-.06738l.31445-.30762.59473.48145a.23319.23319,0,0,1-.08691.06055.59881.59881,0,0,1-.15332.04c-.00489.2627-.0166.48536-.03711.668a2.00966,2.00966,0,0,1-.08985.44141.54815.54815,0,0,1-.17382.25391.76364.76364,0,0,1-.28809.124,1.867,1.867,0,0,1-.39453.03613.88474.88474,0,0,0-.02344-.21387.28432.28432,0,0,0-.09668-.15332.53261.53261,0,0,0-.22363-.11328,2.569,2.569,0,0,0-.33106-.07422l.00684-.0996c.07519.0039.165.01074.26758.01953s.19922.01562.29.0205c.09179.00391.15722.00684.19726.00684a.43213.43213,0,0,0,.11035-.01074.14231.14231,0,0,0,.06348-.03613.68062.68062,0,0,0,.08691-.34766C108.80734,155.50684,108.81808,155.24219,108.823,154.90332Z"/><path class="cls-6" d="M112.47921,156.68164h.64161v.10645a5.53555,5.53555,0,0,1-.67774,1.47753,5.24725,5.24725,0,0,1-1.07324,1.19727l-.08691-.081a4.7278,4.7278,0,0,0,.52148-.81153,7.51508,7.51508,0,0,0,.39746-.92969A8.43892,8.43892,0,0,0,112.47921,156.68164ZM111.363,156.668h2.52735v.1875h-2.4668Zm.10743-1.751h2.293v.19336H111.53Zm1.083,1.77149h.6084V159.877a1.26061,1.26061,0,0,1-.05762.39453.52505.52505,0,0,1-.2373.28711,1.27678,1.27678,0,0,1-.55469.14746,1.09587,1.09587,0,0,0-.04-.26757.4729.4729,0,0,0-.10058-.1875.57013.57013,0,0,0-.20313-.13379,1.64931,1.64931,0,0,0-.37793-.08692v-.09277q.21387.01319.35742.02344c.09571.00586.1875.01172.27442.0166.08691.00391.14746.00684.18359.00684a.15679.15679,0,0,0,.11719-.03418.13509.13509,0,0,0,.03027-.09375Zm-.50879-1.15039a2.48235,2.48235,0,0,1,.69532.17382,1.16425,1.16425,0,0,1,.40136.27149.59779.59779,0,0,1,.15723.29687.37131.37131,0,0,1-.03711.251.27615.27615,0,0,1-.17676.13379.404.404,0,0,1-.27734-.05078,1.6169,1.6169,0,0,0-.2041-.37012,3.22491,3.22491,0,0,0-.30078-.36133,3.11061,3.11061,0,0,0-.31739-.291Zm1.4043-.6211h-.08008l.36719-.34765.6084.58789a.17452.17452,0,0,1-.10059.05078c-.04.00586-.0957.01367-.167.02246a4.07057,4.07057,0,0,1-.35059.26758q-.21093.14794-.43164.28125-.21972.13329-.40722.22754L112.82,155.96c.06739-.09375.14161-.20312.22461-.32812q.12306-.1875.2334-.38086A3.22975,3.22975,0,0,0,113.44894,154.917Zm.2334,1.751h-.07324l.32812-.34082.59473.56152a.40315.40315,0,0,1-.26758.07324,3.32321,3.32321,0,0,1-.4209.40137,4.18827,4.18827,0,0,1-.49512.35449l-.07324-.04687c.04883-.09375.10059-.20117.15332-.32422.05371-.12207.10352-.24414.15039-.36426A2.47949,2.47949,0,0,0,113.68234,156.668Zm1.34375.80957.86914.08008a.16891.16891,0,0,1-.05957.11328.30752.30752,0,0,1-.167.06055q-.041.334-.11426.6748a3.56489,3.56489,0,0,1-.2168.67187,2.5475,2.5475,0,0,1-.39453.62793,2.84868,2.84868,0,0,1-.6416.55176,4.12715,4.12715,0,0,1-.96.44141l-.05957-.09375a3.07772,3.07772,0,0,0,.88574-.62109,2.6484,2.6484,0,0,0,.51758-.76954,3.58338,3.58338,0,0,0,.25391-.85839A6.50043,6.50043,0,0,0,115.02609,157.47754Zm1.24414-2.07324h.74121a3.3849,3.3849,0,0,1-1.19922,1.6084,5.92193,5.92193,0,0,1-2.11621.93945l-.04-.09375a5.241,5.241,0,0,0,1.708-1.01953A3.16291,3.16291,0,0,0,116.27023,155.4043Zm-2.59375,2.86816h3.1084v.19434h-3.04883Zm1.22266-3.77734.82226.30176a.17457.17457,0,0,1-.08691.08984.32184.32184,0,0,1-.17383.03027,3.80149,3.80149,0,0,1-.62793.90235,3.259,3.259,0,0,1-.78906.62109l-.07324-.05957a4.31414,4.31414,0,0,0,.52441-.82617A5.66335,5.66335,0,0,0,114.89914,154.49512Zm-.13965,1.0498a3.034,3.034,0,0,0,1.59765,1.36035,5.81692,5.81692,0,0,0,1.32325.32422l-.01368.08008a.43851.43851,0,0,0-.21.21387,1.14293,1.14293,0,0,0-.10351.38183,5.302,5.302,0,0,1-1.0127-.37793,3.2363,3.2363,0,0,1-.72949-.498,3.27576,3.27576,0,0,1-.52441-.62207,5.56286,5.56286,0,0,1-.40137-.74219Zm.04-.14648h1.75781l.36816-.48828c.08887.07617.167.14257.2334.20019.06738.0586.1377.12012.21387.1875.07617.06641.14453.12891.207.1875-.0127.07129-.07324.10645-.17969.10645h-2.60058Zm1.7373,2.874h-.07324l.32812-.31445.60157.48828a.36237.36237,0,0,1-.10059.06738.61434.61434,0,0,1-.167.04q-.03369.53467-.09668.93262a2.986,2.986,0,0,1-.168.64844.86714.86714,0,0,1-.25.36425.95818.95818,0,0,1-.32129.15039,1.63684,1.63684,0,0,1-.4209.04981,1.09576,1.09576,0,0,0-.02343-.23438.32294.32294,0,0,0-.09668-.17382.643.643,0,0,0-.23438-.11622,3.58569,3.58569,0,0,0-.35449-.09082v-.0996c.08984.0039.18847.01074.29785.01953s.21387.0166.31445.02343c.09961.00684.17188.00977.2168.00977a.34.34,0,0,0,.22754-.05957,1.00323,1.00323,0,0,0,.19726-.53516A9.44735,9.44735,0,0,0,116.53683,158.27246Z"/><rect class="cls-1" x="39.04187" y="168.91346" width="12.3894" height="10.83726"/><path class="cls-6" d="M58.71164,171.332l.92285.35449a.18826.18826,0,0,1-.08985.09278.34743.34743,0,0,1-.17773.02734,6.775,6.775,0,0,1-1.01953,1.43066,5.84958,5.84958,0,0,1-1.22656,1.00879l-.07325-.07324a6.0798,6.0798,0,0,0,.61524-.76855,8.92633,8.92633,0,0,0,.581-.98242A8.57413,8.57413,0,0,0,58.71164,171.332ZM57.0671,175.7168h5.041l.41406-.51465c.10254.08008.19336.15039.27149.21094.07715.06054.16015.125.24707.19336.08691.06933.166.13574.2373.19726-.01367.07129-.07617.10742-.1875.10742H57.12765Zm1.15723-1.78418v-.29492l.75488.29492H58.8923v1.90527h-.668Zm.38086-1.47754h3.31543l.4082-.50781c.09766.07128.18555.13671.26368.19726.07812.05957.15918.124.24414.19336s.165.13477.24023.19727a.09907.09907,0,0,1-.05664.08007.26059.26059,0,0,1-.123.02637H58.51144Zm-.02734,1.47754H61.7673l.3877-.48145c.09375.07129.17675.13574.25.19336.07421.05859.15136.11914.23144.18457.08008.06445.15332.12793.2207.19043-.01367.07129-.07421.10645-.18066.10645H58.57785Zm1.61816-1.47754h.69531v4.98633c-.00488.02246-.05566.06054-.15332.11425a.877.877,0,0,1-.415.08008h-.127Z"/><path class="cls-6" d="M66.614,171.65918a.21255.21255,0,0,1-.08691.09668.32635.32635,0,0,1-.17383.03711,5.072,5.072,0,0,1-.65528,1.00586,4.04147,4.04147,0,0,1-.78906.73242l-.08691-.06055a5.60312,5.60312,0,0,0,.52148-.92578,6.368,6.368,0,0,0,.40137-1.13965Zm-.80859,2.09277.14648.08692v3.13476l-.4541.1543.26758-.22754a.71633.71633,0,0,1,.02343.334.62746.62746,0,0,1-.09765.24121.38276.38276,0,0,1-.13379.12695l-.40039-.67578a.48912.48912,0,0,0,.167-.13672.32692.32692,0,0,0,.0332-.16406v-2.874Zm-.54883,3.15528q.1875-.041.51855-.12012.33106-.08057.74512-.1875.41456-.10693.84961-.2207l.02637.08007q-.26806.167-.74512.45118-.479.28418-1.06641.59179Zm.10058-3.583.68164.28027h-.08691v.39453h-.59473v-.6748Zm2.13965,1.9248v.19434H65.62472V175.249Zm0-.835v.19336h-1.8584v-.19336Zm.02637-.80957v.19434H65.64425v-.19434Zm-.04688-1.791q.19336.167.33106.28418c.09082.07714.1748.15234.251.22363-.01856.07129-.07813.10644-.18067.10644H65.83859v-.19335h1.31055Zm-1.22949.74218a1.63194,1.63194,0,0,1,.54395.09668.73545.73545,0,0,1,.29785.19727.37182.37182,0,0,1,.09668.22656.28583.28583,0,0,1-.06348.19727.27332.27332,0,0,1-.17383.10351.38372.38372,0,0,1-.24707-.05273,1.10009,1.10009,0,0,0-.20019-.39844,1.49049,1.49049,0,0,0-.31445-.31738Zm.41406,3.16114a2.86908,2.86908,0,0,1,.665.43164,1.61507,1.61507,0,0,1,.3545.4375.95737.95737,0,0,1,.11718.3916.47921.47921,0,0,1-.06738.28711.25046.25046,0,0,1-.19336.12012.34167.34167,0,0,1-.2539-.11036,1.98111,1.98111,0,0,0-.1377-.52148,4.14867,4.14867,0,0,0-.26074-.53418,5.014,5.014,0,0,0-.29688-.46191Zm.43458-2.11231.2871-.31445.62891.47558a.486.486,0,0,1-.27441.127v1.7041c0,.01367-.02832.03223-.084.05664a1.79444,1.79444,0,0,1-.19336.07031.6992.6992,0,0,1-.2041.03321h-.09375v-2.15235ZM69.2546,171.666a.17472.17472,0,0,1-.084.09668.33735.33735,0,0,1-.16992.0371,5.20172,5.20172,0,0,1-.51465.86524,3.43211,3.43211,0,0,1-.63574.666l-.08692-.06738a5.38757,5.38757,0,0,0,.3584-.84179,7.92238,7.92238,0,0,0,.27051-1.01661Zm-.42089,5.76269c0,.02246-.02442.04981-.07422.083a.824.824,0,0,1-.1836.09082.71507.71507,0,0,1-.24414.04h-.09961v-4.28516l.62793.27442h1.35059v.19336h-1.377Zm1.53027-5.66894c.08984.0664.167.12695.23437.18066.06641.05273.1377.11133.21387.17383.0752.0625.14453.12207.207.18066-.01757.07129-.07812.10645-.18066.10645H68.48605V172.208h1.52344Zm-1.36328.76171a1.82237,1.82237,0,0,1,.56836.12012.7709.7709,0,0,1,.30762.21485.39776.39776,0,0,1,.09277.24316.3164.3164,0,0,1-.06934.208.30434.30434,0,0,1-.1875.10351.35089.35089,0,0,1-.251-.06738,1.06265,1.06265,0,0,0-.2002-.42383,1.79187,1.79187,0,0,0-.32129-.34472Zm.80859,1.11036.27442-.32129.6416.48828a.32843.32843,0,0,1-.10352.07324.54145.54145,0,0,1-.17773.05371V176.085a1.08448,1.08448,0,0,1-.04981.34766.43911.43911,0,0,1-.2041.2373,1.25011,1.25011,0,0,1-.4873.12305,1.36016,1.36016,0,0,0-.03028-.2334.35138.35138,0,0,0-.07714-.16016.42339.42339,0,0,0-.15333-.11425,1.05074,1.05074,0,0,0-.28125-.07325v-.10058c.09766.00488.18067.00879.24708.01367.06738.00488.13281.00879.19726.01367.06445.00391.11328.00586.14453.00586a.12091.12091,0,0,0,.09961-.0332.136.136,0,0,0,.02735-.08692v-2.39257Z"/><path class="cls-6" d="M72.52316,175.49609h2.90137l.29394-.44726c.124.12012.22949.22168.31446.30371.084.083.15722.16016.21972.23047-.01269.07226-.06836.10742-.167.10742H72.57589Zm1.00195.32129.81641.34766a.1897.1897,0,0,1-.09375.084.38473.38473,0,0,1-.17383.02344,3.61978,3.61978,0,0,1-.66894.81836,3.53277,3.53277,0,0,1-.80176.55176l-.08008-.07324a3.78066,3.78066,0,0,0,.56152-.75293A4.73759,4.73759,0,0,0,73.52511,175.81738Zm-.88867-3.30859h2.794l.26757-.40137c.11133.10645.20411.19727.27735.27051a2.61527,2.61527,0,0,1,.19726.21777c-.01269.07129-.06933.10645-.167.10645H72.69015Zm.56836-.99609.81543.08691a.1602.1602,0,0,1-.05664.10351.35146.35146,0,0,1-.16406.06348v3.84375H73.2048Zm.30078,2.92773h1.57129v.1875H73.50558Zm.00684-.99609H75.0632v.19336H73.51242Zm1.083,2.42675a1.99881,1.99881,0,0,1,.625.24414,1.06765,1.06765,0,0,1,.33105.31055.55438.55438,0,0,1,.09668.30078.3731.3731,0,0,1-.08008.23438.29221.29221,0,0,1-.2041.10644.35733.35733,0,0,1-.26074-.09375,1.30032,1.30032,0,0,0-.12012-.38086,2.97309,2.97309,0,0,0-.21387-.37109,2.35556,2.35556,0,0,0-.24121-.30371Zm.20019-4.35839.83594.08691a.20955.20955,0,0,1-.06348.11328.32622.32622,0,0,1-.1709.06641v3.83105h-.60156Zm1.47754.39355v-.27344l.68848.27344h-.10059v2.24023q0,.46143-.043.93848a4.498,4.498,0,0,1-.1875.93652,2.84606,2.84606,0,0,1-1.25293,1.59375l-.08691-.0664a3.00022,3.00022,0,0,0,.64844-1.00586,4.61076,4.61076,0,0,0,.2705-1.15039,11.95867,11.95867,0,0,0,.06348-1.23926Zm.31445,1.458H78.279v.19336H76.58761Zm0,1.53027h1.64453v.1875H76.58761Zm.01953-2.98828h1.64454v.1875H76.60714Zm1.30371,0h-.0664l.29394-.35352.66211.50782a.449.449,0,0,1-.28125.14062v4.63867a1.22825,1.22825,0,0,1-.05371.38477.45538.45538,0,0,1-.23047.26074,1.5434,1.5434,0,0,1-.55175.13672,1.64949,1.64949,0,0,0-.043-.26074.39688.39688,0,0,0-.09668-.17969.62594.62594,0,0,0-.20117-.12793,1.54068,1.54068,0,0,0-.34766-.08691v-.09961c.13379.00879.24512.01562.335.01953.08887.00488.17578.00976.25977.01367.085.00488.14257.00684.17382.00684a.154.154,0,0,0,.11719-.03321.15686.15686,0,0,0,.03027-.10742Z"/><path class="cls-6" d="M80.6921,171.91309v-.294l.65528.294H82.7175v.1875H81.31418v5.29492q0,.03955-.07032.09668a.68558.68558,0,0,1-.18359.10058.74475.74475,0,0,1-.26074.043H80.6921Zm.30079.82226h1.6914v.19434h-1.6914Zm0,.84961h1.6914v.19336h-1.6914Zm1.15039.96192v-.26075l.61425.26075h1.59766v.19433h-1.624v2.11914q0,.02637-.07324.07324a.82545.82545,0,0,1-.1875.084.78223.78223,0,0,1-.24024.03613h-.08691Zm.34082-2.63379h-.06055l.28711-.31348.61523.46094a.33767.33767,0,0,1-.09375.07324.40308.40308,0,0,1-.15332.05371v1.76465c0,.01367-.02929.03515-.08691.06347a1.05842,1.05842,0,0,1-.2002.07422.84366.84366,0,0,1-.208.0293H82.4841Zm-.05371,3.543h1.9248v.19434h-1.9248Zm0,.94922h1.9248v.19434h-1.9248Zm1.2832-4.49218v-.26661l.62891.26661h1.44335v.1875H84.30832v1.81152c0,.01758-.02442.043-.07325.07324a.78823.78823,0,0,1-.19336.084.85282.85282,0,0,1-.248.03711h-.08008Zm.36133,2.63379h-.06055l.29395-.31348.61523.46777a.318.318,0,0,1-.08984.07031.43816.43816,0,0,1-.15723.04981v1.96582c0,.01758-.0293.041-.08691.07031a1.58924,1.58924,0,0,1-.19727.08008.68642.68642,0,0,1-.2168.03613h-.10058Zm0-1.81153h1.72461v.19434H84.07492Zm0,.84961h1.72461v.19336H84.07492Zm1.45019-1.67187h-.0664l.30078-.36036.68164.52149a.38957.38957,0,0,1-.10645.08008.5396.5396,0,0,1-.18066.05371v4.626a1.30883,1.30883,0,0,1-.05371.39356.47092.47092,0,0,1-.23047.26758,1.50829,1.50829,0,0,1-.56543.14062,1.3008,1.3008,0,0,0-.03613-.27441.452.452,0,0,0-.09668-.18653.635.635,0,0,0-.19141-.12695,1.43437,1.43437,0,0,0-.33691-.09375v-.10058c.124.01367.23047.02246.31738.02636.08691.00489.16992.00977.251.01367.08007.00489.13769.00684.17382.00684a.14621.14621,0,0,0,.11036-.0332.16056.16056,0,0,0,.02929-.10742Z"/><text class="cls-7" transform="translate(43.50064 17.04053)">J<tspan class="cls-8" x="7.75781" y="0">a</tspan><tspan class="cls-9" x="17.75879" y="0">n</tspan><tspan class="cls-10" x="28.2002" y="0">u</tspan><tspan class="cls-8" x="39.33984" y="0">a</tspan><tspan class="cls-11" x="49.34082" y="0">r</tspan><tspan class="cls-12" x="58.44043" y="0">y</tspan></text></g></svg>