<svg xmlns="http://www.w3.org/2000/svg" xmlns:xlink="http://www.w3.org/1999/xlink" viewBox="0 0 238.41717 275.30044"><defs><style>.cls-1{fill:url(#未命名漸層_8);filter:url(#luminosity-noclip);}.cls-2{fill:none;}.cls-3,.cls-4{fill:#fff;}.cls-4{opacity:0.5;}.cls-5{fill:#f1e7de;}.cls-6{mask:url(#mask);}.cls-7{fill:url(#新增圖樣);}</style><linearGradient id="未命名漸層_8" x1="-801.35957" y1="-852.01385" x2="-801.35957" y2="-513.29975" gradientTransform="translate(-682.15099 -508.26099) rotate(180)" gradientUnits="userSpaceOnUse"><stop offset="0" stop-color="#fff"/><stop offset="0.16985" stop-color="#c6c6c6"/><stop offset="0.39667" stop-color="gray"/><stop offset="0.6014" stop-color="#494949"/><stop offset="0.77651" stop-color="#212121"/><stop offset="0.91511" stop-color="#090909"/><stop offset="1"/></linearGradient><filter id="luminosity-noclip" x="0" y="0" width="238.41717" height="275.30044" filterUnits="userSpaceOnUse" color-interpolation-filters="sRGB"><feFlood flood-color="#fff" result="bg"/><feBlend in="SourceGraphic" in2="bg"/></filter><mask id="mask" x="0" y="0" width="238.41717" height="275.30044" maskUnits="userSpaceOnUse"><polygon class="cls-1" points="0 68.825 0 206.475 119.209 275.3 238.417 206.475 238.417 68.825 119.209 0 0 68.825"/></mask><pattern id="新增圖樣" data-name="新增圖樣" width="35.91443" height="35.91443" patternTransform="translate(0 147.64822)" patternUnits="userSpaceOnUse" viewBox="0 0 35.914 35.914"><rect class="cls-2" width="35.91443" height="35.91443"/><rect class="cls-3" y="17.95722" width="17.95722" height="17.95722"/><rect class="cls-4" x="17.95722" y="17.95722" width="17.95722" height="17.95722"/><rect class="cls-4" width="17.95722" height="17.95722"/><rect class="cls-3" x="17.95722" width="17.95722" height="17.95722"/></pattern></defs><g id="圖層_6" data-name="圖層 6"><polygon class="cls-5" points="238.417 206.475 238.417 68.825 119.209 0 0 68.825 0 206.475 119.209 275.3 238.417 206.475"/><g class="cls-6"><polygon class="cls-7" points="0 68.825 0 206.475 119.209 275.3 238.417 206.475 238.417 68.825 119.209 0 0 68.825"/></g><rect class="cls-2" x="-69.29535" y="-22.93833" width="377.00787" height="313.85276"/></g></svg>