<?xml version="1.0" encoding="utf-8"?>
<!-- Generator: Adobe Illustrator 24.2.1, SVG Export Plug-In . SVG Version: 6.00 Build 0)  -->
<svg version="1.1" id="圖層_1" xmlns="http://www.w3.org/2000/svg" xmlns:xlink="http://www.w3.org/1999/xlink" x="0px" y="0px"
	 viewBox="0 0 157.9 184.1" style="enable-background:new 0 0 157.9 184.1;" xml:space="preserve">
<style type="text/css">
	.st0{fill:#F5D0CF;}
	.st1{fill:#C8E6DF;}
	.st2{fill:#EA9FA6;}
	.st3{fill:#231815;}
	.st4{fill:#898989;}
	.st5{fill:#3E3A39;}
	.st6{enable-background:new    ;}
	.st7{fill:#599EB0;}
</style>
<g id="圖層_6">
	<rect x="44.8" y="108.3" class="st0" width="113.1" height="13.8"/>
	<rect y="108.3" class="st1" width="43.8" height="13.8"/>
	<rect x="142.2" y="93.6" class="st1" width="15.7" height="13.8"/>
	<rect y="123" class="st0" width="15.7" height="13.8"/>
	<path class="st2" d="M5.8,36.2v-0.5l1.1,0.5h3.9v0.2h-4v6.4c0,0,0,0.1-0.1,0.2c-0.1,0.1-0.2,0.1-0.3,0.2c-0.1,0-0.3,0.1-0.4,0.1
		H5.8V36.2z M6.3,39.1h4.4v0.2H6.3V39.1z M6.3,42.1h4.4v0.2H6.3V42.1z M10.2,36.2L10.2,36.2l0.4-0.6l1,0.8c0,0-0.1,0.1-0.1,0.1
		c-0.1,0-0.1,0.1-0.2,0.1v6.2c0,0-0.1,0.1-0.2,0.1c-0.1,0.1-0.2,0.1-0.4,0.1c-0.1,0-0.3,0.1-0.4,0.1h-0.2V36.2z"/>
	<path class="st2" d="M34.8,38c0.2,0.2,0.3,0.3,0.4,0.4c0.1,0.1,0.3,0.2,0.4,0.4c0.1,0.1,0.3,0.2,0.4,0.4c0,0,0,0.1-0.1,0.1
		c-0.1,0-0.1,0-0.2,0h-7.6l-0.1-0.3h6L34.8,38z"/>
	<path class="st2" d="M51.8,41.7h6l0.6-0.9c0.2,0.1,0.3,0.2,0.4,0.3s0.2,0.2,0.4,0.3c0.1,0.1,0.3,0.2,0.4,0.3c0,0.1-0.1,0.1-0.2,0.1
		h-7.5L51.8,41.7z M52.6,37H57l0.6-0.8c0.2,0.1,0.3,0.2,0.4,0.3c0.1,0.1,0.2,0.2,0.4,0.3c0.1,0.1,0.2,0.2,0.4,0.3
		c0,0.1-0.1,0.1-0.2,0.1h-5.8L52.6,37z"/>
	<path class="st2" d="M82.2,41.4c0.2,0.1,0.3,0.2,0.4,0.3c0.1,0.1,0.2,0.2,0.4,0.3c0.1,0.1,0.2,0.2,0.4,0.3c0,0.1-0.1,0.1-0.2,0.1
		h-7.7l-0.1-0.2h6.3L82.2,41.4z M81.8,35.6c0.2,0.1,0.3,0.2,0.4,0.3c0.1,0.1,0.2,0.2,0.4,0.3c0.1,0.1,0.2,0.2,0.3,0.3
		c0,0.1-0.1,0.1-0.2,0.1h-6.8l-0.1-0.2h5.4L81.8,35.6z M81.1,38.4c0.1,0.1,0.3,0.2,0.4,0.3c0.1,0.1,0.2,0.2,0.4,0.3
		c0.1,0.1,0.2,0.2,0.3,0.3c0,0.1-0.1,0.1-0.2,0.1h-5.5l-0.1-0.2h4.2L81.1,38.4z"/>
	<path class="st2" d="M100.4,42.9c0,0,0,0.1-0.1,0.1c-0.1,0.1-0.2,0.1-0.3,0.2c-0.1,0-0.3,0.1-0.4,0.1h-0.2v-7.5l1.1,0.4h5.3v0.2
		h-5.4L100.4,42.9z M105.8,41.8V42h-5.9v-0.2L105.8,41.8z M102.5,36.2c0,0.5,0,1.1-0.1,1.5c0,0.4-0.1,0.9-0.2,1.3
		c-0.1,0.4-0.3,0.8-0.6,1.1c-0.3,0.4-0.6,0.7-1.1,0.9l-0.1-0.1c0.3-0.3,0.5-0.6,0.6-1c0.2-0.4,0.3-0.7,0.3-1.1
		c0.1-0.4,0.1-0.8,0.1-1.3c0-0.4,0-0.9,0-1.4L102.5,36.2z M104.2,36.2v3.3c0,0,0,0.1,0,0.1c0,0,0.1,0,0.1,0h0.3c0.1,0,0.1,0,0.2,0
		s0.1,0,0.1,0c0,0,0.1,0,0.1,0h0.1c0,0,0.1,0,0.1,0s0.1,0,0.1,0h0.1l0,0c0.1,0,0.2,0.1,0.2,0.2c0,0.1,0.1,0.1,0.1,0.2
		c0,0.1,0,0.2-0.1,0.3c-0.1,0.1-0.2,0.1-0.4,0.2c-0.2,0-0.5,0.1-0.7,0.1h-0.5c-0.2,0-0.3,0-0.5-0.1c-0.1,0-0.2-0.1-0.2-0.2
		c0-0.1-0.1-0.3-0.1-0.4v-3.5H104.2z M105.3,36.2l0.5-0.5l0.9,0.8c0,0-0.1,0.1-0.1,0.1c-0.1,0-0.1,0.1-0.2,0.1v6.2
		c0,0,0,0.1-0.1,0.1c-0.1,0.1-0.2,0.1-0.3,0.1c-0.1,0-0.2,0.1-0.4,0.1h-0.2L105.3,36.2L105.3,36.2z"/>
	<path class="st2" d="M122.5,42.5h6.5l0.6-0.8c0.1,0.1,0.3,0.2,0.4,0.3c0.1,0.1,0.2,0.2,0.3,0.3c0.1,0.1,0.2,0.2,0.3,0.3
		c0,0.1-0.1,0.1-0.2,0.1h-7.7L122.5,42.5z M123,36.4h5.4l0.6-0.8c0.1,0.1,0.3,0.2,0.4,0.3c0.1,0.1,0.2,0.2,0.3,0.3
		c0.1,0.1,0.2,0.2,0.3,0.3c0,0.1-0.1,0.1-0.2,0.1h-6.7L123,36.4z M123.4,39h4.9v0.2h-4.8L123.4,39z M125.6,36.4h1.1
		c-0.1,0.3-0.1,0.7-0.2,1.2c-0.1,0.4-0.2,0.9-0.3,1.3c-0.1,0.5-0.2,0.9-0.3,1.4c-0.1,0.4-0.2,0.9-0.3,1.3c-0.1,0.4-0.2,0.8-0.3,1.1
		h-1.1c0.1-0.3,0.2-0.7,0.3-1.1c0.1-0.4,0.2-0.8,0.3-1.3c0.1-0.5,0.2-0.9,0.3-1.4c0.1-0.5,0.2-0.9,0.3-1.3
		C125.5,37.1,125.5,36.8,125.6,36.4L125.6,36.4z M127.7,39L127.7,39l0.4-0.5l1,0.7c0,0-0.1,0.1-0.1,0.1c-0.1,0-0.1,0.1-0.2,0.1v3.3
		h-1L127.7,39z"/>
	<path class="st2" d="M149.9,39c0,0-0.1,0.1-0.1,0.1c-0.1,0-0.2,0-0.2,0c-0.2,0.4-0.4,0.7-0.6,1.1c-0.2,0.4-0.5,0.7-0.8,1.1
		c-0.3,0.3-0.6,0.7-0.9,1c-0.3,0.3-0.7,0.6-1.1,0.8l-0.1-0.1c0.3-0.3,0.5-0.6,0.7-0.9c0.2-0.4,0.5-0.7,0.7-1.1
		c0.2-0.4,0.4-0.8,0.5-1.2c0.1-0.4,0.3-0.8,0.4-1.2L149.9,39z M152.9,36.7c0.2,0.1,0.3,0.2,0.4,0.3c0.1,0.1,0.2,0.2,0.4,0.3
		c0.1,0.1,0.2,0.2,0.4,0.3c0,0.1-0.1,0.1-0.2,0.1h-7.6l-0.1-0.2h6.1L152.9,36.7z M148.9,35.4c0.4,0,0.7,0.1,1.1,0.2
		c0.2,0.1,0.5,0.2,0.6,0.4c0.1,0.1,0.2,0.3,0.3,0.5c0,0.1,0,0.3,0,0.4c0,0.1-0.1,0.2-0.2,0.3c-0.1,0.1-0.2,0.1-0.4,0.1
		c-0.2,0-0.3-0.1-0.5-0.2c0-0.2-0.1-0.4-0.2-0.7c-0.1-0.2-0.2-0.4-0.3-0.6C149.2,35.7,149,35.6,148.9,35.4L148.9,35.4z M151,38.6
		c0.5,0.3,1,0.6,1.4,1c0.3,0.3,0.7,0.6,0.9,1c0.2,0.3,0.4,0.6,0.5,0.9c0.1,0.2,0.1,0.5,0.1,0.7c0,0.2,0,0.4-0.1,0.5
		c-0.1,0.1-0.2,0.2-0.4,0.2c-0.2,0-0.4-0.1-0.5-0.2c-0.1-0.4-0.2-0.7-0.3-1c-0.1-0.4-0.3-0.7-0.5-1.1c-0.2-0.4-0.4-0.7-0.6-1
		c-0.2-0.3-0.4-0.6-0.7-0.9L151,38.6z"/>
	<path class="st3" d="M78.1,58.3v-0.5h1v-3.3h-0.8v-0.4c0.2,0,0.4-0.1,0.5-0.1c0.1-0.1,0.3-0.1,0.4-0.2h0.4v4.1h0.9v0.5L78.1,58.3z"
		/>
	<path class="st3" d="M101.4,58.3v-0.3c0.5-0.5,0.8-0.9,1.2-1.2c0.3-0.3,0.5-0.6,0.7-0.9c0.2-0.2,0.2-0.5,0.2-0.8
		c0-0.2,0-0.3-0.1-0.5c-0.1-0.1-0.2-0.2-0.3-0.3c-0.3-0.2-0.7-0.1-1,0c-0.2,0.1-0.3,0.2-0.4,0.4l-0.3-0.3c0.2-0.2,0.4-0.4,0.6-0.5
		c0.2-0.1,0.5-0.2,0.8-0.2c0.3,0,0.5,0,0.7,0.2c0.2,0.1,0.4,0.3,0.5,0.5c0.1,0.2,0.2,0.5,0.2,0.7c0,0.3-0.1,0.6-0.2,0.9
		c-0.2,0.3-0.4,0.6-0.7,0.9c-0.3,0.3-0.6,0.7-1,1c0.1,0,0.2,0,0.4,0c0.1,0,0.3,0,0.4,0h1.3v0.5L101.4,58.3z"/>
	<path class="st3" d="M126.4,58.4c-0.2,0-0.4,0-0.6-0.1c-0.2-0.1-0.3-0.1-0.5-0.2c-0.1-0.1-0.3-0.2-0.4-0.3l0.3-0.4
		c0.1,0.1,0.3,0.3,0.5,0.4c0.2,0.1,0.4,0.2,0.7,0.2c0.2,0,0.3,0,0.5-0.1c0.3-0.1,0.5-0.4,0.5-0.7c0-0.2,0-0.3-0.1-0.5
		c-0.1-0.1-0.3-0.3-0.5-0.3c-0.3-0.1-0.6-0.1-0.9-0.1v-0.5c0.3,0,0.5,0,0.8-0.1c0.2-0.1,0.3-0.2,0.4-0.3c0.1-0.1,0.1-0.3,0.1-0.4
		c0-0.2-0.1-0.4-0.2-0.5c-0.2-0.1-0.4-0.2-0.6-0.2c-0.2,0-0.4,0-0.5,0.1c-0.2,0.1-0.3,0.2-0.4,0.3l-0.3-0.4c0.2-0.2,0.4-0.3,0.6-0.4
		c0.2-0.1,0.5-0.2,0.7-0.2c0.2,0,0.5,0,0.7,0.1c0.2,0.1,0.4,0.2,0.5,0.4c0.1,0.2,0.2,0.4,0.2,0.6c0,0.2-0.1,0.5-0.2,0.7
		c-0.2,0.2-0.4,0.3-0.6,0.4v0c0.2,0,0.3,0.1,0.5,0.2c0.1,0.1,0.3,0.2,0.4,0.4c0.1,0.2,0.1,0.4,0.1,0.6c0,0.2-0.1,0.5-0.2,0.7
		c-0.1,0.2-0.3,0.3-0.5,0.4C126.9,58.3,126.7,58.4,126.4,58.4z"/>
	<path class="st3" d="M150.5,58.3v-3c0-0.1,0-0.3,0-0.4s0-0.3,0-0.4h0c-0.1,0.1-0.1,0.2-0.2,0.3c-0.1,0.1-0.1,0.2-0.2,0.3l-1.1,1.6
		h2.6V57h-3.2v-0.4l1.9-2.9h0.6v4.5L150.5,58.3z"/>
	<path class="st3" d="M8.4,73.2c-0.2,0-0.4,0-0.6-0.1C7.5,73,7.4,73,7.2,72.9c-0.1-0.1-0.3-0.2-0.4-0.3l0.3-0.4
		c0.1,0.1,0.2,0.2,0.3,0.3c0.2,0.2,0.5,0.3,0.8,0.3c0.2,0,0.3,0,0.5-0.1c0.2-0.1,0.3-0.2,0.4-0.4c0.1-0.2,0.1-0.4,0.1-0.5
		c0-0.3-0.1-0.5-0.3-0.7c-0.2-0.2-0.4-0.3-0.7-0.3c-0.1,0-0.3,0-0.4,0.1c-0.1,0.1-0.3,0.1-0.4,0.2l-0.3-0.2l0.2-2.2h2.3v0.5H7.9
		l-0.1,1.4c0.1-0.1,0.2-0.1,0.3-0.1c0.1,0,0.3,0,0.4,0c0.2,0,0.5,0,0.7,0.1c0.2,0.1,0.4,0.3,0.5,0.5c0.3,0.5,0.3,1.1,0,1.6
		c-0.1,0.2-0.3,0.4-0.6,0.5C8.9,73.1,8.6,73.2,8.4,73.2z"/>
	<path class="st3" d="M32.2,73.2c-0.2,0-0.4,0-0.6-0.1c-0.2-0.1-0.4-0.2-0.5-0.4c-0.2-0.2-0.3-0.4-0.3-0.7c-0.1-0.3-0.1-0.6-0.1-1
		c0-0.4,0-0.8,0.1-1.2c0.1-0.3,0.2-0.6,0.4-0.8c0.1-0.2,0.3-0.3,0.6-0.4c0.2-0.1,0.4-0.1,0.6-0.1c0.2,0,0.4,0,0.6,0.1
		c0.2,0.1,0.3,0.2,0.5,0.3l-0.3,0.4c-0.2-0.2-0.5-0.4-0.7-0.4c-0.2,0-0.4,0.1-0.6,0.2c-0.2,0.2-0.4,0.4-0.4,0.6
		c-0.1,0.4-0.2,0.8-0.2,1.2c0,0.3,0,0.6,0.1,0.9c0.1,0.2,0.2,0.4,0.3,0.6c0.1,0.1,0.3,0.2,0.5,0.2c0.1,0,0.3,0,0.4-0.1
		c0.1-0.1,0.2-0.2,0.3-0.3c0.1-0.2,0.1-0.3,0.1-0.5c0-0.2,0-0.4-0.1-0.5c-0.1-0.1-0.2-0.3-0.3-0.3c-0.1-0.1-0.3-0.1-0.5-0.1
		c-0.2,0-0.3,0.1-0.5,0.1c-0.2,0.1-0.4,0.3-0.5,0.5l0-0.5c0.1-0.1,0.2-0.2,0.3-0.3c0.1-0.1,0.2-0.2,0.4-0.2c0.1,0,0.3-0.1,0.4-0.1
		c0.2,0,0.5,0,0.7,0.2c0.2,0.1,0.4,0.3,0.5,0.5c0.1,0.2,0.2,0.5,0.2,0.8c0,0.3-0.1,0.5-0.2,0.8c-0.1,0.2-0.3,0.4-0.5,0.5
		C32.7,73.1,32.4,73.2,32.2,73.2z"/>
	<path class="st3" d="M55.2,73.1c0-0.4,0.1-0.8,0.1-1.2c0.1-0.3,0.1-0.7,0.2-1c0.1-0.3,0.2-0.6,0.4-0.9c0.2-0.3,0.4-0.6,0.6-0.9
		h-2.3v-0.5h2.9v0.4c-0.2,0.3-0.5,0.6-0.7,1c-0.2,0.3-0.3,0.6-0.4,1c-0.1,0.3-0.2,0.7-0.2,1c0,0.4-0.1,0.8-0.1,1.2H55.2z"/>
	<path class="st3" d="M79.3,73.2c-0.3,0-0.5,0-0.8-0.2c-0.2-0.1-0.4-0.2-0.5-0.4c-0.1-0.2-0.2-0.4-0.2-0.6c0-0.2,0-0.4,0.1-0.5
		c0.1-0.2,0.2-0.3,0.3-0.4c0.1-0.1,0.3-0.2,0.4-0.3v0c-0.2-0.1-0.3-0.3-0.4-0.4c-0.1-0.2-0.2-0.4-0.2-0.6c0-0.2,0.1-0.4,0.2-0.6
		c0.1-0.2,0.3-0.3,0.5-0.4c0.2-0.1,0.4-0.1,0.7-0.1c0.2,0,0.5,0,0.7,0.2c0.2,0.1,0.3,0.2,0.4,0.4c0.1,0.2,0.2,0.4,0.2,0.6
		c0,0.2,0,0.3-0.1,0.5c-0.1,0.1-0.1,0.3-0.2,0.4c-0.1,0.1-0.2,0.2-0.3,0.3v0c0.1,0.1,0.3,0.2,0.4,0.3c0.1,0.1,0.2,0.2,0.3,0.4
		c0.1,0.2,0.1,0.3,0.1,0.5c0,0.2-0.1,0.4-0.2,0.6c-0.1,0.2-0.3,0.3-0.5,0.4C79.8,73.1,79.6,73.2,79.3,73.2z M79.3,72.8
		c0.2,0,0.3,0,0.5-0.1c0.3-0.1,0.4-0.4,0.4-0.7c0-0.1,0-0.3-0.1-0.4c-0.1-0.1-0.2-0.2-0.3-0.3c-0.1-0.1-0.3-0.2-0.4-0.2
		C79.3,71,79.1,71,79,70.9c-0.2,0.1-0.3,0.3-0.5,0.4c-0.1,0.2-0.2,0.4-0.2,0.6c0,0.2,0,0.3,0.1,0.4c0.1,0.1,0.2,0.2,0.4,0.3
		C79,72.7,79.1,72.8,79.3,72.8z M79.6,70.6c0.1-0.1,0.3-0.3,0.4-0.4c0.1-0.1,0.1-0.3,0.1-0.5c0-0.1,0-0.3-0.1-0.4
		c-0.1-0.1-0.2-0.2-0.3-0.3c-0.1-0.1-0.3-0.1-0.4-0.1c-0.2,0-0.4,0.1-0.5,0.2c-0.1,0.1-0.2,0.3-0.2,0.5c0,0.2,0,0.3,0.1,0.5
		c0.1,0.1,0.2,0.2,0.4,0.3C79.3,70.5,79.4,70.6,79.6,70.6z"/>
	<path class="st3" d="M102.6,73.2c-0.2,0-0.4,0-0.6-0.1c-0.2-0.1-0.3-0.2-0.5-0.3l0.3-0.4c0.1,0.1,0.2,0.2,0.3,0.3
		c0.1,0.1,0.3,0.1,0.4,0.1c0.2,0,0.4-0.1,0.6-0.2c0.2-0.2,0.4-0.4,0.4-0.6c0.1-0.4,0.2-0.8,0.2-1.2c0-0.3,0-0.6-0.1-0.9
		c-0.1-0.2-0.2-0.4-0.3-0.6c-0.2-0.1-0.3-0.2-0.6-0.2c-0.1,0-0.3,0-0.4,0.1c-0.1,0.1-0.2,0.2-0.3,0.4c-0.1,0.2-0.1,0.3-0.1,0.5
		c0,0.2,0,0.3,0.1,0.5c0.1,0.1,0.2,0.3,0.3,0.3c0.1,0.1,0.3,0.1,0.5,0.1c0.2,0,0.3-0.1,0.5-0.2c0.2-0.1,0.4-0.3,0.5-0.5l0,0.5
		c-0.1,0.1-0.2,0.2-0.3,0.3c-0.1,0.1-0.2,0.2-0.4,0.2c-0.1,0-0.3,0.1-0.4,0.1c-0.2,0-0.5,0-0.7-0.2c-0.2-0.1-0.4-0.3-0.5-0.5
		c-0.1-0.2-0.2-0.5-0.2-0.8c0-0.3,0.1-0.5,0.2-0.8c0.1-0.2,0.3-0.4,0.5-0.5c0.2-0.1,0.4-0.2,0.7-0.2c0.2,0,0.4,0,0.6,0.1
		c0.2,0.1,0.4,0.2,0.5,0.4c0.2,0.2,0.3,0.4,0.3,0.7c0.1,0.3,0.1,0.6,0.1,1c0,0.4,0,0.8-0.1,1.2c-0.1,0.3-0.2,0.5-0.4,0.8
		c-0.1,0.2-0.3,0.3-0.6,0.4C103,73.1,102.8,73.2,102.6,73.2z"/>
	<path class="st3" d="M123.3,73.1v-0.5h1v-3.3h-0.8v-0.4c0.2,0,0.4-0.1,0.5-0.1c0.1-0.1,0.3-0.1,0.4-0.2h0.4v4.1h0.9v0.5L123.3,73.1
		z"/>
	<path class="st3" d="M128.5,73.2c-0.3,0-0.6-0.1-0.8-0.3c-0.2-0.2-0.4-0.5-0.5-0.8c-0.1-0.4-0.2-0.9-0.2-1.3c0-0.4,0-0.9,0.2-1.3
		c0.1-0.3,0.3-0.6,0.5-0.8c0.5-0.4,1.1-0.4,1.6,0c0.2,0.2,0.4,0.5,0.5,0.8c0.1,0.4,0.2,0.8,0.2,1.3c0,0.4,0,0.9-0.2,1.3
		c-0.1,0.3-0.3,0.6-0.5,0.8C129.1,73.1,128.8,73.2,128.5,73.2z M128.5,72.7c0.2,0,0.3-0.1,0.5-0.2c0.2-0.2,0.3-0.4,0.3-0.6
		c0.1-0.4,0.1-0.7,0.1-1.1c0-0.4,0-0.7-0.1-1.1c0-0.2-0.2-0.4-0.3-0.6c-0.3-0.3-0.7-0.3-0.9,0c-0.2,0.2-0.3,0.4-0.3,0.6
		c-0.1,0.4-0.1,0.7-0.1,1.1c0,0.4,0,0.7,0.1,1.1c0,0.2,0.2,0.4,0.3,0.6C128.2,72.6,128.3,72.7,128.5,72.7z"/>
	<path class="st3" d="M146.9,73.1v-0.5h1v-3.3h-0.8v-0.4c0.2,0,0.4-0.1,0.5-0.1c0.1-0.1,0.3-0.1,0.4-0.2h0.4v4.1h0.9v0.5L146.9,73.1
		z"/>
	<path class="st3" d="M150.9,73.1v-0.5h1v-3.3h-0.8v-0.4c0.2,0,0.4-0.1,0.5-0.1c0.1-0.1,0.3-0.1,0.4-0.2h0.4v4.1h0.9v0.5L150.9,73.1
		z"/>
	<path class="st3" d="M5.2,87.9v-0.5h1v-3.3H5.4v-0.4c0.2,0,0.4-0.1,0.5-0.1c0.1-0.1,0.3-0.1,0.4-0.2h0.4v4.1h0.9v0.5L5.2,87.9z"/>
	<path class="st3" d="M9,87.9v-0.3c0.5-0.5,0.8-0.9,1.2-1.2c0.3-0.3,0.5-0.6,0.7-0.9c0.2-0.2,0.2-0.5,0.2-0.8c0-0.2,0-0.3-0.1-0.5
		c-0.1-0.1-0.2-0.2-0.3-0.3c-0.1-0.1-0.3-0.1-0.5-0.1c-0.2,0-0.4,0.1-0.5,0.2c-0.2,0.1-0.3,0.2-0.4,0.4L9,84
		c0.2-0.2,0.4-0.4,0.6-0.5c0.2-0.1,0.5-0.2,0.8-0.2c0.3,0,0.5,0,0.7,0.2c0.2,0.1,0.4,0.3,0.5,0.5c0.1,0.2,0.2,0.5,0.2,0.7
		c0,0.3-0.1,0.6-0.2,0.9c-0.2,0.3-0.4,0.6-0.7,0.9c-0.3,0.3-0.6,0.7-1,1c0.1,0,0.2,0,0.4,0c0.1,0,0.3,0,0.4,0h1.3v0.5L9,87.9z"/>
	<path class="st3" d="M28.8,87.9v-0.5h1v-3.3H29v-0.4c0.2,0,0.4-0.1,0.5-0.1c0.1-0.1,0.3-0.1,0.4-0.2h0.4v4.1h0.9v0.5L28.8,87.9z"/>
	<path class="st3" d="M34,88c-0.2,0-0.4,0-0.6-0.1c-0.2-0.1-0.3-0.1-0.5-0.2c-0.1-0.1-0.3-0.2-0.4-0.3l0.3-0.4
		c0.1,0.1,0.3,0.3,0.5,0.4c0.2,0.1,0.4,0.2,0.7,0.2c0.2,0,0.3,0,0.5-0.1c0.3-0.1,0.5-0.4,0.5-0.7c0-0.2,0-0.3-0.1-0.5
		c-0.1-0.1-0.3-0.3-0.5-0.3c-0.3-0.1-0.6-0.1-0.9-0.1v-0.5c0.3,0,0.5,0,0.8-0.1c0.2-0.1,0.3-0.2,0.4-0.3c0.1-0.1,0.1-0.3,0.1-0.4
		c0-0.2-0.1-0.4-0.2-0.5c-0.2-0.1-0.4-0.2-0.6-0.2c-0.2,0-0.4,0-0.5,0.1c-0.2,0.1-0.3,0.2-0.4,0.3l-0.3-0.4c0.2-0.2,0.4-0.3,0.6-0.4
		c0.2-0.1,0.5-0.2,0.7-0.2c0.2,0,0.5,0,0.7,0.1c0.2,0.1,0.4,0.2,0.5,0.4c0.1,0.2,0.2,0.4,0.2,0.6c0,0.2-0.1,0.5-0.2,0.7
		c-0.2,0.2-0.4,0.3-0.6,0.4v0c0.2,0,0.3,0.1,0.5,0.2c0.1,0.1,0.3,0.2,0.4,0.4c0.1,0.2,0.1,0.4,0.1,0.6c0,0.2-0.1,0.5-0.2,0.7
		c-0.1,0.2-0.3,0.3-0.5,0.4C34.5,88,34.2,88,34,88z"/>
	<path class="st3" d="M52.4,87.9v-0.5h1v-3.3h-0.8v-0.4c0.2,0,0.4-0.1,0.5-0.1c0.1-0.1,0.3-0.1,0.4-0.2h0.4v4.1H55v0.5L52.4,87.9z"
		/>
	<path class="st3" d="M58.1,87.9v-3c0-0.1,0-0.3,0-0.4c0-0.2,0-0.3,0-0.4h0c-0.1,0.1-0.1,0.2-0.2,0.3c-0.1,0.1-0.1,0.2-0.2,0.3
		l-1.1,1.6h2.6v0.5H56v-0.4l1.9-2.9h0.6v4.5L58.1,87.9z"/>
	<path class="st3" d="M76,87.9v-0.5h1v-3.3h-0.8v-0.4c0.2,0,0.4-0.1,0.5-0.1c0.1-0.1,0.3-0.1,0.4-0.2h0.4v4.1h0.9v0.5L76,87.9z"/>
	<path class="st3" d="M81.2,88c-0.2,0-0.4,0-0.6-0.1c-0.2-0.1-0.3-0.1-0.5-0.2c-0.1-0.1-0.3-0.2-0.4-0.3L80,87
		c0.1,0.1,0.2,0.2,0.3,0.3c0.2,0.2,0.5,0.3,0.8,0.3c0.2,0,0.3,0,0.5-0.1c0.1-0.1,0.3-0.2,0.4-0.4c0.1-0.2,0.1-0.4,0.1-0.5
		c0-0.3-0.1-0.5-0.3-0.7c-0.2-0.2-0.4-0.3-0.7-0.3c-0.1,0-0.3,0-0.4,0.1c-0.1,0.1-0.3,0.1-0.4,0.2l-0.3-0.2l0.2-2.2h2.3v0.5h-1.8
		l-0.1,1.4c0.1-0.1,0.2-0.1,0.3-0.1c0.1,0,0.3,0,0.4,0c0.2,0,0.5,0,0.7,0.1c0.2,0.1,0.4,0.3,0.5,0.5c0.1,0.2,0.2,0.5,0.2,0.8
		c0,0.3-0.1,0.6-0.2,0.8c-0.1,0.2-0.3,0.4-0.6,0.5C81.7,87.9,81.5,88,81.2,88z"/>
	<path class="st3" d="M99.7,87.9v-0.5h1v-3.3h-0.8v-0.4c0.2,0,0.4-0.1,0.5-0.1c0.1-0.1,0.3-0.1,0.4-0.2h0.4v4.1h0.9v0.5L99.7,87.9z"
		/>
	<path class="st3" d="M105,88c-0.2,0-0.4,0-0.6-0.1c-0.2-0.1-0.4-0.2-0.5-0.4c-0.2-0.2-0.3-0.4-0.3-0.7c-0.1-0.3-0.1-0.6-0.1-1
		c0-0.4,0-0.8,0.1-1.2c0.1-0.3,0.2-0.5,0.4-0.8c0.1-0.2,0.3-0.3,0.6-0.4c0.2-0.1,0.4-0.1,0.7-0.1c0.2,0,0.4,0,0.6,0.1
		c0.2,0.1,0.3,0.2,0.5,0.3l-0.3,0.4c-0.1-0.1-0.2-0.2-0.3-0.3c-0.1-0.1-0.3-0.1-0.4-0.1c-0.2,0-0.4,0.1-0.6,0.2
		c-0.2,0.2-0.4,0.4-0.4,0.6c-0.1,0.4-0.2,0.8-0.2,1.2c0,0.3,0,0.6,0.1,0.9c0.1,0.2,0.2,0.4,0.3,0.6c0.2,0.1,0.3,0.2,0.5,0.2
		c0.1,0,0.3,0,0.4-0.1c0.1-0.1,0.2-0.2,0.3-0.3c0.1-0.2,0.1-0.3,0.1-0.5c0-0.2,0-0.4-0.1-0.5c-0.1-0.1-0.2-0.3-0.3-0.3
		c-0.1-0.1-0.3-0.1-0.5-0.1c-0.2,0-0.3,0.1-0.5,0.1c-0.2,0.1-0.4,0.3-0.5,0.5l0-0.5c0.1-0.1,0.2-0.2,0.3-0.3
		c0.1-0.1,0.2-0.2,0.4-0.2c0.1,0,0.3-0.1,0.4-0.1c0.2,0,0.5,0,0.7,0.2c0.2,0.1,0.4,0.3,0.5,0.5c0.1,0.2,0.2,0.5,0.2,0.8
		c0,0.3-0.1,0.5-0.2,0.8c-0.1,0.2-0.3,0.4-0.5,0.5C105.5,87.9,105.3,88,105,88z"/>
	<path class="st3" d="M123.3,87.9v-0.5h1v-3.3h-0.8v-0.4c0.2,0,0.4-0.1,0.5-0.1c0.1-0.1,0.3-0.1,0.4-0.2h0.4v4.1h0.9v0.5L123.3,87.9
		z"/>
	<path class="st3" d="M128,87.9c0-0.4,0.1-0.8,0.1-1.2c0.1-0.3,0.1-0.7,0.2-1c0.1-0.3,0.2-0.6,0.4-0.9c0.2-0.3,0.4-0.6,0.6-0.9h-2.3
		v-0.5h2.9v0.4c-0.2,0.3-0.5,0.6-0.7,1c-0.2,0.3-0.3,0.6-0.4,1c-0.1,0.3-0.2,0.7-0.2,1c0,0.4-0.1,0.8-0.1,1.2H128z"/>
	<path class="st3" d="M146.9,87.9v-0.5h1v-3.3h-0.8v-0.4c0.2,0,0.4-0.1,0.5-0.1c0.1-0.1,0.3-0.1,0.4-0.2h0.4v4.1h0.9v0.5L146.9,87.9
		z"/>
	<path class="st3" d="M152.1,88c-0.3,0-0.5,0-0.8-0.2c-0.2-0.1-0.4-0.2-0.5-0.4c-0.1-0.2-0.2-0.4-0.2-0.6c0-0.2,0-0.4,0.1-0.5
		c0.1-0.2,0.2-0.3,0.3-0.4c0.1-0.1,0.3-0.2,0.4-0.3v0c-0.2-0.1-0.3-0.3-0.4-0.4c-0.1-0.2-0.2-0.4-0.2-0.6c0-0.2,0.1-0.4,0.2-0.6
		c0.1-0.2,0.3-0.3,0.5-0.4c0.2-0.1,0.4-0.1,0.7-0.1c0.2,0,0.5,0,0.7,0.2c0.2,0.1,0.3,0.2,0.4,0.4c0.1,0.2,0.2,0.4,0.2,0.6
		c0,0.2,0,0.3-0.1,0.5c-0.1,0.1-0.1,0.3-0.2,0.4c-0.1,0.1-0.2,0.2-0.3,0.3v0c0.1,0.1,0.3,0.2,0.4,0.3c0.1,0.1,0.2,0.2,0.3,0.4
		c0.1,0.2,0.1,0.3,0.1,0.5c0,0.2-0.1,0.4-0.2,0.6c-0.1,0.2-0.3,0.3-0.5,0.4C152.7,88,152.4,88,152.1,88z M152.1,87.6
		c0.2,0,0.3,0,0.5-0.1c0.3-0.1,0.4-0.4,0.4-0.7c0-0.1,0-0.3-0.1-0.4c-0.1-0.1-0.2-0.2-0.3-0.3c-0.1-0.1-0.3-0.2-0.4-0.2
		c-0.1-0.1-0.3-0.1-0.5-0.2c-0.2,0.1-0.3,0.3-0.5,0.4c-0.1,0.2-0.2,0.4-0.2,0.6c0,0.2,0,0.3,0.1,0.4c0.1,0.1,0.2,0.2,0.4,0.3
		C151.8,87.5,152,87.6,152.1,87.6z M152.4,85.5c0.1-0.1,0.3-0.3,0.4-0.4c0.1-0.1,0.1-0.3,0.1-0.5c0-0.1,0-0.3-0.1-0.4
		c-0.1-0.1-0.2-0.2-0.3-0.3c-0.1-0.1-0.3-0.1-0.4-0.1c-0.2,0-0.4,0.1-0.5,0.2c-0.1,0.1-0.2,0.3-0.2,0.5c0,0.2,0,0.3,0.1,0.5
		c0.1,0.1,0.2,0.2,0.4,0.3C152.1,85.3,152.3,85.4,152.4,85.5z"/>
	<path class="st3" d="M5.2,102.7v-0.5h1v-3.3H5.4v-0.4c0.2,0,0.4-0.1,0.5-0.1c0.1-0.1,0.3-0.1,0.4-0.2h0.4v4.1h0.9v0.5H5.2z"/>
	<path class="st3" d="M10.2,102.8c-0.2,0-0.4,0-0.6-0.1c-0.2-0.1-0.3-0.2-0.5-0.3l0.3-0.4c0.1,0.1,0.2,0.2,0.3,0.3
		c0.1,0.1,0.3,0.1,0.4,0.1c0.2,0,0.4-0.1,0.6-0.2c0.2-0.2,0.4-0.4,0.4-0.6c0.1-0.4,0.2-0.8,0.2-1.2c0-0.3,0-0.6-0.1-0.9
		c-0.1-0.2-0.2-0.4-0.3-0.6c-0.2-0.1-0.4-0.2-0.6-0.2c-0.1,0-0.3,0-0.4,0.1c-0.1,0.1-0.2,0.2-0.3,0.4c-0.1,0.2-0.1,0.3-0.1,0.5
		c0,0.2,0,0.3,0.1,0.5c0.1,0.1,0.2,0.3,0.3,0.3c0.1,0.1,0.3,0.1,0.5,0.1c0.2,0,0.3-0.1,0.5-0.2c0.2-0.1,0.4-0.3,0.5-0.5l0,0.5
		c-0.1,0.1-0.2,0.2-0.3,0.3c-0.1,0.1-0.2,0.2-0.4,0.2c-0.1,0-0.3,0.1-0.4,0.1c-0.2,0-0.5,0-0.7-0.2c-0.2-0.1-0.4-0.3-0.5-0.5
		C9,100.1,9,99.8,9,99.6c0-0.3,0.1-0.5,0.2-0.8c0.1-0.2,0.3-0.4,0.5-0.5c0.2-0.1,0.4-0.2,0.7-0.2c0.2,0,0.4,0,0.6,0.1
		c0.2,0.1,0.4,0.2,0.5,0.4c0.2,0.2,0.3,0.4,0.3,0.7c0.1,0.3,0.1,0.6,0.1,1c0,0.4,0,0.8-0.1,1.2c-0.1,0.3-0.2,0.5-0.4,0.8
		c-0.1,0.2-0.3,0.3-0.6,0.4C10.6,102.8,10.4,102.8,10.2,102.8z"/>
	<path class="st3" d="M28.6,102.7v-0.3c0.5-0.5,0.8-0.9,1.2-1.2c0.3-0.3,0.5-0.6,0.7-0.9c0.2-0.2,0.2-0.5,0.2-0.8
		c0-0.2,0-0.3-0.1-0.5c-0.1-0.1-0.2-0.2-0.3-0.3c-0.1-0.1-0.3-0.1-0.5-0.1c-0.2,0-0.4,0.1-0.5,0.2c-0.2,0.1-0.3,0.2-0.4,0.4
		l-0.3-0.3c0.2-0.2,0.4-0.4,0.6-0.5c0.2-0.1,0.5-0.2,0.8-0.2c0.3,0,0.5,0,0.7,0.2c0.2,0.1,0.4,0.3,0.5,0.5c0.1,0.2,0.2,0.5,0.2,0.7
		c0,0.3-0.1,0.6-0.2,0.9c-0.2,0.3-0.4,0.6-0.7,0.9c-0.3,0.3-0.6,0.7-1,1c0.1,0,0.2,0,0.4,0c0.1,0,0.3,0,0.4,0h1.3v0.5L28.6,102.7z"
		/>
	<path class="st3" d="M34.1,102.8c-0.3,0-0.6-0.1-0.8-0.3c-0.2-0.2-0.4-0.5-0.5-0.8c-0.1-0.4-0.2-0.9-0.2-1.3c0-0.4,0-0.9,0.2-1.3
		c0.1-0.3,0.3-0.6,0.5-0.8c0.5-0.4,1.1-0.4,1.6,0c0.2,0.2,0.4,0.5,0.5,0.8c0.1,0.4,0.2,0.8,0.2,1.3c0,0.4,0,0.9-0.2,1.3
		c-0.1,0.3-0.3,0.6-0.5,0.8C34.6,102.7,34.4,102.8,34.1,102.8z M34.1,102.4c0.2,0,0.3-0.1,0.5-0.2c0.2-0.2,0.3-0.4,0.3-0.6
		c0.1-0.4,0.1-0.7,0.1-1.1c0-0.4,0-0.7-0.1-1.1c0-0.2-0.2-0.4-0.3-0.6c-0.3-0.3-0.7-0.3-0.9,0c-0.2,0.2-0.3,0.4-0.3,0.6
		c-0.1,0.4-0.1,0.7-0.1,1.1c0,0.4,0,0.7,0.1,1.1c0,0.2,0.2,0.4,0.3,0.6C33.7,102.3,33.9,102.4,34.1,102.4z"/>
	<path class="st3" d="M52.2,102.7v-0.3c0.5-0.5,0.8-0.9,1.2-1.2c0.3-0.3,0.5-0.6,0.7-0.9c0.2-0.2,0.2-0.5,0.2-0.8
		c0-0.2,0-0.3-0.1-0.5c-0.1-0.1-0.2-0.2-0.3-0.3c-0.1-0.1-0.3-0.1-0.5-0.1c-0.2,0-0.4,0.1-0.5,0.2c-0.2,0.1-0.3,0.2-0.4,0.4
		l-0.3-0.3c0.2-0.2,0.4-0.4,0.6-0.5c0.2-0.1,0.5-0.2,0.8-0.2c0.3,0,0.5,0,0.7,0.2c0.2,0.1,0.4,0.3,0.5,0.5c0.1,0.2,0.2,0.5,0.2,0.7
		c0,0.3-0.1,0.6-0.2,0.9c-0.2,0.3-0.4,0.6-0.7,0.9c-0.3,0.3-0.6,0.7-1,1c0.1,0,0.2,0,0.4,0c0.1,0,0.3,0,0.4,0h1.3v0.5L52.2,102.7z"
		/>
	<path class="st3" d="M56.5,102.7v-0.5h1v-3.3h-0.8v-0.4c0.2,0,0.4-0.1,0.5-0.1c0.1-0.1,0.3-0.1,0.4-0.2h0.4v4.1H59v0.5H56.5z"/>
	<path class="st3" d="M75.8,102.7v-0.3c0.5-0.5,0.8-0.9,1.2-1.2c0.3-0.3,0.5-0.6,0.7-0.9c0.2-0.2,0.2-0.5,0.2-0.8
		c0-0.2,0-0.3-0.1-0.5c-0.1-0.1-0.2-0.2-0.3-0.3c-0.3-0.2-0.7-0.1-1,0c-0.2,0.1-0.3,0.2-0.4,0.4l-0.3-0.3c0.2-0.2,0.4-0.4,0.6-0.5
		c0.2-0.1,0.5-0.2,0.8-0.2c0.3,0,0.5,0,0.7,0.2c0.2,0.1,0.4,0.3,0.5,0.5c0.1,0.2,0.2,0.5,0.2,0.7c0,0.3-0.1,0.6-0.2,0.9
		c-0.2,0.3-0.4,0.6-0.7,0.9c-0.3,0.3-0.6,0.7-1,1c0.1,0,0.2,0,0.4,0c0.1,0,0.3,0,0.4,0h1.3v0.5L75.8,102.7z"/>
	<path class="st3" d="M79.8,102.7v-0.3c0.5-0.5,0.8-0.9,1.2-1.2c0.3-0.3,0.5-0.6,0.7-0.9c0.2-0.2,0.2-0.5,0.2-0.8
		c0-0.2,0-0.3-0.1-0.5c-0.1-0.1-0.2-0.2-0.3-0.3c-0.3-0.2-0.7-0.1-1,0c-0.2,0.1-0.3,0.2-0.4,0.4l-0.3-0.3c0.2-0.2,0.4-0.4,0.6-0.5
		c0.2-0.1,0.5-0.2,0.8-0.2c0.3,0,0.5,0,0.7,0.2c0.2,0.1,0.4,0.3,0.5,0.5c0.1,0.2,0.2,0.5,0.2,0.7c0,0.3-0.1,0.6-0.2,0.9
		c-0.2,0.3-0.4,0.6-0.7,0.9c-0.3,0.3-0.6,0.7-1,1c0.1,0,0.2,0,0.4,0c0.1,0,0.3,0,0.4,0h1.3v0.5L79.8,102.7z"/>
	<path class="st3" d="M99.4,102.7v-0.3c0.5-0.5,0.8-0.9,1.2-1.2c0.3-0.3,0.5-0.6,0.7-0.9c0.2-0.2,0.2-0.5,0.2-0.8
		c0-0.2,0-0.3-0.1-0.5c-0.1-0.1-0.2-0.2-0.3-0.3c-0.3-0.2-0.7-0.1-1,0c-0.2,0.1-0.3,0.2-0.4,0.4l-0.3-0.3c0.2-0.2,0.4-0.4,0.6-0.5
		c0.2-0.1,0.5-0.2,0.8-0.2c0.3,0,0.5,0,0.7,0.2c0.2,0.1,0.4,0.3,0.5,0.5c0.1,0.2,0.2,0.5,0.2,0.7c0,0.3-0.1,0.6-0.2,0.9
		c-0.2,0.3-0.4,0.6-0.7,0.9c-0.3,0.3-0.6,0.7-1,1c0.1,0,0.2,0,0.4,0c0.1,0,0.3,0,0.4,0h1.3v0.5L99.4,102.7z"/>
	<path class="st3" d="M104.8,102.8c-0.2,0-0.4,0-0.6-0.1c-0.2-0.1-0.3-0.1-0.5-0.2c-0.1-0.1-0.3-0.2-0.4-0.3l0.3-0.4
		c0.1,0.1,0.3,0.3,0.5,0.4c0.2,0.1,0.4,0.2,0.7,0.2c0.2,0,0.3,0,0.5-0.1c0.3-0.1,0.5-0.4,0.5-0.7c0-0.2,0-0.3-0.1-0.5
		c-0.1-0.1-0.3-0.3-0.5-0.3c-0.3-0.1-0.6-0.1-0.9-0.1v-0.5c0.3,0,0.5,0,0.8-0.1c0.2-0.1,0.3-0.2,0.4-0.3c0.1-0.1,0.1-0.3,0.1-0.4
		c0-0.2-0.1-0.4-0.2-0.5c-0.2-0.1-0.4-0.2-0.6-0.2c-0.2,0-0.4,0-0.5,0.1c-0.2,0.1-0.3,0.2-0.4,0.3l-0.3-0.4c0.2-0.2,0.4-0.3,0.6-0.4
		c0.2-0.1,0.5-0.2,0.7-0.2c0.2,0,0.5,0,0.7,0.1c0.2,0.1,0.4,0.2,0.5,0.4c0.1,0.2,0.2,0.4,0.2,0.6c0,0.2-0.1,0.5-0.2,0.7
		c-0.2,0.2-0.4,0.3-0.6,0.4v0c0.2,0,0.3,0.1,0.5,0.2c0.1,0.1,0.3,0.2,0.4,0.4c0.1,0.2,0.1,0.4,0.1,0.6c0,0.2-0.1,0.5-0.2,0.7
		c-0.1,0.2-0.3,0.3-0.5,0.4C105.3,102.8,105.1,102.8,104.8,102.8z"/>
	<path class="st3" d="M123,102.7v-0.3c0.5-0.5,0.8-0.9,1.2-1.2c0.3-0.3,0.5-0.6,0.7-0.9c0.2-0.2,0.2-0.5,0.2-0.8
		c0-0.2,0-0.3-0.1-0.5c-0.1-0.1-0.2-0.2-0.3-0.3c-0.3-0.2-0.7-0.1-1,0c-0.2,0.1-0.3,0.2-0.4,0.4l-0.3-0.3c0.2-0.2,0.4-0.4,0.6-0.5
		c0.2-0.1,0.5-0.2,0.8-0.2c0.3,0,0.5,0,0.7,0.2c0.2,0.1,0.4,0.3,0.5,0.5c0.1,0.2,0.2,0.5,0.2,0.7c0,0.3-0.1,0.6-0.2,0.9
		c-0.2,0.3-0.4,0.6-0.7,0.9c-0.3,0.3-0.6,0.7-1,1c0.1,0,0.2,0,0.4,0c0.1,0,0.3,0,0.4,0h1.3v0.5L123,102.7z"/>
	<path class="st3" d="M128.9,102.7v-3c0-0.1,0-0.3,0-0.4s0-0.3,0-0.4h0c-0.1,0.1-0.1,0.2-0.2,0.3c-0.1,0.1-0.1,0.2-0.2,0.3l-1.1,1.6
		h2.6v0.5h-3.2v-0.4l1.9-2.9h0.6v4.5L128.9,102.7z"/>
	<path class="st3" d="M146.6,102.7v-0.3c0.5-0.5,0.8-0.9,1.2-1.2c0.3-0.3,0.5-0.6,0.7-0.9c0.2-0.2,0.2-0.5,0.2-0.8
		c0-0.2,0-0.3-0.1-0.5c-0.1-0.1-0.2-0.2-0.3-0.3c-0.3-0.2-0.7-0.1-1,0c-0.2,0.1-0.3,0.2-0.4,0.4l-0.3-0.3c0.2-0.2,0.4-0.4,0.6-0.5
		c0.2-0.1,0.5-0.2,0.8-0.2c0.3,0,0.5,0,0.7,0.2c0.2,0.1,0.4,0.3,0.5,0.5c0.1,0.2,0.2,0.5,0.2,0.7c0,0.3-0.1,0.6-0.2,0.9
		c-0.2,0.3-0.4,0.6-0.7,0.9c-0.3,0.3-0.6,0.7-1,1c0.1,0,0.2,0,0.4,0c0.1,0,0.3,0,0.4,0h1.3v0.5L146.6,102.7z"/>
	<path class="st3" d="M152,102.8c-0.2,0-0.4,0-0.6-0.1c-0.2-0.1-0.3-0.1-0.5-0.2c-0.1-0.1-0.3-0.2-0.4-0.3l0.3-0.4
		c0.1,0.1,0.2,0.2,0.3,0.3c0.2,0.2,0.5,0.3,0.8,0.3c0.2,0,0.3,0,0.5-0.1c0.1-0.1,0.3-0.2,0.4-0.4c0.1-0.2,0.1-0.4,0.1-0.5
		c0-0.3-0.1-0.5-0.3-0.7c-0.2-0.2-0.4-0.3-0.7-0.3c-0.1,0-0.3,0-0.4,0.1c-0.1,0.1-0.3,0.1-0.4,0.2l-0.3-0.2l0.2-2.2h2.3v0.5h-1.8
		l-0.1,1.4c0.1-0.1,0.2-0.1,0.3-0.1c0.1,0,0.3,0,0.4,0c0.2,0,0.5,0,0.7,0.1c0.2,0.1,0.4,0.3,0.5,0.5c0.1,0.2,0.2,0.5,0.2,0.8
		c0,0.3-0.1,0.6-0.2,0.8c-0.1,0.2-0.3,0.4-0.6,0.5C152.5,102.8,152.3,102.8,152,102.8z"/>
	<path class="st3" d="M4.9,117.6v-0.3c0.5-0.5,0.8-0.9,1.2-1.2c0.3-0.3,0.5-0.6,0.7-0.9c0.2-0.2,0.2-0.5,0.2-0.8
		c0-0.2,0-0.3-0.1-0.5c-0.1-0.1-0.2-0.2-0.3-0.3c-0.1-0.1-0.3-0.1-0.5-0.1c-0.2,0-0.4,0.1-0.5,0.2c-0.2,0.1-0.3,0.2-0.4,0.4
		l-0.3-0.3c0.2-0.2,0.4-0.4,0.6-0.5c0.2-0.1,0.5-0.2,0.8-0.2c0.3,0,0.5,0,0.7,0.2c0.2,0.1,0.4,0.3,0.5,0.5c0.1,0.2,0.2,0.5,0.2,0.7
		c0,0.3-0.1,0.6-0.2,0.9c-0.2,0.3-0.4,0.6-0.7,0.9c-0.3,0.3-0.6,0.7-1,1c0.1,0,0.2,0,0.4,0c0.1,0,0.3,0,0.4,0h1.3v0.5L4.9,117.6z"/>
	<path class="st3" d="M10.6,117.7c-0.2,0-0.4,0-0.6-0.1c-0.2-0.1-0.4-0.2-0.5-0.4c-0.2-0.2-0.3-0.4-0.3-0.7c-0.1-0.3-0.1-0.6-0.1-1
		c0-0.4,0-0.8,0.1-1.2c0.1-0.3,0.2-0.6,0.4-0.8c0.1-0.2,0.3-0.3,0.6-0.4c0.2-0.1,0.4-0.1,0.6-0.1c0.2,0,0.4,0,0.6,0.1
		c0.2,0.1,0.3,0.2,0.5,0.3l-0.3,0.4c-0.2-0.2-0.5-0.4-0.7-0.4c-0.2,0-0.4,0.1-0.6,0.2c-0.2,0.2-0.4,0.4-0.4,0.6
		c-0.1,0.4-0.2,0.8-0.2,1.2c0,0.3,0,0.6,0.1,0.9c0.1,0.2,0.2,0.4,0.3,0.6c0.1,0.1,0.3,0.2,0.5,0.2c0.1,0,0.3,0,0.4-0.1
		c0.1-0.1,0.2-0.2,0.3-0.3c0.1-0.2,0.1-0.3,0.1-0.5c0-0.2,0-0.4-0.1-0.5c-0.1-0.1-0.2-0.3-0.3-0.3c-0.1-0.1-0.3-0.1-0.5-0.1
		c-0.2,0-0.3,0.1-0.5,0.1c-0.2,0.1-0.4,0.3-0.5,0.5l0-0.5c0.1-0.1,0.2-0.2,0.3-0.3c0.1-0.1,0.2-0.2,0.4-0.2c0.1,0,0.3-0.1,0.4-0.1
		c0.2,0,0.5,0,0.7,0.2c0.2,0.1,0.4,0.3,0.5,0.5c0.1,0.2,0.2,0.5,0.2,0.8c0,0.3-0.1,0.5-0.2,0.8c-0.1,0.2-0.3,0.4-0.5,0.5
		C11.1,117.6,10.9,117.7,10.6,117.7z"/>
	<path class="st3" d="M28.6,117.6v-0.3c0.5-0.5,0.8-0.9,1.2-1.2c0.3-0.3,0.5-0.6,0.7-0.9c0.2-0.2,0.2-0.5,0.2-0.8
		c0-0.2,0-0.3-0.1-0.5c-0.1-0.1-0.2-0.2-0.3-0.3c-0.1-0.1-0.3-0.1-0.5-0.1c-0.2,0-0.4,0.1-0.5,0.2c-0.2,0.1-0.3,0.2-0.4,0.4
		l-0.3-0.3c0.2-0.2,0.4-0.4,0.6-0.5c0.2-0.1,0.5-0.2,0.8-0.2c0.3,0,0.5,0,0.7,0.2c0.2,0.1,0.4,0.3,0.5,0.5c0.1,0.2,0.2,0.5,0.2,0.7
		c0,0.3-0.1,0.6-0.2,0.9c-0.2,0.3-0.4,0.6-0.7,0.9c-0.3,0.3-0.6,0.7-1,1c0.1,0,0.2,0,0.4,0c0.1,0,0.3,0,0.4,0h1.3v0.5L28.6,117.6z"
		/>
	<path class="st3" d="M33.6,117.6c0-0.4,0.1-0.8,0.1-1.2c0.1-0.3,0.1-0.7,0.2-1c0.1-0.3,0.2-0.6,0.4-0.9c0.2-0.3,0.4-0.6,0.6-0.9
		h-2.3V113h2.9v0.4c-0.2,0.3-0.5,0.6-0.7,1c-0.2,0.3-0.3,0.6-0.4,1c-0.1,0.3-0.2,0.7-0.2,1c0,0.4-0.1,0.8-0.1,1.2L33.6,117.6z"/>
	<path class="st3" d="M52.2,117.6v-0.3c0.5-0.5,0.8-0.9,1.2-1.2c0.3-0.3,0.5-0.6,0.7-0.9c0.2-0.2,0.2-0.5,0.2-0.8
		c0-0.2,0-0.3-0.1-0.5c-0.1-0.1-0.2-0.2-0.3-0.3c-0.1-0.1-0.3-0.1-0.5-0.1c-0.2,0-0.4,0.1-0.5,0.2c-0.2,0.1-0.3,0.2-0.4,0.4
		l-0.3-0.3c0.2-0.2,0.4-0.4,0.6-0.5c0.2-0.1,0.5-0.2,0.8-0.2c0.3,0,0.5,0,0.7,0.2c0.2,0.1,0.4,0.3,0.5,0.5c0.1,0.2,0.2,0.5,0.2,0.7
		c0,0.3-0.1,0.6-0.2,0.9c-0.2,0.3-0.4,0.6-0.7,0.9c-0.3,0.3-0.6,0.7-1,1c0.1,0,0.2,0,0.4,0c0.1,0,0.3,0,0.4,0h1.3v0.5L52.2,117.6z"
		/>
	<path class="st3" d="M57.7,117.7c-0.3,0-0.5,0-0.8-0.2c-0.2-0.1-0.4-0.2-0.5-0.4c-0.1-0.2-0.2-0.4-0.2-0.6c0-0.2,0-0.4,0.1-0.5
		c0.1-0.2,0.2-0.3,0.3-0.4c0.1-0.1,0.3-0.2,0.4-0.3v0c-0.2-0.1-0.3-0.3-0.4-0.4c-0.1-0.2-0.2-0.4-0.2-0.6c0-0.2,0.1-0.4,0.2-0.6
		c0.1-0.2,0.3-0.3,0.5-0.4c0.2-0.1,0.4-0.1,0.7-0.1c0.2,0,0.5,0,0.7,0.2c0.2,0.1,0.3,0.2,0.4,0.4c0.1,0.2,0.2,0.4,0.2,0.6
		c0,0.2,0,0.3-0.1,0.5c-0.1,0.1-0.1,0.3-0.2,0.4c-0.1,0.1-0.2,0.2-0.3,0.3v0c0.1,0.1,0.3,0.2,0.4,0.3c0.1,0.1,0.2,0.2,0.3,0.4
		c0.1,0.2,0.1,0.3,0.1,0.5c0,0.2-0.1,0.4-0.2,0.6c-0.1,0.2-0.3,0.3-0.5,0.4C58.2,117.6,58,117.7,57.7,117.7z M57.7,117.2
		c0.2,0,0.3,0,0.5-0.1c0.1-0.1,0.2-0.2,0.3-0.3c0.1-0.1,0.1-0.3,0.1-0.4c0-0.1,0-0.3-0.1-0.4c-0.1-0.1-0.2-0.2-0.3-0.3
		c-0.1-0.1-0.3-0.2-0.4-0.2c-0.1-0.1-0.3-0.1-0.5-0.2c-0.2,0.1-0.3,0.3-0.5,0.4c-0.1,0.2-0.2,0.4-0.2,0.6c0,0.2,0,0.3,0.1,0.4
		c0.1,0.1,0.2,0.2,0.4,0.3C57.4,117.2,57.5,117.2,57.7,117.2z M58,115.1c0.1-0.1,0.3-0.3,0.4-0.4c0.1-0.1,0.1-0.3,0.1-0.5
		c0-0.1,0-0.3-0.1-0.4c-0.1-0.1-0.2-0.2-0.3-0.3c-0.1-0.1-0.3-0.1-0.4-0.1c-0.2,0-0.4,0.1-0.5,0.2c-0.1,0.1-0.2,0.3-0.2,0.5
		c0,0.2,0,0.3,0.2,0.5c0.1,0.1,0.2,0.2,0.4,0.3C57.7,114.9,57.8,115,58,115.1z"/>
	<path class="st3" d="M75.8,117.6v-0.3c0.5-0.5,0.8-0.9,1.2-1.2c0.3-0.3,0.5-0.6,0.7-0.9c0.2-0.2,0.2-0.5,0.2-0.8
		c0-0.2,0-0.3-0.1-0.5c-0.1-0.1-0.2-0.2-0.3-0.3c-0.3-0.2-0.7-0.1-1,0c-0.2,0.1-0.3,0.2-0.4,0.4l-0.3-0.3c0.2-0.2,0.4-0.4,0.6-0.5
		c0.2-0.1,0.5-0.2,0.8-0.2c0.3,0,0.5,0,0.7,0.2c0.2,0.1,0.4,0.3,0.5,0.5c0.1,0.2,0.2,0.5,0.2,0.7c0,0.3-0.1,0.6-0.2,0.9
		c-0.2,0.3-0.4,0.6-0.7,0.9c-0.3,0.3-0.6,0.7-1,1c0.1,0,0.2,0,0.4,0c0.1,0,0.3,0,0.4,0h1.3v0.5L75.8,117.6z"/>
	<path class="st3" d="M81,117.7c-0.2,0-0.4,0-0.6-0.1c-0.2-0.1-0.3-0.2-0.5-0.3l0.3-0.4c0.1,0.1,0.2,0.2,0.3,0.3
		c0.1,0.1,0.3,0.1,0.4,0.1c0.2,0,0.4-0.1,0.6-0.2c0.2-0.2,0.4-0.4,0.4-0.6c0.1-0.4,0.2-0.8,0.2-1.2c0-0.3,0-0.6-0.1-0.9
		c-0.1-0.2-0.2-0.4-0.3-0.6c-0.2-0.1-0.3-0.2-0.6-0.2c-0.1,0-0.3,0-0.4,0.1c-0.1,0.1-0.2,0.2-0.3,0.4c-0.1,0.2-0.1,0.3-0.1,0.5
		c0,0.2,0,0.3,0.1,0.5c0.1,0.1,0.2,0.3,0.3,0.3c0.1,0.1,0.3,0.1,0.5,0.1c0.2,0,0.3-0.1,0.5-0.2c0.2-0.1,0.4-0.3,0.5-0.5l0,0.5
		c-0.1,0.1-0.2,0.2-0.3,0.3c-0.1,0.1-0.2,0.2-0.4,0.2c-0.1,0-0.3,0.1-0.4,0.1c-0.2,0-0.5,0-0.7-0.2c-0.2-0.1-0.4-0.3-0.5-0.5
		c-0.1-0.2-0.2-0.5-0.2-0.8c0-0.3,0.1-0.5,0.2-0.8c0.1-0.2,0.3-0.4,0.5-0.5c0.2-0.1,0.4-0.2,0.7-0.2c0.2,0,0.4,0,0.6,0.1
		c0.2,0.1,0.4,0.2,0.5,0.4c0.2,0.2,0.3,0.4,0.3,0.7c0.1,0.3,0.1,0.6,0.1,1c0,0.4,0,0.8-0.1,1.2c-0.1,0.3-0.2,0.5-0.4,0.8
		c-0.1,0.2-0.3,0.3-0.6,0.4C81.4,117.6,81.2,117.7,81,117.7z"/>
	<path class="st3" d="M100.8,117.7c-0.2,0-0.4,0-0.6-0.1c-0.2-0.1-0.3-0.1-0.5-0.2c-0.1-0.1-0.3-0.2-0.4-0.3l0.3-0.4
		c0.1,0.1,0.3,0.3,0.5,0.4c0.2,0.1,0.4,0.2,0.7,0.2c0.2,0,0.3,0,0.5-0.1c0.3-0.1,0.5-0.4,0.5-0.7c0-0.2,0-0.3-0.1-0.5
		c-0.1-0.1-0.3-0.3-0.5-0.3c-0.3-0.1-0.6-0.1-0.9-0.1V115c0.3,0,0.5,0,0.8-0.1c0.2-0.1,0.3-0.2,0.4-0.3c0.1-0.1,0.1-0.3,0.1-0.4
		c0-0.2-0.1-0.4-0.2-0.5c-0.2-0.1-0.4-0.2-0.6-0.2c-0.2,0-0.4,0-0.5,0.1c-0.2,0.1-0.3,0.2-0.4,0.3l-0.3-0.4c0.2-0.2,0.4-0.3,0.6-0.4
		c0.2-0.1,0.5-0.2,0.7-0.2c0.2,0,0.5,0,0.7,0.1c0.2,0.1,0.4,0.2,0.5,0.4c0.1,0.2,0.2,0.4,0.2,0.6c0,0.2-0.1,0.5-0.2,0.7
		c-0.2,0.2-0.4,0.3-0.6,0.4v0c0.2,0,0.3,0.1,0.5,0.2c0.1,0.1,0.3,0.2,0.4,0.4c0.1,0.2,0.1,0.4,0.1,0.6c0,0.2-0.1,0.5-0.2,0.7
		c-0.1,0.2-0.3,0.3-0.5,0.4C101.3,117.6,101,117.7,100.8,117.7z"/>
	<path class="st3" d="M104.9,117.7c-0.3,0-0.6-0.1-0.8-0.3c-0.2-0.2-0.4-0.5-0.5-0.8c-0.1-0.4-0.2-0.9-0.2-1.3c0-0.4,0-0.9,0.2-1.3
		c0.1-0.3,0.3-0.6,0.5-0.8c0.5-0.4,1.1-0.4,1.6,0c0.2,0.2,0.4,0.5,0.5,0.8c0.1,0.4,0.2,0.8,0.2,1.3c0,0.4,0,0.9-0.2,1.3
		c-0.1,0.3-0.3,0.6-0.5,0.8C105.5,117.6,105.2,117.7,104.9,117.7z M104.9,117.2c0.2,0,0.3-0.1,0.5-0.2c0.2-0.2,0.3-0.4,0.3-0.6
		c0.1-0.4,0.1-0.7,0.1-1.1c0-0.4,0-0.7-0.1-1.1c0-0.2-0.2-0.4-0.3-0.6c-0.3-0.3-0.7-0.3-0.9,0c-0.2,0.2-0.3,0.4-0.3,0.6
		c-0.1,0.4-0.1,0.7-0.1,1.1c0,0.4,0,0.7,0.1,1.1c0,0.2,0.2,0.4,0.3,0.6C104.6,117.1,104.7,117.2,104.9,117.2z"/>
	<path class="st3" d="M124.4,117.7c-0.2,0-0.4,0-0.6-0.1c-0.2-0.1-0.3-0.1-0.5-0.2c-0.1-0.1-0.3-0.2-0.4-0.3l0.3-0.4
		c0.1,0.1,0.3,0.3,0.5,0.4c0.2,0.1,0.4,0.2,0.7,0.2c0.2,0,0.3,0,0.5-0.1c0.3-0.1,0.5-0.4,0.5-0.7c0-0.2,0-0.3-0.1-0.5
		c-0.1-0.1-0.3-0.3-0.5-0.3c-0.3-0.1-0.6-0.1-0.9-0.1V115c0.3,0,0.5,0,0.8-0.1c0.2-0.1,0.3-0.2,0.4-0.3c0.1-0.1,0.1-0.3,0.1-0.4
		c0-0.2-0.1-0.4-0.2-0.5c-0.2-0.1-0.4-0.2-0.6-0.2c-0.2,0-0.4,0-0.5,0.1c-0.2,0.1-0.3,0.2-0.4,0.3l-0.3-0.4c0.2-0.2,0.4-0.3,0.6-0.4
		c0.2-0.1,0.5-0.2,0.7-0.2c0.2,0,0.5,0,0.7,0.1c0.2,0.1,0.4,0.2,0.5,0.4c0.1,0.2,0.2,0.4,0.2,0.6c0,0.2-0.1,0.5-0.2,0.7
		c-0.2,0.2-0.4,0.3-0.6,0.4v0c0.2,0,0.3,0.1,0.5,0.2c0.1,0.1,0.3,0.2,0.4,0.4c0.1,0.2,0.1,0.4,0.1,0.6c0,0.2-0.1,0.5-0.2,0.7
		c-0.1,0.2-0.3,0.3-0.5,0.4C124.9,117.6,124.6,117.7,124.4,117.7z"/>
	<path class="st3" d="M127.3,117.6v-0.5h1v-3.3h-0.8v-0.4c0.2,0,0.4-0.1,0.5-0.1c0.1-0.1,0.3-0.1,0.4-0.2h0.4v4.1h0.9v0.5
		L127.3,117.6z"/>
	<path class="st4" d="M7,132.4V132c0.5-0.5,0.8-0.9,1.2-1.2c0.3-0.3,0.5-0.6,0.7-0.9c0.2-0.2,0.2-0.5,0.2-0.8c0-0.2,0-0.3-0.1-0.5
		c-0.1-0.1-0.2-0.2-0.3-0.3c-0.1-0.1-0.3-0.1-0.5-0.1c-0.2,0-0.4,0.1-0.5,0.2c-0.2,0.1-0.3,0.2-0.4,0.4l-0.3-0.3
		c0.2-0.2,0.4-0.4,0.6-0.5c0.2-0.1,0.5-0.2,0.8-0.2c0.3,0,0.5,0,0.7,0.2c0.2,0.1,0.4,0.3,0.5,0.5c0.1,0.2,0.2,0.5,0.2,0.7
		c0,0.3-0.1,0.6-0.2,0.9c-0.2,0.3-0.4,0.6-0.7,0.9c-0.3,0.3-0.6,0.7-1,1c0.1,0,0.2,0,0.4,0c0.1,0,0.3,0,0.4,0h1.3v0.5L7,132.4z"/>
	<path class="st4" d="M32,132.5c-0.2,0-0.4,0-0.6-0.1c-0.2-0.1-0.3-0.1-0.5-0.2c-0.1-0.1-0.3-0.2-0.4-0.3l0.3-0.4
		c0.1,0.1,0.3,0.3,0.5,0.4c0.2,0.1,0.4,0.2,0.7,0.2c0.2,0,0.3,0,0.5-0.1c0.3-0.1,0.5-0.4,0.5-0.7c0-0.2,0-0.3-0.1-0.5
		c-0.1-0.1-0.3-0.3-0.5-0.3c-0.3-0.1-0.6-0.1-0.9-0.1v-0.5c0.3,0,0.5,0,0.8-0.1c0.2-0.1,0.3-0.2,0.4-0.3c0.1-0.1,0.1-0.3,0.1-0.4
		c0-0.2-0.1-0.4-0.2-0.5c-0.2-0.1-0.4-0.2-0.6-0.2c-0.2,0-0.4,0-0.5,0.1c-0.2,0.1-0.3,0.2-0.4,0.3l-0.3-0.4c0.2-0.2,0.4-0.3,0.6-0.4
		c0.2-0.1,0.5-0.2,0.7-0.2c0.2,0,0.5,0,0.7,0.1c0.2,0.1,0.4,0.2,0.5,0.4c0.1,0.2,0.2,0.4,0.2,0.6c0,0.2-0.1,0.5-0.2,0.7
		c-0.2,0.2-0.4,0.3-0.6,0.4v0c0.2,0,0.3,0.1,0.5,0.2c0.1,0.1,0.3,0.2,0.4,0.4c0.1,0.2,0.1,0.4,0.1,0.6c0,0.2-0.1,0.5-0.2,0.7
		c-0.1,0.2-0.3,0.3-0.5,0.4C32.5,132.4,32.2,132.5,32,132.5z"/>
	<path class="st4" d="M56.1,132.4v-3c0-0.1,0-0.3,0-0.4c0-0.2,0-0.3,0-0.4h0c-0.1,0.1-0.1,0.2-0.2,0.3c-0.1,0.1-0.1,0.2-0.2,0.3
		l-1.1,1.6h2.6v0.5H54v-0.4l1.9-2.9h0.6v4.5H56.1z"/>
	<path class="st4" d="M79.2,132.5c-0.2,0-0.4,0-0.6-0.1c-0.2-0.1-0.3-0.1-0.5-0.2c-0.1-0.1-0.3-0.2-0.4-0.3l0.3-0.4
		c0.1,0.1,0.2,0.2,0.3,0.3c0.2,0.2,0.5,0.3,0.8,0.3c0.2,0,0.3,0,0.5-0.1c0.1-0.1,0.3-0.2,0.4-0.4c0.1-0.2,0.1-0.4,0.1-0.5
		c0-0.3-0.1-0.5-0.3-0.7c-0.2-0.2-0.4-0.3-0.7-0.3c-0.1,0-0.3,0-0.4,0.1c-0.1,0.1-0.3,0.1-0.4,0.2l-0.3-0.2l0.2-2.2h2.3v0.5h-1.8
		l-0.1,1.4c0.1-0.1,0.2-0.1,0.3-0.1c0.1,0,0.3,0,0.4,0c0.2,0,0.5,0,0.7,0.1c0.2,0.1,0.4,0.3,0.5,0.5c0.1,0.2,0.2,0.5,0.2,0.8
		c0,0.3-0.1,0.6-0.2,0.8c-0.1,0.2-0.3,0.4-0.6,0.5C79.7,132.4,79.4,132.5,79.2,132.5z"/>
	<path class="st4" d="M103,132.5c-0.2,0-0.4,0-0.6-0.1c-0.2-0.1-0.4-0.2-0.5-0.4c-0.2-0.2-0.3-0.4-0.3-0.7c-0.1-0.3-0.1-0.6-0.1-1
		c0-0.4,0-0.8,0.1-1.2c0.1-0.3,0.2-0.5,0.4-0.8c0.1-0.2,0.3-0.3,0.6-0.4c0.2-0.1,0.4-0.1,0.7-0.1c0.2,0,0.4,0,0.6,0.1
		c0.2,0.1,0.3,0.2,0.5,0.3l-0.3,0.4c-0.1-0.1-0.2-0.2-0.3-0.3c-0.1-0.1-0.3-0.1-0.4-0.1c-0.2,0-0.4,0.1-0.6,0.2
		c-0.2,0.2-0.4,0.4-0.4,0.6c-0.1,0.4-0.2,0.8-0.2,1.2c0,0.3,0,0.6,0.1,0.9c0.1,0.2,0.2,0.4,0.3,0.6c0.2,0.1,0.3,0.2,0.5,0.2
		c0.1,0,0.3,0,0.4-0.1c0.1-0.1,0.2-0.2,0.3-0.3c0.1-0.2,0.1-0.3,0.1-0.5c0-0.2,0-0.4-0.1-0.5c-0.1-0.1-0.2-0.3-0.3-0.3
		c-0.1-0.1-0.3-0.1-0.5-0.1c-0.2,0-0.3,0.1-0.5,0.1c-0.2,0.1-0.4,0.3-0.5,0.5l0-0.5c0.1-0.1,0.2-0.2,0.3-0.3
		c0.1-0.1,0.2-0.2,0.4-0.2c0.1,0,0.3-0.1,0.4-0.1c0.2,0,0.5,0,0.7,0.2c0.2,0.1,0.4,0.3,0.5,0.5c0.1,0.2,0.2,0.5,0.2,0.8
		c0,0.3-0.1,0.5-0.2,0.8c-0.1,0.2-0.3,0.4-0.5,0.5C103.5,132.4,103.3,132.5,103,132.5z"/>
	<path class="st4" d="M126,132.4c0-0.4,0.1-0.8,0.1-1.2c0.1-0.3,0.1-0.7,0.2-1c0.1-0.3,0.2-0.6,0.4-0.9c0.2-0.3,0.4-0.6,0.6-0.9H125
		v-0.5h2.9v0.4c-0.2,0.3-0.5,0.6-0.7,1c-0.2,0.3-0.3,0.6-0.4,1c-0.1,0.3-0.2,0.7-0.2,1c0,0.4-0.1,0.8-0.1,1.2L126,132.4z"/>
	<path class="st4" d="M148.9,117.6v-0.5h1v-3.3h-0.8v-0.4c0.2,0,0.4-0.1,0.5-0.1c0.1-0.1,0.3-0.1,0.4-0.2h0.4v4.1h0.9v0.5
		L148.9,117.6z"/>
	<path class="st4" d="M150.1,132.5c-0.3,0-0.5,0-0.8-0.2c-0.2-0.1-0.4-0.2-0.5-0.4c-0.1-0.2-0.2-0.4-0.2-0.6c0-0.2,0-0.4,0.1-0.5
		c0.1-0.2,0.2-0.3,0.3-0.4c0.1-0.1,0.3-0.2,0.4-0.3v0c-0.2-0.1-0.3-0.3-0.4-0.4c-0.1-0.2-0.2-0.4-0.2-0.6c0-0.2,0.1-0.4,0.2-0.6
		c0.1-0.2,0.3-0.3,0.5-0.4c0.2-0.1,0.4-0.1,0.7-0.1c0.2,0,0.5,0,0.7,0.2c0.2,0.1,0.3,0.2,0.4,0.4c0.1,0.2,0.2,0.4,0.2,0.6
		c0,0.2,0,0.3-0.1,0.5c-0.1,0.1-0.1,0.3-0.2,0.4c-0.1,0.1-0.2,0.2-0.3,0.3v0c0.1,0.1,0.3,0.2,0.4,0.3c0.1,0.1,0.2,0.2,0.3,0.4
		c0.1,0.2,0.1,0.3,0.1,0.5c0,0.2-0.1,0.4-0.2,0.6c-0.1,0.2-0.3,0.3-0.5,0.4C150.6,132.4,150.4,132.5,150.1,132.5z M150.1,132
		c0.2,0,0.3,0,0.5-0.1c0.3-0.1,0.4-0.4,0.4-0.7c0-0.1,0-0.3-0.1-0.4c-0.1-0.1-0.2-0.2-0.3-0.3c-0.1-0.1-0.3-0.2-0.4-0.2
		c-0.1-0.1-0.3-0.1-0.5-0.2c-0.2,0.1-0.3,0.3-0.5,0.4c-0.1,0.2-0.2,0.4-0.2,0.6c0,0.2,0,0.3,0.1,0.4c0.1,0.1,0.2,0.2,0.4,0.3
		C149.8,132,149.9,132,150.1,132L150.1,132z M150.4,129.9c0.1-0.1,0.3-0.3,0.4-0.4c0.1-0.1,0.1-0.3,0.1-0.5c0-0.1,0-0.3-0.1-0.4
		c-0.1-0.1-0.2-0.2-0.3-0.3c-0.1-0.1-0.3-0.1-0.4-0.1c-0.2,0-0.4,0.1-0.5,0.2c-0.1,0.1-0.2,0.3-0.2,0.5c0,0.2,0,0.3,0.1,0.5
		c0.1,0.1,0.2,0.2,0.4,0.3C150.1,129.8,150.2,129.8,150.4,129.9L150.4,129.9z"/>
	<rect x="39" y="152" class="st1" width="12.4" height="10.8"/>
	<path class="st5" d="M57,157.8c0.1,0,0.3-0.1,0.6-0.2c0.3-0.1,0.6-0.1,0.9-0.2c0.3-0.1,0.7-0.2,1-0.3l0,0.1
		c-0.2,0.1-0.5,0.3-0.9,0.5c-0.4,0.2-0.8,0.4-1.2,0.7c0,0,0,0.1-0.1,0.1c0,0-0.1,0.1-0.1,0.1L57,157.8z M57.1,156h1.6l0.3-0.5
		c0.1,0.1,0.2,0.2,0.3,0.3c0.1,0.1,0.2,0.2,0.2,0.2c0,0.1-0.1,0.1-0.2,0.1h-2.3L57.1,156z M58,154.5l0.9,0.1c0,0,0,0.1-0.1,0.1
		c-0.1,0-0.1,0.1-0.2,0.1v5.2c0,0.1,0,0.3-0.1,0.4c0,0.1-0.1,0.2-0.2,0.3c-0.2,0.1-0.3,0.1-0.5,0.1c0-0.1,0-0.2,0-0.3
		c0-0.1,0-0.1-0.1-0.2c0-0.1-0.1-0.1-0.2-0.1c-0.1,0-0.2-0.1-0.3-0.1V160c0.1,0,0.2,0,0.3,0c0.1,0,0.2,0,0.2,0c0.1,0,0.1,0,0.2,0
		c0,0,0.1,0,0.1,0c0,0,0-0.1,0-0.1L58,154.5z M59.7,158.1l0.9,0.2c0,0,0,0.1-0.1,0.1c-0.1,0-0.1,0.1-0.2,0.1c-0.1,0.4-0.2,0.7-0.3,1
		c-0.1,0.3-0.3,0.5-0.5,0.8c-0.2,0.2-0.5,0.4-0.7,0.5l-0.1-0.1c0.3-0.3,0.5-0.7,0.7-1.1C59.6,159.1,59.7,158.6,59.7,158.1
		L59.7,158.1z M59.3,157.5h2.9l0.4-0.5c0.1,0.1,0.2,0.1,0.2,0.2c0.1,0.1,0.1,0.1,0.2,0.2c0.1,0.1,0.1,0.1,0.2,0.2
		c0,0.1-0.1,0.1-0.2,0.1h-3.7L59.3,157.5z M59.8,154.9v-0.3l0.6,0.3h2v0.2h-2v1.9c0,0,0,0-0.1,0.1c-0.1,0-0.1,0.1-0.2,0.1
		c-0.1,0-0.2,0-0.3,0h-0.1L59.8,154.9z M60.1,158.8c0.1,0.3,0.2,0.5,0.4,0.7c0.2,0.2,0.4,0.3,0.6,0.3c0.3,0.1,0.6,0.1,0.9,0.1h0.4
		c0.2,0,0.3,0,0.5,0c0.2,0,0.3,0,0.4,0v0.1c-0.1,0-0.2,0.1-0.2,0.2c0,0.1-0.1,0.2-0.1,0.3H62c-0.2,0-0.5,0-0.7-0.1
		c-0.2,0-0.4-0.1-0.6-0.3c-0.2-0.1-0.3-0.3-0.4-0.5C60.2,159.4,60.1,159.2,60.1,158.8L60.1,158.8z M60.1,155.8h2.3v0.2h-2.3
		L60.1,155.8z M60.1,156.7h2.3v0.2h-2.3L60.1,156.7z M60.9,157.5h0.6v2.6l-0.6-0.1V157.5z M61.2,158.7h0.8l0.4-0.5
		c0.1,0.1,0.2,0.1,0.2,0.2c0.1,0.1,0.1,0.1,0.2,0.2c0.1,0.1,0.1,0.1,0.2,0.2c0,0.1-0.1,0.1-0.2,0.1h-1.7L61.2,158.7z M62.1,154.9
		L62.1,154.9l0.2-0.3l0.7,0.5c0,0-0.1,0.1-0.1,0.1c-0.1,0-0.1,0-0.2,0.1v1.8c0,0,0,0-0.1,0.1c-0.1,0-0.1,0.1-0.2,0.1
		c-0.1,0-0.1,0-0.2,0h-0.1L62.1,154.9z"/>
	<path class="st5" d="M66.2,154.5l0.9,0.3c0,0,0,0.1-0.1,0.1c-0.1,0-0.1,0-0.2,0c-0.2,0.4-0.3,0.8-0.6,1.2c-0.2,0.4-0.4,0.7-0.7,1.1
		c-0.2,0.3-0.5,0.6-0.8,0.9l-0.1-0.1c0.2-0.3,0.4-0.7,0.5-1c0.2-0.4,0.3-0.8,0.5-1.2C65.9,155.4,66.1,154.9,66.2,154.5z M65.6,156.6
		l0.2-0.2l0.7,0.2c0,0.1-0.1,0.1-0.2,0.1v3.8c0,0,0,0-0.1,0.1c-0.1,0-0.1,0.1-0.2,0.1c-0.1,0-0.2,0-0.2,0h-0.1L65.6,156.6z
		 M67.8,158.6l0.8,0.4c0,0,0,0.1-0.1,0.1c-0.1,0-0.1,0-0.2,0c-0.1,0.2-0.3,0.4-0.5,0.6c-0.2,0.2-0.4,0.4-0.7,0.5
		c-0.2,0.2-0.5,0.3-0.8,0.4l-0.1-0.1c0.2-0.2,0.4-0.4,0.6-0.6c0.2-0.2,0.3-0.5,0.5-0.7C67.6,159.1,67.7,158.9,67.8,158.6z
		 M66.5,158.2h3.7l0.4-0.5c0.1,0.1,0.2,0.1,0.2,0.2c0.1,0.1,0.1,0.1,0.2,0.2c0.1,0.1,0.1,0.1,0.2,0.2c0,0.1-0.1,0.1-0.2,0.1h-4.4
		L66.5,158.2z M66.6,156.2H70l0.4-0.5c0.1,0.1,0.2,0.1,0.2,0.2c0.1,0.1,0.1,0.1,0.2,0.2s0.1,0.1,0.2,0.2c0,0.1-0.1,0.1-0.2,0.1h-4.1
		L66.6,156.2z M67.5,154.6l0.9,0.1c0,0,0,0.1-0.1,0.1c0,0-0.1,0.1-0.2,0.1v3.4h-0.6V154.6z M69.1,158.8c0.3,0.1,0.7,0.2,1,0.4
		c0.2,0.1,0.4,0.3,0.6,0.5c0.1,0.1,0.2,0.3,0.2,0.5c0,0.1,0,0.2,0,0.4c0,0.1-0.1,0.2-0.2,0.2c-0.1,0-0.2,0-0.3-0.1
		c-0.1-0.2-0.1-0.3-0.2-0.5c-0.1-0.2-0.2-0.3-0.3-0.5c-0.1-0.2-0.2-0.3-0.4-0.5C69.3,159.1,69.1,158.9,69.1,158.8L69.1,158.8z
		 M69.2,154.6l0.9,0.1c0,0,0,0.1-0.1,0.1c-0.1,0-0.1,0.1-0.2,0.1v3.4h-0.6V154.6z"/>
	<path class="st5" d="M73.4,155.3c0.1,0.2,0.1,0.4,0.1,0.6c0,0.2,0,0.3-0.1,0.4c-0.1,0.1-0.1,0.2-0.3,0.3c-0.1,0-0.2,0.1-0.3,0
		c-0.1,0-0.2-0.1-0.2-0.2c0-0.1,0-0.2,0-0.3c0.1-0.1,0.1-0.1,0.2-0.2c0.1-0.1,0.2-0.2,0.3-0.3c0.1-0.1,0.1-0.3,0.1-0.5L73.4,155.3z
		 M78.2,155.6v0.2h-4.9v-0.2H78.2z M73.4,156.9c0.1,0,0.2,0,0.4,0c0.2,0,0.4,0,0.6-0.1c0.2,0,0.4-0.1,0.7-0.1l0,0.1
		c-0.1,0.1-0.3,0.1-0.5,0.2c-0.2,0.1-0.5,0.2-0.8,0.3c0,0,0,0.1-0.1,0.1c0,0-0.1,0-0.1,0L73.4,156.9z M74,159.6
		C74,159.7,74,159.7,74,159.6c-0.1,0.1-0.2,0.1-0.3,0.2c-0.1,0-0.2,0-0.3,0h-0.1v-2.5l0.7,0.3h3.4v0.2H74L74,159.6z M77.4,154.5
		c0.1,0.1,0.3,0.2,0.4,0.3c0.1,0.1,0.2,0.2,0.3,0.2c0,0.1-0.1,0.1-0.2,0.1h-4.4l-0.1-0.2H77L77.4,154.5z M73.6,156
		c0.3,0,0.5-0.1,0.8,0c0.2,0,0.3,0.1,0.5,0.1c0.1,0,0.2,0.1,0.2,0.2c0,0.1,0,0.1,0,0.2c-0.1,0.1-0.1,0.1-0.2,0.1
		c-0.1-0.1-0.2-0.1-0.3-0.2c-0.1-0.1-0.3-0.1-0.4-0.2c-0.1-0.1-0.3-0.1-0.4-0.1L73.6,156z M77.5,159.2v0.2h-3.7v-0.2H77.5z
		 M77.5,158.4v0.2h-3.7v-0.2H77.5z M75.9,159.8c0,0.1,0,0.2,0,0.2c0.1,0,0.2,0,0.3,0h1.6c0.1,0,0.1,0,0.2,0c0,0,0.1,0,0.1-0.1
		c0.1-0.2,0.2-0.4,0.2-0.6h0.1l0,0.6c0.1,0,0.2,0.1,0.2,0.1c0,0,0,0.1,0,0.1c0,0.1,0,0.2-0.1,0.2c-0.1,0.1-0.2,0.1-0.3,0.1
		c-0.2,0-0.4,0-0.6,0h-1.6c-0.2,0-0.4,0-0.6-0.1c-0.1,0-0.2-0.1-0.3-0.2c-0.1-0.2-0.1-0.3-0.1-0.5v-2.2h0.6V159.8z M76,157.3
		c0,0,0,0-0.1,0.1c-0.1,0-0.3,0.1-0.4,0.1h-0.1v-2.5H76L76,157.3z M76.2,156.7c0.3,0,0.6,0,0.9,0c0.2,0,0.4,0.1,0.5,0.2
		c0.1,0.1,0.2,0.1,0.2,0.2c0,0.1,0,0.1,0,0.2c-0.1,0.1-0.1,0.1-0.2,0.1c-0.1-0.1-0.3-0.2-0.4-0.2c-0.2-0.1-0.3-0.2-0.5-0.2
		c-0.2-0.1-0.3-0.1-0.5-0.2L76.2,156.7z M77.7,156.3c0,0-0.1,0-0.2,0c-0.1,0-0.2,0-0.4,0.1c-0.2,0-0.3,0.1-0.5,0.1
		c-0.2,0-0.3,0.1-0.5,0.1l0-0.1c0.1-0.1,0.3-0.1,0.4-0.2c0.2-0.1,0.3-0.2,0.4-0.3c0.1-0.1,0.2-0.2,0.3-0.2L77.7,156.3z M77.1,157.6
		l0.3-0.3l0.6,0.5c0,0-0.1,0.1-0.1,0.1c-0.1,0-0.1,0-0.2,0.1v1.6c0,0,0,0-0.1,0.1c-0.1,0-0.1,0.1-0.2,0.1c-0.1,0-0.2,0-0.2,0h-0.1
		L77.1,157.6L77.1,157.6z M77.9,155.6l0.3-0.3l0.6,0.6c0,0-0.1,0-0.1,0c-0.1,0-0.1,0-0.2,0c-0.1,0.1-0.2,0.2-0.4,0.3
		c-0.1,0.1-0.3,0.2-0.4,0.3l-0.1,0c0-0.1,0.1-0.2,0.1-0.3s0-0.2,0.1-0.3C77.9,155.8,77.9,155.7,77.9,155.6L77.9,155.6z"/>
	<path class="st5" d="M82.7,155.3c0.1,0.1,0.3,0.2,0.4,0.3c0.1,0.1,0.2,0.2,0.2,0.2c0,0.1-0.1,0.1-0.2,0.1h-2.7l-0.1-0.2h2
		L82.7,155.3z M82.4,156.2c0.1,0.1,0.2,0.2,0.3,0.3c0.1,0.1,0.2,0.1,0.2,0.2c0,0.1-0.1,0.1-0.2,0.1h-2.1l-0.1-0.2h1.5L82.4,156.2z
		 M82.4,157.1c0.1,0.1,0.2,0.2,0.3,0.3c0.1,0.1,0.2,0.1,0.2,0.2c0,0.1-0.1,0.1-0.2,0.1h-2.1l-0.1-0.2h1.5L82.4,157.1z M81.3,160.5
		C81.3,160.5,81.3,160.5,81.3,160.5c-0.1,0.1-0.2,0.1-0.3,0.2c-0.1,0-0.2,0-0.2,0h-0.1v-2.5l0.6,0.2h1.1v0.2h-1.2L81.3,160.5z
		 M82.5,159.9v0.2h-1.4v-0.2H82.5z M81.2,154.5c0.2,0,0.4,0.1,0.6,0.2c0.1,0.1,0.2,0.2,0.3,0.3c0.1,0.1,0.1,0.2,0.1,0.3
		c0,0.1,0,0.2-0.1,0.2c-0.1,0.1-0.1,0.1-0.2,0.1c-0.1,0-0.2,0-0.3-0.1c0-0.2-0.1-0.3-0.2-0.5C81.3,154.9,81.2,154.7,81.2,154.5
		L81.2,154.5z M82.2,158.4l0.3-0.3l0.6,0.5c0,0-0.1,0.1-0.1,0.1c-0.1,0-0.1,0-0.2,0.1v1.6c0,0,0,0-0.1,0.1c-0.1,0-0.1,0.1-0.2,0.1
		c-0.1,0-0.1,0-0.2,0h-0.1L82.2,158.4L82.2,158.4z M86,156.2c0.1,0.1,0.2,0.1,0.2,0.2c0.1,0.1,0.1,0.1,0.2,0.2
		c0.1,0.1,0.1,0.1,0.2,0.2c0,0.1-0.1,0.1-0.2,0.1h-3.3l-0.1-0.2h2.5L86,156.2z M86.3,155.1c0,0-0.1,0.1-0.1,0c-0.1,0-0.2,0-0.2,0
		c-0.2,0.1-0.5,0.1-0.8,0.2c-0.3,0.1-0.6,0.1-0.9,0.2c-0.3,0-0.6,0.1-1,0.1l0-0.1c0.3-0.1,0.6-0.2,0.9-0.3c0.3-0.1,0.6-0.2,0.9-0.3
		c0.2-0.1,0.4-0.2,0.7-0.3L86.3,155.1z M83.9,160.5C83.9,160.5,83.9,160.6,83.9,160.5c-0.1,0.1-0.2,0.1-0.3,0.2c-0.1,0-0.2,0-0.2,0
		h-0.1v-2.9l0.6,0.3h1.9v0.2h-1.9L83.9,160.5z M85.7,160v0.2h-2.1V160H85.7z M85,158.2h-0.6v-2.9l0.6-0.2V158.2z M85.4,158.1
		l0.3-0.3l0.7,0.5c0,0-0.1,0.1-0.1,0.1c-0.1,0-0.1,0-0.2,0.1v2.1c0,0,0,0-0.1,0.1c-0.1,0-0.1,0.1-0.2,0.1c-0.1,0-0.1,0-0.2,0h-0.1
		L85.4,158.1L85.4,158.1z"/>
	<path class="st5" d="M92.1,156.3l0.4-0.4l0.7,0.6c0,0-0.1,0-0.1,0.1c-0.1,0-0.1,0-0.2,0c-0.2,0.3-0.5,0.6-0.8,0.8
		c-0.4,0.3-0.7,0.5-1.1,0.7c-0.4,0.2-0.9,0.4-1.3,0.6c-0.5,0.2-0.9,0.3-1.4,0.4l0-0.1c0.4-0.1,0.9-0.3,1.3-0.5
		c0.4-0.2,0.8-0.4,1.2-0.6c0.3-0.2,0.7-0.5,1-0.8C91.7,156.8,92,156.6,92.1,156.3L92.1,156.3z M89,155c0.1,0.2,0.1,0.4,0.1,0.7
		c0,0.2,0,0.3-0.1,0.5c-0.1,0.1-0.1,0.2-0.3,0.3c-0.1,0-0.1,0.1-0.2,0.1c-0.1,0-0.1,0-0.2,0c-0.1,0-0.1-0.1-0.1-0.1
		c0-0.1,0-0.2,0-0.3c0.1-0.1,0.1-0.1,0.2-0.2c0.1-0.1,0.2-0.1,0.2-0.2c0.1-0.1,0.1-0.2,0.2-0.3c0-0.1,0.1-0.3,0.1-0.4L89,155z
		 M91.1,156C91.1,156,91.1,156,91.1,156c-0.2,0.1-0.2,0.1-0.3,0.1c-0.3,0.4-0.7,0.8-1.1,1.1c-0.4,0.3-0.8,0.5-1.2,0.7l-0.1-0.1
		c0.2-0.2,0.5-0.4,0.7-0.6c0.2-0.2,0.4-0.5,0.6-0.8c0.2-0.3,0.4-0.6,0.5-0.9L91.1,156z M93.6,155.4v0.2h-4.8v-0.2H93.6z M90.1,160.5
		C90.1,160.5,90.1,160.5,90.1,160.5c-0.1,0.1-0.2,0.1-0.2,0.2c-0.1,0-0.2,0-0.3,0h-0.1v-2.2l0.1-0.1l0.6,0.3h-0.1L90.1,160.5z
		 M92.7,160v0.2h-2.9V160H92.7z M92.7,158.7v0.2h-2.9v-0.2L92.7,158.7z M90.1,156.4c0.2,0.3,0.4,0.6,0.7,0.8c0.3,0.2,0.7,0.4,1,0.5
		c0.4,0.2,0.8,0.3,1.2,0.4c0.4,0.1,0.9,0.2,1.3,0.2l0,0.1c-0.1,0-0.3,0.1-0.3,0.2c-0.1,0.1-0.2,0.2-0.2,0.4
		c-0.5-0.1-1.1-0.3-1.6-0.5c-0.5-0.2-0.9-0.5-1.3-0.8C90.5,157.3,90.2,156.9,90.1,156.4L90.1,156.4z M92.5,156.3v0.2h-2.3l0.1-0.2
		H92.5z M90.6,154.5c0.2,0,0.4,0,0.6,0.1c0.1,0,0.2,0.1,0.3,0.2c0.1,0.1,0.1,0.2,0.1,0.3c0,0.2-0.1,0.3-0.3,0.3
		c-0.1,0-0.2,0-0.3-0.1c0-0.2-0.1-0.3-0.2-0.4C90.8,154.7,90.7,154.6,90.6,154.5L90.6,154.5z M92.2,158.7l0.3-0.3l0.6,0.5
		c0,0-0.1,0.1-0.1,0.1c0,0-0.1,0-0.2,0.1v1.5c0,0,0,0-0.1,0.1c-0.1,0-0.1,0.1-0.2,0.1c-0.1,0-0.1,0-0.2,0h-0.1L92.2,158.7
		L92.2,158.7z M93.3,155.4l0.3-0.4l0.6,0.6c-0.1,0-0.2,0.1-0.3,0.1c-0.1,0.1-0.2,0.3-0.4,0.4c-0.1,0.1-0.3,0.2-0.4,0.4l-0.1,0
		c0-0.1,0.1-0.2,0.1-0.3c0-0.1,0-0.2,0.1-0.4C93.3,155.6,93.4,155.5,93.3,155.4L93.3,155.4z"/>
	<path class="st5" d="M96.3,154.9v-0.3l0.7,0.3h-0.1v2c0,0.3,0,0.6,0,0.9c0,0.3,0,0.7-0.1,1c-0.1,0.3-0.2,0.7-0.3,1
		c-0.1,0.3-0.3,0.6-0.5,0.9l-0.1-0.1c0.2-0.4,0.3-0.8,0.3-1.2c0.1-0.4,0.1-0.9,0.1-1.3c0-0.4,0-0.9,0-1.3L96.3,154.9z M96.5,154.9
		h1.4v0.2h-1.4L96.5,154.9z M96.5,156.4h1.4v0.2h-1.4L96.5,156.4z M96.5,158h1.4v0.2h-1.4L96.5,158z M97.6,154.9L97.6,154.9l0.2-0.3
		l0.6,0.5c0,0-0.1,0.1-0.1,0.1c0,0-0.1,0-0.2,0.1v4.7c0,0.1,0,0.3,0,0.4c0,0.1-0.1,0.2-0.2,0.3c-0.2,0.1-0.3,0.1-0.5,0.1
		c0-0.1,0-0.2,0-0.3c0-0.1,0-0.1-0.1-0.2c0-0.1-0.1-0.1-0.2-0.1c-0.1,0-0.2-0.1-0.3-0.1v-0.1c0.1,0,0.2,0,0.3,0s0.2,0,0.2,0
		c0.1,0,0.1,0,0.1,0c0,0,0.1,0,0.1,0c0,0,0-0.1,0-0.1V154.9z M98.8,154.9v-0.3l0.7,0.3h-0.1v5.6c0,0,0,0-0.1,0.1
		c-0.1,0-0.1,0.1-0.2,0.1c-0.1,0-0.2,0-0.3,0h-0.1L98.8,154.9z M99.1,157.1h2.3v0.2h-2.2L99.1,157.1z M99.1,154.9h2.2v0.2h-2.2
		L99.1,154.9z M101.1,157.1L101.1,157.1l0.3-0.3l0.6,0.5c0,0,0,0.1-0.1,0.1c-0.1,0-0.1,0-0.2,0c-0.1,0.4-0.2,0.8-0.4,1.2
		c-0.2,0.4-0.4,0.8-0.7,1.1c-0.3,0.4-0.7,0.7-1.1,0.9l-0.1-0.1c0.3-0.3,0.6-0.6,0.9-0.9c0.2-0.4,0.4-0.8,0.6-1.2
		C101,158,101.1,157.5,101.1,157.1L101.1,157.1z M99.8,157.1c0.1,0.4,0.2,0.7,0.3,1c0.3,0.6,0.7,1.1,1.2,1.4
		c0.3,0.2,0.5,0.3,0.8,0.4l0,0.1c-0.1,0-0.3,0.1-0.4,0.2c-0.1,0.1-0.2,0.2-0.2,0.4c-0.3-0.2-0.5-0.4-0.7-0.6
		c-0.2-0.2-0.4-0.5-0.5-0.7c-0.2-0.3-0.3-0.6-0.4-0.9c-0.1-0.4-0.2-0.8-0.2-1.2L99.8,157.1z M101.1,154.9L101.1,154.9l0.2-0.3
		l0.6,0.5c0,0-0.1,0-0.1,0.1c0,0-0.1,0-0.2,0c0,0.3,0,0.5,0,0.7c0,0.2,0,0.3-0.1,0.4c0,0.1-0.1,0.2-0.2,0.3
		c-0.1,0.1-0.2,0.1-0.3,0.1c-0.1,0-0.3,0-0.4,0c0-0.1,0-0.1,0-0.2c0-0.1,0-0.1-0.1-0.2c-0.1-0.1-0.1-0.1-0.2-0.1
		c-0.1,0-0.2-0.1-0.3-0.1l0-0.1c0.1,0,0.2,0,0.3,0s0.2,0,0.3,0c0.1,0,0.2,0,0.2,0c0,0,0.1,0,0.1,0c0,0,0,0,0.1,0
		c0.1-0.1,0.1-0.2,0.1-0.3C101.1,155.5,101.1,155.2,101.1,154.9L101.1,154.9z"/>
	<path class="st5" d="M104,154.9v-0.3l0.7,0.3h-0.1v2c0,0.3,0,0.6,0,0.9c0,0.3,0,0.7-0.1,1c-0.1,0.3-0.2,0.7-0.3,1
		c-0.1,0.3-0.3,0.6-0.5,0.9l-0.1-0.1c0.2-0.4,0.3-0.8,0.3-1.2c0.1-0.4,0.1-0.9,0.1-1.3c0-0.4,0-0.9,0-1.3V154.9z M104.3,154.9h1.4
		v0.2h-1.4V154.9z M104.3,156.4h1.4v0.2h-1.4V156.4z M104.3,158h1.4v0.2h-1.4V158z M105.4,154.9L105.4,154.9l0.2-0.3l0.6,0.5
		c0,0-0.1,0.1-0.1,0.1c0,0-0.1,0-0.2,0.1v4.7c0,0.1,0,0.3,0,0.4c0,0.1-0.1,0.2-0.2,0.3c-0.2,0.1-0.3,0.1-0.5,0.1c0-0.1,0-0.2,0-0.3
		c0-0.1,0-0.1-0.1-0.2c0-0.1-0.1-0.1-0.2-0.1c-0.1,0-0.2-0.1-0.3-0.1v-0.1c0.1,0,0.2,0,0.3,0s0.2,0,0.2,0c0.1,0,0.1,0,0.1,0
		c0,0,0.1,0,0.1,0c0,0,0-0.1,0-0.1V154.9z M106.5,154.9v-0.3l0.7,0.3h-0.1v5.6c0,0,0,0-0.1,0.1c-0.1,0-0.1,0.1-0.2,0.1
		c-0.1,0-0.2,0-0.3,0h-0.1L106.5,154.9z M106.9,157.1h2.3v0.2h-2.2L106.9,157.1z M106.9,154.9h2.2v0.2h-2.2V154.9z M108.9,157.1
		L108.9,157.1l0.3-0.3l0.6,0.5c0,0,0,0.1-0.1,0.1c-0.1,0-0.1,0-0.2,0c-0.1,0.4-0.2,0.8-0.4,1.2c-0.2,0.4-0.4,0.8-0.7,1.1
		c-0.3,0.4-0.7,0.7-1.1,0.9l-0.1-0.1c0.3-0.3,0.6-0.6,0.9-0.9c0.2-0.4,0.4-0.8,0.6-1.2C108.7,158,108.8,157.5,108.9,157.1
		L108.9,157.1z M107.6,157.1c0.1,0.4,0.2,0.7,0.3,1c0.3,0.6,0.7,1.1,1.2,1.4c0.3,0.2,0.5,0.3,0.8,0.4l0,0.1c-0.1,0-0.3,0.1-0.4,0.2
		c-0.1,0.1-0.2,0.2-0.2,0.4c-0.3-0.2-0.5-0.4-0.7-0.6c-0.2-0.2-0.4-0.5-0.5-0.7c-0.2-0.3-0.3-0.6-0.4-0.9c-0.1-0.4-0.2-0.8-0.2-1.2
		L107.6,157.1z M108.8,154.9L108.8,154.9l0.2-0.3l0.6,0.5c0,0-0.1,0-0.1,0.1c0,0-0.1,0-0.2,0c0,0.3,0,0.5,0,0.7c0,0.2,0,0.3-0.1,0.4
		c0,0.1-0.1,0.2-0.2,0.3c-0.1,0.1-0.2,0.1-0.3,0.1c-0.1,0-0.3,0-0.4,0c0-0.1,0-0.1,0-0.2c0-0.1,0-0.1-0.1-0.2
		c-0.1-0.1-0.1-0.1-0.2-0.1c-0.1,0-0.2-0.1-0.3-0.1l0-0.1c0.1,0,0.2,0,0.3,0s0.2,0,0.3,0c0.1,0,0.2,0,0.2,0c0,0,0.1,0,0.1,0
		c0,0,0,0,0.1,0c0.1-0.1,0.1-0.2,0.1-0.3C108.8,155.5,108.8,155.2,108.8,154.9L108.8,154.9z"/>
	<path class="st5" d="M112.5,156.7h0.6v0.1c-0.2,0.5-0.4,1-0.7,1.5c-0.3,0.5-0.7,0.9-1.1,1.2l-0.1-0.1c0.2-0.3,0.4-0.5,0.5-0.8
		c0.2-0.3,0.3-0.6,0.4-0.9C112.3,157.3,112.4,157,112.5,156.7z M111.4,156.7h2.5v0.2h-2.5L111.4,156.7z M111.5,154.9h2.3v0.2h-2.2
		L111.5,154.9z M112.6,156.7h0.6v3.2c0,0.1,0,0.3-0.1,0.4c0,0.1-0.1,0.2-0.2,0.3c-0.2,0.1-0.4,0.1-0.6,0.1c0-0.1,0-0.2,0-0.3
		c0-0.1-0.1-0.1-0.1-0.2c-0.1-0.1-0.1-0.1-0.2-0.1c-0.1,0-0.2-0.1-0.4-0.1v-0.1c0.1,0,0.3,0,0.4,0c0.1,0,0.2,0,0.3,0
		c0.1,0,0.1,0,0.2,0c0,0,0.1,0,0.1,0c0,0,0-0.1,0-0.1L112.6,156.7z M112,155.5c0.2,0,0.5,0.1,0.7,0.2c0.2,0.1,0.3,0.2,0.4,0.3
		c0.1,0.1,0.1,0.2,0.2,0.3c0,0.1,0,0.2,0,0.3c0,0.1-0.1,0.1-0.2,0.1c-0.1,0-0.2,0-0.3-0.1c-0.1-0.1-0.1-0.3-0.2-0.4
		c-0.1-0.1-0.2-0.2-0.3-0.4C112.2,155.8,112.1,155.7,112,155.5L112,155.5z M113.4,154.9L113.4,154.9l0.3-0.3l0.6,0.6
		c0,0-0.1,0-0.1,0.1c0,0-0.1,0-0.2,0c-0.1,0.1-0.2,0.2-0.4,0.3c-0.1,0.1-0.3,0.2-0.4,0.3c-0.1,0.1-0.3,0.2-0.4,0.2l-0.1,0
		c0.1-0.1,0.1-0.2,0.2-0.3c0.1-0.1,0.2-0.3,0.2-0.4C113.3,155.1,113.4,155,113.4,154.9L113.4,154.9z M113.7,156.7L113.7,156.7
		l0.3-0.3l0.6,0.6c-0.1,0.1-0.2,0.1-0.3,0.1c-0.1,0.1-0.3,0.3-0.4,0.4c-0.2,0.1-0.3,0.2-0.5,0.4l-0.1,0c0-0.1,0.1-0.2,0.2-0.3
		c0.1-0.1,0.1-0.2,0.2-0.4C113.6,156.9,113.7,156.8,113.7,156.7z M115,157.5l0.9,0.1c0,0,0,0.1-0.1,0.1c0,0-0.1,0.1-0.2,0.1
		c0,0.2-0.1,0.4-0.1,0.7c0,0.2-0.1,0.5-0.2,0.7c-0.1,0.2-0.2,0.4-0.4,0.6c-0.2,0.2-0.4,0.4-0.6,0.6c-0.3,0.2-0.6,0.3-1,0.4l-0.1-0.1
		c0.3-0.2,0.6-0.4,0.9-0.6c0.2-0.2,0.4-0.5,0.5-0.8c0.1-0.3,0.2-0.6,0.3-0.9C115,158.1,115,157.8,115,157.5L115,157.5z M116.3,155.4
		h0.7c-0.2,0.6-0.6,1.2-1.2,1.6c-0.6,0.4-1.4,0.8-2.1,0.9l0-0.1c0.6-0.2,1.2-0.6,1.7-1C115.8,156.5,116.1,156,116.3,155.4
		L116.3,155.4z M113.7,158.3h3.1v0.2h-3L113.7,158.3z M114.9,154.5l0.8,0.3c0,0,0,0.1-0.1,0.1c-0.1,0-0.1,0-0.2,0
		c-0.2,0.3-0.4,0.6-0.6,0.9c-0.2,0.2-0.5,0.5-0.8,0.6l-0.1-0.1c0.2-0.3,0.4-0.5,0.5-0.8C114.7,155.2,114.8,154.9,114.9,154.5
		L114.9,154.5z M114.8,155.5c0.4,0.6,0.9,1.1,1.6,1.4c0.4,0.2,0.9,0.3,1.3,0.3l0,0.1c-0.1,0-0.2,0.1-0.2,0.2
		c-0.1,0.1-0.1,0.2-0.1,0.4c-0.3-0.1-0.7-0.2-1-0.4c-0.3-0.1-0.5-0.3-0.7-0.5c-0.2-0.2-0.4-0.4-0.5-0.6c-0.2-0.2-0.3-0.5-0.4-0.7
		L114.8,155.5z M114.8,155.4h1.8l0.4-0.5c0.1,0.1,0.2,0.1,0.2,0.2c0.1,0.1,0.1,0.1,0.2,0.2c0.1,0.1,0.1,0.1,0.2,0.2
		c0,0.1-0.1,0.1-0.2,0.1h-2.6L114.8,155.4z M116.5,158.3L116.5,158.3l0.3-0.3l0.6,0.5c0,0-0.1,0.1-0.1,0.1c-0.1,0-0.1,0-0.2,0
		c0,0.4-0.1,0.7-0.1,0.9c0,0.2-0.1,0.4-0.2,0.6c-0.1,0.1-0.1,0.3-0.2,0.4c-0.1,0.1-0.2,0.1-0.3,0.2c-0.1,0-0.3,0.1-0.4,0
		c0-0.1,0-0.2,0-0.2c0-0.1,0-0.1-0.1-0.2c-0.1-0.1-0.1-0.1-0.2-0.1c-0.1,0-0.2-0.1-0.4-0.1V160c0.1,0,0.2,0,0.3,0s0.2,0,0.3,0
		c0.1,0,0.2,0,0.2,0c0.1,0,0.2,0,0.2-0.1c0.1-0.2,0.2-0.3,0.2-0.5C116.5,159.1,116.5,158.7,116.5,158.3L116.5,158.3z"/>
	<rect x="39" y="168.9" class="st0" width="12.4" height="10.8"/>
	<path class="st5" d="M58.7,171.3l0.9,0.4c0,0,0,0.1-0.1,0.1c-0.1,0-0.1,0-0.2,0c-0.3,0.5-0.6,1-1,1.4c-0.4,0.4-0.8,0.7-1.2,1
		l-0.1-0.1c0.2-0.2,0.4-0.5,0.6-0.8c0.2-0.3,0.4-0.6,0.6-1C58.4,172.1,58.6,171.7,58.7,171.3z M57.1,175.7h5l0.4-0.5
		c0.1,0.1,0.2,0.2,0.3,0.2c0.1,0.1,0.2,0.1,0.2,0.2c0.1,0.1,0.2,0.1,0.2,0.2c0,0.1-0.1,0.1-0.2,0.1h-6L57.1,175.7z M58.2,173.9v-0.3
		l0.8,0.3h-0.1v1.9h-0.7L58.2,173.9z M58.6,172.5h3.3l0.4-0.5c0.1,0.1,0.2,0.1,0.3,0.2c0.1,0.1,0.2,0.1,0.2,0.2s0.2,0.1,0.2,0.2
		c0,0,0,0.1-0.1,0.1c0,0-0.1,0-0.1,0h-4.4L58.6,172.5z M58.6,173.9h3.2l0.4-0.5c0.1,0.1,0.2,0.1,0.2,0.2c0.1,0.1,0.2,0.1,0.2,0.2
		c0.1,0.1,0.2,0.1,0.2,0.2c0,0.1-0.1,0.1-0.2,0.1h-4.1V173.9z M60.2,172.5h0.7v5c0,0-0.1,0.1-0.2,0.1c-0.1,0.1-0.3,0.1-0.4,0.1h-0.1
		L60.2,172.5z"/>
	<path class="st5" d="M66.6,171.7C66.6,171.7,66.6,171.7,66.6,171.7c-0.1,0.1-0.2,0.1-0.3,0.1c-0.2,0.4-0.4,0.7-0.7,1
		c-0.2,0.3-0.5,0.5-0.8,0.7l-0.1-0.1c0.2-0.3,0.4-0.6,0.5-0.9c0.2-0.4,0.3-0.7,0.4-1.1L66.6,171.7z M65.8,173.8l0.1,0.1v3.1
		l-0.5,0.2l0.3-0.2c0,0.1,0,0.2,0,0.3c0,0.1,0,0.2-0.1,0.2c0,0.1-0.1,0.1-0.1,0.1l-0.4-0.7c0.1,0,0.1-0.1,0.2-0.1c0-0.1,0-0.1,0-0.2
		v-2.9L65.8,173.8z M65.3,176.9c0.1,0,0.3-0.1,0.5-0.1c0.2-0.1,0.5-0.1,0.7-0.2c0.3-0.1,0.6-0.1,0.8-0.2l0,0.1
		c-0.2,0.1-0.4,0.3-0.7,0.5c-0.3,0.2-0.7,0.4-1.1,0.6L65.3,176.9z M65.4,173.3l0.7,0.3H66v0.4h-0.6C65.4,174,65.4,173.3,65.4,173.3z
		 M67.5,175.2v0.2h-1.9v-0.2L67.5,175.2z M67.5,174.4v0.2h-1.9v-0.2H67.5z M67.5,173.6v0.2h-1.9v-0.2H67.5z M67.5,171.8
		c0.1,0.1,0.2,0.2,0.3,0.3c0.1,0.1,0.2,0.2,0.3,0.2c0,0.1-0.1,0.1-0.2,0.1h-2v-0.2h1.3L67.5,171.8z M66.2,172.6c0.2,0,0.4,0,0.5,0.1
		c0.1,0,0.2,0.1,0.3,0.2c0.1,0.1,0.1,0.1,0.1,0.2c0,0.1,0,0.1-0.1,0.2c0,0.1-0.1,0.1-0.2,0.1c-0.1,0-0.2,0-0.2-0.1
		c0-0.1-0.1-0.3-0.2-0.4C66.4,172.8,66.3,172.7,66.2,172.6L66.2,172.6z M66.7,175.7c0.2,0.1,0.5,0.3,0.7,0.4
		c0.1,0.1,0.3,0.3,0.4,0.4c0.1,0.1,0.1,0.3,0.1,0.4c0,0.1,0,0.2-0.1,0.3c0,0.1-0.1,0.1-0.2,0.1c-0.1,0-0.2,0-0.3-0.1
		c0-0.2-0.1-0.4-0.1-0.5c-0.1-0.2-0.2-0.4-0.3-0.5C66.8,176.1,66.7,175.9,66.7,175.7L66.7,175.7z M67.1,173.6l0.3-0.3l0.6,0.5
		c-0.1,0.1-0.2,0.1-0.3,0.1v1.7c0,0,0,0-0.1,0.1c-0.1,0-0.1,0.1-0.2,0.1c-0.1,0-0.1,0-0.2,0h-0.1L67.1,173.6L67.1,173.6z
		 M69.3,171.7C69.2,171.7,69.2,171.7,69.3,171.7c-0.1,0.1-0.2,0.1-0.3,0.1c-0.1,0.3-0.3,0.6-0.5,0.9c-0.2,0.2-0.4,0.5-0.6,0.7
		l-0.1-0.1c0.1-0.3,0.3-0.6,0.4-0.8c0.1-0.3,0.2-0.7,0.3-1L69.3,171.7z M68.8,177.4C68.8,177.5,68.8,177.5,68.8,177.4
		c-0.1,0.1-0.2,0.2-0.3,0.2c-0.1,0-0.2,0-0.2,0h-0.1v-4.3l0.6,0.3h1.4v0.2h-1.4L68.8,177.4z M70.4,171.8c0.1,0.1,0.2,0.1,0.2,0.2
		c0.1,0.1,0.1,0.1,0.2,0.2c0.1,0.1,0.1,0.1,0.2,0.2c0,0.1-0.1,0.1-0.2,0.1h-2.4v-0.2H70L70.4,171.8z M69,172.5c0.2,0,0.4,0,0.6,0.1
		c0.1,0,0.2,0.1,0.3,0.2c0.1,0.1,0.1,0.2,0.1,0.2c0,0.1,0,0.1-0.1,0.2c0,0.1-0.1,0.1-0.2,0.1c-0.1,0-0.2,0-0.3-0.1
		c0-0.2-0.1-0.3-0.2-0.4C69.2,172.8,69.1,172.7,69,172.5L69,172.5z M69.8,173.6l0.3-0.3l0.6,0.5c0,0-0.1,0.1-0.1,0.1
		c-0.1,0-0.1,0-0.2,0.1v2.2c0,0.1,0,0.2,0,0.3c0,0.1-0.1,0.2-0.2,0.2c-0.2,0.1-0.3,0.1-0.5,0.1c0-0.1,0-0.2,0-0.2
		c0-0.1,0-0.1-0.1-0.2c0,0-0.1-0.1-0.2-0.1c-0.1,0-0.2-0.1-0.3-0.1v-0.1c0.1,0,0.2,0,0.2,0c0.1,0,0.1,0,0.2,0c0.1,0,0.1,0,0.1,0
		c0,0,0.1,0,0.1,0c0,0,0-0.1,0-0.1L69.8,173.6L69.8,173.6z"/>
	<path class="st5" d="M72.5,175.5h2.9l0.3-0.4c0.1,0.1,0.2,0.2,0.3,0.3c0.1,0.1,0.2,0.2,0.2,0.2c0,0.1-0.1,0.1-0.2,0.1h-3.5
		L72.5,175.5z M73.5,175.8l0.8,0.3c0,0-0.1,0.1-0.1,0.1c-0.1,0-0.1,0-0.2,0c-0.2,0.3-0.4,0.6-0.7,0.8c-0.2,0.2-0.5,0.4-0.8,0.6
		l-0.1-0.1c0.2-0.2,0.4-0.5,0.6-0.8C73.3,176.5,73.4,176.2,73.5,175.8z M72.6,172.5h2.8l0.3-0.4c0.1,0.1,0.2,0.2,0.3,0.3
		c0.1,0.1,0.1,0.1,0.2,0.2c0,0.1-0.1,0.1-0.2,0.1h-3.3L72.6,172.5z M73.2,171.5l0.8,0.1c0,0,0,0.1-0.1,0.1c0,0-0.1,0.1-0.2,0.1v3.8
		h-0.6V171.5z M73.5,174.4h1.6v0.2h-1.6L73.5,174.4z M73.5,173.4h1.6v0.2h-1.6L73.5,173.4z M74.6,175.9c0.2,0,0.4,0.1,0.6,0.2
		c0.1,0.1,0.2,0.2,0.3,0.3c0.1,0.1,0.1,0.2,0.1,0.3c0,0.1,0,0.2-0.1,0.2c-0.1,0.1-0.1,0.1-0.2,0.1c-0.1,0-0.2,0-0.3-0.1
		c0-0.1-0.1-0.3-0.1-0.4c-0.1-0.1-0.1-0.3-0.2-0.4C74.7,176.1,74.6,176,74.6,175.9L74.6,175.9z M74.8,171.5l0.8,0.1
		c0,0,0,0.1-0.1,0.1c0,0-0.1,0.1-0.2,0.1v3.8h-0.6V171.5z M76.3,171.9v-0.3l0.7,0.3h-0.1v2.2c0,0.3,0,0.6,0,0.9
		c0,0.3-0.1,0.6-0.2,0.9c-0.2,0.7-0.7,1.2-1.3,1.6l-0.1-0.1c0.3-0.3,0.5-0.6,0.6-1c0.1-0.4,0.2-0.8,0.3-1.2c0-0.4,0.1-0.8,0.1-1.2
		L76.3,171.9z M76.6,173.4h1.7v0.2h-1.7V173.4z M76.6,174.9h1.6v0.2h-1.6V174.9z M76.6,171.9h1.6v0.2h-1.6V171.9z M77.9,171.9
		L77.9,171.9l0.2-0.4l0.7,0.5c-0.1,0.1-0.2,0.1-0.3,0.1v4.6c0,0.1,0,0.3-0.1,0.4c0,0.1-0.1,0.2-0.2,0.3c-0.2,0.1-0.4,0.1-0.6,0.1
		c0-0.1,0-0.2,0-0.3c0-0.1,0-0.1-0.1-0.2c-0.1-0.1-0.1-0.1-0.2-0.1c-0.1,0-0.2-0.1-0.3-0.1v-0.1c0.1,0,0.2,0,0.3,0
		c0.1,0,0.2,0,0.3,0c0.1,0,0.1,0,0.2,0c0,0,0.1,0,0.1,0c0,0,0-0.1,0-0.1L77.9,171.9z"/>
	<path class="st5" d="M80.7,171.9v-0.3l0.7,0.3h1.4v0.2h-1.4v5.3c0,0,0,0.1-0.1,0.1c-0.1,0-0.1,0.1-0.2,0.1c-0.1,0-0.2,0-0.3,0h-0.1
		V171.9z M81,172.7h1.7v0.2H81V172.7z M81,173.6h1.7v0.2H81V173.6z M82.1,174.5v-0.3l0.6,0.3h1.6v0.2h-1.6v2.1c0,0,0,0-0.1,0.1
		c-0.1,0-0.1,0.1-0.2,0.1c-0.1,0-0.2,0-0.2,0h-0.1L82.1,174.5z M82.5,171.9L82.5,171.9l0.2-0.3l0.6,0.5c0,0-0.1,0.1-0.1,0.1
		c0,0-0.1,0-0.2,0.1v1.8c0,0,0,0-0.1,0.1c-0.1,0-0.1,0.1-0.2,0.1c-0.1,0-0.1,0-0.2,0h-0.1V171.9z M82.4,175.5h1.9v0.2h-1.9V175.5z
		 M82.4,176.4h1.9v0.2h-1.9V176.4z M83.7,171.9v-0.3l0.6,0.3h1.4v0.2h-1.5v1.8c0,0,0,0-0.1,0.1c-0.1,0-0.1,0.1-0.2,0.1
		c-0.1,0-0.2,0-0.2,0h-0.1L83.7,171.9z M84.1,174.5L84.1,174.5l0.2-0.3l0.6,0.5c0,0-0.1,0.1-0.1,0.1c0,0-0.1,0-0.2,0v2
		c0,0,0,0-0.1,0.1c-0.1,0-0.1,0.1-0.2,0.1c-0.1,0-0.1,0-0.2,0h-0.1L84.1,174.5z M84.1,172.7h1.7v0.2h-1.7V172.7z M84.1,173.6h1.7
		v0.2h-1.7V173.6z M85.5,171.9L85.5,171.9l0.2-0.4l0.7,0.5c0,0-0.1,0.1-0.1,0.1c-0.1,0-0.1,0-0.2,0.1v4.6c0,0.1,0,0.3-0.1,0.4
		c0,0.1-0.1,0.2-0.2,0.3c-0.2,0.1-0.4,0.1-0.6,0.1c0-0.1,0-0.2,0-0.3c0-0.1-0.1-0.1-0.1-0.2c-0.1-0.1-0.1-0.1-0.2-0.1
		c-0.1,0-0.2-0.1-0.3-0.1v-0.1c0.1,0,0.2,0,0.3,0c0.1,0,0.2,0,0.3,0c0.1,0,0.1,0,0.2,0c0,0,0.1,0,0.1,0c0,0,0-0.1,0-0.1L85.5,171.9z
		"/>
	<g class="st6">
		<path class="st7" d="M49.6,1.4c-0.6,0-1,0.2-1,1.2v9.8c0,2.9-1.6,5.2-4.5,5.2v-0.1c3.1,0,2.6-2.2,2.6-14.9c0-1.1-0.4-1.3-1.6-1.3
			V1.3L49.6,1.4L49.6,1.4z"/>
	</g>
	<g class="st6">
		<path class="st7" d="M59.9,14.7c-0.8,2.9-2.7,3.5-2.7,0.7c-0.3,0.9-1,1.7-2.5,1.8c-3.9,0.4-5.1-3.8-0.4-5.7
			c1.7-0.7,2.9-1.6,2.9-2.3c-0.1-3-6-2.5-3.3,1.9l-2.1-1c0.6-3.6,7.3-4.1,7.3,0.3v4.4C59.1,16.1,59.1,16.8,59.9,14.7L59.9,14.7z
			 M57.3,14.1V9.4c0,0.1,0,1-3,2.2c-2.4,1-1.2,6,1.4,5.2C56.6,16.5,57.3,15.7,57.3,14.1z"/>
	</g>
	<g class="st6">
		<path class="st7" d="M69.7,15.7c0,0.9,0.3,1.2,1.2,1.2V17h-4v-0.1c0.9,0,1-0.3,1-1.2v-5.4c0-3.3-1.4-3.3-3.5-2.2v7.7
			c0,1.1,0.4,1.2,1.2,1.2V17h-4.2v-0.1c0.7,0,1.2-0.1,1.2-1.2V8.8c0-0.2,0-0.6-0.3-0.6c-0.2,0-0.6,0.2-0.8,0.3V8.4l3.1-1.3v0.8
			c2.9-1.2,5.4-1.3,5.4,2.2V15.7z"/>
	</g>
	<g class="st6">
		<path class="st7" d="M81.3,17c-1.6,0-2.9-0.4-3-0.5c-4.2,2-5.5-0.9-5.5-3.1V8.8c0-0.2,0-0.6-0.3-0.6c-0.2,0-0.6,0.2-0.8,0.3V8.4
			l3-1.3v7c0,1.5,0.1,4.2,3.6,2.3V8.8c0-0.2,0-0.6-0.3-0.6c-0.2,0-0.6,0.2-0.8,0.3V8.4l3-1.3v8.6C80.1,16.8,80.6,16.9,81.3,17
			L81.3,17z"/>
	</g>
	<g class="st6">
		<path class="st7" d="M91.5,14.7c-0.8,2.9-2.7,3.5-2.7,0.7c-0.3,0.9-1,1.7-2.5,1.8c-3.9,0.4-5.1-3.8-0.4-5.7
			c1.7-0.7,2.9-1.6,2.9-2.3c-0.1-3-6-2.5-3.3,1.9l-2.1-1c0.6-3.6,7.3-4.1,7.3,0.3v4.4C90.7,16.1,90.7,16.8,91.5,14.7L91.5,14.7z
			 M88.9,14.1V9.4c0,0.1,0,1-3,2.2c-2.4,1-1.2,6,1.4,5.2C88.2,16.5,88.9,15.7,88.9,14.1z"/>
	</g>
	<g class="st6">
		<path class="st7" d="M95.8,8.4c1.2-1,3.2-1.7,4.1-0.9l-1,2.2h0c0.6-3.3-2.6-2.4-3.1-0.7v6.7c0,1.1,0.4,1.2,1.2,1.2V17h-4.2v-0.1
			c0.7,0,1.2-0.1,1.2-1.2V8.8c0-0.2,0-0.6-0.3-0.6c-0.2,0-0.6,0.2-0.8,0.3V8.4l3-1.3V8.4z"/>
	</g>
	<g class="st6">
		<path class="st7" d="M101.9,7.2L101.9,7.2l4.3-0.1v0.1h-0.3c-0.6,0-0.8,0.5-0.5,1.2l2.4,6.2l1.3-3.6c0.8-2.5,0.3-3.8-1.4-3.8V7.1
			h4.4v0.1H112c-0.5,0-1.5,0.4-2.3,2.6l-2.5,7.3l0,0.1l-0.1,0.2c-1.5,4-2,5.2-5,5.2l1.8-2.9c2,0.8,2.3,0,3.1-2.1
			c0-0.1,0.1-0.2,0-0.5l-3.4-8.7c-0.4-0.9-1-1.2-1.4-1.2H101.9z"/>
	</g>
</g>
</svg>
