<svg xmlns="http://www.w3.org/2000/svg" viewBox="0 0 43.27249 43.17438"><defs><style>.cls-1{fill:#a8c0c2;}</style></defs><g id="圖層_6" data-name="圖層 6"><path class="cls-1" d="M43.27249,19.59509A14.69265,14.69265,0,0,0,39.41335,20.639a15.66247,15.66247,0,0,0-3.41848,2.03965l-.59231-.56171c1.23694-1.45628,5.67081-3.36765,7.70663-3.33236l.1633.50431Z"/><path class="cls-1" d="M43.27249,20.92184c-.3765.0857-.75317.17063-1.12946.25722a13.04391,13.04391,0,0,0-5.06059,2.39246c-.03979.03048-.08472.05424-.17871.11367l-.565-.64629a11.46952,11.46952,0,0,1,1.63447-1.13785,14.111,14.111,0,0,1,4.894-1.76656c.133-.02239.27009-.02.40528-.02911Z"/><path class="cls-1" d="M23.57534,0c.377.06786.75458.13305,1.131.20409a8.3727,8.3727,0,0,1,2.70678.99147A11.86878,11.86878,0,0,0,24.32246.81713a9.35826,9.35826,0,0,0-3.02569.62L20.23348.97463a7.89041,7.89041,0,0,1,2.0533-.762c.32453-.08242.65475-.14247.98239-.21266Z"/><path class="cls-1" d="M0,15.61484l.16783-.18048A13.95343,13.95343,0,0,1,3.6619,17.931l-1.05159.10169L0,16.32924Z"/><path class="cls-1" d="M0,16.94159a7.67915,7.67915,0,0,1,.71411.364c.35163.22536.68477.47956,1.1209.7891l-1.17827.226-.48955-.32748L0,17.45188Z"/><path class="cls-1" d="M5.24894,16.64329l-.583-.54178c5.31-4.85565,15.50082-5.09576,21.35057,1.87253H24.90161A14.60289,14.60289,0,0,0,5.24894,16.64329Z"/><path class="cls-1" d="M15.50121,34.7356l-.59188-.56412c5.80513-5.16508,15.99682-4.69171,21.34709,1.91427l-1.15869-.059A14.5259,14.5259,0,0,0,15.50121,34.7356Z"/><path class="cls-1" d="M24.87424,30.02108A14.5939,14.5939,0,0,0,5.24764,28.687L4.6225,28.1279c.11681-.10441.20729-.19631.30855-.2742a15.26367,15.26367,0,0,1,7.28089-3.07013,15.48071,15.48071,0,0,1,6.9862.623c.51389.16458,1.00232.33342,1.20978.946l.40692-.29975A15.52869,15.52869,0,0,1,26.09107,30.066c-.283-.01939-.46895-.03711-.6553-.04349C25.24974,30.0161,25.06332,30.02108,24.87424,30.02108Z"/><path class="cls-1" d="M26.02415,42.13151l-1.17151-.085A14.56515,14.56515,0,0,0,7.03309,39.5351l-.71465-.47532c1.043-1.235,5.97773-2.52141,8.57943-2.39086A15.16117,15.16117,0,0,1,26.02415,42.13151Z"/><path class="cls-1" d="M34.405,11.92337c-.24021.0129-.4261.01963-.61143.03377-.1847.01409-.36885.03561-.53443.052a13.24884,13.24884,0,0,0-16.84326-.37931l-.55844-.62687A13.9794,13.9794,0,0,1,34.405,11.92337Z"/><path class="cls-1" d="M15.84027,35.09889a14.00441,14.00441,0,0,1,18.5343.91714l-1.13.11181a13.19806,13.19806,0,0,0-16.81507-.39367Z"/><path class="cls-1" d="M24.13021,17.94064l-1.107.098a13.3014,13.3014,0,0,0-16.87-.39425l-.538-.5994A13.92179,13.92179,0,0,1,24.13021,17.94064Z"/><path class="cls-1" d="M24.08757,29.99131l-1.1012.11016A13.13491,13.13491,0,0,0,6.1433,29.75092c-.08554-.1185-.16032-.23019-.24357-.33516-.08375-.10561-.17592-.20453-.26429-.30625C10.46716,24.82677,19.12968,24.8406,24.08757,29.99131Z"/><path class="cls-1" d="M32.53339,8.77589v.97765a14.686,14.686,0,0,0-17.04529.8564l-.58339-.544A15.1959,15.1959,0,0,1,32.53339,8.77589Z"/><path class="cls-1" d="M26.66228,17.6588l-.56067-.62755a13.95168,13.95168,0,0,1,16.33194-.84341c.10561.28862.23006.62068.34776.95511.03729.106.05657.2183.0944.3687A13.27475,13.27475,0,0,0,26.66228,17.6588Z"/><path class="cls-1" d="M25.74692,16.66164l-.635-.60026c.13816-.11685.25922-.22986.39079-.32892a15.46336,15.46336,0,0,1,15.10469-2.04569,1.20291,1.20291,0,0,1,.59487.45391c.21694.32467.44264.64349.66131.967a.84208.84208,0,0,1,.05471.18482,14.51924,14.51924,0,0,0-16.17135,1.36911Z"/><path class="cls-1" d="M41.20864,26.05266l-.5568.63279a14.68257,14.68257,0,0,0-14.92526,2.00849l-.59952-.569A15.20276,15.20276,0,0,1,41.20864,26.05266Z"/><path class="cls-1" d="M15.85549,24.052c-.27957-.02311-.463-.04429-.647-.0518-.18608-.00761-.37272-.00168-.57114-.00168A14.71908,14.71908,0,0,0,8.1817,20.06821a14.55746,14.55746,0,0,0-7.51617-.17647,1.42789,1.42789,0,0,1-.26695-.82951,15.05928,15.05928,0,0,1,8.38291.26971A15.27918,15.27918,0,0,1,15.85549,24.052Z"/><path class="cls-1" d="M17.75174,12.27731c-.279-.04955-.5958-.10441-.91158-.16449-.02536-.00482-.04389-.04554-.06555-.06962,3.98786-3.53907,11.1824-3.83193,15.7167.03363-.20782.04227-.37749.07926-.54817.1108-.18265.03376-.36626.06237-.5024.08531A12.0657,12.0657,0,0,0,17.75174,12.27731Z"/><path class="cls-1" d="M42.72024,18.12551l-1.02736.18371a12.03875,12.03875,0,0,0-13.6941-.00757c-.112-.01742-.29561-.04043-.4768-.07581-.16053-.03135-.31838-.07646-.48874-.11828.84584-1.23148,4.60182-2.67778,7.1011-2.801A12.18719,12.18719,0,0,1,42.72024,18.12551Z"/><path class="cls-1" d="M22.29828,30.15987l-1.1507.21591a11.85764,11.85764,0,0,0-13.58413-.003l-1.117-.21156c.165-.1502.26229-.25725.37693-.3404a12.51464,12.51464,0,0,1,6.14393-2.38423,12.49842,12.49842,0,0,1,8.84582,2.3415C21.96048,29.88344,22.0984,30.002,22.29828,30.15987Z"/><path class="cls-1" d="M22.21232,18.10553c-.01274.00924-.02441.0243-.03837.02686-.33277.06093-.66579.12052-.97248.17563a12.03834,12.03834,0,0,0-13.70278.0009l-.97553-.186c.85994-1.23051,4.58224-2.67054,7.05993-2.81138A12.22943,12.22943,0,0,1,22.21232,18.10553Z"/><path class="cls-1" d="M17.748,36.4006l-.99207-.20231c.97776-1.25307,4.43122-2.65386,7.01961-2.79806A12.54964,12.54964,0,0,1,32.50505,36.14c-.03425.04263-.04137.0609-.05161.06286-.34928.067-.69887.13246-1.00311.18963A12.01184,12.01184,0,0,0,17.748,36.4006Z"/><path class="cls-1" d="M23.84179,19.33289a10.108,10.108,0,0,1-3.00894-.17712c1.23617-.789,5.76509-.69966,8.39646.15529a15.48726,15.48726,0,0,1,7.11409,4.73741L35.16705,23.973c-.6979-.58593-1.33252-1.17855-2.02674-1.69035a13.86356,13.86356,0,0,0-6.98419-2.70182c-.60675-.05932-1.2191-.06334-1.82911-.08637C24.14027,19.48739,23.94871,19.51468,23.84179,19.33289Z"/><path class="cls-1" d="M26.65379,29.699l-.54742-.60851A13.82006,13.82006,0,0,1,40.2327,27.11074l-.67974.59777A13.31037,13.31037,0,0,0,26.65379,29.699Z"/><path class="cls-1" d="M15.86428,36.11139l-1.24215-.09061A14.65315,14.65315,0,0,0,2.49681,31.60384v-.85241a15.04652,15.04652,0,0,1,7.21169.96295A15.40551,15.40551,0,0,1,15.86428,36.11139Z"/><path class="cls-1" d="M1.18145,21.15022l-.362-.7404a13.75571,13.75571,0,0,1,13.05684,3.54726l-1.10784.11811A13.26078,13.26078,0,0,0,1.18145,21.15022Z"/><path class="cls-1" d="M19.56242,12.78807l-1.05283-.33048a11.14266,11.14266,0,0,1,12.19206-.00728l-1.06449.337A10.53995,10.53995,0,0,0,19.56242,12.78807Z"/><path class="cls-1" d="M30.70827,36.57011l-1.07019.32027a10.559,10.559,0,0,0-10.06813.0021l-1.03953-.30822C21.42508,34.33388,26.96353,33.95835,30.70827,36.57011Z"/><path class="cls-1" d="M40.9746,18.477l-1.087.33038a10.61043,10.61043,0,0,0-10.062-.00787c-.148-.039-.32758-.08117-.50382-.13444-.17433-.0527-.34527-.11664-.53822-.18267A11.16076,11.16076,0,0,1,40.9746,18.477Z"/><path class="cls-1" d="M9.32227,30.86732,8.28089,30.5475a11.02977,11.02977,0,0,1,12.14094-.00559l-1.03211.32494A10.54324,10.54324,0,0,0,9.32227,30.86732Z"/><path class="cls-1" d="M19.52911,18.79131c-.39379-.1519-.7735-.2929-1.1491-.44411a10.36547,10.36547,0,0,0-8.6379.26523c-.13735.0648-.27409.13091-.417.19923l-1.03846-.31832a11.09348,11.09348,0,0,1,12.1313-.04571C20.16147,18.64571,19.84021,18.63045,19.52911,18.79131Z"/><path class="cls-1" d="M13.89209,36.02094l-1.13372.10645A13.20349,13.20349,0,0,0,2.63084,32.97267c-.02986-.15182-.06491-.27784-.077-.406-.01253-.13275-.00279-.2676-.00279-.40011A13.60808,13.60808,0,0,1,13.89209,36.02094Z"/><path class="cls-1" d="M39.02529,28.087l-.94574.57523a11.93435,11.93435,0,0,0-10.03266,1.709c-.22541-.03968-.442-.07538-.65757-.11675-.11492-.02206-.228-.05394-.35327-.08414.01058-.22246.19237-.28121.31911-.37391a12.48121,12.48121,0,0,1,5.39366-2.26762,12.64306,12.64306,0,0,1,5.987.43312C38.81087,27.98581,38.88133,28.02427,39.02529,28.087Z"/><path class="cls-1" d="M25.09567,40.15149a15.55858,15.55858,0,0,1,10.97551-3.42842l-.3309.83833a15.718,15.718,0,0,0-5.25979.67416,14.71281,14.71281,0,0,0-4.69676,2.50715C25.5018,40.62217,25.35614,40.36116,25.09567,40.15149Z"/><path class="cls-1" d="M23.9667,20.83316a2.78254,2.78254,0,0,1-.06342-.32969c-.00962-.149-.0025-.29911-.0025-.44,2.90568-.63187,8.68849,1.53609,10.44649,3.90478l-1.10671.10231A13.30366,13.30366,0,0,0,23.9667,20.83316Z"/><path class="cls-1" d="M18.46957,38.65853l-.86122.656a13.447,13.447,0,0,0-9.10886.975L7.51718,39.832a12.23946,12.23946,0,0,1,3.62212-1.421A14.23982,14.23982,0,0,1,18.46957,38.65853Z"/><path class="cls-1" d="M10.89293,24.34508A11.9329,11.9329,0,0,0,1.99079,22.381l-.49529-.67892c.50227-.36914,2.89767-.48924,4.43608-.253a12.6327,12.6327,0,0,1,6.13657,2.68646Z"/><path class="cls-1" d="M5.24773,7.95034a14.00454,14.00454,0,0,1,8.68148,3.96205l-1.18443.09637a13.25148,13.25148,0,0,0-8.761-3.22983A6.25193,6.25193,0,0,1,5.24773,7.95034Z"/><path class="cls-1" d="M15.80633,11.95838H14.65362a15.52865,15.52865,0,0,0-3.87279-2.89991A14.97157,14.97157,0,0,0,6.269,7.58462l.00927-.116c.50156-.13631,1.00042-.28428,1.50644-.40126a.97834.97834,0,0,1,.44557.05105A14.79559,14.79559,0,0,1,13.87843,10.058c.561.465,1.06844.995,1.59465,1.50125A4.80361,4.80361,0,0,1,15.80633,11.95838Z"/><path class="cls-1" d="M35.42714,38.1308c-.05378.10882-.09893.21677-.1582.31632-.09487.15932-.19911.31307-.31126.48765a13.04173,13.04173,0,0,0-8.29223,2.8292l-.549-.61322C27.82413,39.29305,33.15653,37.56553,35.42714,38.1308Z"/><path class="cls-1" d="M2.9426,34.31015l-.22808-.82187a5.33873,5.33873,0,0,1,.56833-.09175,12.67557,12.67557,0,0,1,8.53028,2.58494c.06556.04955.12142.112.21561.19994-.21533.04826-.38786.09166-.56234.12473-.18266.03462-.3672.05932-.578.09263A11.81058,11.81058,0,0,0,2.9426,34.31015Z"/><path class="cls-1" d="M11.965,12.10844l-1.07729.17586a11.91668,11.91668,0,0,0-8.5178-2.0139c.11589-.14317.1968-.25194.28712-.35223.0908-.10081.19521-.18936.28591-.29025.10231-.1138.196-.23538.26847-.32335A12.17177,12.17177,0,0,1,11.965,12.10844Z"/><path class="cls-1" d="M18.48287,1.08355a15.4422,15.4422,0,0,1,7.57021,4.83633H24.86476a14.71468,14.71468,0,0,0-7.43711-4.20053Z"/><path class="cls-1" d="M32.47993,24.14981l-1.0927.202a11.78717,11.78717,0,0,0-7.23857-2.13634l-.16358-.81232C26.17148,20.90508,31.05969,22.49137,32.47993,24.14981Z"/><path class="cls-1" d="M1.20335,11.89328c.13631-.2284.22789-.3893.32683-.54553.09965-.15735.20662-.31008.33382-.49979a11.45372,11.45372,0,0,1,8.39549,1.58225l-1.09789.3486A10.87716,10.87716,0,0,0,1.20335,11.89328Z"/><path class="cls-1" d="M16.03,2.86381l.86125-.74824a13.90163,13.90163,0,0,1,7.29133,3.77458l-1.19709.08992A13.26748,13.26748,0,0,0,16.03,2.86381Z"/><path class="cls-1" d="M21.27,13.48126,20.19088,13.009a10.16094,10.16094,0,0,1,8.82339-.00853l-1.08439.481A9.35533,9.35533,0,0,0,21.27,13.48126Z"/><path class="cls-1" d="M27.90617,37.60074a8.92192,8.92192,0,0,0-3.32645-.62868,8.7905,8.7905,0,0,0-3.28515.6279l-1.0433-.45764a9.76189,9.76189,0,0,1,8.71217-.01311Z"/><path class="cls-1" d="M31.537,19.51912c-.32916-.145-.62347-.27388-.91682-.40492a.45627.45627,0,0,1-.08079-.05984,9.68666,9.68666,0,0,1,8.668-.00691l-1.04483.46954a9.59324,9.59324,0,0,0-3.32089-.62089A9.2919,9.2919,0,0,0,31.537,19.51912Z"/><path class="cls-1" d="M11.04818,19.51841l-1.0349-.45107a9.68681,9.68681,0,0,1,8.6943-.017l-1.04357.46816A9.101,9.101,0,0,0,11.04818,19.51841Z"/><path class="cls-1" d="M11.05018,31.571l-1.11437-.48823a10.26729,10.26729,0,0,1,8.82973-.00587l-1.097.49352A9.1442,9.1442,0,0,0,11.05018,31.571Z"/><path class="cls-1" d="M29.83335,30.86637l-1.03789-.311c1.38777-1.46469,6.4288-2.37749,8.467-1.51609-.30537.10712-.56593.20159-.82859.28983-.27135.09116-.54473.17627-.86985.281A10.55279,10.55279,0,0,0,29.83335,30.86637Z"/><path class="cls-1" d="M.60674,13.37069a.70884.70884,0,0,1,.01711-.18991c.0813-.22088.17274-.438.26432-.66641a10.15613,10.15613,0,0,1,7.62305.49107l-1.09515.48624a8.97636,8.97636,0,0,0-2.87945-.61311,8.95,8.95,0,0,0-3.40077.49075A.55267.55267,0,0,1,.60674,13.37069Z"/><path class="cls-1" d="M3.08469,23.6018c-.24806-.26532-.55134-.43917-.68982-.79554a11.48927,11.48927,0,0,1,7.85933,1.67787c-.24356.08243-.41179.1441-.583.196-.1779.05393-.35867.09842-.56531.15438A10.63549,10.63549,0,0,0,3.08469,23.6018Z"/><path class="cls-1" d="M28.04919,42.43178c-.3035-.059-.58532-.11243-.86633-.16984a1.26535,1.26535,0,0,1-.17913-.07249,1.96212,1.96212,0,0,1,.23747-.25779,12.29913,12.29913,0,0,1,5.40985-2.33108c.61534-.10212,1.2394-.15169,1.94306-.23526a3.81781,3.81781,0,0,1-.78711.957A11.841,11.841,0,0,0,28.04919,42.43178Z"/><path class="cls-1" d="M22.32579,6.0556l-1.18526.20587A12.22818,12.22818,0,0,0,18.25512,4.783a11.63694,11.63694,0,0,0-3.20889-.632,3.20881,3.20881,0,0,1,.58123-.84055A12.64617,12.64617,0,0,1,22.32579,6.0556Z"/><path class="cls-1" d="M10.20026,36.57162l-1.056.31895A10.98615,10.98615,0,0,0,3.498,35.609c-.06381-.11446-.14412-.2404-.206-.37484-.05553-.12067-.09076-.25067-.13542-.3779A10.37507,10.37507,0,0,1,10.20026,36.57162Z"/><path class="cls-1" d="M16.87536,39.762c-.14919.07842-.30054.153-.44719.23595a2.50251,2.50251,0,0,1-1.4609.31808,11.37206,11.37206,0,0,0-3.97533.44843,1.61439,1.61439,0,0,1-.69761.0439,2.60451,2.60451,0,0,1-1.0731-.327,12.75752,12.75752,0,0,1,7.63553-.82723Z"/><path class="cls-1" d="M30.74888,24.49317l-1.12864.3494a10.64467,10.64467,0,0,0-5.07341-1.27532l-.291-.88816A11.58158,11.58158,0,0,1,30.74888,24.49317Z"/><path class="cls-1" d="M5.5056,18.0006,4.356,17.94917A15.08342,15.08342,0,0,0,.19912,14.90646,3.93957,3.93957,0,0,1,.23438,14.497a3.83385,3.83385,0,0,1,.112-.38439C1.44265,14.25586,4.78994,16.75961,5.5056,18.0006Z"/><path class="cls-1" d="M43.15576,21.48062l-.17418.83641c-.8579.28281-1.68057.49808-2.456.82534-.7774.32812-1.50762.768-2.32173,1.19177L37.147,24.125A12.59951,12.59951,0,0,1,43.15576,21.48062Z"/><path class="cls-1" d="M20.50357,6.41059l-1.13263.353a10.48427,10.48427,0,0,0-5.17429-1.2761l.45908-.8766A11.3489,11.3489,0,0,1,20.50357,6.41059Z"/><path class="cls-1" d="M21.96255,25.274a7.56539,7.56539,0,0,1,2.85482-1.17466,4.54759,4.54759,0,0,1,1.41319.08951,8.888,8.888,0,0,1,2.74814.87942l-1.07424.4775A9.4138,9.4138,0,0,0,21.96255,25.274Z"/><path class="cls-1" d="M36.27488,30.96783c-.87192.01717-1.66819-.02322-2.45017.06416-.7673.08574-1.52008.3014-2.40163.48561l-.97962-.41991a10.03867,10.03867,0,0,1,5.55815-.95714Z"/><path class="cls-1" d="M24.15722,42.04228l-1.0947.10756c-.6876-.47364-1.3246-.9187-1.969-1.35276a3.4351,3.4351,0,0,0-.66192-.37458A3.49648,3.49648,0,0,1,18.91888,38.857,13.31978,13.31978,0,0,1,24.15722,42.04228Z"/><path class="cls-1" d="M17.661,7.46446a9.65415,9.65415,0,0,0-4.01108-.60819l.31444-.8913A10.01557,10.01557,0,0,1,18.738,6.98864Z"/><path class="cls-1" d="M1.45855,13.82464a7.69049,7.69049,0,0,1,5.27509.0099l-.95541.56276a8.96787,8.96787,0,0,0-3.33108.00571Z"/><path class="cls-1" d="M17.01285,19.84652l-.99475.58056a8.57714,8.57714,0,0,0-3.315.00558L11.695,19.8512A7.91458,7.91458,0,0,1,17.01285,19.84652Z"/><path class="cls-1" d="M27.25119,13.82263l-.92648.54325c-.5929-.04081-1.14857-.10831-1.70434-.10909-.55622-.00078-1.11253.06512-1.74725.107l-.89917-.52265A7.65685,7.65685,0,0,1,27.25119,13.82263Z"/><path class="cls-1" d="M37.5096,19.84575l-1.00289.58043a8.652,8.652,0,0,0-3.31405.00459L32.19,19.85057A7.92186,7.92186,0,0,1,37.5096,19.84575Z"/><path class="cls-1" d="M22.93057,26.45673l-.98337-.58352a7.948,7.948,0,0,1,5.3188-.00083c-.18466.10536-.33384.189-.48156.27517-.16064.09371-.31991.18976-.51337.30476A8.7691,8.7691,0,0,0,22.93057,26.45673Z"/><path class="cls-1" d="M17.01123,31.89713l-.99381.58185a8.76641,8.76641,0,0,0-3.31992.00149l-.977-.561A7.64125,7.64125,0,0,1,17.01123,31.89713Z"/><path class="cls-1" d="M22.92014,38.50435l-1.02077-.60766a8.60608,8.60608,0,0,1,5.3926-.00252l-1.00612.60792A9.36654,9.36654,0,0,0,22.92014,38.50435Z"/><path class="cls-1" d="M22.94653,2.35481l-.9534-.55785c.78266-.6004,3.978-.67712,5.25009-.03021l-.99015.58477A8.06907,8.06907,0,0,0,22.94653,2.35481Z"/><path class="cls-1" d="M13.41582,7.60405l.13836-.2351a8.30206,8.30206,0,0,1,3.48419.39913l-.959.5724c-.5917-.03934-1.148-.104-1.70447-.10554-.55683-.00155-1.11384.06-1.75424.09892l-.89294-.52325A1.95175,1.95175,0,0,1,13.41582,7.60405Z"/><path class="cls-1" d="M26.66734,5.61209l-.583-.65461a13.51341,13.51341,0,0,1,3.6429-2.11961l.62515.69366A13.89156,13.89156,0,0,0,26.66734,5.61209Z"/><path class="cls-1" d="M25.77419,4.59572c-.11537-.09511-.221-.17725-.32088-.2659-.10107-.08972-.19643-.18587-.337-.31993a14.2881,14.2881,0,0,1,3.447-2.15215l.77531.61827A15.293,15.293,0,0,0,25.77419,4.59572Z"/><path class="cls-1" d="M8.438,37.14547l-1.01361.44922a9.68585,9.68585,0,0,0-3.1277-.61l-.50916-.77379C4.69194,35.86636,7.57637,36.51968,8.438,37.14547Z"/><path class="cls-1" d="M18.78188,19.85339l-.39568.94633-2.90658,1.82569-.5318-.607a14.52967,14.52967,0,0,1,3.73964-2.23725Z"/><path class="cls-1" d="M30.66815,3.94163l.49163.71649c-.55659.24711-1.0983.46228-1.61609.72465-.51213.2595-1.00011.56667-1.53483.87369l-1.10581-.209A12.33573,12.33573,0,0,1,30.66815,3.94163Z"/><path class="cls-1" d="M36.40985,31.57939l.15894.88213c-.41522-.04424-.77427-.09754-1.13513-.11677a10.40767,10.40767,0,0,0-1.1163-.00273c-.37082.02015-.73957.07817-1.158.12505l-1.01615-.59177A8.46763,8.46763,0,0,1,36.40985,31.57939Z"/><path class="cls-1" d="M8.50421,25.066l-1.03332.45482c-.61115-.15507-1.1984-.30411-1.78569-.453a.56085.56085,0,0,0-.14781-.03447c-.76643.02717-1.25751-.492-1.918-.93206A9.45856,9.45856,0,0,1,8.50421,25.066Z"/><path class="cls-1" d="M40.01032,24.82009l-.96353-.28973a8.317,8.317,0,0,1,3.66565-1.5475c.00853.33935.0005.36679-.25037.86262Z"/><path class="cls-1" d="M33.038,40.95918A8.669,8.669,0,0,1,29.55111,42.836l-.852-.25552A10.16035,10.16035,0,0,1,33.038,40.95918Z"/><path class="cls-1" d="M2.85859,28.60651l.28747-.84586a14.91048,14.91048,0,0,1,2.45532,2.31774L4.3715,29.99605Z"/><path class="cls-1" d="M31.42777,5.13412l.361.7503-2.00459.86566-1.07484-.33194A10.03961,10.03961,0,0,1,31.42777,5.13412Z"/><path class="cls-1" d="M36.29349,11.94784H35.16816l-1.65083-1.47966a3.98947,3.98947,0,0,1,1.40286.06044A10.95787,10.95787,0,0,1,36.29349,11.94784Z"/><path class="cls-1" d="M4.48812,25.4126a7.76528,7.76528,0,0,1,2.30463.44009l-.98075.57969-1.83451-.17649A2.49068,2.49068,0,0,1,4.48812,25.4126Z"/><path class="cls-1" d="M17.81373,21.80792l-.78656,1.07929.12762.25032-.74043.54608-.567-.64434A6.9964,6.9964,0,0,1,17.81373,21.80792Z"/><path class="cls-1" d="M32.24876,7.20551l-.70971.26177-1.08271-.48094a6.18721,6.18721,0,0,1,1.52866-.5877Z"/><path class="cls-1" d="M27.90819,43.1225a8.19887,8.19887,0,0,1-3.72475-.3944A12.83256,12.83256,0,0,1,27.90819,43.1225Z"/><path class="cls-1" d="M35.33651,34.12912l1.23132-.91058a2.79109,2.79109,0,0,1,.00639,1.06811l-.55542.4419Z"/><path class="cls-1" d="M15.39186,32.89105l-1.03352.7929-1.04169-.78225A4.66889,4.66889,0,0,1,15.39186,32.89105Z"/><path class="cls-1" d="M4.70868,37.484a7.29458,7.29458,0,0,1,2.073.42167l-1.02559.61023A3.99221,3.99221,0,0,1,4.70868,37.484Z"/><path class="cls-1" d="M25.63138,26.87029l-1.0293.78469-1.03672-.7796A4.53185,4.53185,0,0,1,25.63138,26.87029Z"/><path class="cls-1" d="M25.66231,2.73712l-1.06012.8124-1.06327-.80691A6.72332,6.72332,0,0,1,25.66231,2.73712Z"/><path class="cls-1" d="M33.81326,32.90295a4.68049,4.68049,0,0,1,2.068-.01049l-1.03319.791Z"/><path class="cls-1" d="M34.84572,21.6301l-1.0387-.78628a5.45588,5.45588,0,0,1,2.09893-.02518Z"/><path class="cls-1" d="M23.54944,14.80687a5.07179,5.07179,0,0,1,2.08086.01095l-1.03123.782Z"/><path class="cls-1" d="M5.14368,14.81405l-1.03429.78461-1.05226-.79084A5.19485,5.19485,0,0,1,5.14368,14.81405Z"/><path class="cls-1" d="M15.40722,20.82887,14.352,21.626l-1.037-.78026A5.10966,5.10966,0,0,1,15.40722,20.82887Z"/><path class="cls-1" d="M14.33783,9.56649l-1.03419-.79295a6.40544,6.40544,0,0,1,2.0929-.00975A11.8916,11.8916,0,0,1,14.33783,9.56649Z"/><path class="cls-1" d="M25.62913,38.92524l-1.03288.78362-.983-.74656A3.85214,3.85214,0,0,1,25.62913,38.92524Z"/><path class="cls-1" d="M4.097,27.663l-.64794-.52247.167-.34191a4.06267,4.06267,0,0,1,1.531.06953Z"/><path class="cls-1" d="M18.40433,23.9496l-.58413.39983-1.14369-.216a4.84913,4.84913,0,0,1,1.01787-.73232Z"/><path class="cls-1" d="M38.81289,11.94911l-.498.33412-1.10831-.18962c.20743-.3167.497-.41893.73407-.63389Z"/><path class="cls-1" d="M42.15526,24.58611l-.534.87817-.96476-.41581,1.425-.55919Z"/><path class="cls-1" d="M2.54547,30.09858l.17086-.95773.96646.83977Z"/><path class="cls-1" d="M11.90391,7.166l-.85894.29677-1.02348-.44983A3.74631,3.74631,0,0,1,11.90391,7.166Z"/><path class="cls-1" d="M37.45213,11.23345l-.54326.40775-.58535-.67882C36.77024,10.84381,37.05457,11.10207,37.45213,11.23345Z"/></g></svg>