<svg xmlns="http://www.w3.org/2000/svg" viewBox="0 0 46.91464 27.63054"><defs><style>.cls-1{fill:none;stroke:#a8c0c2;stroke-miterlimit:10;}</style></defs><g id="圖層_6" data-name="圖層 6"><path class="cls-1" d="M26.04037,10.16274a2.01656,2.01656,0,0,1,.32587-4.0068h5.80692a2.828,2.828,0,1,0,0-5.65594H3.328a2.828,2.828,0,0,0,0,5.65594H8.6251"/><path class="cls-1" d="M14.74161,15.81867H43.58667a2.828,2.828,0,1,0,0-5.65593H26.04037"/><line class="cls-1" x1="8.6251" y1="6.15594" x2="18.96197" y2="6.15594"/><path class="cls-1" d="M24.08843,15.81867H9.6659a2.82792,2.82792,0,0,0-2.828,2.828"/><path class="cls-1" d="M31.044,24.30258a2.82792,2.82792,0,0,0-2.828-2.828H13.79354"/><path class="cls-1" d="M13.79354,27.13054H28.21607a2.82792,2.82792,0,0,0,2.828-2.828"/><path class="cls-1" d="M6.83793,18.64664a2.82792,2.82792,0,0,0,2.828,2.828H24.08843"/></g></svg>