<svg xmlns="http://www.w3.org/2000/svg" viewBox="0 0 20.98883 20.83978"><defs><style>.cls-1{fill:#d70051;}</style></defs><g id="圖層_4" data-name="圖層 4"><path class="cls-1" d="M20.97282,9.2378a7.107,7.107,0,0,0-1.85353.55135,7.57642,7.57642,0,0,0-1.62843,1.02753l-.2932-.26448a6.89325,6.89325,0,0,1,3.68642-1.70435l.085.2419Z"/><path class="cls-1" d="M20.98883,9.87936c-.181.046-.36215.09159-.54306.138a6.30957,6.30957,0,0,0-2.41824,1.21794c-.01887.01522-.04031.02725-.085.05712l-.281-.3057a5.548,5.548,0,0,1,.77664-.56993,6.82553,6.82553,0,0,1,2.34523-.91327c.064-.01243.13036-.01292.19563-.019Z"/><path class="cls-1" d="M11.21173,0c.18313.02826.36648.05523.54937.08505A4.05006,4.05006,0,0,1,13.082.53183,5.74118,5.74118,0,0,0,11.58286.38612a4.52641,4.52641,0,0,0-1.45562.33631L9.60749.5116A3.81667,3.81667,0,0,1,10.5912.11838c.15593-.04377.31489-.07679.47247-.11469Z"/><path class="cls-1" d="M0,7.83507l.079-.0893A6.74937,6.74937,0,0,1,1.79868,8.9109l-.50728.06186L.00862,8.18052Z"/><path class="cls-1" d="M.016,8.47663a3.717,3.717,0,0,1,.34971.1674c.17275.10473.33691.22364.55154.36806l-.567.12348L.10954,8.98312.02216,8.72338Z"/><path class="cls-1" d="M2.55058,8.26907l-.28845-.25495A7.36372,7.36372,0,0,1,12.609,8.66207l-.53913.01344A7.06356,7.06356,0,0,0,2.55058,8.26907Z"/><path class="cls-1" d="M7.72639,16.89411l-.293-.26565a7.36069,7.36069,0,0,1,10.34567.66818l-.561-.01456a7.02633,7.02633,0,0,0-9.49165-.388Z"/><path class="cls-1" d="M12.20194,14.5013a7.05922,7.05922,0,0,0-9.50672-.40836l-.309-.26282c.05522-.0519.09787-.09743.14589-.13632a7.38325,7.38325,0,0,1,3.48371-1.57241,7.48817,7.48817,0,0,1,3.38575.217.751.751,0,0,1,.59642.44288l.19315-.14985a7.51133,7.51133,0,0,1,2.59978,1.87691c-.13708-.006-.22722-.01229-.3174-.01312S12.29337,14.499,12.20194,14.5013Z"/><path class="cls-1" d="M12.90406,20.34355l-.56751-.027a7.04529,7.04529,0,0,0-8.64711-.99948l-.3513-.22123c.48942-.6098,2.86017-1.29135,4.11982-1.25961A7.33358,7.33358,0,0,1,12.90406,20.34355Z"/><path class="cls-1" d="M16.5923,5.635c-.116.00913-.2058.01463-.29525.0237-.08915.009-.17793.02167-.2578.0316A6.40859,6.40859,0,0,0,7.89,5.71007l-.2776-.29639A6.762,6.762,0,0,1,16.5923,5.635Z"/><path class="cls-1" d="M7.89473,17.06569a6.77407,6.77407,0,0,1,8.97349.21993l-.54506.0677a6.384,6.384,0,0,0-8.13583.01246Z"/><path class="cls-1" d="M11.69644,8.66867l-.53414.06074a6.434,6.434,0,0,0-8.1624.01285L2.73251,8.4589A6.7341,6.7341,0,0,1,11.69644,8.66867Z"/><path class="cls-1" d="M11.82118,14.4964,11.29,14.563a6.35348,6.35348,0,0,0-8.14885.03365c-.04279-.05627-.0803-.10938-.12182-.15913-.04177-.05006-.08754-.09679-.1315-.14491A6.69487,6.69487,0,0,1,11.82118,14.4964Z"/><path class="cls-1" d="M15.64933,4.13561l.01179.47275A7.10375,7.10375,0,0,0,7.429,5.22808l-.28866-.256A7.35039,7.35039,0,0,1,15.64933,4.13561Z"/><path class="cls-1" d="M12.91745,8.50184l-.27869-.29669a6.74856,6.74856,0,0,1,7.88729-.60484c.05455.13829.11873.29736.17968.45766.01931.05079.03.10487.0501.17715A6.42112,6.42112,0,0,0,12.91745,8.50184Z"/><path class="cls-1" d="M12.46279,8.0307l-.31431-.28261c.06539-.05816.12257-.11427.185-.16376a7.47978,7.47978,0,0,1,7.27934-1.17141.58186.58186,0,0,1,.29313.21232c.10882.15438.2218.30582.33145.45964a.40777.40777,0,0,1,.02868.08871,7.02307,7.02307,0,0,0-7.80329.85711Z"/><path class="cls-1" d="M20.05272,12.38531l-.26162.31271a7.10208,7.10208,0,0,0-7.193,1.15125l-.29677-.26792A7.35372,7.35372,0,0,1,20.05272,12.38531Z"/><path class="cls-1" d="M7.76884,11.72369c-.13547-.0078-.22443-.01583-.3135-.01724-.09008-.00143-.18026.00368-.2762.00608A7.11977,7.11977,0,0,0,4.01005,9.88985a7.04151,7.04151,0,0,0-3.63664.00532.69061.69061,0,0,1-.13909-.39789,7.28432,7.28432,0,0,1,4.05689.0293A7.39076,7.39076,0,0,1,7.76884,11.72369Z"/><path class="cls-1" d="M8.54376,6.007c-.13552-.02059-.28936-.0433-.44279-.06854-.01232-.002-.02177-.0215-.03254-.03288a6.04812,6.04812,0,0,1,7.60037-.17331c-.1.02294-.18159.04288-.26374.06019-.08791.01853-.17635.03458-.24191.04731A5.83629,5.83629,0,0,0,8.54376,6.007Z"/><path class="cls-1" d="M20.68805,8.53383l-.49457.10123a5.82328,5.82328,0,0,0-6.622.16151c-.05437-.00707-.14343-.016-.23147-.0309-.078-.01322-.15487-.03313-.23776-.0513a5.81848,5.81848,0,0,1,3.4-1.44013A5.89509,5.89509,0,0,1,20.68805,8.53383Z"/><path class="cls-1" d="M10.958,14.59949l-.55382.11828a5.73565,5.73565,0,0,0-6.56877.1624l-.54269-.08884c.078-.07462.12373-.12755.17817-.16915a6.05348,6.05348,0,0,1,2.94219-1.227,6.04567,6.04567,0,0,1,4.30573,1.02556C10.7913,14.46989,10.85942,14.52555,10.958,14.59949Z"/><path class="cls-1" d="M10.771,8.77154c-.006.00462-.0115.012-.01822.01345-.16018.03348-.3205.06631-.46814.09666a5.823,5.823,0,0,0-6.62609.16572l-.474-.0782A5.946,5.946,0,0,1,10.771,8.77154Z"/><path class="cls-1" d="M8.83291,17.67214l-.48216-.08587a5.74622,5.74622,0,0,1,3.36065-1.4377,6.07042,6.07042,0,0,1,4.25429,1.21953c-.016.021-.01927.03-.0242.031-.16809.03661-.33634.07248-.48277.1038A5.81024,5.81024,0,0,0,8.83291,17.67214Z"/><path class="cls-1" d="M11.57376,9.34538A4.88889,4.88889,0,0,1,10.11663,9.296c.58824-.39646,2.77932-.40787,4.06206-.02619a7.49132,7.49132,0,0,1,3.49722,2.205l-.56974-.02231c-.34455-.27492-.65857-.55383-1.00044-.79294a6.70593,6.70593,0,0,0-3.40986-1.22225c-.29412-.02137-.59027-.01592-.88553-.0197C11.72,9.41649,11.62766,9.432,11.57376,9.34538Z"/><path class="cls-1" d="M13.05857,14.32408l-.27205-.28765a6.68489,6.68489,0,0,1,6.807-1.1277l-.32149.29725A6.43834,6.43834,0,0,0,13.05857,14.32408Z"/><path class="cls-1" d="M7.91855,17.555l-.60175-.02883a7.08785,7.08785,0,0,0-5.91658-1.9896l-.01028-.41219a7.27816,7.27816,0,0,1,3.49889.37865A7.4518,7.4518,0,0,1,7.91855,17.555Z"/><path class="cls-1" d="M.63807,10.4975l-.184-.35366a6.65377,6.65377,0,0,1,6.35655,1.55782l-.53428.07047A6.41438,6.41438,0,0,0,.63807,10.4975Z"/><path class="cls-1" d="M9.42549,6.2322,8.9124,6.08508a5.38983,5.38983,0,0,1,5.89549-.15058l-.51068.1758A5.09826,5.09826,0,0,0,9.42549,6.2322Z"/><path class="cls-1" d="M15.102,17.59778l-.51364.16777a5.10748,5.10748,0,0,0-4.86851.12246l-.50639-.1365A5.34684,5.34684,0,0,1,15.102,17.59778Z"/><path class="cls-1" d="M19.84817,8.72487l-.52162.17287a5.13236,5.13236,0,0,0-4.86568.11757c-.072-.0171-.15938-.03531-.24525-.05894-.08494-.02338-.16837-.05223-.26246-.08184A5.39857,5.39857,0,0,1,19.84817,8.72487Z"/><path class="cls-1" d="M4.69185,15.0981,4.18442,14.956a5.33521,5.33521,0,0,1,5.8708-.14915l-.49517.16958A5.09985,5.09985,0,0,0,4.69185,15.0981Z"/><path class="cls-1" d="M9.48179,9.13552c-.19225-.0687-.37756-.13231-.561-.20089a5.01386,5.01386,0,0,0-4.17373.23244c-.06564.033-.131.06661-.19926.10137l-.506-.1414A5.366,5.366,0,0,1,9.90745,8.9586C9.78582,9.05748,9.63029,9.054,9.48179,9.13552Z"/><path class="cls-1" d="M6.96379,17.53506l-.54694.06515a6.38663,6.38663,0,0,0-4.93531-1.40334c-.01627-.07305-.03474-.13356-.04213-.1954-.00766-.064-.00458-.12937-.00618-.19345A6.58238,6.58238,0,0,1,6.96379,17.53506Z"/><path class="cls-1" d="M19.02148,13.39538l-.45039.28957a5.77276,5.77276,0,0,0-4.83077.94742c-.10947-.01647-.21465-.03111-.31938-.04852-.05584-.00928-.11088-.02334-.17184-.03643.00244-.1077.08963-.1383.1498-.18466a6.0372,6.0372,0,0,1,2.5808-1.16158A6.11561,6.11561,0,0,1,18.88,13.3384C18.91657,13.349,18.95111,13.36677,19.02148,13.39538Z"/><path class="cls-1" d="M12.4312,19.39729a7.52586,7.52586,0,0,1,5.266-1.79024l-.14989.40938a7.60263,7.60263,0,0,0-2.53529.38944,7.11649,7.11649,0,0,0-2.24092,1.269C12.63327,19.62,12.55969,19.49553,12.4312,19.39729Z"/><path class="cls-1" d="M11.65226,10.06935a1.348,1.348,0,0,1-.03464-.15866c-.00645-.07194-.00482-.14461-.00652-.21275a6.53392,6.53392,0,0,1,5.0986,1.76219l-.53393.06282A6.43506,6.43506,0,0,0,11.65226,10.06935Z"/><path class="cls-1" d="M9.20909,18.75527l-.40854.32759a6.50451,6.50451,0,0,0-4.39292.58134l-.48052-.20936A5.92046,5.92046,0,0,1,5.66148,18.724,6.888,6.888,0,0,1,9.20909,18.75527Z"/><path class="cls-1" d="M5.37268,11.92526a5.77206,5.77206,0,0,0-4.3284-.84238l-.24769-.32232a4.725,4.725,0,0,1,2.14206-.17583,6.11043,6.11043,0,0,1,2.99979,1.225Z"/><path class="cls-1" d="M2.44514,4.06553A6.77411,6.77411,0,0,1,6.69094,5.8767l-.57158.06089A6.40981,6.40981,0,0,0,1.84392,4.48145,3.02409,3.02409,0,0,1,2.44514,4.06553Z"/><path class="cls-1" d="M7.59919,5.87629l-.5574.01391a7.51149,7.51149,0,0,0-1.9077-1.35557,7.24214,7.24214,0,0,0-2.1995-.65827l.00308-.0562c.24089-.072.48033-.14953.72361-.2122a.47337.47337,0,0,1,.21608.01931A7.15686,7.15686,0,0,1,6.644,4.98059c.27688.2181.52865.46827.78921.70671A2.32394,2.32394,0,0,1,7.59919,5.87629Z"/><path class="cls-1" d="M17.40271,18.29554c-.02469.05327-.04522.106-.07269.15487-.044.07819-.0925.15379-.14462.23956a6.30845,6.30845,0,0,0-3.97566,1.46811l-.27289-.28991A6.45627,6.45627,0,0,1,17.40271,18.29554Z"/><path class="cls-1" d="M1.64842,16.83986l-.1202-.39467a2.57966,2.57966,0,0,1,.27372-.05122A6.1313,6.1313,0,0,1,5.958,17.541c.0323.02317.06007.05267.10667.09408-.10354.02594-.18644.049-.27042.0671-.08791.01894-.17685.03311-.27838.05176A5.713,5.713,0,0,0,1.64842,16.83986Z"/><path class="cls-1" d="M5.74348,5.99519l-.51881.098a5.7642,5.7642,0,0,0-4.14315-.8711c.05431-.07063.09212-.1242.13459-.17379.04269-.04984.09211-.09392.13475-.1438.0481-.05627.09192-.11619.12592-.1596A5.88764,5.88764,0,0,1,5.74348,5.99519Z"/><path class="cls-1" d="M8.76229.58538a7.46964,7.46964,0,0,1,3.719,2.24735l-.304.00758-.27059.00675A7.11756,7.11756,0,0,0,8.25969.90556Z"/><path class="cls-1" d="M15.80892,11.57046l-.52595.11083a5.70154,5.70154,0,0,0-3.526-.94573l-.0889-.39083A5.82528,5.82528,0,0,1,15.80892,11.57046Z"/><path class="cls-1" d="M.537,6.021c.06316-.11209.1055-.191.15146-.26774.04629-.07729.09617-.15243.1554-.2457a5.54021,5.54021,0,0,1,4.0788.66384L4.396,6.35317A5.26139,5.26139,0,0,0,.537,6.021Z"/><path class="cls-1" d="M7.59764,1.47583l.40745-.3722a6.7244,6.7244,0,0,1,3.57132,1.73728l-.57778.05792A6.41763,6.41763,0,0,0,7.59764,1.47583Z"/><path class="cls-1" d="M10.25954,6.5468,9.732,6.33143a4.91494,4.91494,0,0,1,4.26653-.11054L13.48,6.46653A4.52524,4.52524,0,0,0,10.25954,6.5468Z"/><path class="cls-1" d="M13.75948,18.13a4.31554,4.31554,0,0,0-1.61612-.26388,4.252,4.252,0,0,0-1.581.34325l-.51-.20871a4.722,4.722,0,0,1,4.2127-.11143Z"/><path class="cls-1" d="M15.29709,9.34262c-.16092-.06614-.30478-.12492-.44822-.18475a.22023.22023,0,0,1-.03979-.028A4.68551,4.68551,0,0,1,19.00049,9.022l-.49957.23965a4.64044,4.64044,0,0,0-1.61334-.26018A4.49462,4.49462,0,0,0,15.29709,9.34262Z"/><path class="cls-1" d="M5.38954,9.58941l-.50588-.20563a4.68561,4.68561,0,0,1,4.204-.11308l-.499.239A4.40222,4.40222,0,0,0,5.38954,9.58941Z"/><path class="cls-1" d="M5.53588,15.41753l-.54475-.22264a4.96639,4.96639,0,0,1,4.26963-.10935l-.52451.25188A4.42315,4.42315,0,0,0,5.53588,15.41753Z"/><path class="cls-1" d="M14.61016,14.85023l-.50563-.13786a5.178,5.178,0,0,1,4.076-.83524c-.14637.05548-.27123.1043-.39717.15014-.13012.04735-.26128.09181-.41724.14636A5.10447,5.10447,0,0,0,14.61016,14.85023Z"/><path class="cls-1" d="M.26633,6.74257a.34283.34283,0,0,1,.006-.092c.03665-.10779.07824-.2139.11977-.32544a4.91261,4.91261,0,0,1,3.69212.14552l-.5237.24833a4.393,4.393,0,0,0-3.03833.01659A.26734.26734,0,0,1,.26633,6.74257Z"/><path class="cls-1" d="M1.588,11.66c-.12315-.12531-.2719-.20571-.34317-.37637a5.55744,5.55744,0,0,1,3.8207.71655c-.11679.0428-.19739.07465-.27954.10181-.08538.02822-.17225.05191-.2715.08147A5.14448,5.14448,0,0,0,1.588,11.66Z"/><path class="cls-1" d="M13.88691,20.46432c-.14747-.02489-.28439-.04731-.421-.07168a.61177.61177,0,0,1-.08749-.0329.949.949,0,0,1,.11172-.12752A5.94921,5.94921,0,0,1,16.078,19.03976c.29632-.05681.59749-.08831.93674-.1372a1.84644,1.84644,0,0,1-.36907.47224A5.72762,5.72762,0,0,0,13.88691,20.46432Z"/><path class="cls-1" d="M10.68054,2.94331l-.57066.11385a5.9148,5.9148,0,0,0-1.4131-.68011,5.6293,5.6293,0,0,0-1.55931-.26692,1.55183,1.55183,0,0,1,.27092-.41346A6.117,6.117,0,0,1,10.68054,2.94331Z"/><path class="cls-1" d="M5.18521,17.84588l-.50681.167a5.31407,5.31407,0,0,0-2.74573-.55162c-.03224-.05458-.07259-.11451-.10413-.17877-.0283-.05768-.04691-.12012-.07-.18111A5.01853,5.01853,0,0,1,5.18521,17.84588Z"/><path class="cls-1" d="M8.4515,19.30809c-.0712.03972-.14348.07763-.2134.11949a1.21041,1.21041,0,0,1-.70259.17143,5.501,5.501,0,0,0-1.9169.26479.7809.7809,0,0,1-.33681.02965,1.2599,1.2599,0,0,1-.52285-.1452,6.17094,6.17094,0,0,1,3.68226-.49212Z"/><path class="cls-1" d="M14.976,11.75737l-.54154.18257a5.14894,5.14894,0,0,0-2.46868-.55549l-.15144-.426A5.60208,5.60208,0,0,1,14.976,11.75737Z"/><path class="cls-1" d="M2.69106,8.92231l-.55652-.011A7.296,7.296,0,0,0,.08774,7.49012a1.90459,1.90459,0,0,1,.01211-.19845,1.85459,1.85459,0,0,1,.04952-.18722A6.17593,6.17593,0,0,1,2.69106,8.92231Z"/><path class="cls-1" d="M20.93912,10.151l-.07414.40656c-.41143.1471-.80665.26112-1.17765.42872-.37195.168-.71976.38955-1.10831.6043l-.51359-.0884A6.09453,6.09453,0,0,1,20.93912,10.151Z"/><path class="cls-1" d="M9.80367,3.137l-.54344.18436a5.07129,5.07129,0,0,0-2.51747-.55465l.21142-.42943A5.48959,5.48959,0,0,1,9.80367,3.137Z"/><path class="cls-1" d="M10.7367,12.24093a3.6595,3.6595,0,0,1,1.36631-.60246,2.19993,2.19993,0,0,1,.68444.02624,4.29955,4.29955,0,0,1,1.3395.39211l-.5137.24386A4.55358,4.55358,0,0,0,10.7367,12.24093Z"/><path class="cls-1" d="M17.72624,14.8216c-.42141.01882-.80694.00889-1.184.06058-.37.05071-.73141.16408-1.15547.26379l-.47877-.19124a4.8558,4.8558,0,0,1,2.67615-.52988Z"/><path class="cls-1" d="M12.00022,20.32292l-.52806.06521c-.33821-.22074-.6516-.42827-.96845-.63039a1.66219,1.66219,0,0,0-.32459-.17315c-.3661-.131-.54178-.44834-.75037-.73874A6.4429,6.4429,0,0,1,12.00022,20.32292Z"/><path class="cls-1" d="M8.44184,3.68085a4.66985,4.66985,0,0,0-1.94693-.24572l.1413-.43479a4.84479,4.84479,0,0,1,2.32068.43743Z"/><path class="cls-1" d="M.6837,6.95181A3.71992,3.71992,0,0,1,3.23464,6.893l-.45521.28365a4.33757,4.33757,0,0,0-1.61071.04294Z"/><path class="cls-1" d="M8.27776,9.67613l-.474.29273a4.14879,4.14879,0,0,0-1.60293.04268l-.49452-.269A3.82832,3.82832,0,0,1,8.27776,9.67613Z"/><path class="cls-1" d="M13.15594,6.63972l-.44145.27387c-.28719-.01258-.55671-.03852-.82546-.03219-.269.00633-.53719.0449-.84361.07279l-.44111-.24188A3.70363,3.70363,0,0,1,13.15594,6.63972Z"/><path class="cls-1" d="M18.18915,9.42852l-.478.29277a4.18508,4.18508,0,0,0-1.60248.04219L15.61687,9.495A3.83185,3.83185,0,0,1,18.18915,9.42852Z"/><path class="cls-1" d="M11.21906,12.80118l-.48255-.27031a3.84446,3.84446,0,0,1,2.57194-.06456c-.088.05318-.15915.09542-.22954.13887-.07655.04725-.15241.09562-.24457.15356A4.24162,4.24162,0,0,0,11.21906,12.80118Z"/><path class="cls-1" d="M8.42233,15.50333l-.47354.29335a4.24044,4.24044,0,0,0-1.60536.04076l-.4792-.2595A3.69611,3.69611,0,0,1,8.42233,15.50333Z"/><path class="cls-1" d="M11.35934,18.627l-.50093-.28153a4.16291,4.16291,0,0,1,2.60761-.06627l-.47919.30611A4.53062,4.53062,0,0,0,11.35934,18.627Z"/><path class="cls-1" d="M10.93606,1.14627,10.46831.888A3.65272,3.65272,0,0,1,13.00667.81009l-.47174.29471A3.9033,3.9033,0,0,0,10.93606,1.14627Z"/><path class="cls-1" d="M6.39072,3.79955l.06407-.11535a4.01566,4.01566,0,0,1,1.68962.151l-.4568.28835c-.2866-.01188-.55638-.03644-.82549-.03047-.26928.006-.53788.04243-.84708.069l-.4381-.24225A.94411.94411,0,0,1,6.39072,3.79955Z"/><path class="cls-1" d="M12.77458,2.67648,12.48479,2.367a6.53661,6.53661,0,0,1,1.736-1.0689l.31067.32789A6.71968,6.71968,0,0,0,12.77458,2.67648Z"/><path class="cls-1" d="M12.33044,2.19578c-.05694-.0446-.109-.08305-.15838-.12471-.05-.04216-.09723-.08751-.16682-.15064A6.91143,6.91143,0,0,1,13.64611.83816l.38237.28962A7.39715,7.39715,0,0,0,12.33044,2.19578Z"/><path class="cls-1" d="M4.34,18.14462l-.48472.22945a4.68505,4.68505,0,0,0-1.51979-.25726l-.25554-.368A3.86521,3.86521,0,0,1,4.34,18.14462Z"/><path class="cls-1" d="M9.13328,9.65811l-.17992.46238-1.38349.91789-.26447-.28713a7.02817,7.02817,0,0,1,1.78135-1.127Z"/><path class="cls-1" d="M14.68906,1.82046l.24638.34053c-.26617.12621-.52552.23679-.77274.36991-.24451.13166-.47677.28608-.73164.441l-.53724-.08773A5.96679,5.96679,0,0,1,14.68906,1.82046Z"/><path class="cls-1" d="M17.79888,15.1157l.0875.42464c-.20132-.01638-.37558-.03783-.55031-.04277a5.032,5.032,0,0,0-.53983.01214c-.17907.01422-.35668.04672-.55843.07444l-.49851-.2739A4.09572,4.09572,0,0,1,17.79888,15.1157Z"/><path class="cls-1" d="M4.22629,12.30269l-.49419.2324c-.29739-.06762-.58316-.13261-.86895-.19754a.27114.27114,0,0,0-.07189-.01488c-.37028.02238-.614-.22276-.93869-.42757A4.57519,4.57519,0,0,1,4.22629,12.30269Z"/><path class="cls-1" d="M19.4584,11.80374l-.46942-.12848a4.023,4.023,0,0,1,1.75389-.79252c.00822.164.00466.17736-.11067.42015Z"/><path class="cls-1" d="M16.28152,19.692a4.19329,4.19329,0,0,1-1.66347.94961l-.41507-.11328A4.91474,4.91474,0,0,1,16.28152,19.692Z"/><path class="cls-1" d="M1.539,14.08283l.12881-.41249a7.212,7.212,0,0,1,1.21525,1.09115l-.59571-.025Z"/><path class="cls-1" d="M15.07077,2.38793l.18363.35847-.9589.44277-.52376-.14754A4.8562,4.8562,0,0,1,15.07077,2.38793Z"/><path class="cls-1" d="M17.50582,5.62408l-.54416.01358-.81613-.6956a1.92983,1.92983,0,0,1,.6791.01231A5.30047,5.30047,0,0,1,17.50582,5.62408Z"/><path class="cls-1" d="M2.28845,12.51873a3.75606,3.75606,0,0,1,1.11974.185l-.46726.29214-.88922-.06321A1.20469,1.20469,0,0,1,2.28845,12.51873Z"/><path class="cls-1" d="M8.6887,10.61492l-.36734.53139.06474.1195-.35146.273-.28195-.30474A3.38407,3.38407,0,0,1,8.6887,10.61492Z"/><path class="cls-1" d="M15.49275,3.37967l-.34.13514-.52935-.2195a2.993,2.993,0,0,1,.73211-.30263Z"/><path class="cls-1" d="M13.82706,20.8a3.96581,3.96581,0,0,1-1.80589-.14579A6.2073,6.2073,0,0,1,13.82706,20.8Z"/><path class="cls-1" d="M17.31062,16.36159l.58443-.45517a1.35012,1.35012,0,0,1,.016.51641l-.26325.22039Z"/><path class="cls-1" d="M7.65126,16.00348l-.4902.39588-.51315-.3657A2.25838,2.25838,0,0,1,7.65126,16.00348Z"/><path class="cls-1" d="M2.54071,18.35329a3.52868,3.52868,0,0,1,1.00752.1789l-.48857.30746A1.93108,1.93108,0,0,1,2.54071,18.35329Z"/><path class="cls-1" d="M12.53006,12.96858l-.48827.39186-.51072-.36448A2.19206,2.19206,0,0,1,12.53006,12.96858Z"/><path class="cls-1" d="M12.25392,1.29838l-.50284.40564-.52388-.37737A3.25226,3.25226,0,0,1,12.25392,1.29838Z"/><path class="cls-1" d="M16.55924,15.787a2.2639,2.2639,0,0,1,.99987-.03l-.49006.39493Z"/><path class="cls-1" d="M16.92252,10.32349l-.51175-.36768a2.63923,2.63923,0,0,1,1.01465-.0375Z"/><path class="cls-1" d="M11.3778,7.16031a2.45317,2.45317,0,0,1,1.00635-.0198l-.48922.39058Z"/><path class="cls-1" d="M2.47762,7.38579l-.49068.39189L1.46857,7.408A2.51281,2.51281,0,0,1,2.47762,7.38579Z"/><path class="cls-1" d="M7.5132,10.17052l-.50066.39817-.51089-.36479A2.47153,2.47153,0,0,1,7.5132,10.17052Z"/><path class="cls-1" d="M6.86023,4.73739l-.50965-.371a3.09815,3.09815,0,0,1,1.01192-.03A5.75178,5.75178,0,0,1,6.86023,4.73739Z"/><path class="cls-1" d="M12.67437,18.79789l-.49.39138L11.7,18.84012A1.86317,1.86317,0,0,1,12.67437,18.79789Z"/><path class="cls-1" d="M2.12649,13.61165l-.31962-.24483.07662-.16735a1.965,1.965,0,0,1,.74116.01516Z"/><path class="cls-1" d="M9.00012,11.64342l-.27764.20039-.55565-.09063a2.3454,2.3454,0,0,1,.48337-.36639Z"/><path class="cls-1" d="M18.72412,5.5943l-.2368.16758-.53822-.07833c.09648-.15564.23528-.20856.34732-.31537Z"/><path class="cls-1" d="M20.49278,11.66473l-.24764.43108-.47154-.18943.68234-.28759Z"/><path class="cls-1" d="M1.40559,14.80811l.07107-.46518.47747.39442Z"/><path class="cls-1" d="M5.65433,3.606l-.41177.15386-.50034-.20517A1.81216,1.81216,0,0,1,5.65433,3.606Z"/><path class="cls-1" d="M18.05747,5.26466l-.25777.20372-.29125-.32119C17.723,5.08447,17.86365,5.20592,18.05747,5.26466Z"/></g></svg>