<svg xmlns="http://www.w3.org/2000/svg" viewBox="0 0 65.23166 21.99928"><defs><style>.cls-1{fill:#a8c0c2;}</style></defs><g id="圖層_4" data-name="圖層 4"><path class="cls-1" d="M49.37384,4.047A4.047,4.047,0,0,0,45.3268,0H4.047a4.047,4.047,0,0,0,0,8.09408H45.3268A4.047,4.047,0,0,0,49.37384,4.047Z"/><path class="cls-1" d="M61.18464,13.90522H36.07439a2.88585,2.88585,0,0,1,.4663-5.734H24.73461a2.88585,2.88585,0,0,1,.46631,5.73405H19.90485a4.047,4.047,0,1,0,0,8.09406H61.18464a4.047,4.047,0,0,0,0-8.09406Z"/><path class="cls-1" d="M49.37384,4.047A4.047,4.047,0,0,0,45.3268,0H4.047a4.047,4.047,0,0,0,0,8.09408H45.3268A4.047,4.047,0,0,0,49.37384,4.047Z"/><path class="cls-1" d="M61.18464,13.90522H36.07439a2.88585,2.88585,0,0,1,.4663-5.734H24.73461a2.88585,2.88585,0,0,1,.46631,5.73405H19.90485a4.047,4.047,0,1,0,0,8.09406H61.18464a4.047,4.047,0,0,0,0-8.09406Z"/></g></svg>