<svg xmlns="http://www.w3.org/2000/svg" xmlns:xlink="http://www.w3.org/1999/xlink" viewBox="0 0 269.60868 84.61919"><defs><style>.cls-1,.cls-2{fill:none;}.cls-2{stroke:#fff;stroke-miterlimit:10;stroke-width:0.25px;}.cls-3{fill:#85a79d;}.cls-4{opacity:0.45;fill:url(#新增圖樣_4);}</style><pattern id="新增圖樣_4" data-name="新增圖樣 4" width="22.67717" height="39.27798" patternTransform="translate(0 89.63351)" patternUnits="userSpaceOnUse" viewBox="0 0 22.677 39.278"><rect class="cls-1" width="22.67717" height="39.27798"/><polygon class="cls-2" points="11.339 32.733 11.339 45.825 22.677 52.372 34.016 45.825 34.016 32.733 22.677 26.186 11.339 32.733"/><line class="cls-2" x1="15.68115" y1="43.31629" x2="29.71081" y2="35.2039"/><line class="cls-2" x1="15.68115" y1="35.2039" x2="29.71081" y2="43.31629"/><line class="cls-2" x1="22.64826" y1="47.4202" x2="22.64826" y2="31.19542"/><polygon class="cls-2" points="-11.339 32.733 -11.339 45.825 0 52.372 11.339 45.825 11.339 32.733 0 26.186 -11.339 32.733"/><line class="cls-2" x1="-6.99602" y1="43.31629" x2="7.03364" y2="35.2039"/><line class="cls-2" x1="-6.99602" y1="35.2039" x2="7.03364" y2="43.31629"/><line class="cls-2" x1="-0.02891" y1="47.4202" x2="-0.02891" y2="31.19542"/><polygon class="cls-2" points="22.677 13.094 22.677 26.186 34.016 32.733 45.355 26.186 45.355 13.094 34.016 6.547 22.677 13.094"/><polygon class="cls-2" points="0 13.094 0 26.186 11.339 32.733 22.678 26.186 22.678 13.094 11.339 6.547 0 13.094"/><line class="cls-2" x1="4.34257" y1="23.67729" x2="18.37222" y2="15.56491"/><line class="cls-2" x1="4.34257" y1="15.56491" x2="18.37222" y2="23.67729"/><line class="cls-2" x1="11.30968" y1="27.78121" x2="11.30968" y2="11.55643"/><polygon class="cls-2" points="-22.677 13.094 -22.677 26.186 -11.338 32.733 0 26.186 0 13.094 -11.338 6.547 -22.677 13.094"/><polygon class="cls-2" points="11.339 -6.545 11.339 6.547 22.677 13.094 34.016 6.547 34.016 -6.545 22.677 -13.092 11.339 -6.545"/><line class="cls-2" x1="15.68115" y1="4.0383" x2="29.71081" y2="-4.07409"/><line class="cls-2" x1="15.68115" y1="-4.07409" x2="29.71081" y2="4.0383"/><line class="cls-2" x1="22.64826" y1="8.14222" x2="22.64826" y2="-8.08256"/><polygon class="cls-2" points="-11.339 -6.545 -11.339 6.547 0 13.094 11.339 6.547 11.339 -6.545 0 -13.092 -11.339 -6.545"/><line class="cls-2" x1="-6.99602" y1="4.0383" x2="7.03364" y2="-4.07409"/><line class="cls-2" x1="-6.99602" y1="-4.07409" x2="7.03364" y2="4.0383"/><line class="cls-2" x1="-0.02891" y1="8.14222" x2="-0.02891" y2="-8.08256"/></pattern></defs><g id="圖層_4" data-name="圖層 4"><polygon class="cls-3" points="0 0 269.609 84.619 0 84.619 0 0"/><polygon class="cls-4" points="0 0 269.609 84.619 0 84.619 0 0"/></g></svg>