<svg xmlns="http://www.w3.org/2000/svg" xmlns:xlink="http://www.w3.org/1999/xlink" viewBox="0 0 75.74103 241.32162"><defs><style>.cls-1,.cls-2{fill:none;}.cls-2{stroke:#fff;stroke-miterlimit:10;stroke-width:0.75px;}.cls-3{fill:#d70051;}.cls-4{opacity:0.21;fill:url(#新增圖樣_5);}</style><pattern id="新增圖樣_5" data-name="新增圖樣 5" width="14.17323" height="14.17323" patternTransform="translate(0 62.49348)" patternUnits="userSpaceOnUse" viewBox="0 0 14.173 14.173"><rect class="cls-1" width="14.17323" height="14.17323"/><path class="cls-2" d="M21.24973,22.08435a7.07581,7.07581,0,0,0-7.06594-7.06594v-.02029a7.07581,7.07581,0,0,0,7.06594-7.06593H21.27A7.07581,7.07581,0,0,0,28.336,14.99812v.02029A7.07581,7.07581,0,0,0,21.27,22.08435"/><path class="cls-2" d="M14.18379,14.99812l-.01014.01015.01014.01014Z"/><circle class="cls-2" cx="21.25988" cy="15.00827" r="7.0762"/><path class="cls-2" d="M7.0765,22.08435a7.05374,7.05374,0,0,0-2.07245-4.99349A7.05377,7.05377,0,0,0,.01057,15.01841v-.02029a7.05374,7.05374,0,0,0,4.99348-2.07245A7.05374,7.05374,0,0,0,7.0765,7.93219h.02029a7.07581,7.07581,0,0,0,7.06594,7.06593v.02029a7.07581,7.07581,0,0,0-7.06594,7.06594"/><path class="cls-2" d="M.01057,14.99812l-.01015.01015.01015.01014Z"/><path class="cls-2" d="M14.16273,15.01841l.01014-.01014-.01014-.01015Z"/><circle class="cls-2" cx="7.08665" cy="15.00827" r="7.0762"/><path class="cls-2" d="M-7.09672,22.08435a7.05382,7.05382,0,0,0-2.07245-4.99349,7.05381,7.05381,0,0,0-4.99349-2.07245v-.02029a7.05378,7.05378,0,0,0,4.99349-2.07245A7.05382,7.05382,0,0,0-7.09672,7.93219h.02028A7.05385,7.05385,0,0,0-5.004,12.92567,7.05379,7.05379,0,0,0-.0105,14.99812v.02029A7.0538,7.0538,0,0,0-5.004,17.09086a7.05385,7.05385,0,0,0-2.07245,4.99349"/><path class="cls-2" d="M-.0105,15.01841l.01014-.01014-.01014-.01015Z"/><circle class="cls-2" cx="-7.08658" cy="15.00827" r="7.0762"/><path class="cls-2" d="M21.24973,7.91112A7.07581,7.07581,0,0,0,14.18379.84518V.8249a7.05385,7.05385,0,0,0,4.99349-2.07245A7.05382,7.05382,0,0,0,21.24973-6.241H21.27a7.05389,7.05389,0,0,0,2.07245,4.99349A7.05385,7.05385,0,0,0,28.336.8249V.84518A7.07581,7.07581,0,0,0,21.27,7.91112"/><path class="cls-2" d="M14.18379.8249,14.17365.835l.01014.01014Z"/><circle class="cls-2" cx="21.25988" cy="0.83504" r="7.0762"/><path class="cls-2" d="M7.0765,7.91112A7.05374,7.05374,0,0,0,5.00405,2.91763,7.05377,7.05377,0,0,0,.01057.84518V.8249A7.05382,7.05382,0,0,0,5.00405-1.24755,7.05378,7.05378,0,0,0,7.0765-6.241h.02029A7.05389,7.05389,0,0,0,9.16924-1.24755,7.05385,7.05385,0,0,0,14.16273.8249V.84518A7.07581,7.07581,0,0,0,7.09679,7.91112"/><path class="cls-2" d="M.01057.8249.00042.835.01057.84518Z"/><path class="cls-2" d="M14.16273.84518,14.17287.835,14.16273.8249Z"/><circle class="cls-2" cx="7.08665" cy="0.83504" r="7.0762"/><path class="cls-2" d="M-7.09672,7.91112A7.05382,7.05382,0,0,0-9.16917,2.91763,7.05381,7.05381,0,0,0-14.16266.84518V.8249A7.05386,7.05386,0,0,0-9.16917-1.24755,7.05386,7.05386,0,0,0-7.09672-6.241h.02028A7.05389,7.05389,0,0,0-5.004-1.24755,7.05387,7.05387,0,0,0-.0105.8249V.84518A7.05385,7.05385,0,0,0-5.004,2.91763,7.05385,7.05385,0,0,0-7.07644,7.91112"/><path class="cls-2" d="M-.0105.84518-.00036.835-.0105.8249Z"/><circle class="cls-2" cx="-7.08658" cy="0.83504" r="7.0762"/></pattern></defs><g id="圖層_4" data-name="圖層 4"><polygon class="cls-3" points="0 0 75.741 241.322 75.741 0 0 0"/><polygon class="cls-4" points="0 0 75.741 241.322 75.741 0 0 0"/></g></svg>