<svg xmlns="http://www.w3.org/2000/svg" viewBox="0 0 20.58549 391.42997"><defs><style>.cls-1{fill:#f6be5b;}.cls-2{fill:none;stroke:#f8b62d;stroke-miterlimit:10;}</style></defs><g id="圖層_4" data-name="圖層 4"><path class="cls-1" d="M17.56809,338.25223a10.29272,10.29272,0,1,0,.00546,14.5561A10.29272,10.29272,0,0,0,17.56809,338.25223Zm-4.7842,9.77009a8.43494,8.43494,0,0,0-2.47589,5.97206h-.02422a8.461,8.461,0,0,0-8.45238-8.44614V345.524a8.461,8.461,0,0,0,8.446-8.45239h.02433a8.461,8.461,0,0,0,8.45238,8.446v.02433A8.43519,8.43519,0,0,0,12.78389,348.02232Z"/><path class="cls-1" d="M17.56809,321.36388A10.29272,10.29272,0,1,0,17.57355,335.92,10.29274,10.29274,0,0,0,17.56809,321.36388Zm-4.7842,9.77009A8.43494,8.43494,0,0,0,10.308,337.106h-.02422A8.461,8.461,0,0,0,1.8314,328.6599v-.02422a8.461,8.461,0,0,0,8.446-8.45239h.02433a8.461,8.461,0,0,0,8.45238,8.446v.02433A8.43523,8.43523,0,0,0,12.78389,331.134Z"/><path class="cls-1" d="M17.56809,304.47554a10.29272,10.29272,0,1,0,.00546,14.5561A10.29272,10.29272,0,0,0,17.56809,304.47554Zm-4.7842,9.77008a8.435,8.435,0,0,0-2.47589,5.97207h-.02422a8.461,8.461,0,0,0-8.45238-8.44614v-.02421a8.461,8.461,0,0,0,8.446-8.45239h.02433a8.461,8.461,0,0,0,8.45238,8.446v.02433A8.43518,8.43518,0,0,0,12.78389,314.24562Z"/><path class="cls-1" d="M17.56809,287.58719a10.29272,10.29272,0,1,0,.00546,14.55611A10.29273,10.29273,0,0,0,17.56809,287.58719Zm-4.7842,9.77009a8.43494,8.43494,0,0,0-2.47589,5.97206h-.02422a8.461,8.461,0,0,0-8.45238-8.44613V294.859a8.461,8.461,0,0,0,8.446-8.45239h.02433a8.461,8.461,0,0,0,8.45238,8.446v.02433A8.43519,8.43519,0,0,0,12.78389,297.35728Z"/><path class="cls-1" d="M17.56809,270.69884a10.29272,10.29272,0,1,0,.00546,14.55611A10.29273,10.29273,0,0,0,17.56809,270.69884Zm-4.7842,9.77009A8.435,8.435,0,0,0,10.308,286.441h-.02422a8.461,8.461,0,0,0-8.45238-8.44614v-.02421a8.461,8.461,0,0,0,8.446-8.45239h.02433a8.461,8.461,0,0,0,8.45238,8.446v.02433A8.43518,8.43518,0,0,0,12.78389,280.46893Z"/><path class="cls-1" d="M17.56809,253.8105a10.29272,10.29272,0,1,0,.00546,14.55611A10.29272,10.29272,0,0,0,17.56809,253.8105Zm-4.7842,9.77009a8.43494,8.43494,0,0,0-2.47589,5.97206h-.02422a8.461,8.461,0,0,0-8.45238-8.44613v-.02422a8.461,8.461,0,0,0,8.446-8.45239h.02433a8.461,8.461,0,0,0,8.45238,8.446v.02433A8.43519,8.43519,0,0,0,12.78389,263.58059Z"/><line class="cls-2" x1="10.29934" y1="252.62991" x2="10.29934"/><path class="cls-1" d="M9.02938,370.61292a.99969.99969,0,0,1-.70908-.29323l-.03611-.03612a1.00394,1.00394,0,0,1,0-1.41817l.55427-.55426L7.766,367.23869l-.55427.55428a1.00394,1.00394,0,0,1-1.41816,0l-.03611-.03612a1.00534,1.00534,0,0,1,0-1.41815l.0361-.0361a1.00534,1.00534,0,0,1,1.41816,0l.55427.55427,1.07245-1.07245-.55427-.55427a1.00534,1.00534,0,0,1,0-1.41816l.03609-.0361a1.00393,1.00393,0,0,1,1.41817,0l.55428.55427.55427-.55427a1.004,1.004,0,0,1,1.41817,0l.0361.03611a1.00391,1.00391,0,0,1,0,1.41816l-.55427.55427,1.07245,1.07245.55428-.55427a1.00534,1.00534,0,0,1,1.41816,0l.03609.03609a1.00534,1.00534,0,0,1,0,1.41817l-.0361.03611a1.00394,1.00394,0,0,1-1.41816,0l-.55428-.55428L11.747,368.31114l.55427.55426a1.00535,1.00535,0,0,1,0,1.41819l-.03608.03608a1.004,1.004,0,0,1-1.41818,0l-.55427-.55428-.55428.55428A.99966.99966,0,0,1,9.02938,370.61292Zm0-2.11087-.55427.55428a.73536.73536,0,0,0,0,1.03634l.0361.03612a.73366.73366,0,0,0,1.03635,0l.55427-.55426Zm1.45427,1.07246.55427.55426a.73364.73364,0,0,0,1.03636,0l.03608-.03608a.73535.73535,0,0,0,0-1.03636l-.55427-.55428Zm-1.26337-1.26337,1.07246,1.07246,1.07245-1.07246-1.07245-1.07245Zm1.26337-1.26336,1.07245,1.07246,1.07245-1.07246-1.07245-1.07245Zm-2.52672,0,1.07245,1.07246,1.07245-1.07246-1.07245-1.07245Zm5.05344,0,.55427.55428a.73364.73364,0,0,0,1.03635,0l.0361-.0361a.73538.73538,0,0,0,0-1.03636l-.03609-.03608a.73535.73535,0,0,0-1.03636,0Zm-6.5077-.76857a.73051.73051,0,0,0-.51818.2143l-.03609.03609a.73538.73538,0,0,0,0,1.03636l.0361.03611a.73366.73366,0,0,0,1.03635,0l.55427-.55428-.55427-.55427A.73052.73052,0,0,0,6.50267,366.27921Zm2.71761-.49479,1.07246,1.07245,1.07245-1.07245L10.29274,364.712Zm-.1909-2.03192a.7305.7305,0,0,0-.51818.21429l-.03608.03609a.73538.73538,0,0,0,0,1.03637l.55427.55427,1.07245-1.07245-.55427-.55428A.7306.7306,0,0,0,9.02938,363.7525Zm1.45427.76857,1.07245,1.07245.55427-.55427a.73536.73536,0,0,0,0-1.03636l-.0361-.03611a.73366.73366,0,0,0-1.03635,0Z"/><path class="cls-1" d="M10.38856,362.46167a.4357.4357,0,0,1-.43559-.43559v-6.0389a.43559.43559,0,0,1,.87117,0v6.0389A.4357.4357,0,0,1,10.38856,362.46167Z"/><path class="cls-1" d="M10.34148,378.07831a.4357.4357,0,0,1-.43558-.43559v-6.0389a.43559.43559,0,0,1,.87117,0v6.0389A.4357.4357,0,0,1,10.34148,378.07831Z"/><path class="cls-1" d="M8.69018,391.43a.4357.4357,0,0,1-.43559-.43559V379.15224a.43559.43559,0,1,1,.87117,0v11.84214A.4357.4357,0,0,1,8.69018,391.43Z"/><path class="cls-1" d="M9.24057,391.43a.4357.4357,0,0,1-.43559-.43559V379.15224a.43559.43559,0,1,1,.87117,0v11.84214A.4357.4357,0,0,1,9.24057,391.43Z"/><path class="cls-1" d="M9.791,391.43a.4357.4357,0,0,1-.43558-.43559V379.15224a.43559.43559,0,1,1,.87117,0v11.84214A.4357.4357,0,0,1,9.791,391.43Z"/><path class="cls-1" d="M10.34134,391.43a.4357.4357,0,0,1-.43558-.43559V379.15224a.43558.43558,0,1,1,.87116,0v11.84214A.4357.4357,0,0,1,10.34134,391.43Z"/><path class="cls-1" d="M10.89173,391.43a.4357.4357,0,0,1-.43559-.43559V379.15224a.43559.43559,0,1,1,.87117,0v11.84214A.4357.4357,0,0,1,10.89173,391.43Z"/><path class="cls-1" d="M11.44212,391.43a.4357.4357,0,0,1-.43559-.43559V379.15224a.43559.43559,0,1,1,.87117,0v11.84214A.4357.4357,0,0,1,11.44212,391.43Z"/><path class="cls-1" d="M11.9925,391.43a.4357.4357,0,0,1-.43558-.43559V379.15224a.43559.43559,0,1,1,.87117,0v11.84214A.4357.4357,0,0,1,11.9925,391.43Z"/><path class="cls-1" d="M9.40458,377.59552h1.87386a.71436.71436,0,0,1,.71436.71436v.32359a0,0,0,0,1,0,0H8.69022a0,0,0,0,1,0,0v-.32359A.71436.71436,0,0,1,9.40458,377.59552Z"/></g></svg>