<svg xmlns="http://www.w3.org/2000/svg" viewBox="0 0 64.12189 63.66655"><defs><style>.cls-1{fill:#f8c689;}</style></defs><g id="圖層_4" data-name="圖層 4"><path class="cls-1" d="M64.073,28.22193a21.71159,21.71159,0,0,0-5.66262,1.68441,23.14481,23.14481,0,0,0-4.975,3.13915l-.89573-.808c1.77367-2.19694,8.25337-5.184,11.26219-5.20688l.25983.739Z"/><path class="cls-1" d="M64.12189,30.18193c-.553.14047-1.10637.27982-1.65908.4216A19.27592,19.27592,0,0,0,55.075,34.3244c-.05765.04649-.12315.08325-.25982.17451l-.85847-.934a16.94976,16.94976,0,0,1,2.37267-1.74116,20.8521,20.8521,0,0,1,7.16479-2.79008c.1956-.038.39827-.03949.59765-.05795Z"/><path class="cls-1" d="M34.25238,0c.55949.08635,1.11963.16874,1.67835.25983A12.37266,12.37266,0,0,1,39.966,1.62477a17.5394,17.5394,0,0,0-4.57978-.44516,13.82955,13.82955,0,0,0-4.447,1.02745L29.35136,1.563A11.66,11.66,0,0,1,32.35662.36165c.47639-.13373.962-.2346,1.44345-.35037Z"/><path class="cls-1" d="M0,23.93651l.24128-.27281a20.62018,20.62018,0,0,1,5.25379,3.55954l-1.54977.189L.02633,24.9919Z"/><path class="cls-1" d="M.04889,25.89652a11.3497,11.3497,0,0,1,1.06837.51141c.52776.32,1.02927.68323,1.685,1.12444l-1.73233.37724-.73527-.46575-.26694-.7935Z"/><path class="cls-1" d="M7.79214,25.26242l-.88121-.7789c7.66543-7.3689,22.71154-8.09915,31.61014,1.97952l-1.647.04108A21.57951,21.57951,0,0,0,7.79214,25.26242Z"/><path class="cls-1" d="M23.6045,51.61233l-.89517-.81156c8.38556-7.84427,23.45916-7.52053,31.60653,2.0413L52.602,52.79761A21.46574,21.46574,0,0,0,23.6045,51.61233Z"/><path class="cls-1" d="M37.27751,44.30219A21.56624,21.56624,0,0,0,8.234,43.05461l-.94412-.80292c.16871-.15856.299-.29765.44572-.41645a22.55594,22.55594,0,0,1,10.6429-4.8038,22.87687,22.87687,0,0,1,10.34364.66295,2.29428,2.29428,0,0,1,1.82207,1.353l.5901-.45782a22.94734,22.94734,0,0,1,7.94243,5.73406c-.41877-.01821-.69414-.03753-.96967-.0401C37.83206,44.281,37.55685,44.29522,37.27751,44.30219Z"/><path class="cls-1" d="M39.42254,62.15052l-1.73379-.08237a21.52373,21.52373,0,0,0-26.41732-3.05348l-1.07326-.67584c1.49523-1.863,8.738-3.94516,12.58626-3.84817A22.40447,22.40447,0,0,1,39.42254,62.15052Z"/><path class="cls-1" d="M50.6903,17.21528c-.35438.02792-.62875.04471-.902.07242-.27235.02762-.54359.0662-.78761.09654a19.57855,19.57855,0,0,0-24.89647.06031l-.84808-.90548A20.65815,20.65815,0,0,1,50.6903,17.21528Z"/><path class="cls-1" d="M24.11877,52.13652a20.69511,20.69511,0,0,1,27.41447.67191l-1.66519.20681a19.50354,19.50354,0,0,0-24.85537.03807Z"/><path class="cls-1" d="M35.7332,26.48321l-1.63182.18557A19.65623,19.65623,0,0,0,9.16483,26.708L8.348,25.84235A20.573,20.573,0,0,1,35.7332,26.48321Z"/><path class="cls-1" d="M36.11428,44.2872l-1.62275.20332a19.41016,19.41016,0,0,0-24.89513.10281c-.13073-.17192-.24532-.33415-.37217-.48616-.12762-.15293-.26744-.29568-.40172-.44269C15.80257,37.15955,28.60019,36.86078,36.11428,44.2872Z"/><path class="cls-1" d="M47.80947,12.63449l.036,1.44429a21.70225,21.70225,0,0,0-25.14941,1.89327l-.88189-.78217C27.93,9.40726,39.002,7.48011,47.80947,12.63449Z"/><path class="cls-1" d="M39.46343,25.97354l-.8514-.90641a20.61718,20.61718,0,0,1,24.09605-1.84781c.16665.42249.36273.90845.54893,1.39817.059.15518.09162.3204.15305.54119A19.61685,19.61685,0,0,0,39.46343,25.97354Z"/><path class="cls-1" d="M38.07443,24.53417l-.96024-.86336c.19979-.17771.37448-.34912.56519-.50032a22.85107,22.85107,0,0,1,22.23874-3.5787,1.77757,1.77757,0,0,1,.89552.64864c.33245.47164.67762.93431,1.01259,1.40421a1.2452,1.2452,0,0,1,.08764.271,21.45589,21.45589,0,0,0-23.83944,2.6185Z"/><path class="cls-1" d="M61.262,37.83773l-.79925.95534c-7.97385-2.86465-15.26487-1.7084-21.975,3.51713l-.90665-.81853A22.466,22.466,0,0,1,61.262,37.83773Z"/><path class="cls-1" d="M23.73417,35.81645c-.41385-.02384-.68564-.04836-.95775-.05268-.27518-.00437-.55069.01126-.84381.01857a21.75131,21.75131,0,0,0-9.6817-5.56837,21.51223,21.51223,0,0,0-11.11013.01627,2.11009,2.11009,0,0,1-.42492-1.21559,22.25394,22.25394,0,0,1,12.394.08952A22.57885,22.57885,0,0,1,23.73417,35.81645Z"/><path class="cls-1" d="M26.10161,18.35183c-.414-.06291-.884-.13229-1.35275-.2094-.03764-.00619-.06651-.06566-.0994-.10043,5.76085-5.37522,16.37853-6.073,23.21948-.52949-.30546.0701-.55474.131-.80572.18389-.26859.0566-.53878.10564-.73906.14453C39.47716,13.83126,32.80446,13.972,26.10161,18.35183Z"/><path class="cls-1" d="M63.203,26.07127l-1.511.30925c-6.8326-4.03823-13.528-3.88789-20.23054.49344-.16611-.0216-.43819-.04882-.70716-.09442-.23831-.04039-.47316-.10122-.72638-.15672,1.20418-1.85044,6.69958-4.12546,10.38722-4.39965C55.833,21.82033,60.8412,23.871,63.203,26.07127Z"/><path class="cls-1" d="M33.47717,44.60214l-1.692.36137a17.5227,17.5227,0,0,0-20.06791.49613l-1.65793-.27139c.23819-.228.378-.3897.5443-.51676a18.49359,18.49359,0,0,1,8.98854-3.74862A18.46965,18.46965,0,0,1,32.74641,44.056C32.968,44.20623,33.17607,44.37626,33.47717,44.60214Z"/><path class="cls-1" d="M32.906,26.79748c-.01847.01411-.03515.0368-.05568.04109-.48936.10227-.97914.20258-1.43018.29529-6.83956-4.03687-13.53758-3.88855-20.243.50628l-1.448-.23887c1.225-1.84952,6.67092-4.114,10.326-4.41341C25.52472,22.53988,30.58887,24.65252,32.906,26.79748Z"/><path class="cls-1" d="M26.985,53.98924l-1.473-.26231c1.39826-1.88719,6.44842-4.08384,10.26694-4.39225A18.54542,18.54542,0,0,1,48.776,53.0604c-.049.06423-.05886.09148-.07393.09476-.51352.11186-1.02755.22144-1.4749.31711C40.3609,49.42427,33.66734,49.58464,26.985,53.98924Z"/><path class="cls-1" d="M35.35841,28.55061a14.93754,14.93754,0,0,1-4.45162-.15078c1.79712-1.21121,8.491-1.24606,12.40979-.08a22.88632,22.88632,0,0,1,10.68419,6.73641l-1.74059-.06817c-1.0526-.83987-2.012-1.692-3.05639-2.42246a20.48676,20.48676,0,0,0-10.41728-3.734c-.89855-.06529-1.80331-.04866-2.70533-.0602C35.80506,28.76785,35.52307,28.81521,35.35841,28.55061Z"/><path class="cls-1" d="M39.89457,43.76075l-.83113-.87878C44.5699,37.8351,53.54089,36.701,59.85928,39.43679l-.98216.90814A19.66946,19.66946,0,0,0,39.89457,43.76075Z"/><path class="cls-1" d="M24.19156,53.63141l-1.83837-.08809A21.65378,21.65378,0,0,0,4.27773,47.465l-.03141-1.25927a22.2352,22.2352,0,0,1,10.6893,1.15682A22.76569,22.76569,0,0,1,24.19156,53.63141Z"/><path class="cls-1" d="M1.94933,32.07038l-.56214-1.08045a20.32757,20.32757,0,0,1,19.41956,4.75922l-1.63227.21529A19.59621,19.59621,0,0,0,1.94933,32.07038Z"/><path class="cls-1" d="M28.79534,19.03966l-1.56752-.44943a16.46619,16.46619,0,0,1,18.011-.46l-1.56015.53707A15.57548,15.57548,0,0,0,28.79534,19.03966Z"/><path class="cls-1" d="M46.13745,53.76207l-1.56919.51257a15.60356,15.60356,0,0,0-14.87354.37412l-1.54706-.417C32.341,50.80057,40.50911,50.04172,46.13745,53.76207Z"/><path class="cls-1" d="M60.63713,26.65491l-1.59357.52813a15.6796,15.6796,0,0,0-14.86491.35916c-.22-.05223-.48691-.10785-.74923-.18005-.25949-.07142-.51437-.15958-.80185-.25C46.87669,23.81935,54.59263,22.88183,60.63713,26.65491Z"/><path class="cls-1" d="M14.33382,46.12544l-1.55021-.4341a16.29928,16.29928,0,0,1,17.93557-.45565l-1.51276.51807A15.58028,15.58028,0,0,0,14.33382,46.12544Z"/><path class="cls-1" d="M28.96734,27.90945c-.58733-.20988-1.15347-.4042-1.71392-.61373a15.3176,15.3176,0,0,0-12.751.71013c-.20053.10078-.4001.20349-.60872.30968l-1.54586-.432c4.4423-3.46493,12.31707-4.12238,17.91985-.51457C29.89616,27.67105,29.421,27.66035,28.96734,27.90945Z"/><path class="cls-1" d="M21.27471,53.57045l-1.67091.199A19.51152,19.51152,0,0,0,4.52617,49.48224c-.0497-.22318-.10612-.40806-.12871-.597-.0234-.19565-.014-.39523-.01887-.591A20.10945,20.10945,0,0,1,21.27471,53.57045Z"/><path class="cls-1" d="M58.11155,40.92353l-1.376.88465a17.6361,17.6361,0,0,0-14.75824,2.89443c-.33445-.05031-.65579-.09506-.97572-.14824-.17059-.02836-.33876-.07129-.525-.11129.00744-.329.27383-.42252.45764-.56413a18.44429,18.44429,0,0,1,7.88447-3.54871,18.68364,18.68364,0,0,1,8.86048.41923C57.79106,40.78192,57.89656,40.83615,58.11155,40.92353Z"/><path class="cls-1" d="M37.97794,59.25966A22.99183,22.99183,0,0,1,54.06569,53.7904l-.45794,1.25066a23.22707,23.22707,0,0,0-7.74543,1.18977,21.74183,21.74183,0,0,0-6.84612,3.87688C38.59526,59.94,38.37046,59.5598,37.97794,59.25966Z"/><path class="cls-1" d="M35.59823,30.76234a4.11174,4.11174,0,0,1-.10583-.48471c-.0197-.21978-.01473-.44177-.01992-.64994,4.26927-1.04054,12.89209,1.94908,15.57646,5.38355l-1.63117.19194A19.65951,19.65951,0,0,0,35.59823,30.76234Z"/><path class="cls-1" d="M28.13421,57.29828,26.8861,58.29906a19.87141,19.87141,0,0,0-13.42057,1.776l-1.468-.63961a18.08718,18.08718,0,0,1,5.29859-2.23275A21.04316,21.04316,0,0,1,28.13421,57.29828Z"/><path class="cls-1" d="M16.41381,36.43227A17.6339,17.6339,0,0,0,3.19033,33.85874L2.43362,32.874c.7284-.56385,4.26269-.82954,6.54408-.53717a18.668,18.668,0,0,1,9.16453,3.74256Z"/><path class="cls-1" d="M7.47,12.42039A20.69533,20.69533,0,0,1,20.44115,17.9536l-1.7462.186A19.58244,19.58244,0,0,0,5.63326,13.69105,9.23846,9.23846,0,0,1,7.47,12.42039Z"/><path class="cls-1" d="M23.2159,17.95236l-1.70289.04248a22.94787,22.94787,0,0,0-5.82813-4.14131,22.12428,22.12428,0,0,0-6.71957-2.011l.00942-.1717c.73592-.21985,1.46743-.45683,2.21067-.64829a1.4459,1.4459,0,0,1,.66012.059A21.86435,21.86435,0,0,1,20.2978,15.216c.84588.66628,1.61506,1.43056,2.41108,2.159A7.096,7.096,0,0,1,23.2159,17.95236Z"/><path class="cls-1" d="M53.16613,55.89378c-.07544.16274-.13816.32388-.22206.47312-.13427.23887-.2826.46985-.44184.73188A19.27257,19.27257,0,0,0,40.3564,61.58392l-.8337-.88568C41.97705,57.891,49.79094,55.14237,53.16613,55.89378Z"/><path class="cls-1" d="M5.036,51.4466l-.36723-1.20574a7.88665,7.88665,0,0,1,.83621-.15648,18.73149,18.73149,0,0,1,12.697,3.50437c.09868.0708.18349.16092.32589.28744-.31634.07923-.56961.1497-.82616.205-.26857.05787-.54028.10115-.85047.15813A17.45323,17.45323,0,0,0,5.036,51.4466Z"/><path class="cls-1" d="M17.54661,18.3156l-1.585.2995A17.61,17.61,0,0,0,3.30408,15.95386c.16594-.21578.28145-.37945.4112-.53093.13041-.15227.2814-.28694.41167-.43933.14694-.17189.28082-.35494.38469-.48757A17.98692,17.98692,0,0,1,17.54661,18.3156Z"/><path class="cls-1" d="M26.76922,1.78838A22.82,22.82,0,0,1,38.13088,8.65411l-.92885.02317-.82666.02062A21.74464,21.74464,0,0,0,25.23376,2.76654Z"/><path class="cls-1" d="M48.297,35.34831l-1.6068.33861A17.41851,17.41851,0,0,0,35.918,32.79765l-.27159-1.194C38.858,30.78734,46.13779,32.95063,48.297,35.34831Z"/><path class="cls-1" d="M1.64056,18.39433c.193-.34244.32232-.58351.46272-.818.14142-.23613.29382-.46569.47474-.75064A16.92571,16.92571,0,0,1,15.039,18.85381l-1.60906.55544A16.07371,16.07371,0,0,0,1.64056,18.39433Z"/><path class="cls-1" d="M23.21117,4.50874l1.24476-1.13711a20.5433,20.5433,0,0,1,10.91056,5.3075l-1.76515.17695A19.606,19.606,0,0,0,23.21117,4.50874Z"/><path class="cls-1" d="M31.34341,20.00078l-1.61151-.65794a15.01545,15.01545,0,0,1,13.03446-.33773l-1.58425.75046A13.82482,13.82482,0,0,0,31.34341,20.00078Z"/><path class="cls-1" d="M42.03589,55.38787a13.18426,13.18426,0,0,0-4.93732-.80616,12.99031,12.99031,0,0,0-4.83,1.04865l-1.55813-.63763a14.42576,14.42576,0,0,1,12.87-.34041Z"/><path class="cls-1" d="M46.73337,28.54215c-.49162-.202-.93114-.38163-1.36935-.5644a.67392.67392,0,0,1-.12155-.08543c3.06312-1.96564,8.761-2.36384,12.805-.32962l-1.52623.73216A14.17646,14.17646,0,0,0,51.59239,27.5,13.73137,13.73137,0,0,0,46.73337,28.54215Z"/><path class="cls-1" d="M16.4653,29.29612l-1.54548-.62823c3.26409-2.04607,8.95229-2.34023,12.84344-.34544l-1.52442.73006A13.449,13.449,0,0,0,16.4653,29.29612Z"/><path class="cls-1" d="M16.91238,47.10132l-1.66424-.6802a15.17255,15.17255,0,0,1,13.04392-.33405l-1.60238.7695A13.51286,13.51286,0,0,0,16.91238,47.10132Z"/><path class="cls-1" d="M44.63475,45.36819,43.09,44.947c1.99617-2.21492,9.40963-3.74916,12.45236-2.55172-.44717.16951-.82862.31866-1.21338.45869-.39751.14467-.79823.28049-1.27467.44715A15.59456,15.59456,0,0,0,44.63475,45.36819Z"/><path class="cls-1" d="M.81364,20.59888a1.04757,1.04757,0,0,1,.01828-.28118c.112-.3293.239-.65347.36591-.99423a15.00826,15.00826,0,0,1,11.27961.44455l-1.59994.75867a13.421,13.421,0,0,0-9.28225.05067A.81668.81668,0,0,1,.81364,20.59888Z"/><path class="cls-1" d="M4.85132,35.622c-.37623-.38282-.83068-.62846-1.04838-1.14983a16.97842,16.97842,0,0,1,11.6724,2.1891c-.35678.13076-.603.22806-.854.311-.26082.08623-.52623.15861-.82943.2489A15.71668,15.71668,0,0,0,4.85132,35.622Z"/><path class="cls-1" d="M42.4252,62.51949c-.45054-.076-.86884-.14453-1.28609-.219a1.86943,1.86943,0,0,1-.2673-.1005,2.901,2.901,0,0,1,.34131-.38958,18.17516,18.17516,0,0,1,7.90607-3.643c.90527-.17353,1.82536-.26977,2.8618-.41915A5.642,5.642,0,0,1,50.85346,59.191,17.498,17.498,0,0,0,42.4252,62.51949Z"/><path class="cls-1" d="M32.62957,8.992l-1.7434.34781A18.07017,18.07017,0,0,0,26.56907,7.262a17.197,17.197,0,0,0-4.76376-.81543A4.74085,4.74085,0,0,1,22.633,5.1834,18.68791,18.68791,0,0,1,32.62957,8.992Z"/><path class="cls-1" d="M15.84108,54.52l-1.54834.5101a16.235,16.235,0,0,0-8.38833-1.68521c-.09849-.16674-.22178-.34983-.31812-.54615-.08647-.17622-.14331-.367-.214-.55329C7.81,51.5624,13.14809,52.51954,15.84108,54.52Z"/><path class="cls-1" d="M25.81975,58.98715c-.21752.12135-.43834.23717-.65194.36506a3.69823,3.69823,0,0,1-2.14646.52373,16.80507,16.80507,0,0,0-5.85623.809,2.38565,2.38565,0,0,1-1.029.09056,3.849,3.849,0,0,1-1.59734-.44358,18.85245,18.85245,0,0,1,11.24946-1.50344Z"/><path class="cls-1" d="M45.75239,35.91934l-1.65445.55777A15.73,15.73,0,0,0,36.556,34.78l-.46264-1.30136A17.1147,17.1147,0,0,1,45.75239,35.91934Z"/><path class="cls-1" d="M8.22133,27.25811,6.52114,27.2245A22.28964,22.28964,0,0,0,.26805,22.88269a5.82423,5.82423,0,0,1,.037-.60627,5.66267,5.66267,0,0,1,.15128-.572C2.08115,21.87573,7.11835,25.45116,8.22133,27.25811Z"/><path class="cls-1" d="M63.97,31.01172l-.2265,1.242c-1.257.44941-2.46435.79773-3.59777,1.30978-1.13635.51337-2.19891,1.19009-3.386,1.84615l-1.56905-.27A18.61889,18.61889,0,0,1,63.97,31.01172Z"/><path class="cls-1" d="M29.95068,9.58354l-1.66022.56324a15.49309,15.49309,0,0,0-7.691-1.69451l.6459-1.31191A16.77075,16.77075,0,0,1,29.95068,9.58354Z"/><path class="cls-1" d="M32.80115,37.39664a11.17993,11.17993,0,0,1,4.17414-1.84053,6.72051,6.72051,0,0,1,2.091.08016,13.13414,13.13414,0,0,1,4.09223,1.1979l-1.56938.745A13.91118,13.91118,0,0,0,32.80115,37.39664Z"/><path class="cls-1" d="M54.15453,45.2807c-1.28744.05749-2.46526.02717-3.61726.18507-1.13038.15495-2.23451.50128-3.53.8059l-1.46268-.58424a14.83465,14.83465,0,0,1,8.17578-1.61879Z"/><path class="cls-1" d="M36.66125,62.0875l-1.61324.19924c-1.03324-.67438-1.99068-1.30838-2.95866-1.92588a5.07611,5.07611,0,0,0-.99165-.529c-1.11845-.40016-1.65514-1.36972-2.29241-2.2569A19.68337,19.68337,0,0,1,36.66125,62.0875Z"/><path class="cls-1" d="M25.79023,11.24517a14.26656,14.26656,0,0,0-5.948-.75067l.43167-1.3283a14.80069,14.80069,0,0,1,7.0898,1.33635Z"/><path class="cls-1" d="M2.08874,21.23811c1.79066-.98568,6.2819-1.03738,7.79325-.17976l-1.39069.86657a13.252,13.252,0,0,0-4.9208.13119Z"/><path class="cls-1" d="M25.289,29.561l-1.44815.89431a12.6751,12.6751,0,0,0-4.897.1304L17.433,29.76392A11.69577,11.69577,0,0,1,25.289,29.561Z"/><path class="cls-1" d="M40.19205,20.28467l-1.34865.83669c-.8774-.03844-1.70078-.11768-2.52184-.09835-.82174.01934-1.64114.13719-2.57727.22239l-1.34761-.739C33.77226,19.58572,38.20229,19.3791,40.19205,20.28467Z"/><path class="cls-1" d="M55.56874,28.80459l-1.46018.89442a12.78541,12.78541,0,0,0-4.89567.12891l-1.50258-.82018A11.70658,11.70658,0,0,1,55.56874,28.80459Z"/><path class="cls-1" d="M34.27479,39.10822l-1.47423-.82581A11.74512,11.74512,0,0,1,40.658,38.0852c-.26891.16245-.48622.2915-.70126.42424-.23386.14436-.46561.29213-.74717.46914A12.9586,12.9586,0,0,0,34.27479,39.10822Z"/><path class="cls-1" d="M25.73064,47.36342l-1.44671.8962a12.9546,12.9546,0,0,0-4.90445.12454l-1.464-.7928C19.595,46.61819,23.63057,46.48824,25.73064,47.36342Z"/><path class="cls-1" d="M34.70334,56.90651,33.173,56.04643a12.71777,12.71777,0,0,1,7.96638-.20245l-1.46394.93517A13.8413,13.8413,0,0,0,34.70334,56.90651Z"/><path class="cls-1" d="M33.41021,3.50192l-1.429-.789c1.1341-.91581,5.85172-1.1469,7.75483-.23809l-1.4412.90037A11.92412,11.92412,0,0,0,33.41021,3.50192Z"/><path class="cls-1" d="M19.524,11.60782l.19574-.35241a12.2684,12.2684,0,0,1,5.16189.46124l-1.39556.881c-.87557-.03632-1.69977-.11133-2.5219-.09311-.82267.01823-1.64326.12964-2.58789.21078l-1.33842-.7401A2.88427,2.88427,0,0,1,19.524,11.60782Z"/><path class="cls-1" d="M39.027,8.17679l-.88535-.94557a19.96926,19.96926,0,0,1,5.30353-3.26554l.9491,1.0017A20.5277,20.5277,0,0,0,39.027,8.17679Z"/><path class="cls-1" d="M37.67008,6.70822c-.17394-.13625-.333-.25372-.48383-.381-.15262-.12882-.297-.26735-.50964-.46021a21.11454,21.11454,0,0,1,5.01294-3.3064l1.16813.88481A22.5992,22.5992,0,0,0,37.67008,6.70822Z"/><path class="cls-1" d="M13.25879,55.43271l-1.48084.701a14.31355,14.31355,0,0,0-4.643-.78595l-.7807-1.12436C7.67766,53.68113,11.9629,54.54,13.25879,55.43271Z"/><path class="cls-1" d="M27.90262,29.506l-.54968,1.4126-4.2266,2.80419-.808-.87718a21.4708,21.4708,0,0,1,5.44212-3.44289Z"/><path class="cls-1" d="M44.87581,5.56159l.75268,1.04035c-.81314.38556-1.60548.72339-2.36074,1.13007-.747.40224-1.45657.874-2.2352,1.34726l-1.64131-.268A18.2292,18.2292,0,0,1,44.87581,5.56159Z"/><path class="cls-1" d="M54.37646,46.17919l.26731,1.29731c-.615-.05-1.14742-.11556-1.68123-.13067a15.3768,15.3768,0,0,0-1.64921.0371c-.54706.04344-1.08968.14273-1.706.2274l-1.523-.83677A12.51311,12.51311,0,0,1,54.37646,46.17919Z"/><path class="cls-1" d="M12.91152,37.58533l-1.50976.71c-.90856-.20656-1.7816-.4051-2.65469-.60347a.829.829,0,0,0-.21963-.04548c-1.13124.06838-1.87584-.68053-2.86775-1.30624A13.97713,13.97713,0,0,1,12.91152,37.58533Z"/><path class="cls-1" d="M59.44635,36.061l-1.4341-.39251a12.29045,12.29045,0,0,1,5.35823-2.4212c.0251.501.01425.54184-.33809,1.28358Z"/><path class="cls-1" d="M49.74083,60.16017a12.81062,12.81062,0,0,1-5.082,2.90111l-1.26808-.34608A15.01474,15.01474,0,0,1,49.74083,60.16017Z"/><path class="cls-1" d="M4.70173,43.02373l.39351-1.26019a22.034,22.034,0,0,1,3.71265,3.33353L6.988,45.02074Z"/><path class="cls-1" d="M46.04194,7.29525l.561,1.09513-2.92949,1.3527-1.60009-.45077A14.83615,14.83615,0,0,1,46.04194,7.29525Z"/><path class="cls-1" d="M53.48114,17.18185l-1.66245.04146L49.3254,15.09824a5.89594,5.89594,0,0,1,2.07467.03759A16.19318,16.19318,0,0,1,53.48114,17.18185Z"/><path class="cls-1" d="M6.99133,38.24533a11.47474,11.47474,0,0,1,3.42084.56522l-1.42749.89251-2.71662-.19312A3.68061,3.68061,0,0,1,6.99133,38.24533Z"/><path class="cls-1" d="M26.54439,32.42909l-1.12222,1.62343.19777.36508-1.07371.834-.86137-.931A10.33965,10.33965,0,0,1,26.54439,32.42909Z"/><path class="cls-1" d="M47.33111,10.32507l-1.0388.41286-1.6172-.6706a9.14306,9.14306,0,0,1,2.23662-.92454Z"/><path class="cls-1" d="M42.24234,63.54508a12.116,12.116,0,0,1-5.51709-.44539A18.96328,18.96328,0,0,1,42.24234,63.54508Z"/><path class="cls-1" d="M52.88478,49.98545l1.78547-1.39057a4.12474,4.12474,0,0,1,.0488,1.57767l-.80424.67329Z"/><path class="cls-1" d="M23.375,48.89141l-1.49759,1.20944-1.56771-1.11723A6.89959,6.89959,0,0,1,23.375,48.89141Z"/><path class="cls-1" d="M7.762,56.07021a10.7795,10.7795,0,0,1,3.078.54655L9.34741,57.556A5.89971,5.89971,0,0,1,7.762,56.07021Z"/><path class="cls-1" d="M38.27994,39.61963l-1.49167,1.19716L35.228,39.70329A6.69687,6.69687,0,0,1,38.27994,39.61963Z"/><path class="cls-1" d="M37.43631,3.96663,35.90013,5.20585,34.29964,4.053A9.93583,9.93583,0,0,1,37.43631,3.96663Z"/><path class="cls-1" d="M50.5893,48.23017a6.91651,6.91651,0,0,1,3.05464-.09172L52.14677,49.345Z"/><path class="cls-1" d="M51.69914,31.53877,50.1357,30.41548a8.06237,8.06237,0,0,1,3.09981-.11454Z"/><path class="cls-1" d="M34.75974,21.8751a7.495,7.495,0,0,1,3.07446-.0605l-1.49461,1.19325Z"/><path class="cls-1" d="M7.56924,22.564l-1.499,1.19722L4.48656,22.63165A7.67657,7.67657,0,0,1,7.56924,22.564Z"/><path class="cls-1" d="M22.95318,31.07143l-1.52953,1.21644-1.56078-1.11445A7.55081,7.55081,0,0,1,22.95318,31.07143Z"/><path class="cls-1" d="M20.95835,14.473l-1.557-1.1333a9.46527,9.46527,0,0,1,3.09149-.09153A17.57451,17.57451,0,0,1,20.95835,14.473Z"/><path class="cls-1" d="M38.72083,57.42846l-1.497,1.1957L35.74421,57.5575A5.69235,5.69235,0,0,1,38.72083,57.42846Z"/><path class="cls-1" d="M6.49652,41.58425l-.97645-.748.23408-.51126a6.00362,6.00362,0,0,1,2.26428.04631Z"/><path class="cls-1" d="M27.4958,35.57123l-.84821.61219-1.69751-.27688a7.16518,7.16518,0,0,1,1.47671-1.11935Z"/><path class="cls-1" d="M57.20309,17.09087l-.72342.512-1.64429-.23928c.29476-.47551.71877-.63719,1.06108-.96349Z"/><path class="cls-1" d="M62.60644,35.63632l-.75656,1.317-1.44057-.57873,2.08458-.8786Z"/><path class="cls-1" d="M4.29414,45.23951l.21713-1.42116L5.97,45.02332Z"/><path class="cls-1" d="M17.27426,11.01637l-1.258.47008-1.52856-.62682A5.53612,5.53612,0,0,1,17.27426,11.01637Z"/><path class="cls-1" d="M55.16646,16.08378l-.78752.62239-.88976-.98125C54.14475,15.53329,54.57431,15.90434,55.16646,16.08378Z"/></g></svg>