<svg xmlns="http://www.w3.org/2000/svg" xmlns:xlink="http://www.w3.org/1999/xlink" viewBox="0 0 205.14877 112.63596"><defs><style>.cls-1{fill:none;}.cls-2,.cls-3{fill:#fff;}.cls-3{opacity:0.5;}.cls-4{fill:#d70051;}.cls-5{opacity:0.26;fill:url(#新增圖樣);}</style><pattern id="新增圖樣" data-name="新增圖樣" width="35.91443" height="35.91443" patternTransform="translate(0 103.08772)" patternUnits="userSpaceOnUse" viewBox="0 0 35.914 35.914"><rect class="cls-1" width="35.91443" height="35.91443"/><rect class="cls-2" y="17.95722" width="17.95722" height="17.95722"/><rect class="cls-3" x="17.95722" y="17.95722" width="17.95722" height="17.95722"/><rect class="cls-3" width="17.95722" height="17.95722"/><rect class="cls-2" x="17.95722" width="17.95722" height="17.95722"/></pattern></defs><g id="圖層_4" data-name="圖層 4"><path class="cls-4" d="M45.88436,97.88161a98.97988,98.97988,0,0,1,113.35286.00014l45.91155-65.564A178.8795,178.8795,0,0,0,0,32.34792L45.88416,97.88175Z"/><path class="cls-5" d="M45.88436,97.88161a98.97988,98.97988,0,0,1,113.35286.00014l45.91155-65.564A178.8795,178.8795,0,0,0,0,32.34792L45.88416,97.88175Z"/><path class="cls-4" d="M45.88436,112.63582a98.9799,98.9799,0,0,1,113.35286.00014l45.91155-65.564A178.87952,178.87952,0,0,0,0,47.10213L45.88416,112.636Z"/><g id="logo"><polygon class="cls-2" points="96.58 33.628 102.007 36.767 102.007 30.488 96.58 33.628"/><polygon class="cls-2" points="108.543 33.628 103.108 30.488 103.108 36.767 108.543 33.628"/><polygon class="cls-2" points="102.557 30.17 96.58 33.628 102.557 37.085 102.557 30.17"/><polygon class="cls-2" points="102.557 30.17 108.543 33.628 102.557 37.085 102.557 30.17"/><path class="cls-2" d="M115.9052,38.46116a1.38039,1.38039,0,1,0-2.76077,0,1.37345,1.37345,0,0,0,.688,1.19547v11.4473l-2.606-1.50509V37.34309a1.37928,1.37928,0,1,0-2.07272-1.18687,1.35943,1.35943,0,0,0,.688,1.18687v13.047l.344.19782,2.95,1.7029-9.8906,5.71075V54.99136l3.638-2.10712.344-.19782V39.65663a1.37343,1.37343,0,0,0,.688-1.19547,1.38469,1.38469,0,0,0-2.76937,0,1.37344,1.37344,0,0,0,.68805,1.19547V51.89517l-2.606,1.5051V41.96157a1.38039,1.38039,0,1,0-1.38469,0v11.4387l-2.606-1.5051V39.65663a1.37344,1.37344,0,0,0,.68805-1.19547,1.37611,1.37611,0,1,0-2.75217,0,1.37343,1.37343,0,0,0,.688,1.19547V52.695l.344.19781L101.84334,55v3.01019l-9.8734-5.71935,2.95-1.7029.35262-.19782v-13.047a1.35943,1.35943,0,0,0,.688-1.18687,1.3804,1.3804,0,1,0-2.07272,1.18687V49.59024l-2.606,1.49649V39.648a1.37609,1.37609,0,1,0-1.37609,0V52.68642l.344.20642,11.96333,6.89762.344.19781.344-.19781,11.96333-6.89762.344-.20641V39.65663A1.38111,1.38111,0,0,0,115.9052,38.46116Z"/></g><path class="cls-2" d="M129.08979,74.98758v-1.5481c0-1.41908-.86005-3.122-4.9883-3.122h-2.70916c-1.29008,0-1.72011-.29241-1.72011-.43v-.78265c0-.41282.41283-.61924,1.22988-.61924h2.88977a1.26433,1.26433,0,0,0,1.26428-1.25567,1.30212,1.30212,0,0,0-1.22127-1.35889h-2.54576c-3.68962,0-4.24865,1.96952-4.24865,3.14779v1.03207c0,1.31587.82565,2.88977,4.75609,2.88977h2.65756c.96325,0,1.99532.172,1.99532.67084v1.31588c0,.39562-.85146.53323-1.5739.53323h-6.01176a1.21223,1.21223,0,0,0-1.26428,1.29008,1.22613,1.22613,0,0,0,1.28148,1.32448h5.64194C128.29855,78.07516,129.08979,76.39806,129.08979,74.98758Z"/><path class="cls-2" d="M114.56351,71.86559a2.90078,2.90078,0,0,0,.73965-1.97812v-.559a3.00965,3.00965,0,0,0-1.08367-2.61456,4.21368,4.21368,0,0,0-2.76076-.83425h-6.86322a1.101,1.101,0,0,0-1.16967,1.24708v9.70138a1.101,1.101,0,0,0,1.16967,1.24708h7.09543c3.44021,0,3.95624-2.08132,3.95624-3.3198v-.59344A2.77969,2.77969,0,0,0,114.56351,71.86559Zm-1.6943,3.165c0,.36982-.82565.40422-1.17827.40422H106.0662v-6.932h5.39252c1.05787,0,1.05787.32682,1.05787.54184v1.11806c0,.19782,0,.54184-1.16967.54184H109.3688a1.32131,1.32131,0,0,0-1.19547,1.14387,1.29526,1.29526,0,0,0,.98045,1.45349.5939.5939,0,0,0,.215.0344h1.97812c.258,0,1.52229.0258,1.52229.54183Z"/><path class="cls-2" d="M99.40939,70.78192l-2.57155,3.40581-.03441.0344a2.11533,2.11533,0,0,1-1.63409.75685,2.08,2.08,0,0,1-1.5739-.78265l-2.692-3.44021v5.96877a1.29788,1.29788,0,0,1-1.29868,1.32448,1.33108,1.33108,0,0,1-1.29868-1.35028v-9.237c0-1.30728.75684-1.5825,1.40188-1.5825a1.68331,1.68331,0,0,1,1.42769.817l4.09385,5.23772c1.20407-1.5997,3.99924-5.32372,3.99064-5.30652a1.59776,1.59776,0,0,1,1.36748-.75685c.66224,0,1.44489.27522,1.44489,1.6169v9.194a1.38682,1.38682,0,0,1-1.39328,1.36748A1.25905,1.25905,0,0,1,99.418,76.68188v-5.9Z"/><path class="cls-2" d="M78.86275,73.15566v3.48322a1.21161,1.21161,0,0,1-.516,1.18687,1.56091,1.56091,0,0,1-1.5653.0516,1.30813,1.30813,0,0,1-.72244-1.16107V69.19082c0-2.36514,1.16107-3.3198,3.99924-3.3198H81.4515a1.219,1.219,0,0,1,1.30728,1.29008,1.24189,1.24189,0,0,1-1.30728,1.34168H80.213c-1.35028,0-1.35028.172-1.35028.66224V70.4981H86.07a1.32494,1.32494,0,0,1,0,2.649H78.86275Z"/></g></svg>