<svg xmlns="http://www.w3.org/2000/svg" xmlns:xlink="http://www.w3.org/1999/xlink" viewBox="0 0 106.93842 36.72757"><defs><style>.cls-1{fill:none;}.cls-2{fill:#a8c0c2;}.cls-3{fill:#fff;}.cls-4{stroke:#a8c0c2;stroke-miterlimit:10;fill:url(#新增圖樣_2);}</style><pattern id="新增圖樣_2" data-name="新增圖樣 2" width="12.75589" height="8.50394" patternTransform="translate(13.89829 12.09947)" patternUnits="userSpaceOnUse" viewBox="0 0 12.756 8.504"><rect class="cls-1" width="12.75589" height="8.50394"/><circle class="cls-2" cx="12.756" cy="8.50403" r="1.41732"/><circle class="cls-2" cx="0.00011" cy="8.50403" r="1.41732"/><circle class="cls-2" cx="12.756" cy="0.0001" r="1.41732"/><circle class="cls-2" cx="6.37805" cy="4.25206" r="1.41732"/><circle class="cls-2" cx="0.00011" cy="0.0001" r="1.41732"/></pattern></defs><g id="圖層_4" data-name="圖層 4"><path class="cls-3" d="M80.68478,7.07253A6.57252,6.57252,0,0,0,74.11225.5H7.0725a6.57253,6.57253,0,0,0,0,13.14506H74.11225A6.57252,6.57252,0,0,0,80.68478,7.07253Z"/><path class="cls-3" d="M99.86592,23.08254H59.086a4.68672,4.68672,0,0,1,.7573-9.31229H40.66985a4.68672,4.68672,0,0,1,.75729,9.31229h-8.601a6.57252,6.57252,0,0,0,0,13.145H99.86592a6.57252,6.57252,0,0,0,0-13.145Z"/><path class="cls-4" d="M80.68478,7.07253A6.57252,6.57252,0,0,0,74.11225.5H7.0725a6.57253,6.57253,0,0,0,0,13.14506H74.11225A6.57252,6.57252,0,0,0,80.68478,7.07253Z"/><path class="cls-4" d="M99.86592,23.08254H59.086a4.68672,4.68672,0,0,1,.7573-9.31229H40.66985a4.68672,4.68672,0,0,1,.75729,9.31229h-8.601a6.57252,6.57252,0,0,0,0,13.145H99.86592a6.57252,6.57252,0,0,0,0-13.145Z"/></g></svg>