<svg id="圖層_1" data-name="圖層 1" xmlns="http://www.w3.org/2000/svg" viewBox="0 0 466.33606 63.66142"><defs><style>.cls-1,.cls-6{fill:#f7b763;}.cls-2,.cls-5{fill:#3f79c0;}.cls-3,.cls-4{fill:#fff;}.cls-3,.cls-5,.cls-6{fill-rule:evenodd;}</style></defs><path class="cls-1" d="M188.676,63.41135a11.278,11.278,0,0,1-7.97-2.696q-2.89507-2.6955-2.9-8.414V6.45738a17.35978,17.35978,0,0,1,6.09-3.257,24.31943,24.31943,0,0,1,7.41-1.149,18.922,18.922,0,0,1,5.13.703,13.61892,13.61892,0,0,1,4.45,2.133,10.59694,10.59694,0,0,1,3.12,3.633,10.83636,10.83636,0,0,1,1.17005,5.156v25.641a13.21237,13.21237,0,0,0-2.51.469,14.72658,14.72658,0,0,0-2.48.937,8.44319,8.44319,0,0,0-1.92005,1.242,1.88837,1.88837,0,0,0-.77991,1.383,1.23808,1.23808,0,0,0,.25989.82,2.62773,2.62773,0,0,0,.63.539,14.78741,14.78741,0,0,1,6-3.046,32.28331,32.28331,0,0,1,7.79-.844h11.11a23.46667,23.46667,0,0,1,1.26,2.554,22.44747,22.44747,0,0,1,.96,2.719,23.26933,23.26933,0,0,1,.63,2.742,14.61983,14.61983,0,0,1,.24011,2.532,24.00868,24.00868,0,0,1-.26,3.445,23.13133,23.13133,0,0,1-.7301,3.352,18.8453,18.8453,0,0,1-1.12,2.953,9.89509,9.89509,0,0,1-1.5,2.297Z"/><path class="cls-2" d="M123.266,18.05637h41.32306a7.087,7.087,0,0,1,7.087,7.087v14.17a7.09,7.09,0,0,1-7.09,7.09H123.263a7.087,7.087,0,0,1-7.087-7.087v-14.17A7.09,7.09,0,0,1,123.266,18.05637Z"/><path class="cls-3" d="M164.756,35.37339a1.75849,1.75849,0,1,1-1.76,1.759A1.761,1.761,0,0,1,164.756,35.37339Z"/><path class="cls-3" d="M157.816,35.37339a1.75849,1.75849,0,1,1-1.76,1.759A1.76109,1.76109,0,0,1,157.816,35.37339Z"/><path class="cls-3" d="M161.33606,30.48539a1.75849,1.75849,0,1,1-1.76,1.758A1.76089,1.76089,0,0,1,161.33606,30.48539Z"/><path class="cls-3" d="M164.756,25.52738a1.75849,1.75849,0,1,1-1.76,1.759A1.761,1.761,0,0,1,164.756,25.52738Z"/><path class="cls-3" d="M157.816,25.52738a1.75849,1.75849,0,1,1-1.76,1.759A1.7611,1.7611,0,0,1,157.816,25.52738Z"/><circle class="cls-4" cx="130.276" cy="37.11839" r="1.76001"/><circle class="cls-4" cx="123.33606" cy="37.11839" r="1.76001"/><path class="cls-3" d="M126.85608,30.47135a1.75852,1.75852,0,1,1-1.76,1.758A1.76093,1.76093,0,0,1,126.85608,30.47135Z"/><path class="cls-3" d="M130.276,25.51334a1.75852,1.75852,0,1,1-1.76,1.759A1.76115,1.76115,0,0,1,130.276,25.51334Z"/><path class="cls-3" d="M152.21606,23.90836v16.643a1.175,1.175,0,1,1-2.35,0v-16.643a1.175,1.175,0,1,1,2.35,0Z"/><path class="cls-3" d="M123.33606,25.51334a1.75852,1.75852,0,1,1-1.76,1.759A1.76115,1.76115,0,0,1,123.33606,25.51334Z"/><path class="cls-3" d="M138.176,23.90836v16.643a1.175,1.175,0,1,1-2.35,0v-16.643a1.175,1.175,0,1,1,2.35,0Z"/><path class="cls-5" d="M78.881,63.41135h-47.7a31.18149,31.18149,0,0,1,0-62.363h47.7C73.545,31.12534,75.148,49.12235,78.881,63.41135Z"/><path class="cls-6" d="M106.926,20.30637s-12.08,3.388-23.828-2.846l.004,30.099s-.328,16.07,13.834,15.849c14.17-.221,13.24-10.817,13.42-15.351,0,0-3.59-.842-3.47-7.788.13-6.946.04-19.963.04-19.963"/><path class="cls-1" d="M96.64913,63.66093A12.51129,12.51129,0,0,1,87.407,60.1414c-4.66114-4.68359-4.55665-12.50879-4.55469-12.58691l-.00391-30.09424a.24975.24975,0,0,1,.36719-.22071c11.51758,6.11182,23.52148,2.85987,23.64355,2.82618a.24638.24638,0,0,1,.21778.041.25052.25052,0,0,1,.09961.19776c.001.13037.08789,13.10009-.04,19.96972-.11426,6.63135,3.24414,7.53174,3.27832,7.54a.25132.25132,0,0,1,.1914.25293c-.01367.33545-.0205.70361-.02832,1.09912-.09765,4.9917-.27929,14.28369-13.63769,14.49219C96.84249,63.66,96.74581,63.66093,96.64913,63.66093ZM83.34835,17.87284l.00391,29.68653c-.002.08154-.09961,7.70068,4.41113,12.23144a12.11817,12.11817,0,0,0,9.16895,3.36768c12.876-.20117,13.05175-9.17871,13.1455-14.00195.00684-.32569.0127-.63282.02149-.919-.78711-.293-3.57031-1.77051-3.46289-7.97266.11719-6.26123.05469-17.59814.042-19.63867C104.71066,21.09306,93.88351,23.282,83.34835,17.87284Z"/><path class="cls-5" d="M99.926,9.48136a38.2695,38.2695,0,0,1-3.93-.233c-6.87-.756-12.253-3.119-12.016-5.273.156-1.412,2.686-2.386,6.346-2.677Z"/><path class="cls-5" d="M91.966,1.21635a37.14267,37.14267,0,0,1,4.89.226c6.87.756,12.25,3.118,12.01,5.272-.16,1.525-3.1,2.539-7.24,2.734Z"/><path class="cls-5" d="M83.098,11.03239s1.19,3.438,11.968,4.374c0,0,10.31,1.226,12.86-1.522l.47-4.751s-3.18006,2.244-12.03,1.137c-8.84-1.106-10.32-1.957-12.637-3.87l-.631,4.632"/><path class="cls-4" d="M15.81417,18.909a1.50122,1.50122,0,0,1-1.41308-2.00293C17.33175,8.6624,26.58566,7.35673,31.1462,7.81913h20.169a1.5,1.5,0,1,1,0,3H31.06808a1.46681,1.46681,0,0,1-.16016-.00879c-.4375-.04443-10.792-1.02294-13.68066,7.10059A1.49972,1.49972,0,0,1,15.81417,18.909Z"/><path class="cls-3" d="M60.244,7.13438a2.126,2.126,0,1,1-2.126,2.126A2.12683,2.12683,0,0,1,60.244,7.13438Z"/><path class="cls-1" d="M296.776,4.12534a14.19272,14.19272,0,0,1,2.74-1.805,20.29735,20.29735,0,0,1,3.21008-1.289,23.19476,23.19476,0,0,1,3.47-.773,24.17988,24.17988,0,0,1,3.47-.258,26.55655,26.55655,0,0,1,5.13.492,13.731,13.731,0,0,1,4.46,1.664,8.97849,8.97849,0,0,1,3.11011,3.141,9.49716,9.49716,0,0,1,1.16992,4.922v44.39a5.9235,5.9235,0,0,1-1.04993,3.563,7.486,7.486,0,0,1-2.81,2.32,14.38746,14.38746,0,0,1-4.03,1.242,28.98223,28.98223,0,0,1-4.71.375,28.49973,28.49973,0,0,1-3.03-.164,22.73367,22.73367,0,0,1-2.88-.492,24.0853,24.0853,0,0,1-2.53-.75,11.02972,11.02972,0,0,1-2.0199-.938q-2.01012-2.577-3.63-4.968-1.62012-2.391-2.98-4.594c-.9-1.469-1.75-2.867-2.53-4.195q-1.17-1.99347-2.25-3.774a1.47964,1.47964,0,0,0-1.08008.492,1.67871,1.67871,0,0,0-.27991.961,2.83937,2.83937,0,0,0,.38,1.383c.25.453.58,1.008.98,1.664l5.86,9.469v2.484c-.47.313-1.06.672-1.78,1.078a15.89093,15.89093,0,0,1-2.65,1.149,25.35792,25.35792,0,0,1-3.63.914,26.71778,26.71778,0,0,1-4.74.375,24.42533,24.42533,0,0,1-5.62-.609,14.3581,14.3581,0,0,1-4.45-1.805,8.69763,8.69763,0,0,1-2.91-2.977,8.05664,8.05664,0,0,1-1.03-4.125V5.71934a3.15473,3.15473,0,0,1,1.03-2.227,8.47306,8.47306,0,0,1,2.81-1.805A20.53236,20.53236,0,0,1,276.146.49235a27.96016,27.96016,0,0,1,5.11-.445,20.72381,20.72381,0,0,1,5.72009.75,11.64725,11.64725,0,0,1,3.99,1.828q1.01991,1.3125,2.25,3.117,1.21491,1.8045,2.56995,3.984,1.365,2.1795,2.84,4.641,1.47015,2.46149,3.02,5.039a1.60931,1.60931,0,0,0,.92-.305,1.14509,1.14509,0,0,0,.43994-1.007,2.81011,2.81011,0,0,0-.37-1.243c-.25-.484-.5199-.961-.79993-1.429l-5.06006-8.719Z"/><path class="cls-1" d="M376.676,1.76737a16.99788,16.99788,0,0,1,1.12,2.18,16.01666,16.01666,0,0,1,.84,2.484,26.12551,26.12551,0,0,1,.52,2.578,17.59541,17.59541,0,0,1,.19006,2.414q0,4.82848-1.88,7.172a6.24153,6.24153,0,0,1-5.15,2.344h-18.89q-1.74006,0-1.74,1.359v.375a.55816.55816,0,0,0,.09.375h22.41a11.215,11.215,0,0,1,.8,1.664,15.70027,15.70027,0,0,1,.63,2.016q.25488,1.0545.41992,2.156a14.14183,14.14183,0,0,1,.17,2.086,20.36144,20.36144,0,0,1-.57006,5.039,12.11741,12.11741,0,0,1-1.5,3.68H363.96606c-2.65,0-4.85.07-6.58007.211a32.28826,32.28826,0,0,0-4.11.539,6.65494,6.65494,0,0,0-2.1.726c-.41.266-.61.539-.61.821a2.02911,2.02911,0,0,0,.11.703,1.10834,1.10834,0,0,0,.54.562c.77991-.25,1.58-.469,2.39-.656a23.63359,23.63359,0,0,1,2.72-.445c1-.11,2.12-.196,3.35-.258q1.86-.09448,4.29-.094H377.136c.35009.5.69006,1.055,1.04,1.664a12.72592,12.72592,0,0,1,.91,2.11,19.88727,19.88727,0,0,1,.65991,2.742,22.1366,22.1366,0,0,1,.25,3.562,21.64716,21.64716,0,0,1-.17993,2.696,23.09789,23.09789,0,0,1-.57007,2.835,14.79042,14.79042,0,0,1-.98,2.672,9.474,9.474,0,0,1-1.45,2.203h-35.11a18.767,18.767,0,0,1-5.16-.679,11.7137,11.7137,0,0,1-4.17-2.11,9.95906,9.95906,0,0,1-2.80994-3.609,12.09243,12.09243,0,0,1-1.04-5.227V6.07938q0-2.25,5.21008-3.281a89.15037,89.15037,0,0,1,15.8899-1.031Z"/><path class="cls-4" d="M318.83606,20.38035v-7.283a10.27183,10.27183,0,0,1,2.16992-1.83905,11.92273,11.92273,0,0,1,2.41-1.158,12.81423,12.81423,0,0,1,2.5-.589,19.01679,19.01679,0,0,1,2.45007-.165,17.06384,17.06384,0,0,1,4.12.45905,8.75662,8.75662,0,0,1,3.1399,1.435,6.45946,6.45946,0,0,1,2.01,2.483,8.50432,8.50432,0,0,1,.70007,3.567v4.782H344.766a23.75544,23.75544,0,0,1,1.3501,2.207,14.88777,14.88777,0,0,1,.95,2.152,12.90519,12.90519,0,0,1,.59,2.262,14.7336,14.7336,0,0,1,.20007,2.575,13.50531,13.50531,0,0,1-.77,4.763,17.65492,17.65492,0,0,1-2.32007,4.211h-9.38a1.001,1.001,0,0,0-.04993.276c-.01.135-.02.239-.02.313a1.12423,1.12423,0,0,0,.24.735,1.26651,1.26651,0,0,0,.86.368h1.92v6.18a10.52783,10.52783,0,0,1-2.17,1.839,11.92051,11.92051,0,0,1-2.41,1.158,12.8856,12.8856,0,0,1-2.5.589,19.02573,19.02573,0,0,1-2.45.165,17.29228,17.29228,0,0,1-4.14-.459,8.52636,8.52636,0,0,1-3.14-1.435,6.503,6.503,0,0,1-1.99-2.483,8.50771,8.50771,0,0,1-.7-3.568v-3.678H312.256a17.2049,17.2049,0,0,1-2.29993-4.211,13.98908,13.98908,0,0,1-.75-4.763,17.08767,17.08767,0,0,1,.17994-2.575,12.04642,12.04642,0,0,1,.57006-2.262,16.13,16.13,0,0,1,.96-2.152,23.586,23.586,0,0,1,1.34-2.207h7.65a2.53091,2.53091,0,0,0,1.47-.294,1.18682,1.18682,0,0,0,.37-.993,1.28224,1.28224,0,0,0-.07995-.405Z"/><path class="cls-1" d="M328.80636,55.36552a20.88529,20.88529,0,0,1-4.97852-.56055,12.07468,12.07468,0,0,1-4.41113-2.04052,9.99508,9.99508,0,0,1-3.05176-3.79493,12.02287,12.02287,0,0,1-1.02929-5.04931v-.17774h-3.08008a3.50019,3.50019,0,0,1-2.83594-1.44824A20.81209,20.81209,0,0,1,306.66378,37.22a17.53041,17.53041,0,0,1-.958-5.95166,20.66615,20.66615,0,0,1,.22071-3.10449,15.55942,15.55942,0,0,1,.73535-2.91553,19.8308,19.8308,0,0,1,1.167-2.61816,27.18261,27.18261,0,0,1,1.53809-2.5332,3.49933,3.49933,0,0,1,2.88867-1.52442h3.08008v-5.4751a3.50088,3.50088,0,0,1,.8955-2.33789,13.80749,13.80749,0,0,1,2.90821-2.4624A15.542,15.542,0,0,1,322.278,6.79081a16.28819,16.28819,0,0,1,3.18359-.74951,21.23847,21.23847,0,0,1,7.86914.36768A12.26216,12.26216,0,0,1,337.7214,8.4373a9.96222,9.96222,0,0,1,3.085,3.80273,12.00921,12.00921,0,0,1,1.0293,5.0503v1.28222h2.93066A3.49934,3.49934,0,0,1,347.655,20.097a27.24487,27.24487,0,0,1,1.54883,2.53418,18.441,18.441,0,0,1,1.1709,2.6582,16.43824,16.43824,0,0,1,.73437,2.832,18.01468,18.01468,0,0,1,.24707,3.147A17.024,17.024,0,0,1,350.362,37.262a21.18765,21.18765,0,0,1-2.76074,5.03222,3.497,3.497,0,0,1-2.835,1.44824h-2.93066v4.37207a3.50272,3.50272,0,0,1-.91309,2.35791A14.08122,14.08122,0,0,1,338.03,52.91533a15.50425,15.50425,0,0,1-3.13769,1.50585,16.35172,16.35172,0,0,1-3.17774.749A22.44628,22.44628,0,0,1,328.80636,55.36552Zm-14.66016-18.623h4.68946a3.50018,3.50018,0,0,1,3.5,3.5v3.67774a5.11378,5.11378,0,0,0,.38281,2.1123,2.95774,2.95774,0,0,0,.917,1.146,5.07323,5.07323,0,0,0,1.87207.83057,14.3613,14.3613,0,0,0,5.29883.22021,9.33594,9.33594,0,0,0,1.80957-.42725,8.407,8.407,0,0,0,1.70605-.82324,6.22576,6.22576,0,0,0,.51368-.36377V45.14677a4.37947,4.37947,0,0,1-1.9961-1.37451,4.58983,4.58983,0,0,1-1.02343-2.94092c0-.12451.00781-.2876.02246-.48877l.00781-.10156a4.31618,4.31618,0,0,1,.31348-1.354,3.49877,3.49877,0,0,1,3.22656-2.14454h7.49316a12.26,12.26,0,0,0,.92188-1.91992,10.14323,10.14323,0,0,0,.55468-3.5542,11.24,11.24,0,0,0-.14648-1.9624,9.55185,9.55185,0,0,0-.4375-1.69141A11.61852,11.61852,0,0,0,343.029,25.929c-.0625-.11719-.12793-.23633-.19629-.35645h-4.49707a3.50017,3.50017,0,0,1-3.5-3.5V17.29033a5.094,5.094,0,0,0-.38184-2.11036,2.92385,2.92385,0,0,0-.92285-1.13525A5.31086,5.31086,0,0,0,331.63253,13.2a14.35764,14.35764,0,0,0-5.2666-.21777,9.29566,9.29566,0,0,0-1.81152.42773,8.42384,8.42384,0,0,0-1.70508.82276q-.26075.16479-.51367.36279v2.34912a3.50054,3.50054,0,0,1,2.63867,2.29248,4.68851,4.68851,0,0,1,.27148,1.54834,4.5922,4.5922,0,0,1-1.71191,3.748,5.65847,5.65847,0,0,1-3.62793,1.03906h-5.708c-.06641.11768-.13086.23633-.19433.35547a12.79322,12.79322,0,0,0-.75489,1.689,8.59335,8.59335,0,0,0-.40234,1.60156,13.67448,13.67448,0,0,0-.14063,2.0498,10.61837,10.61837,0,0,0,.542,3.57569A11.96619,11.96619,0,0,0,314.1462,36.74247Z"/><path class="cls-5" d="M387.45605,1.04838h47.7a31.18149,31.18149,0,0,1,0,62.363h-47.7C392.786,33.33439,391.186,15.33738,387.45605,1.04838Z"/><path class="cls-4" d="M436.88644,56.722a16.99576,16.99576,0,0,1-1.69824-.08155H415.01632a1.5,1.5,0,0,1,0-3h20.25a1.45361,1.45361,0,0,1,.16016.00879c.4375.04541,10.78906,1.02344,13.67675-7.1001a1.49976,1.49976,0,1,1,2.82618,1.00489C449.32882,54.87089,441.74679,56.722,436.88644,56.722Z"/><path class="cls-3" d="M406.08606,57.32536a2.126,2.126,0,1,1,2.13-2.126A2.12427,2.12427,0,0,1,406.08606,57.32536Z"/><path class="cls-6" d="M257.23608,29.01438s-12.08007,2.703-23.82006-2.271v24.018s-.33,12.824,13.84,12.648c14.16-.177,13.2301-8.633,13.41-12.25,0,0-3.59-.672-3.46-6.215.12-5.543.03-15.93.03-15.93"/><path class="cls-1" d="M246.96847,63.66142c-4.35547,0-7.77832-1.23145-10.17676-3.6626a13.75568,13.75568,0,0,1-3.626-9.24365V26.74345a.25.25,0,0,1,.34766-.23c11.52734,4.88428,23.54883,2.28418,23.668,2.25684a.25045.25045,0,0,1,.30469.24218c.001.10352.08886,10.45362-.03028,15.937-.123,5.24755,3.11914,5.9375,3.25684,5.96435a.25152.25152,0,0,1,.20312.25781c-.01367.26709-.0205.56055-.02832.875-.09765,4-.28027,11.4458-13.6289,11.6128C247.16183,63.66044,247.06417,63.66142,246.96847,63.66142Zm-13.30274-36.543V50.76152a13.50278,13.50278,0,0,0,3.48536,8.88965c2.35254,2.38232,5.7705,3.56591,10.10156,3.5083,12.86719-.16114,13.041-7.29346,13.13476-11.125.00586-.24268.01172-.47266.01954-.688-.79786-.25879-3.56543-1.51221-3.45118-6.40821.10743-4.94726.0459-13.86718.03223-15.61914C255.05831,29.68534,244.21163,31.44951,233.66573,27.11845Z"/><path class="cls-5" d="M239.57605,11.49339a6.64687,6.64687,0,0,1,11.89,0c1,2.00695,2.01,4.02,2.90992,5.816a4.41321,4.41321,0,0,1-3.95,6.391h-9.87a4.37634,4.37634,0,0,1-3.91-6.336C237.546,15.55436,238.566,13.52036,239.57605,11.49339Z"/><path class="cls-5" d="M234.766,6.57438a3.28729,3.28729,0,1,1-3.24,3.335A3.28988,3.28988,0,0,1,234.766,6.57438Z"/><path class="cls-5" d="M241.33606.00034a3.28688,3.28688,0,1,1-3.24,3.335A3.28356,3.28356,0,0,1,241.33606.00034Z"/><path class="cls-5" d="M250.146.00034a3.28688,3.28688,0,1,1-3.24,3.335A3.29226,3.29226,0,0,1,250.146.00034Z"/><path class="cls-5" d="M256.72607,6.57438a3.28729,3.28729,0,1,1-3.24,3.335A3.28352,3.28352,0,0,1,256.72607,6.57438Z"/></svg>