<svg xmlns="http://www.w3.org/2000/svg" viewBox="0 0 350.13808 618.79774"><defs><style>.cls-1{fill:#958bc2;}.cls-2{isolation:isolate;}</style></defs><g id="圖層_5" data-name="圖層 5"><path class="cls-1" d="M249.64018,316.74869a9.5373,9.5373,0,0,0-11.29556,15.37044c12.03369,8.84481,14.95713,31.28807,6.51515,50.03018-4.28212,9.50785-16.38712,28.45312-45.08459,30.27459,20.33669-16.71908,30.406-42.94179,23.61115-68.30076a62.91949,62.91949,0,0,0-23.32795-34.14689,29.81806,29.81806,0,0,0,3.75107-11.39947c.95483-8.37184-1.7503-16.53222-7.12317-23.55236,15.05827-8.18715,24.89415-21.66146,24.89386-36.8852a36.18443,36.18443,0,0,0-4.6864-17.678c.19341-14.68877-.885-38.82529-5.55828-49.9692a1.60816,1.60816,0,0,0-2.29619-.70729c-9.703,5.8655-20.36173,12.99755-26.77253,24.44519a2.15352,2.15352,0,0,0-.26108,1.22072,76.135,76.135,0,0,0-39.81446.32C136.0262,185.30523,124.882,176.331,114.711,169.687a1.605,1.605,0,0,0-2.319.64863c-4.799,11.02429-6.36059,37.78823-6.06807,53.03205a2.15442,2.15442,0,0,0,.25992.96793,35.61508,35.61508,0,0,0-2.804,13.8035c.00015,9.60216,3.91291,18.50795,10.58042,25.82876-7.85927,5.79287-13.06755,13.68416-14.10649,22.79748-1.03066,9.0356,2.20247,17.82584,8.45129,25.2002-21.46922,16.63336-32.28118,43.608-25.29916,69.66527,9.38109,35.01033,47.41556,55.37438,85.44842,46.12892a9.45315,9.45315,0,0,0,3.00464,1.253A112.14436,112.14436,0,0,0,195.52,431.69283c44.0599,0,61.88458-30.947,66.73252-41.71044C274.5924,362.58524,269.17048,331.10157,249.64018,316.74869Z"/><path class="cls-1" d="M125.75548,129.6881c30.21471,5.46164,53.43438-3.82782,62.27534-21.65981a58.94469,58.94469,0,0,1-31.332,8.6826c-32.56583.49014-59.8368-24.72673-60.57516-56.01675C96.64832,27.24281,125.42516,0,160.24009,0c.34,0,.68493.00467,1.025.00934C161.6391.00467,162.01314,0,162.38718,0c37.46236,0,68.40572,29.36678,68.87691,65.3622-.68492,39.04368-34.66433,70.64178-75.2939,70.02094A85.94156,85.94156,0,0,1,125.75548,129.6881Z"/><path class="cls-1" d="M275.4401,590.49382a.47313.47313,0,0,1-.33451-.80764l56.88414-56.88276a.47308.47308,0,1,1,.669.669l-56.88414,56.88276A.47159.47159,0,0,1,275.4401,590.49382Z"/><path class="cls-1" d="M201.28132,594.2682a.47267.47267,0,0,1-.334-.80672L267.312,527.09865a.47243.47243,0,1,1,.66811.66811l-66.36468,66.36283A.46976.46976,0,0,1,201.28132,594.2682Z"/><path class="cls-1" d="M107.47534,582.77272a.47267.47267,0,0,1-.33451-.80718l37.92261-37.92168a.47308.47308,0,1,1,.669.669l-37.92261,37.92168A.473.473,0,0,1,107.47534,582.77272Z"/><path class="cls-1" d="M27.24216,613.18954a.47244.47244,0,0,1-.33451-.80718l47.40314-47.40222a.47308.47308,0,1,1,.669.669L27.57668,613.05185A.47455.47455,0,0,1,27.24216,613.18954Z"/><g class="cls-2"><path class="cls-1" d="M98.74746,572.96552v3.89082H82.55122v-3.89082Z"/></g><path class="cls-1" d="M330.689,598.26146c-.98273.02017-1.96545.05731-2.94818.05783q-13.05488.00685-26.10973.00265h-1.60342c-.02919-.46514-.07574-.862-.07591-1.25889-.004-10.14116-.017-20.28238.03022-30.42332a2.98477,2.98477,0,0,1,.77232-1.854c2.04972-2.16191,4.18882-4.23907,6.51477-6.5652.03258.66482.06756,1.05126.068,1.43774.0041,4.011.02639,8.02236-.01572,12.033-.00931.88653.23672,1.17474,1.14687,1.16559,4.31333-.04335,8.62737-.01922,12.94115-.01913h1.43041v2.82635H307.40509c-.02736.52824-.06274.89522-.063,1.26221-.00347,5.78954.02,11.57925-.0242,17.36846-.00749.98271.33513,1.18646,1.23951,1.18221,6.84894-.03217,13.69805-.0192,20.54713-.01414.52816.00039,1.0563.04787,1.58444.07346Z"/><path class="cls-1" d="M330.689,556.92919a9.078,9.078,0,0,1-1.11474.13542q-9.9173.01252-19.83461.003c-.32324-.0002-.64651-.04657-.96975-.07145l-.19317-.29847c.83164-.75293,1.64254-1.53112,2.50878-2.24185a1.604,1.604,0,0,1,.95176-.23666q8.84052-.02019,17.68106-.00051a4.60932,4.60932,0,0,1,.97067.21245Z"/><path class="cls-1" d="M261.25843,585.85007V553.82052h3.20979v44.963a2.00052,2.00052,0,0,1-2.23668-.5633Q247.255,580.99992,232.23083,563.821c-.14738-.16887-.27915-.35138-.32408-.40832l4.62241-4.68763c8.0636,8.99881,16.2346,18.11749,24.40562,27.23616Z"/><path class="cls-1" d="M135.82039,595.87515h22.14646V598.657h-29.5916v-1.16851q0-17.76921-.0154-35.5384a2.37018,2.37018,0,0,1,.76116-1.89213c1.61139-1.54508,3.14588-3.17065,4.76578-4.70636a7.725,7.725,0,0,1,1.61442-.925l.31918.2595Z"/><path class="cls-1" d="M181.13736,595.10135c-.03237-.7056-.06379-1.072-.06388-1.43845-.00253-12.67678.01169-25.3536-.02644-38.03027-.0033-1.09929.30033-1.43743,1.39131-1.3788,1.66022.0892,3.32942.05084,4.99347.011.742-.01775,1.07787.14886,1.0759.9927-.02482,10.59546-.01426,21.191-.0265,31.7865a1.47618,1.47618,0,0,1-.24515.94878C185.963,590.30855,183.65574,592.59067,181.13736,595.10135Z"/><path class="cls-1" d="M38.66148,601.03444v-1.32982c0-10.0154.01326-20.03085-.02251-30.04612-.00323-.90326.231-1.37438,1.11177-1.63454,1.50814-.44546,2.97268-1.04014,4.48416-1.47193.8088-.23106,1.18264.1253,1.17857,1.07582-.03677,8.57907-.017,17.15837-.035,25.73756a1.9655,1.9655,0,0,1-.32616,1.25487C43.0357,596.70819,40.96193,598.74086,38.66148,601.03444Z"/><path class="cls-1" d="M231.25458,564.02458v1.12227q0,15.6036-.00036,31.20719c-.0001,1.47534-.00219,1.47558-1.47582,1.47746-.56354.00073-1.12706.00012-1.81669.00012-.02556-.56214-.06588-1.038-.06608-1.51389-.0037-9.34324.01072-18.68654-.0232-28.02967a2.80065,2.80065,0,0,1,.94714-2.28111,27.97442,27.97442,0,0,0,2.00364-2.26772Z"/><path class="cls-1" d="M38.1508,554.09968a3.84481,3.84481,0,0,1,7.689.02709,3.84476,3.84476,0,1,1-7.689-.02709Z"/><path class="cls-1" d="M172.06857,604.51433a.47313.47313,0,0,1-.33451-.80764l28.44207-28.44115a.47308.47308,0,1,1,.669.669l-28.44207,28.44115A.47159.47159,0,0,1,172.06857,604.51433Z"/><path class="cls-1" d="M85.49393,536.88044a.47314.47314,0,0,1-.33451-.80765l18.96153-18.96107a.47308.47308,0,1,1,.669.669L85.82845,536.74182A.4716.4716,0,0,1,85.49393,536.88044Z"/><path class="cls-1" d="M210.03554,538.39453a.47313.47313,0,0,1-.33452-.80764l28.44207-28.44161a.47308.47308,0,1,1,.669.669l-28.44207,28.44161A.47158.47158,0,0,1,210.03554,538.39453Z"/><path class="cls-1" d="M7.9743,549.5712a.47313.47313,0,0,1-.33452-.80764l47.40361-47.40175a.47307.47307,0,0,1,.669.669L8.30881,549.43259A.47158.47158,0,0,1,7.9743,549.5712Z"/><path class="cls-1" d="M76.82982,616.90247a.47313.47313,0,0,1-.33452-.80764l18.96154-18.96108a.47308.47308,0,1,1,.669.669L77.16433,616.76385A.47159.47159,0,0,1,76.82982,616.90247Z"/><path class="cls-1" d="M.47313,589.21721a.47313.47313,0,0,1-.33452-.80764L19.10015,569.4485a.47308.47308,0,0,1,.669.669L.80764,589.0786A.47158.47158,0,0,1,.47313,589.21721Z"/><path class="cls-1" d="M295.52624,534.15442a.47313.47313,0,0,1-.33452-.80764l28.44207-28.44161a.47308.47308,0,0,1,.669.669l-28.44207,28.44161A.47162.47162,0,0,1,295.52624,534.15442Z"/><path class="cls-1" d="M228.77714,618.79774a.47313.47313,0,0,1-.33451-.80764l18.96153-18.96061a.47308.47308,0,0,1,.669.669l-18.96153,18.96061A.47159.47159,0,0,1,228.77714,618.79774Z"/><path class="cls-1" d="M330.70342,615.10884a.47313.47313,0,0,1-.33451-.80764l18.96153-18.96108a.47308.47308,0,0,1,.669.669l-18.96153,18.96108A.47163.47163,0,0,1,330.70342,615.10884Z"/></g></svg>