<svg xmlns="http://www.w3.org/2000/svg" viewBox="0 0 46.72866 475.65767"><defs><style>.cls-1{fill:#d70051;}</style></defs><g id="圖層_4" data-name="圖層 4"><path class="cls-1" d="M9.52684,432.37388H37.20213c5.462-3.5968,8.59117-8.98577,8.59117-14.805,0-5.8195-3.12913-11.20847-8.59117-14.80528H9.52684C4.06449,406.36074.93536,411.74971.93536,417.56891S4.06449,428.77677,9.52684,432.37388Zm27.95327.93536H9.24885l-.11631-.07551C3.32856,429.46093,0,423.75135,0,417.56891c0-6.18275,3.32856-11.89233,9.13254-15.66513l.11631-.07551H37.48011l.11632.07551c5.80366,3.77249,9.13223,9.48238,9.13223,15.66513s-3.32857,11.89233-9.13223,15.66482Z"/><path class="cls-1" d="M11.66844,432.37388H35.06052a18.66846,18.66846,0,0,0,0-29.61025H11.66844a18.668,18.668,0,0,0,0,29.61025Zm23.75791.93536H11.30261l-.107-.12905a19.58434,19.58434,0,0,1,0-31.22287l.107-.12905H35.42635l.107.12905a19.58481,19.58481,0,0,1,0,31.22287Z"/><path class="cls-1" d="M13.81,432.37388H32.91892a21.26092,21.26092,0,0,0,0-29.61025H13.81a21.26015,21.26015,0,0,0,0,29.61025Zm19.56255.93536H13.35637l-.09774-.18258a22.14388,22.14388,0,0,1,0-31.1158l.09774-.18259H33.37259l.09774.18259a22.14462,22.14462,0,0,1,0,31.1158Z"/><path class="cls-1" d="M15.95164,432.37388H30.77732c2.99318-3.62756,4.70739-9.00206,4.70739-14.805,0-5.80321-1.71421-11.17772-4.70739-14.80528H15.95164c-2.99348,3.62817-4.7077,9.00268-4.7077,14.80528S12.95816,428.74571,15.95164,432.37388Zm15.36719.93536H15.41013l-.08846-.23612c-3.18591-3.74007-5.01309-9.391-5.01309-15.50421,0-6.11333,1.82718-11.76445,5.01309-15.50452l.08846-.23612h15.9087l.08846.23612c3.18576,3.73931,5.01278,9.39043,5.01278,15.50452,0,6.11393-1.827,11.7649-5.01278,15.50421Z"/><path class="cls-1" d="M18.09324,432.37388H28.63572c2.17022-3.63781,3.4128-9.00749,3.4128-14.805,0-5.79778-1.24258-11.16747-3.4128-14.80528H18.09324c-2.17052,3.63852-3.4131,9.00821-3.4131,14.80528S15.92272,428.73536,18.09324,432.37388Zm11.17183.93536H17.46389l-.07917-.28966c-2.31323-3.72915-3.63994-9.36059-3.63994-15.45067s1.32671-11.72182,3.63994-15.451l.07917-.28966H29.26507l.07917.28966c2.31312,3.72824,3.63964,9.35978,3.63964,15.451,0,6.091-1.32652,11.72243-3.63964,15.45067Z"/><path class="cls-1" d="M20.23484,432.37388h6.25928a45.4217,45.4217,0,0,0,2.1182-14.805,45.42243,45.42243,0,0,0-2.1182-14.80528H20.23484a52.79178,52.79178,0,0,0,0,29.61025Zm6.97648.93536H19.51764l-.06987-.3432c-1.44054-3.71824-2.2668-9.33014-2.2668-15.39713s.82626-11.6792,2.2668-15.39744l.06987-.3432h7.69368l.06987.3432c1.44049,3.71718,2.26649,9.32913,2.26649,15.39744,0,6.06806-.826,11.68-2.26649,15.39713Z"/><path class="cls-1" d="M22.37645,432.37388h1.97606a113.04441,113.04441,0,0,0,.82362-14.805,113.04631,113.04631,0,0,0-.82362-14.80528H22.37645a133.42956,133.42956,0,0,0,0,29.61025Zm2.78111.93536H21.5714l-.06059-.39673a132.17249,132.17249,0,0,1,0-30.6875l.06059-.39674h3.58616l.06059.39674a110.75573,110.75573,0,0,1,.89334,15.3439,110.75427,110.75427,0,0,1-.89334,15.3436Z"/><rect class="cls-1" x="8.26887" y="399.35795" width="30.19105" height="2.93806" rx="0.94166"/><rect class="cls-1" x="8.31952" y="432.94296" width="30.19105" height="2.93806" rx="0.94166"/><path class="cls-1" d="M22.00624,453.30673a1.07341,1.07341,0,0,1-.76133-.31483l-.03877-.03878a1.07792,1.07792,0,0,1,0-1.52267l.59512-.5951-1.15148-1.15147-.59511.59511a1.07792,1.07792,0,0,1-1.52266,0l-.03876-.03877a1.07942,1.07942,0,0,1,0-1.52266l.03875-.03875a1.07941,1.07941,0,0,1,1.52266,0l.59511.59511,1.15148-1.15147-.59512-.59511a1.07944,1.07944,0,0,1,0-1.52267l.03875-.03875a1.07791,1.07791,0,0,1,1.52267,0l.59512.59511.59511-.59511a1.07793,1.07793,0,0,1,1.52267,0l.03876.03877a1.07791,1.07791,0,0,1,0,1.52266l-.59511.59511,1.15147,1.15147.59512-.59511a1.07941,1.07941,0,0,1,1.52266,0l.03875.03874a1.07944,1.07944,0,0,1,0,1.52268l-.03876.03876a1.07792,1.07792,0,0,1-1.52266,0l-.59512-.59511-1.15147,1.15147.59511.5951a1.07944,1.07944,0,0,1,0,1.52269l-.03874.03874a1.078,1.078,0,0,1-1.52268,0l-.59511-.59512-.59512.59512A1.07339,1.07339,0,0,1,22.00624,453.30673Zm0-2.26641-.59511.59512a.78954.78954,0,0,0,0,1.1127l.03876.03878a.78771.78771,0,0,0,1.11271,0l.59511-.5951Zm1.56143,1.15148.59511.5951a.78768.78768,0,0,0,1.11272,0l.03874-.03874a.78952.78952,0,0,0,0-1.11272l-.59511-.59512Zm-1.35646-1.35645,1.15148,1.15148,1.15147-1.15148-1.15147-1.15147Zm1.35646-1.35646,1.15147,1.15149,1.15147-1.15149-1.15147-1.15147Zm-2.7129,0,1.15147,1.15149,1.15147-1.15149-1.15147-1.15147Zm5.42579,0,.59512.59513a.78771.78771,0,0,0,1.11271,0l.03876-.03877a.78956.78956,0,0,0,0-1.11272l-.03875-.03874a.78952.78952,0,0,0-1.11272,0Zm-6.98721-.82519a.78437.78437,0,0,0-.55636.23008l-.03875.03875a.78956.78956,0,0,0,0,1.11272l.03876.03878a.78772.78772,0,0,0,1.11271,0l.59511-.59513-.59511-.59511A.78437.78437,0,0,0,19.29335,448.6537Zm2.91786-.53125,1.15148,1.15147,1.15147-1.15147L23.36269,446.971Zm-.205-2.18164a.7843.7843,0,0,0-.55636.23007l-.03874.03876a.78956.78956,0,0,0,0,1.11273l.59511.59511,1.15147-1.15147-.59511-.59513A.78444.78444,0,0,0,22.00624,445.94081Zm1.56143.8252,1.15147,1.15147.59511-.59511a.78954.78954,0,0,0,0-1.11272l-.03876-.03878a.78772.78772,0,0,0-1.11271,0Z"/><path class="cls-1" d="M23.46557,444.55486a.4678.4678,0,0,1-.46768-.46768V437.6033a.46768.46768,0,0,1,.93536,0v6.48388A.4678.4678,0,0,1,23.46557,444.55486Z"/><path class="cls-1" d="M23.46557,398.71132c-.2582,0-.46768-.359-.46768-.80149V.80149c0-.44275.20948-.80149.46768-.80149s.46768.35874.46768.80149V397.90983C23.93325,398.35232,23.72376,398.71132,23.46557,398.71132Z"/><path class="cls-1" d="M23.415,461.3222a.4678.4678,0,0,1-.46768-.46768v-6.48388a.46768.46768,0,0,1,.93536,0v6.48388A.4678.4678,0,0,1,23.415,461.3222Z"/><path class="cls-1" d="M21.642,475.65767a.46781.46781,0,0,1-.46768-.46768V462.47526a.46768.46768,0,1,1,.93536,0V475.19A.4678.4678,0,0,1,21.642,475.65767Z"/><path class="cls-1" d="M22.233,475.65767a.4678.4678,0,0,1-.46768-.46768V462.47526a.46768.46768,0,1,1,.93536,0V475.19A.46781.46781,0,0,1,22.233,475.65767Z"/><path class="cls-1" d="M22.82393,475.65767a.4678.4678,0,0,1-.46768-.46768V462.47526a.46768.46768,0,1,1,.93536,0V475.19A.4678.4678,0,0,1,22.82393,475.65767Z"/><path class="cls-1" d="M23.41487,475.65767a.4678.4678,0,0,1-.46768-.46768V462.47526a.46768.46768,0,1,1,.93536,0V475.19A.4678.4678,0,0,1,23.41487,475.65767Z"/><path class="cls-1" d="M24.00581,475.65767a.46781.46781,0,0,1-.46768-.46768V462.47526a.46768.46768,0,0,1,.93536,0V475.19A.4678.4678,0,0,1,24.00581,475.65767Z"/><path class="cls-1" d="M24.59676,475.65767a.4678.4678,0,0,1-.46768-.46768V462.47526a.46768.46768,0,0,1,.93536,0V475.19A.46781.46781,0,0,1,24.59676,475.65767Z"/><path class="cls-1" d="M25.1877,475.65767A.4678.4678,0,0,1,24.72,475.19V462.47526a.46768.46768,0,0,1,.93536,0V475.19A.4678.4678,0,0,1,25.1877,475.65767Z"/><path class="cls-1" d="M22.35644,460.80383h2.11721a.71436.71436,0,0,1,.71436.71436v.40007a0,0,0,0,1,0,0H21.64208a0,0,0,0,1,0,0v-.40007A.71436.71436,0,0,1,22.35644,460.80383Z"/></g></svg>