<svg width="100" height="101" viewBox="0 0 100 101" fill="none" xmlns="http://www.w3.org/2000/svg">
<mask id="mask0_66_149" style="mask-type:alpha" maskUnits="userSpaceOnUse" x="0" y="0" width="100" height="101">
<rect y="0.5" width="100" height="100" fill="#D9D9D9"/>
</mask>
<g mask="url(#mask0_66_149)">
<path d="M41.4596 88.0007C39.5846 88.0007 37.7964 87.6013 36.0951 86.8027C34.3937 86.0041 32.9527 84.8757 31.7721 83.4173L4.79297 50.1882L7.5013 47.584C8.82075 46.2645 10.3832 45.5007 12.1888 45.2923C13.9944 45.084 15.6263 45.5007 17.0846 46.5423L29.168 54.9798V13.0007C29.168 11.8201 29.5673 10.8305 30.3659 10.0319C31.1645 9.23329 32.1541 8.83398 33.3346 8.83398C34.5152 8.83398 35.5048 9.23329 36.3034 10.0319C37.102 10.8305 37.5013 11.8201 37.5013 13.0007V71.0215L25.9388 62.8965L38.2305 78.1048C38.6471 78.5909 39.1332 78.9729 39.6888 79.2507C40.2444 79.5284 40.8346 79.6673 41.4596 79.6673H70.8346C73.1263 79.6673 75.0881 78.8514 76.7201 77.2194C78.352 75.5875 79.168 73.6257 79.168 71.334V42.1673C79.168 40.9868 79.5673 39.9972 80.3659 39.1986C81.1645 38.4 82.1541 38.0007 83.3346 38.0007C84.5152 38.0007 85.5048 38.4 86.3034 39.1986C87.102 39.9972 87.5013 40.9868 87.5013 42.1673V71.334C87.5013 75.9173 85.8694 79.8409 82.6055 83.1048C79.3416 86.3687 75.418 88.0007 70.8346 88.0007H41.4596ZM45.8346 54.6673V29.6673C45.8346 28.4868 46.2339 27.4972 47.0325 26.6986C47.8312 25.9 48.8207 25.5007 50.0013 25.5007C51.1819 25.5007 52.1714 25.9 52.9701 26.6986C53.7687 27.4972 54.168 28.4868 54.168 29.6673V54.6673H45.8346ZM62.5013 54.6673V33.834C62.5013 32.6534 62.9006 31.6638 63.6992 30.8652C64.4978 30.0666 65.4874 29.6673 66.668 29.6673C67.8485 29.6673 68.8381 30.0666 69.6367 30.8652C70.4353 31.6638 70.8346 32.6534 70.8346 33.834V54.6673H62.5013Z" fill="white"/>
</g>
</svg>
